<svg xmlns="http://www.w3.org/2000/svg" xmlns:xlink="http://www.w3.org/1999/xlink" width="35" height="35.114" viewBox="0 0 35 35.114"><defs><style>.a{fill:#f4f4f4;}.b{fill:#fff;}.c{fill:url(#a);}.d{fill:#2f2f2f;}</style><linearGradient id="a" x1="0.5" x2="0.5" y2="1" gradientUnits="objectBoundingBox"><stop offset="0" stop-color="#37a0da"/><stop offset="1" stop-color="#0071bc"/></linearGradient></defs><g transform="translate(-0.647)"><ellipse class="a" cx="17.314" cy="17.322" rx="17.314" ry="17.322" transform="translate(0.833 0.186)"/><g transform="translate(1.118 0.471)"><circle class="b" cx="1.828" cy="1.828" r="1.828" transform="translate(30.402 15.2)"/><circle class="b" cx="1.828" cy="1.828" r="1.828" transform="translate(0 15.2)"/><circle class="b" cx="1.828" cy="1.828" r="1.828" transform="translate(15.201 30.516)"/><circle class="b" cx="1.828" cy="1.828" r="1.828" transform="translate(15.201)"/><circle class="b" cx="1.828" cy="1.828" r="1.828" transform="translate(26.701 26.717)"/><circle class="b" cx="1.828" cy="1.828" r="1.828" transform="translate(3.701 3.701)"/><circle class="b" cx="1.828" cy="1.828" r="1.828" transform="translate(3.676 26.791)"/><circle class="b" cx="1.828" cy="1.828" r="1.828" transform="translate(26.701 3.701)"/><circle class="c" cx="5.858" cy="5.858" r="5.858" transform="translate(11.172 11.166)"/></g><g transform="translate(8.347 7.692)"><rect class="d" width="0.936" height="0.936" transform="translate(9.328)"/><rect class="d" width="0.936" height="0.936" transform="translate(9.328 1.872)"/><rect class="d" width="0.936" height="0.936" transform="translate(9.328 16.779)"/><rect class="d" width="0.936" height="0.936" transform="translate(9.328 18.657)"/><rect class="d" width="0.936" height="0.936" transform="translate(18.657 9.328)"/><rect class="d" width="0.936" height="0.936" transform="translate(16.784 9.328)"/><rect class="d" width="0.936" height="0.936" transform="translate(1.877 9.328)"/><rect class="d" width="0.936" height="0.936" transform="translate(0 9.328)"/><rect class="d" width="0.936" height="0.936" transform="translate(16.389 3.905) rotate(-135)"/><rect class="d" width="0.936" height="0.936" transform="translate(15.046 5.197) rotate(-135)"/><rect class="d" width="0.936" height="0.936" transform="translate(4.561 14.398) rotate(45)"/><rect class="d" width="0.936" height="0.936" transform="translate(3.186 15.726) rotate(45)"/><rect class="d" width="0.936" height="0.936" transform="matrix(0.707, 0.707, -0.707, 0.707, 16.392, 15.756)"/><rect class="d" width="0.936" height="0.936" transform="matrix(-0.707, 0.707, -0.707, -0.707, 15.726, 15.042)"/><rect class="d" width="0.936" height="0.936" transform="matrix(-0.707, -0.707, 0.707, -0.707, 4.543, 5.215)"/><rect class="d" width="0.936" height="0.936" transform="matrix(-0.707, -0.707, 0.707, -0.707, 3.179, 3.873)"/></g><g transform="translate(15.24 14.707)"><circle class="b" cx="1.314" cy="1.314" r="1.314" transform="translate(1.593)"/><path class="b" d="M163.037,208.078a3.858,3.858,0,0,0,2.907-1.314,2.943,2.943,0,0,0-2.907-2.157,2.981,2.981,0,0,0-2.907,2.2A3.981,3.981,0,0,0,163.037,208.078Z" transform="translate(-160.13 -201.185)"/></g><g transform="translate(0.647)"><path class="d" d="M2.946,172.1a2.3,2.3,0,1,1,2.3-2.3A2.3,2.3,0,0,1,2.946,172.1Zm0-3.657A1.358,1.358,0,1,0,4.3,169.8,1.39,1.39,0,0,0,2.946,168.44Z" transform="translate(-0.647 -152.299)"/><path class="d" d="M337.944,172.1a2.3,2.3,0,1,1,2.3-2.3A2.3,2.3,0,0,1,337.944,172.1Zm0-3.657A1.358,1.358,0,1,0,339.3,169.8,1.358,1.358,0,0,0,337.944,168.44Z" transform="translate(-305.243 -152.299)"/><path class="d" d="M50.609,53.2a2.288,2.288,0,1,1,3.235,0A2.29,2.29,0,0,1,50.609,53.2Zm2.578-2.578a1.388,1.388,0,0,0-1.922,0,1.343,1.343,0,0,0,0,1.922,1.359,1.359,0,0,0,1.922-1.922Z" transform="translate(-46.202 -45.555)"/><path class="d" d="M287.344,290a2.288,2.288,0,1,1,3.235,0A2.29,2.29,0,0,1,287.344,290Zm2.578-2.534a1.359,1.359,0,1,0,0,1.922A1.343,1.343,0,0,0,289.922,287.463Z" transform="translate(-259.986 -259.383)"/><path class="d" d="M168.145,2.3a2.3,2.3,0,1,1,2.3,2.3A2.3,2.3,0,0,1,168.145,2.3Zm3.657,0a1.358,1.358,0,1,0-1.358,1.358A1.358,1.358,0,0,0,171.8,2.3Z" transform="translate(-152.944)"/><path class="d" d="M168.145,338.59a2.3,2.3,0,1,1,2.3,2.3A2.3,2.3,0,0,1,168.145,338.59Zm3.657,0a1.358,1.358,0,1,0-1.358,1.358A1.358,1.358,0,0,0,171.8,338.59Z" transform="translate(-152.944 -305.775)"/><path class="d" d="M287.99,49.962a2.288,2.288,0,1,1,0,3.235A2.29,2.29,0,0,1,287.99,49.962Zm2.579,2.578a1.359,1.359,0,1,0-1.922,0A1.389,1.389,0,0,0,290.569,52.54Z" transform="translate(-260.584 -45.555)"/><path class="d" d="M50.007,287.99a2.288,2.288,0,1,1,0,3.235A2.29,2.29,0,0,1,50.007,287.99Zm2.578,2.579a1.359,1.359,0,1,0-1.922,0A1.389,1.389,0,0,0,52.585,290.568Z" transform="translate(-45.649 -260.517)"/></g></g></svg>