<svg xmlns="http://www.w3.org/2000/svg" width="13.418" height="13.23" viewBox="0 0 13.418 13.23">
  <g id="Group_43075" data-name="Group 43075" transform="translate(-111 -201.753)">
    <path id="Path_33895" data-name="Path 33895" d="M0,4.566a.635.635,0,0,1,.6-.287c.938.014,1.876,0,2.814.006.392,0,.541.146.541.535q0,1.382,0,2.764c0,.395-.155.544-.561.544-.93,0-1.861-.006-2.791,0A.585.585,0,0,1,0,7.811Z" transform="translate(111 197.474)" fill="#4286f5"/>
    <path id="Path_33904" data-name="Path 33904" d="M26.772,32.7c-.473,0-.946,0-1.419,0-.394,0-.558-.16-.56-.556q-.008-1.371,0-2.742c0-.4.166-.555.561-.556q1.431,0,2.861,0c.382,0,.543.166.543.545q0,1.382,0,2.765c0,.379-.162.542-.543.544-.481,0-.961,0-1.442,0" transform="translate(90.943 177.603)" fill="#4286f5"/>
    <path id="Path_33905" data-name="Path 33905" d="M51.511,28.84c.473,0,.946,0,1.418,0,.4,0,.559.161.559.552q0,1.382,0,2.764c0,.366-.163.537-.527.538q-1.453.005-2.906,0c-.35,0-.519-.152-.522-.494q-.014-1.427,0-2.855c0-.354.172-.5.536-.5.48,0,.961,0,1.441,0" transform="translate(70.927 177.603)" fill="#4286f5"/>
    <path id="Path_33906" data-name="Path 33906" d="M26.847,4.306c.488,0,.976,0,1.464,0a.442.442,0,0,1,.5.5q0,1.416,0,2.832a.453.453,0,0,1-.51.505q-1.464,0-2.928,0c-.351,0-.512-.166-.513-.522q0-1.4,0-2.809c0-.359.156-.509.519-.511.488,0,.976,0,1.464,0" transform="translate(90.884 197.453)" fill="#4286f5"/>
    <path id="Path_33907" data-name="Path 33907" d="M51.552,4.306c.488,0,.976,0,1.464,0a.442.442,0,0,1,.505.5q0,1.416,0,2.832a.454.454,0,0,1-.51.506q-1.464,0-2.928,0c-.352,0-.513-.166-.514-.522q0-1.4,0-2.809c0-.359.156-.51.519-.511.488,0,.976,0,1.464,0" transform="translate(70.895 197.453)" fill="#4286f5"/>
    <path id="Path_33908" data-name="Path 33908" d="M26.839,57.291c-.488,0-.975,0-1.463,0-.35,0-.511-.152-.512-.494q-.005-1.426,0-2.852a.44.44,0,0,1,.5-.491q1.474-.005,2.949,0a.455.455,0,0,1,.5.512q0,1.415,0,2.83c0,.337-.166.5-.512.5-.488,0-.975,0-1.463,0" transform="translate(90.885 157.69)" fill="#4286f5"/>
    <path id="Path_33909" data-name="Path 33909" d="M51.534,57.294c-.488,0-.976,0-1.464,0-.345,0-.5-.158-.5-.505q0-1.416,0-2.831a.444.444,0,0,1,.508-.5q1.464,0,2.927,0a.457.457,0,0,1,.517.522q0,1.4,0,2.808c0,.353-.161.508-.523.51-.488,0-.976,0-1.464,0" transform="translate(70.895 157.688)" fill="#4286f5"/>
    <path id="Path_33910" data-name="Path 33910" d="M.159,30.753c0-.465,0-.929,0-1.394,0-.346.154-.518.493-.521q1.453-.01,2.907,0a.458.458,0,0,1,.5.519q0,1.405,0,2.811a.463.463,0,0,1-.523.522q-1.431.006-2.862,0c-.359,0-.516-.164-.518-.519,0-.472,0-.945,0-1.417" transform="translate(110.872 177.608)" fill="#4286f5"/>
  </g>
</svg>
