<svg xmlns="http://www.w3.org/2000/svg" width="12.775" height="12.774" viewBox="0 0 12.775 12.774">
  <g id="add" transform="translate(0.503 0.5)">
    <path id="Path" d="M10.51,4.626H7.231a.181.181,0,0,1-.168-.168v-3.2A1.172,1.172,0,0,0,5.886,0,1.239,1.239,0,0,0,4.625,1.262v3.28a.181.181,0,0,1-.168.168H1.262A1.128,1.128,0,0,0,0,5.887,1.293,1.293,0,0,0,1.262,7.149H4.541a.181.181,0,0,1,.168.168V10.6a1.148,1.148,0,0,0,1.177,1.177,1.293,1.293,0,0,0,1.261-1.261V7.233a.181.181,0,0,1,.168-.168h3.279a1.2,1.2,0,0,0,1.177-1.177A1.17,1.17,0,0,0,10.51,4.626Z" transform="translate(-0.003 0)" fill="#4286f5" stroke="#4286f5" stroke-width="1"/>
  </g>
</svg>
