<svg xmlns="http://www.w3.org/2000/svg" width="40.429" height="40.01" viewBox="0 0 40.429 40.01">
  <g id="Group_43095" data-name="Group 43095" transform="translate(-267.518 -474.036)">
    <g id="Group_30066" data-name="Group 30066" transform="translate(272.763 481.831)">
      <g id="Group_30061" data-name="Group 30061" transform="translate(0 0)">
        <g id="Group_28454" data-name="Group 28454" transform="translate(16.643 0)">
          <g id="Group_28453" data-name="Group 28453" transform="translate(0)">
            <path id="Path_19614" data-name="Path 19614" d="M261.5,158.54l-12.258,2.03h14.223a3.11,3.11,0,0,1,1.61.446A3.124,3.124,0,0,0,261.5,158.54Z" transform="translate(-249.246 -158.498)" fill="#72a8ff"/>
          </g>
        </g>
        <g id="Group_28456" data-name="Group 28456" transform="translate(0 5.1)">
          <g id="Group_28455" data-name="Group 28455" transform="translate(0 0)">
            <path id="Path_19615" data-name="Path 19615" d="M124.491,199.626l1.054,6.366v-9.158c0-.033,0-.065,0-.1A3.123,3.123,0,0,0,124.491,199.626Z" transform="translate(-124.449 -196.737)" fill="#72a8ff"/>
          </g>
        </g>
        <g id="Group_28458" data-name="Group 28458" transform="translate(33.989 11.65)">
          <g id="Group_28457" data-name="Group 28457" transform="translate(0 0)">
            <path id="Path_19616" data-name="Path 19616" d="M380.366,252.219l-1.054-6.366v9.159c0,.033,0,.065,0,.1A3.124,3.124,0,0,0,380.366,252.219Z" transform="translate(-379.309 -245.853)" fill="#72a8ff"/>
          </g>
        </g>
        <g id="Group_28460" data-name="Group 28460" transform="translate(2.611 23.487)">
          <g id="Group_28459" data-name="Group 28459" transform="translate(0 0)">
            <path id="Path_19617" data-name="Path 19617" d="M145.641,335.06a3.111,3.111,0,0,1-1.61-.447,3.125,3.125,0,0,0,3.575,2.476l12.256-2.03H145.641Z" transform="translate(-144.031 -334.613)" fill="#72a8ff"/>
          </g>
        </g>
      </g>
      <g id="Group_28462" data-name="Group 28462" transform="translate(1.097 2.073)">
        <g id="Group_28461" data-name="Group 28461" transform="translate(0 0)">
          <path id="Path_19618" data-name="Path 19618" d="M162.441,174.039H135.8a3.125,3.125,0,0,0-3.125,3.124v15.612A3.125,3.125,0,0,0,135.8,195.9h26.644a3.125,3.125,0,0,0,3.125-3.125V177.163A3.124,3.124,0,0,0,162.441,174.039Z" transform="translate(-132.672 -174.039)" fill="#b2cfff"/>
        </g>
      </g>
    </g>
    <g id="Group_30065" data-name="Group 30065" transform="translate(277.386 484.596)">
      <path id="Path_20581" data-name="Path 20581" d="M8.441,1.213,3.989.02a.579.579,0,0,0-.56.15L.17,3.429a.579.579,0,0,0-.15.56L1.213,8.441a.579.579,0,0,0,.41.41l4.452,1.193a.579.579,0,0,0,.56-.15L9.894,6.634a.579.579,0,0,0,.15-.56L8.851,1.622A.579.579,0,0,0,8.441,1.213Z" transform="translate(28.036 5.032) rotate(120)" fill="#fff"/>
      <line id="Line_798" data-name="Line 798" x2="26.513" transform="translate(0 16.194)" fill="none" stroke="#fafafa" stroke-linecap="round" stroke-width="2" stroke-dasharray="4.5 4"/>
    </g>
    <g id="Group_30062" data-name="Group 30062" transform="translate(267.518 474.037)" opacity="0.5">
      <path id="Path_20574" data-name="Path 20574" d="M337.239,138.466a1.917,1.917,0,1,0-1.916,1.974A1.946,1.946,0,0,0,337.239,138.466Zm0,0" transform="translate(-333.406 -118.21)" fill="#ea4335"/>
      <path id="Path_20576" data-name="Path 20576" d="M234.032,37.926a2.39,2.39,0,1,0-2.389,2.462A2.426,2.426,0,0,0,234.032,37.926Zm0,0" transform="translate(-205.172 -0.377)" fill="#ffe581"/>
      <path id="Path_20577" data-name="Path 20577" d="M16.145,436.442a1.917,1.917,0,1,0-1.916,1.974A1.945,1.945,0,0,0,16.145,436.442Zm0,0" transform="translate(17.87 -434.469)" fill="#35a853"/>
      <path id="Path_20578" data-name="Path 20578" d="M107.451,245.428a.891.891,0,0,1-.637-1.513l.01-.01a.89.89,0,0,1,1.274,1.244l-.009.01A.889.889,0,0,1,107.451,245.428Zm0,0" transform="translate(-67.922 -237.51)" fill="#fabc05"/>
      <path id="Path_20563" data-name="Path 20563" d="M152.585,137.274a.89.89,0,0,1-.46-1.653l.012-.007a.89.89,0,0,1,.917,1.526l-.012.007A.887.887,0,0,1,152.585,137.274Zm0,0" transform="translate(-147.351 -102.673)" fill="#ea4335"/>
      <path id="Path_20564" data-name="Path 20564" d="M165.093,159.191a.891.891,0,0,1-.463-1.652l.012-.007a.89.89,0,1,1,.923,1.523l-.012.007A.886.886,0,0,1,165.093,159.191Zm0,0" transform="translate(-158.352 -121.95)" fill="#fa0"/>
      <path id="Path_20548" data-name="Path 20548" d="M5.81,257.494a.89.89,0,0,1-.638-1.51l1.107-1.141a.89.89,0,1,1,1.278,1.24l-1.107,1.14A.887.887,0,0,1,5.81,257.494Zm0,0" transform="translate(25.288 -220.253)" fill="#35a853"/>
      <path id="Path_20580" data-name="Path 20580" d="M133.455,11.415a.89.89,0,0,1-.639-1.51l1.107-1.14A.89.89,0,1,1,135.2,10l-1.107,1.141A.889.889,0,0,1,133.455,11.415Zm0,0" transform="translate(-98.549 -6.007)" fill="#ea4335"/>
      <g id="Group_30064" data-name="Group 30064" transform="matrix(0.966, 0.259, -0.259, 0.966, 14.041, 4.608)">
        <path id="Path_20554" data-name="Path 20554" d="M.9,1.791A.891.891,0,0,0,1.537.278l-.01-.01A.89.89,0,0,0,.254,1.513l.009.01A.889.889,0,0,0,.9,1.791Zm0,0" transform="translate(2.102 0)" fill="#fabc05"/>
        <path id="Path_20555" data-name="Path 20555" d="M.9,1.791A.89.89,0,0,0,1.539.28L1.529.27A.891.891,0,0,0,.251,1.511l.01.01A.888.888,0,0,0,.9,1.791Zm0,0" transform="translate(0 2.165)" fill="#4286f5"/>
      </g>
    </g>
  </g>
</svg>
