<svg id="back" xmlns="http://www.w3.org/2000/svg" width="11.352" height="18.164" viewBox="0 0 11.352 18.164">
  <path id="Path" d="M11.345,16.262a1.881,1.881,0,0,0-.567-1.349l-6.03-5.83,6.03-5.83a1.9,1.9,0,0,0,.575-1.346A1.925,1.925,0,0,0,10.147.146a2.048,2.048,0,0,0-1.519,0A1.891,1.891,0,0,0,8,.56L.577,7.737a1.853,1.853,0,0,0,0,2.688L7.99,17.6a1.893,1.893,0,0,0,.631.414,2.047,2.047,0,0,0,1.519,0,1.893,1.893,0,0,0,.631-.414,1.869,1.869,0,0,0,.567-1.343" transform="translate(0 0)" fill="#fafafa"/>
</svg>
