<svg xmlns="http://www.w3.org/2000/svg" width="213.367" height="129.41" viewBox="0 0 213.367 129.41">
  <g id="Group_46537" data-name="Group 46537" transform="translate(-81.447 -420.302)">
    <circle id="Ellipse_1999" data-name="Ellipse 1999" cx="26.997" cy="26.997" r="26.997" transform="translate(81.447 495.719)" fill="#de8b86" opacity="0.264"/>
    <circle id="Ellipse_1999-2" data-name="Ellipse 1999" cx="13.378" cy="13.378" r="13.378" transform="matrix(0.799, -0.602, 0.602, 0.799, 242.234, 436.404)" fill="#de8b86" opacity="0.259"/>
    <g id="Group_42509" data-name="Group 42509" transform="translate(101.483 521.842) rotate(-82)">
      <g id="Group_42508" data-name="Group 42508" transform="translate(0 0)">
        <g id="Group_42507" data-name="Group 42507">
          <path id="Path_28709" data-name="Path 28709" d="M2.872,49.319q-.066-.792-.1-1.581L.059,47.87q.041.836.111,1.674.046.555.1,1.107l2.7-.287Q2.916,49.843,2.872,49.319Zm.452,3.655-2.675.439c.15.913.329,1.834.531,2.738l2.646-.593C3.634,54.7,3.466,53.835,3.324,52.973Zm-1.455,5.88c.254.887.537,1.781.843,2.658l2.561-.893c-.289-.828-.557-1.673-.8-2.509ZM2.994,28.7l2.543.94c.3-.817.633-1.639.985-2.443L4.037,26.108C3.665,26.96,3.314,27.831,2.994,28.7Zm1.7,3.436L2.1,31.341c-.27.885-.519,1.791-.738,2.692L4,34.673C4.2,33.823,4.44,32.968,4.695,32.132ZM3.449,37.251.782,36.765c-.167.916-.308,1.844-.42,2.756l2.691.331C3.159,38.991,3.293,38.117,3.449,37.251Zm-.643,5.223L.1,42.3c-.06.926-.094,1.863-.1,2.785l2.711.021C2.718,44.234,2.75,43.348,2.806,42.473Zm12.385-32.23,1.863,1.969c.635-.6,1.3-1.191,1.963-1.754L17.268,8.386C16.562,8.983,15.863,9.608,15.191,10.244Zm4.259-3.593L21.077,8.82c.7-.526,1.424-1.037,2.149-1.517l-1.5-2.259C20.959,5.553,20.193,6.094,19.451,6.651ZM5.228,23.585l2.418,1.227c.394-.777.817-1.555,1.259-2.314L6.562,21.135C6.095,21.938,5.646,22.763,5.228,23.585ZM31.639,0c-.864.321-1.733.671-2.583,1.044l1.088,2.484c.8-.351,1.622-.683,2.436-.984ZM24.092,3.57,25.46,5.912c.758-.443,1.535-.866,2.308-1.259L26.539,2.236C25.72,2.652,24.9,3.1,24.092,3.57ZM11.369,14.3l2.076,1.744c.561-.668,1.149-1.329,1.751-1.967l-1.974-1.86C12.586,12.893,11.962,13.593,11.369,14.3ZM8.033,18.766l2.262,1.5c.481-.728.991-1.452,1.515-2.154L9.638,16.485C9.083,17.228,8.543,18,8.033,18.766Z" fill="#fafafa"/>
        </g>
      </g>
    </g>
    <path id="Path_28709-2" data-name="Path 28709" d="M2.872,49.319q-.066-.792-.1-1.581L.059,47.87q.041.836.111,1.674.046.555.1,1.107l2.7-.287Q2.916,49.844,2.872,49.319Zm.452,3.655-2.675.439c.15.913.329,1.834.531,2.738l2.646-.593C3.634,54.7,3.466,53.835,3.324,52.973Zm-1.455,5.88c.254.887.537,1.781.843,2.658l2.561-.893c-.289-.828-.557-1.673-.8-2.509ZM2.994,28.7l2.543.94c.3-.817.633-1.639.985-2.443L4.037,26.108C3.665,26.96,3.314,27.831,2.994,28.7Zm1.7,3.436L2.1,31.341c-.27.885-.519,1.791-.738,2.692L4,34.673C4.2,33.823,4.44,32.968,4.695,32.132ZM3.449,37.251.782,36.765c-.167.917-.308,1.844-.42,2.756l2.691.331C3.159,38.991,3.293,38.117,3.449,37.251Zm-.643,5.223L.1,42.3c-.06.926-.094,1.863-.1,2.785l2.711.021C2.718,44.234,2.75,43.348,2.806,42.473Zm12.385-32.23,1.863,1.969c.635-.6,1.3-1.191,1.963-1.754L17.268,8.386C16.562,8.983,15.863,9.608,15.191,10.244Zm4.259-3.593L21.077,8.82c.7-.526,1.424-1.037,2.149-1.517l-1.5-2.259C20.959,5.553,20.193,6.094,19.451,6.651ZM5.228,23.585l2.418,1.227c.394-.777.817-1.555,1.259-2.314L6.562,21.135C6.095,21.938,5.646,22.763,5.228,23.585ZM31.639,0c-.864.321-1.733.671-2.583,1.044l1.088,2.484c.8-.351,1.622-.683,2.436-.984ZM24.092,3.57,25.46,5.912c.758-.443,1.535-.866,2.308-1.259L26.539,2.236C25.72,2.652,24.9,3.1,24.092,3.57ZM11.369,14.3l2.076,1.744c.561-.668,1.149-1.329,1.751-1.967l-1.974-1.86C12.586,12.893,11.963,13.593,11.369,14.3ZM8.033,18.766l2.262,1.5c.481-.728.991-1.452,1.515-2.154L9.638,16.485C9.083,17.228,8.543,18,8.033,18.766Z" transform="translate(294.814 442.871) rotate(98)" fill="#fafafa"/>
  </g>
</svg>
