<svg xmlns="http://www.w3.org/2000/svg" width="51.134" height="51.13" viewBox="0 0 51.134 51.13">
  <g id="Group_46514" data-name="Group 46514" transform="translate(1433.116 -8804)">
    <g id="Group_46341" data-name="Group 46341" transform="translate(-1433.116 8804)">
      <g id="Group_46337" data-name="Group 46337">
        <g id="Group_46336" data-name="Group 46336">
          <g id="Group_46335" data-name="Group 46335">
            <path id="Path_117213" data-name="Path 117213" d="M196.041,36.376s-2.193-.869-4.52-1.778c1-2.286,1.936-4.452,1.936-4.452a.7.7,0,0,0-.148-.775l-8.632-8.632a.7.7,0,0,0-.775-.148s-2.163.935-4.448,1.936c-.909-2.323-1.778-4.516-1.778-4.516a.7.7,0,0,0-.653-.444H164.812a.7.7,0,0,0-.653.444s-.869,2.192-1.778,4.516c-2.285-1-4.448-1.936-4.448-1.936a.7.7,0,0,0-.776.148l-8.636,8.631a.7.7,0,0,0-.148.776s.938,2.166,1.94,4.452c-2.327.909-4.52,1.778-4.52,1.778a.7.7,0,0,0-.444.653V49.235a.7.7,0,0,0,.444.653s2.193.869,4.52,1.778c-1,2.285-1.94,4.451-1.94,4.451a.7.7,0,0,0,.148.776l8.636,8.632a.7.7,0,0,0,.776.148s2.163-.935,4.448-1.936c.909,2.323,1.778,4.516,1.778,4.516a.7.7,0,0,0,.653.444h12.211a.7.7,0,0,0,.653-.444s.869-2.192,1.778-4.516c2.285,1,4.448,1.936,4.448,1.936a.7.7,0,0,0,.776-.148l8.632-8.632a.7.7,0,0,0,.148-.775s-.935-2.167-1.936-4.452c2.327-.91,4.52-1.778,4.52-1.778a.7.7,0,0,0,.444-.653V37.029A.7.7,0,0,0,196.041,36.376Zm-.962,12.382c-.857.339-2.827,1.116-4.751,1.866a.7.7,0,0,0-.388.937c.83,1.888,1.672,3.832,2.038,4.678l-7.957,7.956c-.845-.366-2.785-1.208-4.673-2.037a.7.7,0,0,0-.937.388c-.75,1.921-1.527,3.89-1.866,4.747H165.289c-.339-.857-1.116-2.826-1.866-4.747a.7.7,0,0,0-.937-.388c-1.888.829-3.828,1.671-4.673,2.037l-7.961-7.956c.367-.846,1.212-2.789,2.041-4.678a.7.7,0,0,0-.388-.937c-1.925-.75-3.894-1.527-4.751-1.866V37.506c.857-.339,2.827-1.116,4.751-1.866a.7.7,0,0,0,.388-.937c-.83-1.888-1.674-3.831-2.041-4.677l7.961-7.956c.845.366,2.785,1.208,4.673,2.037a.7.7,0,0,0,.937-.388c.75-1.921,1.527-3.89,1.866-4.747h11.256c.339.857,1.116,2.826,1.866,4.747a.7.7,0,0,0,.937.388c1.888-.829,3.828-1.671,4.673-2.037l7.957,7.956c-.366.846-1.208,2.789-2.038,4.678a.7.7,0,0,0,.388.937c1.924.75,3.894,1.527,4.751,1.866Z" transform="translate(-145.35 -17.567)" fill="#f8f8f8"/>
          </g>
        </g>
      </g>
      <g id="Group_46340" data-name="Group 46340" transform="translate(13.856 13.856)">
        <g id="Group_46339" data-name="Group 46339">
          <g id="Group_46338" data-name="Group 46338">
            <path id="Path_117214" data-name="Path 117214" d="M216.2,76.707A11.708,11.708,0,1,0,227.91,88.415,11.721,11.721,0,0,0,216.2,76.707Zm0,22.012a10.3,10.3,0,1,1,10.308-10.3A10.315,10.315,0,0,1,216.2,98.719Z" transform="translate(-204.489 -76.707)" fill="#f8f8f8"/>
          </g>
        </g>
      </g>
    </g>
    <g id="Group_46344" data-name="Group 46344" transform="translate(-1430.207 8806.909)">
      <g id="Group_46343" data-name="Group 46343" transform="translate(0 0)">
        <g id="Group_46342" data-name="Group 46342">
          <path id="Path_117215" data-name="Path 117215" d="M203.081,57.241V48.035c-1-.394-2.408-.948-3.793-1.488l-2.145-.836.926-2.108c.6-1.36,1.2-2.748,1.628-3.733l-1.764-1.766-4.747-4.743c-.984.427-2.37,1.031-3.728,1.628l-2.106.925-.837-2.143c-.54-1.383-1.094-2.791-1.488-3.79h-9.21c-.394,1-.948,2.407-1.488,3.79l-.836,2.143-2.107-.925c-1.358-.6-2.744-1.2-3.728-1.627l-6.514,6.51c.429.985,1.034,2.373,1.631,3.732l.926,2.108-2.145.836c-1.385.54-2.794,1.094-3.793,1.488V57.24c1,.394,2.407.948,3.793,1.488l2.145.836-.926,2.108c-.6,1.359-1.2,2.748-1.631,3.733l6.514,6.509c.984-.427,2.369-1.031,3.728-1.627l2.107-.925.836,2.143c.54,1.383,1.094,2.791,1.488,3.79h9.21c.394-1,.948-2.407,1.488-3.79l.837-2.143,2.106.925c1.358.6,2.744,1.2,3.728,1.627l4.745-4.741L199.7,65.4c-.427-.985-1.031-2.373-1.628-3.733l-.926-2.108,2.145-.836C200.673,58.189,202.082,57.635,203.081,57.241ZM180.42,65.85a13.212,13.212,0,1,1,13.217-13.212A13.227,13.227,0,0,1,180.42,65.85Z" transform="translate(-157.764 -29.982)" fill="#d89d9a"/>
        </g>
      </g>
    </g>
  </g>
</svg>
