<svg xmlns="http://www.w3.org/2000/svg" width="87.451" height="87.442" viewBox="0 0 87.451 87.442">
  <g id="Group_46538" data-name="Group 46538" transform="translate(-155 -440)">
    <path id="Path_28703" data-name="Path 28703" d="M245.215,82.585V64.821c-1.928-.76-4.646-1.829-7.32-2.871l-4.139-1.613,1.787-4.067c1.153-2.624,2.318-5.3,3.142-7.2l-3.4-3.409-9.16-9.153c-1.9.825-4.573,1.989-7.2,3.141l-4.065,1.786L213.248,37.3c-1.042-2.669-2.112-5.386-2.872-7.314H192.6c-.761,1.928-1.83,4.644-2.872,7.314l-1.614,4.136-4.065-1.786c-2.622-1.152-5.3-2.316-7.194-3.141l-12.57,12.562c.827,1.9,2,4.58,3.147,7.2l1.787,4.067-4.139,1.613c-2.674,1.042-5.392,2.111-7.32,2.871V82.585c1.928.76,4.646,1.83,7.32,2.871l4.139,1.612-1.787,4.068c-1.153,2.623-2.321,5.3-3.148,7.2l12.57,12.561c1.9-.825,4.573-1.989,7.194-3.141l4.065-1.786,1.614,4.136c1.042,2.669,2.111,5.386,2.872,7.313h17.773c.761-1.928,1.83-4.644,2.872-7.314l1.615-4.136,4.065,1.786c2.622,1.152,5.3,2.316,7.194,3.141l9.157-9.149,3.407-3.413c-.824-1.9-1.99-4.58-3.142-7.2l-1.787-4.068,4.139-1.612C240.57,84.415,243.288,83.345,245.215,82.585Z" transform="translate(-2.764 410.018)" fill="#d89e9b" opacity="0.997"/>
    <path id="Path_116993" data-name="Path 116993" d="M141.817,0l-4.551,2.842-2.289,1.429c-.8.463-1.609.913-2.4,1.391-1.145.691-2.278,1.4-3.431,2.114.731,1.279,1.418,2.5,2.13,3.7a.675.675,0,0,0,.466.312c1.795.01,3.589-.009,5.384-.021l2.7,0H149.5q4.181.01,8.362.016c.035,0,.069-.05.148-.11a7.984,7.984,0,0,1,.008-1.029,1.075,1.075,0,0,0-.7-1.212c-.717-.37-1.373-.859-2.07-1.271-1.15-.681-2.312-1.342-3.468-2.011l-1.564-1-1-.595c-1.211-.762-2.415-1.538-3.636-2.283-1.047-.639-2.115-1.242-3.174-1.861L141.959,0M125.792,18.041v9.021a8.9,8.9,0,0,1-.033,1.213,1.431,1.431,0,0,0,.975,1.734,13.6,13.6,0,0,1,1.545.935q1.932,1.155,3.87,2.3c.026.039.043.091.079.113,1.587.982,3.172,1.968,4.767,2.936.362.22.566.022.765-.323.837-1.449,1.666-2.905,2.586-4.3.4-.6.489-1.051-.031-1.565l-.616-1.046-1.518-2.676-1.7-3.005c-.483-.846-.956-1.7-1.454-2.536-.364-.613-.76-1.206-1.142-1.808l-1.149-2.146-1.693-3.01-.858-1.429L127.958,8.4c-.677.4-1.3.744-1.9,1.143a.81.81,0,0,0-.282.585c-.014,1.684,0,3.369.011,5.053q0,1.432,0,2.864M145.921,25.2l-1.284,2.146-2.543,4.283c-.491.769-1,1.528-1.47,2.308-.666,1.1-1.308,2.208-1.952,3.3.9.571,1.714,1.128,2.571,1.6a2.713,2.713,0,0,0,1,.113l3.012-1.843,1.111-.723,1.427-.865a.635.635,0,0,0,.207-.043c3.083-1.891,6.148-3.812,9.259-5.654a1.31,1.31,0,0,0,.76-1.329c-.023-4.865-.013-9.731-.013-14.6v-.78c-1.582,0-3.068-.019-4.554.021a.961.961,0,0,0-.606.46q-1.357,2.179-2.661,4.39c-.965,1.63-1.91,3.273-2.863,4.91l-1.4,2.3" transform="translate(57.272 464)" fill="#fafafa"/>
  </g>
</svg>
