<svg xmlns="http://www.w3.org/2000/svg" width="31" height="29" viewBox="0 0 31 29">
  <g id="icon_language" transform="translate(4037 -6466)">
    <circle id="Ellipse_540" data-name="Ellipse 540" cx="10.5" cy="10.5" r="10.5" transform="translate(-4027 6466)" fill="#0f6cb4"/>
    <path id="Path_16731" data-name="Path 16731" d="M100.549,96.629a.8.8,0,1,0,.769,1.4,9.158,9.158,0,0,0,3.958-4.293,9.16,9.16,0,0,0,3.958,4.293.8.8,0,0,0,.769-1.4,7.563,7.563,0,0,1-3.842-5.5h3.55a.8.8,0,1,0,0-1.6h-3.636V86.194a.8.8,0,1,0-1.6,0v3.332h-2.889a.8.8,0,1,0,0,1.6h2.8A7.562,7.562,0,0,1,100.549,96.629Zm0,0" transform="translate(-4120.822 6384.87)" fill="#fafafa"/>
    <path id="Path_10210" data-name="Path 10210" d="M335,100a11,11,0,1,0,11,11A11.007,11.007,0,0,0,335,100Z" transform="translate(-4361 6373)" fill="#79b8eb"/>
    <path id="Path_16732" data-name="Path 16732" d="M10.213,0H5.307V-.5a6.144,6.144,0,0,0,.806-.124q.463-.1.463-.244a.778.778,0,0,0-.01-.114.794.794,0,0,0-.054-.171L5.745-3.015H2.634q-.108.26-.238.609t-.225.622a3.247,3.247,0,0,0-.143.514,1.882,1.882,0,0,0-.022.222q0,.2.308.346A3.352,3.352,0,0,0,3.339-.5V0H-.355V-.5A3.413,3.413,0,0,0,.117-.562,1.274,1.274,0,0,0,.533-.711a1.614,1.614,0,0,0,.441-.375,1.984,1.984,0,0,0,.3-.527L2.752-5.186q.74-1.79,1.635-3.948h1.27Q6.9-6.075,7.6-4.3T8.8-1.352a1.465,1.465,0,0,0,.209.346,1.356,1.356,0,0,0,.362.3,1.441,1.441,0,0,0,.413.152,2.966,2.966,0,0,0,.425.063ZM5.484-3.644,4.177-6.906,2.888-3.644Z" transform="translate(-4031 6489)" fill="#fafafa"/>
  </g>
</svg>
