<svg xmlns="http://www.w3.org/2000/svg" width="31" height="29" viewBox="0 0 31 29">
  <g id="icon_currency" transform="translate(4037 -6466)">
    <circle id="Ellipse_540" data-name="Ellipse 540" cx="10.5" cy="10.5" r="10.5" transform="translate(-4027 6466)" fill="#0f6cb4"/>
    <path id="Path_10212" data-name="Path 10212" d="M6-3.6c0-1.38-.833-1.985-2.258-2.441-1.186-.376-1.471-.57-1.471-1.049s.4-.741,1.027-.741A2.456,2.456,0,0,1,4.953-7.2l.833-.981A3.347,3.347,0,0,0,3.893-9.1V-10.79h-1.3V-9.1A2.235,2.235,0,0,0,.436-6.957c0,1.118.616,1.814,2.316,2.35,1.106.342,1.38.582,1.38,1.141,0,.582-.456.935-1.2.935A2.674,2.674,0,0,1,1.041-3.3l-.924,1A3.9,3.9,0,0,0,2.592-1.22V.514h1.3v-1.8A2.347,2.347,0,0,0,6-3.6Z" transform="translate(-4019.22 6482.055)" fill="#fafafa"/>
    <path id="Path_10210" data-name="Path 10210" d="M335,100a11,11,0,1,0,11,11A11.007,11.007,0,0,0,335,100Z" transform="translate(-4361 6373)" fill="#79b8eb"/>
    <path id="Path_10211" data-name="Path 10211" d="M3.458-3.133v-.91h2.4V-5.109h-2.4V-6.253c0-.741.3-1.183.962-1.183A1.329,1.329,0,0,1,5.6-6.747L6.864-7.67a3.034,3.034,0,0,0-2.652-1.3,2.536,2.536,0,0,0-2.769,2.7v1.157H.559v1.066h.884v1.014c0,.832-.091,1.248-1.079,1.547V0H6.383l.234-1.56H2.626A1.51,1.51,0,0,0,3.458-3.133Z" transform="translate(-4029.364 6488.97)" fill="#fafafa"/>
  </g>
</svg>
