<svg xmlns="http://www.w3.org/2000/svg" width="31" height="31" viewBox="0 0 31 31">
  <g id="accountmanagement" transform="translate(-25 -428)">
    <circle id="Ellipse_1951" data-name="Ellipse 1951" cx="15.5" cy="15.5" r="15.5" transform="translate(25 428)" fill="#ea4335"/>
    <circle id="Ellipse_1951-2" data-name="Ellipse 1951" cx="15.5" cy="15.5" r="15.5" transform="translate(25 428)" fill="#ea4335"/>
    <g id="sliders" transform="translate(34.013 437.058)">
      <path id="Combined_Shape" data-name="Combined Shape" d="M9.874,13.775a.989.989,0,0,1-.7-.288.977.977,0,0,1-.288-.7V8.758a3.118,3.118,0,0,1,0-5.783V.984A.984.984,0,0,1,9.874,0h.382a.984.984,0,0,1,.984.984V2.975a3.117,3.117,0,0,1,0,5.781v4.034a.978.978,0,0,1-.288.7.991.991,0,0,1-.7.288ZM9.839,4.731a1.153,1.153,0,1,0,.226-.022A1.154,1.154,0,0,0,9.839,4.731Zm-6.9,9.044a.989.989,0,0,1-.7-.288.978.978,0,0,1-.288-.7V10.8a3.118,3.118,0,0,1,0-5.782V.984A.984.984,0,0,1,2.934,0h.381A.984.984,0,0,1,4.3.984V5.018a3.117,3.117,0,0,1,0,5.781v1.991a.978.978,0,0,1-.288.7.989.989,0,0,1-.7.288Zm-.034-7a1.155,1.155,0,1,0,.224-.022A1.183,1.183,0,0,0,2.9,6.773Z" transform="translate(0 0)" fill="#fafafa"/>
    </g>
  </g>
</svg>
