<svg xmlns="http://www.w3.org/2000/svg" width="30" height="30" viewBox="0 0 30 30">
  <g id="swan" transform="translate(-230 -170)">
    <g id="Group_43070" data-name="Group 43070" transform="translate(10 -80)">
      <circle id="Ellipse_1947" data-name="Ellipse 1947" cx="15" cy="15" r="15" transform="translate(220 250)" fill="#35a853"/>
    </g>
    <g id="Group_23558" data-name="Group 23558" transform="translate(-3794.144 7500.871)">
      <path id="Path_16496" data-name="Path 16496" d="M745.511,225.078a9.126,9.126,0,1,1-9.473,8.6A9.1,9.1,0,0,1,745.511,225.078Zm-8.425,9.109a8.083,8.083,0,1,0,8.077-8.067A8.062,8.062,0,0,0,737.087,234.187Z" transform="translate(3293.979 -7550.067)" fill="#fff"/>
      <path id="Path_16500" data-name="Path 16500" d="M795.976,263.674c-.075-.086-.153-.17-.225-.259a8.954,8.954,0,0,0-2.727-2.39,3.747,3.747,0,0,0-2.319-.517,1.257,1.257,0,0,0-.926.522.821.821,0,0,0,.106,1.153,5.006,5.006,0,0,0,1.109.7c.854.388,1.737.714,2.6,1.09a17.9,17.9,0,0,1,1.665.814,4.458,4.458,0,0,1,.9.7,2.5,2.5,0,0,1,.51,2.98,4.4,4.4,0,0,1-1.815,1.866.673.673,0,0,1-.148.044,7.925,7.925,0,0,0,.252-.817,2.24,2.24,0,0,0-.482-1.845,3.415,3.415,0,0,0-1.293-1.016c-.851-.4-1.723-.745-2.578-1.133-.705-.32-1.416-.635-2.09-1.013a2.673,2.673,0,0,1-.235-4.672,4.923,4.923,0,0,1,2.387-.878,6.023,6.023,0,0,1,3.91.826,2.6,2.6,0,0,1,1.02.981,1.24,1.24,0,0,1,.053,1.1.756.756,0,0,0-.02.446c.117.435.263.862.4,1.293Z" transform="translate(3247.557 -7580.916)" fill="#fff"/>
      <path id="Path_16501" data-name="Path 16501" d="M771.206,307.541c.025.125.043.217.061.309a3.381,3.381,0,0,0,1.521,2.179,13.5,13.5,0,0,0,2.621,1.3c.661.275,1.324.546,1.972.849a3.369,3.369,0,0,1,.825.526,1.406,1.406,0,0,1-.561,2.477,3.794,3.794,0,0,1-2.294-.051,5.987,5.987,0,0,1-4.341-4.695,5.781,5.781,0,0,1,.081-2.661,1.081,1.081,0,0,1,.051-.148A.529.529,0,0,1,771.206,307.541Z" transform="translate(3262.24 -7625.139)" fill="#fff"/>
    </g>
  </g>
</svg>
