<svg  viewBox="-7 -5 200 90"><defs><style>.a{fill:#8b8b8b;stroke:#fff;}</style></defs><g transform="translate(427.5 -34.395) rotate(90)"><path class="a" d="M9.633,4.116,5.883.366a1.251,1.251,0,0,0-1.768,0L.366,4.116A1.25,1.25,0,0,0,2.133,5.883L3.749,4.267v14.48a1.25,1.25,0,0,0,2.5,0V4.267L7.865,5.883A1.25,1.25,0,0,0,9.633,4.116Z" transform="translate(54.998 407.001) rotate(90)"/><path class="a" d="M9.633,14.115a1.251,1.251,0,0,0-1.768,0L6.249,15.731V1.251a1.25,1.25,0,1,0-2.5,0v14.48L2.133,14.115A1.249,1.249,0,0,0,.367,15.882l3.749,3.75a1.251,1.251,0,0,0,1.768,0l3.75-3.75A1.248,1.248,0,0,0,9.633,14.115Z" transform="translate(54.998 417) rotate(90)"/></g></svg>
