<svg viewBox="-21 0 180 80"><defs><style>.a{fill:#8b8b8b;stroke:#fff;}</style></defs><path class="a" d="M554.234,81.5h-8.983a1.25,1.25,0,1,1,0-2.5h8.983a3.723,3.723,0,0,1,7.032,0h1.484a1.25,1.25,0,0,1,0,2.5h-1.484a3.723,3.723,0,0,1-7.032,0Zm2.267-1.25A1.25,1.25,0,1,0,557.75,79,1.254,1.254,0,0,0,556.5,80.251Zm-9.767-5h-1.483a1.25,1.25,0,1,1,0-2.5h1.483a3.724,3.724,0,0,1,7.034,0h8.983a1.25,1.25,0,1,1,0,2.5H554a1.272,1.272,0,0,1-.215-.044,3.726,3.726,0,0,1-7.052.044ZM549,74a1.25,1.25,0,1,0,1.25-1.25A1.254,1.254,0,0,0,549,74Zm5.233-5h-8.983a1.25,1.25,0,1,1,0-2.5h8.983a3.723,3.723,0,0,1,7.032,0h1.484a1.25,1.25,0,0,1,0,2.5h-1.484a3.723,3.723,0,0,1-7.032,0ZM556.5,67.75a1.25,1.25,0,1,0,1.25-1.25A1.254,1.254,0,0,0,556.5,67.75Z" transform="translate(-543.5 -63.5)"/></svg>
