<svg viewBox="-21 0 180 80"><defs><style>.a,.f,.g,.h,.i,.j{fill:none;}.a,.b,.c{stroke:#8b8b8b;}.a{stroke-width:1.5px;}.b,.c,.d{fill:#8b8b8b;}.b{stroke-width:15px;}.e{stroke:none;}.g{clip-path:url(#b);}.h{clip-path:url(#d);}.i{clip-path:url(#f);}.j{clip-path:url(#h);}</style><clipPath id="b"><use xlink:href="#a"/></clipPath><clipPath id="d"><use xlink:href="#c"/></clipPath><clipPath id="f"><use xlink:href="#e"/></clipPath><clipPath id="h"><use xlink:href="#g"/></clipPath></defs><g transform="translate(-245.775 -732.002)"><g class="a" transform="translate(245.775 732.002)"><rect class="e" width="7.813" height="7.813" rx="1"/><rect class="f" x="0.75" y="0.75" width="6.313" height="6.313" rx="0.25"/></g><g class="a" transform="translate(245.775 744.187)"><rect class="e" width="7.813" height="7.813" rx="1"/><rect class="f" x="0.75" y="0.75" width="6.313" height="6.313" rx="0.25"/></g><g class="a" transform="translate(257.96 732.002)"><rect class="e" width="7.813" height="7.813" rx="1"/><rect class="f" x="0.75" y="0.75" width="6.313" height="6.313" rx="0.25"/></g><g class="a" transform="translate(257.96 744.187)"><rect class="e" width="7.813" height="7.813" rx="1"/><rect class="f" x="0.75" y="0.75" width="6.313" height="6.313" rx="0.25"/></g><g class="b" transform="translate(248.289 734.516)"><rect id="a" class="e" width="2.732" height="2.732" rx="1"/><path class="g" d="M0,-4.7680299282073975h2.7319700717926025M7.5,0v2.7319700717926025M2.7319700717926025,7.5h-2.7319700717926025M-4.7680299282073975,2.7319700717926025v-2.7319700717926025"/></g><g class="b" transform="translate(248.289 746.7)"><rect id="c" class="e" width="2.732" height="2.732" rx="1"/><path class="h" d="M0,-4.7680299282073975h2.7319700717926025M7.5,0v2.7319700717926025M2.7319700717926025,7.5h-2.7319700717926025M-4.7680299282073975,2.7319700717926025v-2.7319700717926025"/></g><g class="b" transform="translate(260.474 734.516)"><rect id="e" class="e" width="2.732" height="2.732" rx="1"/><path class="i" d="M0,-4.7680299282073975h2.7319700717926025M7.5,0v2.7319700717926025M2.7319700717926025,7.5h-2.7319700717926025M-4.7680299282073975,2.7319700717926025v-2.7319700717926025"/></g><g class="b" transform="translate(260.474 746.7)"><rect id="g" class="e" width="2.732" height="2.732" rx="1"/><path class="j" d="M0,-4.7680299282073975h2.7319700717926025M7.5,0v2.7319700717926025M2.7319700717926025,7.5h-2.7319700717926025M-4.7680299282073975,2.7319700717926025v-2.7319700717926025"/></g><g class="c" transform="translate(255.447 732.002)"><rect class="e" width="1" height="19.998" rx="0.5"/><rect class="f" x="0.5" y="0.5" height="18.998"/></g><g class="c" transform="translate(265.855 741.592) rotate(90)"><rect class="e" width="1" height="18.14" rx="0.5"/><rect class="f" x="0.5" y="0.5" height="17.14"/></g><circle class="d" cx="0.5" cy="0.5" r="0.5" transform="translate(245.775 741.618)"/></g></svg>
