<svg  viewBox="-21 0 180 80"><defs><style>.a{fill:#006eb1;}.b{fill:#fff;}</style></defs><g transform="translate(-32 -732)"><rect class="a" width="19" height="11" transform="translate(34 739)"/><path class="a" d="M546.849,532.943a2.858,2.858,0,0,1-2.85-2.85v-12.82A4.268,4.268,0,0,1,548.274,513h15.669v5.7h2.849v11.4a2.857,2.857,0,0,1-2.849,2.85Zm0-2.85h17.093v-8.546H546.849Zm0-12.82a1.429,1.429,0,0,0,1.424,1.424h12.82v-2.849h-12.82A1.429,1.429,0,0,0,546.849,517.273Zm11.4,8.547a1.424,1.424,0,1,1,1.424,1.424A1.424,1.424,0,0,1,558.245,525.82Z" transform="translate(-512 219)"/><circle class="b" cx="1.5" cy="1.5" r="1.5" transform="translate(47 743)"/></g></svg>
