<svg xmlns="http://www.w3.org/2000/svg" width="30.028" height="30.028" viewBox="0 0 30.028 30.028">
  <g id="btc" transform="translate(9969.195 -17757.488)">
    <g id="Group_23796" data-name="Group 23796" transform="translate(-9969.195 17757.488)">
      <g id="Group_23795" data-name="Group 23795" transform="translate(0 0)">
        <g id="Group_23794" data-name="Group 23794">
          <path id="Path_16575" data-name="Path 16575" d="M167.819,139.145a15.014,15.014,0,1,0,15.014,15.014A15.031,15.031,0,0,0,167.819,139.145Zm0,29.418a14.4,14.4,0,1,1,14.4-14.4A14.42,14.42,0,0,1,167.819,168.563Z" transform="translate(-152.805 -139.145)" fill="#a36363"/>
        </g>
      </g>
    </g>
    <g id="Group_23799" data-name="Group 23799" transform="translate(-9967.999 17758.691)">
      <g id="Group_23798" data-name="Group 23798" transform="translate(0 0)">
        <g id="Group_23797" data-name="Group 23797">
          <path id="Path_16576" data-name="Path 16576" d="M162.458,162.016v-.121l-.61-.006v.127q0,.249.009.5l.61-.022Q162.458,162.254,162.458,162.016Zm.192,2.252-.6.1c.035.2.076.411.12.612l.6-.131C162.722,164.66,162.684,164.464,162.65,164.268Zm-.149-1.182-.608.049c.017.206.038.414.064.62l.605-.076C162.537,163.482,162.517,163.282,162.5,163.086Zm.4,2.346-.589.158c.054.2.113.4.175.6l.581-.185C163.014,165.816,162.957,165.623,162.906,165.431Zm-.383-4.727-.607-.06c-.02.205-.036.415-.047.622l.609.033C162.488,161.1,162.5,160.9,162.523,160.7Zm.448-2.338-.586-.168c-.057.2-.111.4-.159.6l.593.142C162.865,158.751,162.916,158.557,162.971,158.366Zm-.277,1.159-.6-.115c-.039.2-.074.41-.1.615l.6.087C162.623,159.917,162.656,159.719,162.693,159.525Zm.573,7.042-.572.211c.072.195.148.389.228.579l.562-.237C163.408,166.939,163.335,166.753,163.266,166.567Zm1.019,2.146-.525.31c.106.179.217.357.329.529l.51-.334C164.493,169.055,164.387,168.885,164.285,168.713Zm3.725,4.8c.173.115.35.228.527.334l.316-.522q-.256-.155-.5-.32Zm-1.005-.739c.16.129.326.257.494.381l.361-.492c-.161-.118-.32-.241-.472-.364Zm2.306-23.024c-.182.095-.366.2-.546.3l.305.528c.172-.1.347-.2.522-.286Zm-3.24,22.2c.149.144.3.286.458.423l.4-.457q-.224-.2-.438-.4Zm3.008,2.209c.183.1.369.2.555.286l.267-.549q-.269-.131-.531-.273Zm-5.726-16.923-.568-.221c-.076.195-.148.392-.214.587l.578.2C163.212,157.611,163.28,157.422,163.353,157.236Zm2.322,13.409-.461.4c.136.157.276.312.418.462l.443-.419C165.939,170.943,165.8,170.795,165.675,170.645Zm-1.948-2.982-.551.262c.088.186.183.373.28.556l.539-.286C163.9,168.019,163.812,167.841,163.727,167.663Zm1.21,2.047-.5.356c.121.168.247.336.375.5l.479-.378C165.173,170.031,165.053,169.871,164.937,169.71Zm23.206-12.015.576-.2c-.068-.195-.141-.391-.218-.585l-.566.226C188.008,157.321,188.078,157.509,188.143,157.695Zm-.441-1.105.556-.252c-.085-.188-.176-.377-.269-.561l-.544.276C187.533,156.229,187.62,156.41,187.7,156.59Zm-.539-1.061.531-.3c-.1-.178-.208-.358-.319-.535l-.517.324C186.964,155.187,187.066,155.359,187.162,155.529Zm-.633-1.008.5-.347c-.117-.169-.24-.339-.366-.5l-.486.369C186.3,154.2,186.418,154.359,186.529,154.521Zm2.313,6.669.609-.037c-.013-.207-.03-.417-.052-.621l-.606.065C188.814,160.792,188.831,160.992,188.843,161.19Zm-3.034-7.617.469-.39c-.132-.158-.269-.316-.41-.47l-.451.411C185.551,153.27,185.683,153.422,185.809,153.573Zm2.907,6.433.6-.092c-.032-.205-.068-.412-.108-.614l-.6.12C188.651,159.612,188.686,159.809,188.716,160.006Zm-.234-1.168.592-.147c-.05-.2-.105-.4-.164-.6l-.585.174C188.381,158.451,188.434,158.644,188.482,158.837Zm-3.964-7.418c-.16-.134-.323-.264-.487-.39l-.37.485c.157.12.313.245.466.372Zm-19.43,2.7-.488-.366c-.123.164-.245.335-.363.508l.5.343C164.854,154.436,164.971,154.273,165.088,154.117Zm.757-.922-.453-.408c-.138.153-.275.312-.407.473l.471.387C165.582,153.493,165.713,153.341,165.845,153.195Zm19.592-.934c-.146-.146-.3-.291-.45-.431l-.412.45q.22.2.43.412Zm-18.756.084-.415-.447c-.15.139-.3.286-.447.435l.435.428C166.394,152.618,166.537,152.478,166.681,152.345Zm-2.264,2.757-.519-.32c-.109.177-.215.358-.316.539l.533.3C164.211,155.444,164.312,155.271,164.416,155.1Zm3.173-3.528-.373-.483c-.162.125-.325.257-.484.393l.395.465C167.279,151.82,167.434,151.694,167.589,151.574Zm-3.753,4.571-.546-.272c-.092.185-.182.375-.266.565l.558.247C163.663,156.5,163.748,156.321,163.836,156.145Zm4.726-5.258-.329-.514c-.174.111-.348.228-.517.348l.352.5C168.23,151.105,168.4,150.993,168.562,150.887Zm12.954,22.965.271.546c.186-.092.371-.19.551-.29l-.3-.533C181.87,173.671,181.693,173.764,181.516,173.852Zm3.8-2.833.446.416c.142-.152.281-.309.415-.465l-.464-.4Q185.519,170.8,185.315,171.019Zm-2.634-20.185q.253.159.5.329l.348-.5c-.171-.118-.345-.234-.52-.344Zm-12.241-1.608c-.189.077-.381.161-.571.249l.257.553c.181-.084.364-.164.545-.237Zm12.117,24.049.319.52c.175-.107.351-.221.523-.338l-.342-.5C182.892,173.064,182.724,173.172,182.557,173.275Zm-3.128-23.917c.189.056.38.118.568.184l.2-.576c-.2-.069-.4-.133-.595-.192Zm1,24.974.221.569c.194-.075.387-.155.575-.238l-.246-.558C180.8,174.183,180.613,174.26,180.428,174.332Zm1.216-24.088q.266.136.525.283l.3-.531c-.18-.1-.365-.2-.549-.3Zm-1.087-.494c.183.073.368.152.549.235l.252-.556c-.19-.086-.383-.169-.574-.245Zm2.985,22.857.365.489c.166-.124.331-.253.491-.384l-.386-.472C183.858,172.365,183.7,172.489,183.542,172.607Zm5.043-7.86.6.126c.043-.2.082-.411.115-.613l-.6-.1C188.663,164.354,188.626,164.551,188.584,164.747Zm.193-1.176.606.071c.024-.207.044-.416.059-.62l-.608-.044Q188.812,163.276,188.777,163.571Zm-.492,2.329.583.18c.061-.2.118-.4.17-.6l-.59-.152C188.4,165.519,188.344,165.712,188.286,165.9Zm1.191-4.124-.61.011q0,.115,0,.23,0,.184-.005.366l.61.017q.005-.191.005-.383Q189.478,161.9,189.476,161.775Zm-2.1,6.331.541.282c.1-.184.189-.373.276-.56l-.553-.257C187.559,167.75,187.47,167.93,187.378,168.106Zm-.6,1.032.513.33c.113-.176.223-.355.325-.532l-.527-.306C186.992,168.8,186.887,168.969,186.779,169.138Zm-.69.973.482.374c.128-.164.253-.333.372-.5l-.5-.353Q186.272,169.876,186.089,170.111Zm1.793-3.087.564.232c.079-.193.155-.389.224-.583l-.574-.206C188.03,166.652,187.958,166.84,187.882,167.024Zm-3.418,4.828.407.454c.154-.138.307-.281.455-.426l-.427-.436Q184.686,171.654,184.464,171.852ZM174.05,148.294c-.205.024-.413.053-.617.086l.1.6c.2-.032.394-.059.59-.082Zm1.243-.089c-.209.006-.419.016-.623.031l.044.608q.3-.021.6-.029Zm-2.474.29c-.2.043-.408.09-.607.142l.152.591c.19-.049.386-.095.58-.136Zm.98,27.211c.207.028.415.051.619.07l.054-.608q-.3-.027-.592-.067Zm-1.227-.223c.2.046.406.088.611.126l.109-.6c-.2-.035-.392-.076-.584-.12Zm-1.2-.334c.2.065.4.126.6.181l.163-.588c-.189-.052-.381-.11-.571-.173Zm7.929-.436.168.587c.2-.056.4-.119.6-.185l-.195-.578C179.678,174.6,179.487,174.659,179.3,174.712Zm-7.687-25.906c-.2.061-.4.127-.592.2l.205.574c.187-.067.377-.13.565-.188Zm-1.411,25.9c.188.081.383.16.579.235l.216-.57c-.187-.071-.373-.146-.553-.224Zm7.938.283.114.6c.2-.038.407-.082.61-.131l-.141-.593C178.528,174.91,178.332,174.952,178.14,174.988Zm.133-25.919c.194.039.39.083.581.131l.147-.592c-.2-.05-.405-.1-.608-.137Zm-1.177-.182c.2.021.4.047.591.077l.093-.6c-.2-.031-.411-.059-.618-.081Zm-1.189-.075q.3.005.6.024l.038-.609c-.207-.013-.417-.022-.623-.025Zm1.055,26.345.059.607c.2-.02.412-.045.619-.075l-.087-.6C177.354,175.115,177.156,175.139,176.961,175.158Zm-1.191.063.005.61c.209,0,.419-.008.623-.019l-.032-.609Q176.07,175.218,175.77,175.221Zm-.73.6c.206.009.415.014.623.014v-.61c-.2,0-.4,0-.6-.013Z" transform="translate(-161.848 -148.203)" fill="#a36363"/>
        </g>
      </g>
    </g>
    <path id="Subtraction_8" data-name="Subtraction 8" d="M12.616,25.232A12.616,12.616,0,1,1,25.234,12.616,12.632,12.632,0,0,1,12.616,25.232Zm-.67-6.326h1.071v2.715H14.7V18.906h1.668a3.413,3.413,0,0,0,2.451-1.018,3.47,3.47,0,0,0-2.413-5.926,2.846,2.846,0,0,0,2.315-2.792A2.84,2.84,0,0,0,15.89,6.334H14.7V3.611H13.017V6.334H11.946V3.611h-1.69V6.334H6.825V8.158H8.093a.5.5,0,0,1,.086-.005c.209,0,.7.075.7.767V16.34c0,.7-.488.772-.7.772-.016,0-.087,0-.087-.011l-1.266,0V18.93h3.431v2.692h1.69V18.906Zm2.631-1.938H11.946V13.341h2.631a1.812,1.812,0,0,1,1.81,1.81,1.8,1.8,0,0,1-1.81,1.817Zm-.763-5.347H11.946V8.271h1.868A1.676,1.676,0,0,1,15.49,9.945,1.657,1.657,0,0,1,15,11.132,1.69,1.69,0,0,1,13.814,11.622Z" transform="translate(-9966.797 17759.881)" fill="#a36363"/>
  </g>
</svg>
