<svg xmlns="http://www.w3.org/2000/svg" width="21.587" height="24.183" viewBox="0 0 21.587 24.183"><defs><style>.a{fill:#79b8eb;}.b{fill:#fafafa;}.c{fill:#006db4;}</style></defs><g transform="translate(-1.215)"><path class="a" d="M19.907,0H6.954A3.454,3.454,0,0,0,3.5,3.454V20.729a3.454,3.454,0,0,0,3.454,3.454H19.907a3.454,3.454,0,0,0,3.454-3.454V3.454A3.454,3.454,0,0,0,19.907,0Z" transform="translate(-0.558)"/><path class="b" d="M18.8,12.44a2.343,2.343,0,1,1-.686-1.664A2.35,2.35,0,0,1,18.8,12.44Z" transform="translate(-3.148 -2.465)"/><path class="b" d="M19.278,21.738a.862.862,0,0,1-.635-.28,3.824,3.824,0,0,0-5.638,0,.864.864,0,1,1-1.27-1.171,5.547,5.547,0,0,1,8.184,0,.862.862,0,0,1-.635,1.451Z" transform="translate(-2.514 -4.516)"/><path class="c" d="M5.534,7.441H2.08a.865.865,0,1,1,0-1.731H5.534a.865.865,0,1,1,0,1.731Z" transform="translate(0 -1.395)"/><path class="c" d="M6.652,8.081a.862.862,0,0,1-.862-.869V5.33a.865.865,0,1,1,1.731,0V7.212a.862.862,0,0,1-.869.869Z" transform="translate(-1.118 -1.091)"/><path class="c" d="M5.534,16.581H2.08a.865.865,0,1,1,0-1.731H5.534a.865.865,0,1,1,0,1.731Z" transform="translate(0 -3.628)"/><path class="c" d="M6.652,17.221a.862.862,0,0,1-.862-.862V14.47a.865.865,0,0,1,1.731,0v1.882a.862.862,0,0,1-.869.869Z" transform="translate(-1.118 -3.323)"/><path class="c" d="M5.534,25.731H2.08A.865.865,0,1,1,2.08,24H5.534a.865.865,0,1,1,0,1.731Z" transform="translate(0 -5.863)"/><path class="c" d="M6.652,26.364A.862.862,0,0,1,5.79,25.5V23.62a.865.865,0,0,1,1.731,0V25.5a.862.862,0,0,1-.869.862Z" transform="translate(-1.118 -5.559)"/></g></svg>