<svg xmlns="http://www.w3.org/2000/svg" width="44.337" height="39.93" viewBox="0 0 44.337 39.93">
  <g id="birthday" transform="translate(-47.5 -513)">
    <g id="Group_25706" data-name="Group 25706" transform="translate(47.5 513)" opacity="0.4">
      <path id="Path_18304" data-name="Path 18304" d="M43.278,24.8c-4.693-7.186-4.194-14.551-6.456-18.015s-9-9.434-24.932.97S.012,29.468,2.5,33.276C14.151,51.11,51.591,37.524,43.278,24.8Z" transform="translate(-0.134 -1.91)" fill="#ffd25d"/>
    </g>
    <g id="Group_29879" data-name="Group 29879" transform="translate(13645.809 -5999)">
      <path id="Path_20300" data-name="Path 20300" d="M49,47h.624V61.347H49Z" transform="translate(-13620.885 6490.584)" fill="#ee9a94"/>
      <path id="Path_20301" data-name="Path 20301" d="M49.254,43.988h-.631l-.611,1.874h1.859Z" transform="translate(-13620.515 6500.458)" fill="#26a6d1"/>
      <path id="Path_20302" data-name="Path 20302" d="M49.393,44.421c-.252,0-.371.1-.617.059l-.115.3h1.045l-.106-.361Z" transform="translate(-13620.759 6500.294)" fill="#2295bc"/>
      <g id="Group_29878" data-name="Group 29878" transform="translate(-13580.02 6524.485)">
        <path id="Path_20275" data-name="Path 20275" d="M52.447,54A8.525,8.525,0,0,0,44,62.6c0,4.75,3.782,11.672,8.447,11.672S60.894,67.35,60.894,62.6A8.525,8.525,0,0,0,52.447,54Z" transform="translate(-44 -54)" fill="#26a6d1"/>
        <path id="Path_20276" data-name="Path 20276" d="M45.126,62.6a8.531,8.531,0,0,1,7.884-8.572c-.187-.012-.373-.029-.563-.029A8.525,8.525,0,0,0,44,62.6c0,4.75,3.782,11.672,8.447,11.672a4.807,4.807,0,0,0,.563-.037c-4.4-.525-7.884-7.078-7.884-11.635Z" transform="translate(-44 -54)" fill="#2295bc"/>
        <path id="Path_20299" data-name="Path 20299" d="M56.019,24.033c.624-.179.824-1.395.445-2.714s-1.192-2.243-1.817-2.064-.824,1.4-.445,2.714S55.395,24.212,56.019,24.033Zm-.345.888a.785.785,0,1,0,.785.785A.785.785,0,0,0,55.674,24.921Z" transform="translate(-42.179 -15.541)" fill="#fff" opacity="0.4"/>
      </g>
      <path id="Path_20274" data-name="Path 20274" d="M49,47h.624V61.347H49Z" transform="translate(-13631.516 6490.584)" fill="#b3dbe8"/>
      <path id="Path_20277" data-name="Path 20277" d="M45.109,14A8.112,8.112,0,0,0,37,22.116c0,4.482,3.63,11.013,8.109,11.013s8.109-6.532,8.109-11.013A8.112,8.112,0,0,0,45.109,14Z" transform="translate(-13627 6503)" fill="#e2574c"/>
      <path id="Path_20286" data-name="Path 20286" d="M49.254,43.988h-.631l-.611,1.874h1.859Z" transform="translate(-13631.143 6491.717)" fill="#e2574c"/>
      <path id="Path_20287" data-name="Path 20287" d="M56.235,24.55c.692-.2.913-1.545.493-3.006s-1.32-2.485-2.012-2.287-.913,1.546-.493,3.007S55.544,24.749,56.235,24.55Zm-.382.984a.87.87,0,1,0,.87.87A.869.869,0,0,0,55.853,25.533Z" transform="translate(-13633.399 6501.032)" fill="#ee9a94"/>
      <path id="Path_20289" data-name="Path 20289" d="M49.254,43.988h-.631l-.611,1.874h1.859Z" transform="translate(-13631.143 6491.717)" fill="#e2574c"/>
      <path id="Path_20290" data-name="Path 20290" d="M49.5,44.629a4.651,4.651,0,0,1-.747-.064l-.089.271h1.045l-.07-.214Z" transform="translate(-13631.388 6491.5)" fill="#aa4239"/>
      <path id="Path_20291" data-name="Path 20291" d="M38.248,22.116a8.108,8.108,0,0,1,7.485-8.084c-.206-.016-.414-.032-.624-.032A8.112,8.112,0,0,0,37,22.116c0,4.482,3.63,11.013,8.109,11.013a4.611,4.611,0,0,0,.624-.047C41.546,32.516,38.248,26.387,38.248,22.116Z" transform="translate(-13627 6503)" fill="#cb4e44"/>
    </g>
  </g>
</svg>
