<svg xmlns="http://www.w3.org/2000/svg" width="49.102" height="46.447" viewBox="0 0 49.102 46.447">
  <g id="birthday" transform="translate(-35.7 -512.782)">
    <g id="Group_30126" data-name="Group 30126" transform="translate(15500.041 1243.952) rotate(30)">
      <g id="Group_30067" data-name="Group 30067" transform="translate(-13753.482 7082)">
        <g id="Group_30062" data-name="Group 30062" transform="translate(0 0)" opacity="0.5">
          <path id="Path_20574" data-name="Path 20574" d="M338.855,139.3a2.726,2.726,0,1,0-2.724,2.806A2.767,2.767,0,0,0,338.855,139.3Zm0,0" transform="translate(-333.406 -117.153)" fill="#ff7861"/>
          <path id="Path_20576" data-name="Path 20576" d="M236.047,38.964a3.4,3.4,0,1,0-3.4,3.5A3.449,3.449,0,0,0,236.047,38.964Zm0,0" transform="translate(-212.137 6.47)" fill="#ffe581"/>
          <path id="Path_20577" data-name="Path 20577" d="M17.761,437.275a2.725,2.725,0,1,0-2.724,2.807A2.766,2.766,0,0,0,17.761,437.275Zm0,0" transform="translate(17.526 -432.357)" fill="#70c1b3"/>
          <path id="Path_20578" data-name="Path 20578" d="M107.827,246.183a1.266,1.266,0,0,1-.906-2.151l.014-.014a1.266,1.266,0,1,1,1.811,1.769l-.013.014A1.264,1.264,0,0,1,107.827,246.183Zm0,0" transform="translate(-62.226 -231.231)" fill="#fa0"/>
          <path id="Path_20563" data-name="Path 20563" d="M152.961,138.027a1.266,1.266,0,0,1-.654-2.351l.017-.01a1.266,1.266,0,0,1,1.3,2.17l-.017.01A1.261,1.261,0,0,1,152.961,138.027Zm0,0" transform="translate(-144.041 -101.884)" fill="#ff4e61"/>
          <path id="Path_20564" data-name="Path 20564" d="M165.469,159.944a1.266,1.266,0,0,1-.658-2.349l.017-.01a1.266,1.266,0,1,1,1.312,2.165l-.017.01A1.259,1.259,0,0,1,165.469,159.944Zm0,0" transform="translate(-152.453 -122.167)" fill="#fa0"/>
          <path id="Path_20548" data-name="Path 20548" d="M6.185,258.725a1.266,1.266,0,0,1-.908-2.147l1.573-1.621a1.266,1.266,0,1,1,1.817,1.763l-1.574,1.621A1.261,1.261,0,0,1,6.185,258.725Zm0,0" transform="translate(28.903 -216.823)" fill="#70c1b3"/>
          <path id="Path_20580" data-name="Path 20580" d="M133.83,12.647a1.266,1.266,0,0,1-.908-2.147L134.5,8.879a1.266,1.266,0,1,1,1.816,1.763l-1.573,1.621A1.263,1.263,0,0,1,133.83,12.647Zm0,0" transform="translate(-92.335 -4.958)" fill="#ff7861"/>
          <g id="Group_30064" data-name="Group 30064" transform="translate(17.185 3.453) rotate(45)">
            <path id="Path_20554" data-name="Path 20554" d="M1.28,2.546A1.266,1.266,0,0,0,2.186.4L2.172.381A1.266,1.266,0,0,0,.361,2.15l.013.014A1.264,1.264,0,0,0,1.28,2.546Zm0,0" transform="translate(2.989 0)" fill="#fa0"/>
            <path id="Path_20555" data-name="Path 20555" d="M1.28,2.546A1.266,1.266,0,0,0,2.188.4L2.174.384A1.266,1.266,0,0,0,.358,2.148l.014.014A1.262,1.262,0,0,0,1.28,2.546Zm0,0" transform="translate(0 3.078)" fill="#006cb4"/>
          </g>
          <path id="Path_20617" data-name="Path 20617" d="M59.273,273.468a1.46,1.46,0,1,0-1.459,1.5A1.481,1.481,0,0,0,59.273,273.468Zm0,0" transform="translate(-8.87 -236.145)" fill="#006cb4"/>
          <path id="Path_20618" data-name="Path 20618" d="M275.321,138.028a1.261,1.261,0,0,1-.649-.179l-.017-.01a1.266,1.266,0,0,1,1.3-2.173l.017.01a1.266,1.266,0,0,1-.651,2.352Zm0,0" transform="translate(-226.961 -110.532)" fill="#fa0"/>
          <path id="Path_20619" data-name="Path 20619" d="M262.814,159.945a1.259,1.259,0,0,1-.652-.182l-.017-.01a1.266,1.266,0,1,1,1.307-2.168l.017.01a1.266,1.266,0,0,1-.655,2.35Zm0,0" transform="translate(-211.592 -128.64)" fill="#2dc471"/>
        </g>
      </g>
    </g>
    <g id="birthday-2" data-name="birthday" transform="translate(-12.494)">
      <g id="Group_29879" data-name="Group 29879" transform="translate(55.809 518)">
        <g id="Group_30127" data-name="Group 30127" transform="translate(13.958 7.925)">
          <path id="Path_20300" data-name="Path 20300" d="M49,47h.721V63.583H49Z" transform="translate(-39.597 -31.859)" fill="#edbf92"/>
          <path id="Path_20301" data-name="Path 20301" d="M49.447,43.988h-.73l-.706,2.166h2.149Z" transform="translate(-39.323 -20.916)" fill="#26a6d1"/>
          <path id="Path_20302" data-name="Path 20302" d="M49.507,44.421c-.291,0-.429.114-.713.068l-.132.349h1.208l-.123-.417Z" transform="translate(-39.504 -21.037)" fill="#2295bc"/>
          <g id="Group_29878" data-name="Group 29878">
            <path id="Path_20275" data-name="Path 20275" d="M53.763,54A9.854,9.854,0,0,0,44,63.941c0,5.49,4.371,13.491,9.763,13.491s9.763-8,9.763-13.491A9.854,9.854,0,0,0,53.763,54Z" transform="translate(-44 -54)" fill="#4abbe2"/>
            <path id="Path_20276" data-name="Path 20276" d="M45.3,63.941a9.86,9.86,0,0,1,9.113-9.908c-.216-.014-.431-.033-.651-.033A9.854,9.854,0,0,0,44,63.941c0,5.49,4.371,13.491,9.763,13.491a5.556,5.556,0,0,0,.651-.043c-5.088-.607-9.113-8.181-9.113-13.448Z" transform="translate(-44 -54)" opacity="0.1"/>
            <path id="Path_20299" data-name="Path 20299" d="M56.332,24.781c.722-.207.952-1.612.514-3.137s-1.377-2.593-2.1-2.386-.952,1.613-.514,3.137S55.611,24.989,56.332,24.781Zm-.4,1.026a.907.907,0,1,0,.907.907A.907.907,0,0,0,55.933,25.808Z" transform="translate(-40.335 -14.966)" fill="#fff" opacity="0.4"/>
          </g>
        </g>
        <path id="Path_20274" data-name="Path 20274" d="M49,47h.721V63.583H49Z" transform="translate(-40.349 -23.207)" fill="#edbf92"/>
        <path id="Path_20277" data-name="Path 20277" d="M46.373,14A9.377,9.377,0,0,0,37,23.381c0,5.18,4.2,12.73,9.373,12.73s9.373-7.55,9.373-12.73A9.377,9.377,0,0,0,46.373,14Z" transform="translate(-37 -14)" fill="#e3756c"/>
        <path id="Path_20286" data-name="Path 20286" d="M49.447,43.988h-.73l-.706,2.166h2.149Z" transform="translate(-40.072 -22.367)" fill="#e2574c"/>
        <path id="Path_20287" data-name="Path 20287" d="M56.582,25.379c.8-.229,1.055-1.786.57-3.474s-1.526-2.872-2.326-2.643-1.055,1.787-.57,3.475S55.783,25.609,56.582,25.379Zm-.442,1.137a1.005,1.005,0,1,0,1.005,1.005A1,1,0,0,0,56.14,26.516Z" transform="translate(-41.745 -15.459)" fill="#ee9a94"/>
        <path id="Path_20289" data-name="Path 20289" d="M49.447,43.988h-.73l-.706,2.166h2.149Z" transform="translate(-40.072 -22.367)" fill="#e2574c"/>
        <path id="Path_20290" data-name="Path 20290" d="M49.626,44.639a5.376,5.376,0,0,1-.863-.074l-.1.314h1.208l-.081-.247Z" transform="translate(-40.254 -22.528)" fill="#aa4239"/>
        <path id="Path_20291" data-name="Path 20291" d="M38.442,23.381a9.372,9.372,0,0,1,8.652-9.344c-.239-.019-.478-.037-.721-.037A9.377,9.377,0,0,0,37,23.381c0,5.18,4.2,12.73,9.373,12.73a5.33,5.33,0,0,0,.721-.054C42.255,35.4,38.442,28.317,38.442,23.381Z" transform="translate(-37 -14)" opacity="0.1"/>
      </g>
    </g>
  </g>
</svg>
