<svg xmlns="http://www.w3.org/2000/svg" width="25.211" height="12.343" viewBox="0 0 25.211 12.343">
  <g id="bw" transform="translate(-39.502 -359)">
    <path id="Path_116997" data-name="Path 116997" d="M51.68,0l.346,0,.066,0h.061l.066,0a2.442,2.442,0,0,1,.435.055.61.61,0,0,1,.389.642q0,2.735,0,5.47c0,.343,0,.685,0,1.028a.582.582,0,0,0,.664.651c.289-.009.58,0,.865-.033.258-.034.346-.153.382-.407a1.922,1.922,0,0,0,.013-.268q0-3.051,0-6.1a2.317,2.317,0,0,1,.023-.488.6.6,0,0,1,.669-.538c.357-.014.715.008,1.073.024a.585.585,0,0,1,.435.467A1.561,1.561,0,0,1,57.2.838c0,2.076.006,4.153,0,6.229,0,.4.139.589.511.615a4.707,4.707,0,0,0,.973-.031c.283-.039.391-.233.393-.525.006-.958.024-1.915.028-2.873.006-1.17,0-2.34.005-3.51,0-.591.312-.7.693-.731l.063,0,.129,0,.283,0h.509l.192,0a1.976,1.976,0,0,1,.382.061.579.579,0,0,1,.383.508l.013.1c0,.095.009.189.009.284,0,2.472,0,4.944-.006,7.416a3.223,3.223,0,0,1-.12.755.559.559,0,0,1-.486.4,2.238,2.238,0,0,1-.516.061c-.41-.017-.552.264-.581.615-.014.17-.029.341-.058.51a.468.468,0,0,1-.352.369,1.851,1.851,0,0,1-.49.088c-.523.01-1.048.026-1.569-.005-.538-.033-.7-.221-.73-.818-.012-.29-.089-.471-.323-.506a2.462,2.462,0,0,0-.676,0,.41.41,0,0,0-.337.42c-.009.188-.013.377-.031.564a.5.5,0,0,1-.355.444,1.1,1.1,0,0,1-.352.062c-.708.007-1.417.012-2.125,0a.635.635,0,0,1-.654-.35,1.194,1.194,0,0,1-.065-.3,1.729,1.729,0,0,1,0-.221c0-.362-.137-.561-.584-.581a2.324,2.324,0,0,1-.5-.052c-.346-.092-.444-.373-.473-.691,0-.032,0-.063,0-.095q0-4.142,0-8.285a1.059,1.059,0,0,1,.073-.4c.125-.3.4-.339.684-.353l.1,0L51.644,0h.036" transform="translate(2.452 359.5)" fill="#a36363" stroke="#303e4e" stroke-width="1"/>
    <path id="Path_116998" data-name="Path 116998" d="M3.82,8.677H6.992l.095,0h.031l.13-.006.041,0c.4-.01.591-.2.59-.6a9.211,9.211,0,0,0-.035-.942.372.372,0,0,0-.394-.338c-.214-.014-.429-.027-.644-.027q-2.948,0-5.9,0a2.244,2.244,0,0,1-.331-.025.6.6,0,0,1-.565-.642c0-.284,0-.569,0-.853a.62.62,0,0,1,.63-.665l.042,0c.317,0,.634-.013.951-.013q2.593,0,5.186,0c.143,0,.286,0,.428-.009a.436.436,0,0,0,.441-.486c-.007-.254-.015-.51,0-.764.03-.488-.225-.631-.638-.641-.306-.008-.613,0-.92,0L1,2.65H.963a2.147,2.147,0,0,1-.408-.024.61.61,0,0,1-.538-.67A12.593,12.593,0,0,1,.022.63C.052.237.234.023.762.019,2.2.009,3.636.009,5.072.007q1.656,0,3.312,0h.128l.1,0c.14.014.283.017.421.043A.706.706,0,0,1,9.6.762a3.717,3.717,0,0,0,.037.516.6.6,0,0,0,.6.415c.095,0,.19,0,.285,0a.639.639,0,0,1,.659.646c0,.11,0,.221,0,.332q0,.7,0,1.4c0,.047,0,.094,0,.142a.572.572,0,0,1-.6.647,2.74,2.74,0,0,0-.357.038c-.181.037-.337.128-.349.33a4.025,4.025,0,0,0,.018.683.323.323,0,0,0,.29.276,4.169,4.169,0,0,0,.576.063.586.586,0,0,1,.618.562c.006.057.013.113.02.169,0,.02,0,.041,0,.062q0,.9,0,1.8l-.023.066a3.21,3.21,0,0,1-.055.482c-.079.3-.326.375-.6.394-.095.007-.19,0-.285.006a.5.5,0,0,0-.522.518c-.006.142-.011.283-.028.424-.051.447-.352.581-.718.606-.132.009-.264.005-.4.008H8.736l-2.773,0L.686,11.337a.62.62,0,0,1-.669-.671A11.666,11.666,0,0,1,.022,9.309c.034-.428.22-.576.688-.623.052-.005.106,0,.158-.007H3.82" transform="translate(40 359.495)" fill="#a36363" stroke="#303e4e" stroke-width="1"/>
  </g>
</svg>
