<svg xmlns="http://www.w3.org/2000/svg" width="47" height="47" viewBox="0 0 47 47">
  <g id="bw" transform="translate(-36 -141)">
    <circle id="Ellipse_2030" data-name="Ellipse 2030" cx="23.5" cy="23.5" r="23.5" transform="translate(36 141)" fill="#f8f8f8"/>
    <g id="bw-2" data-name="bw" transform="translate(44.228 157.346)">
      <path id="Path_116997" data-name="Path 116997" d="M52.021,0l.436,0,.084,0,.076,0,.083,0a3.081,3.081,0,0,1,.548.069.77.77,0,0,1,.491.81q0,3.451,0,6.9c0,.432,0,.864,0,1.3a.734.734,0,0,0,.838.821c.364-.011.731.005,1.091-.041.325-.042.437-.193.482-.513a2.425,2.425,0,0,0,.017-.338q0-3.849,0-7.7A2.923,2.923,0,0,1,56.2.7a.753.753,0,0,1,.844-.678c.45-.017.9.01,1.353.031a.738.738,0,0,1,.549.588,1.968,1.968,0,0,1,.036.415c0,2.619.008,5.239,0,7.858,0,.5.175.743.645.776a5.937,5.937,0,0,0,1.227-.039c.358-.049.493-.294.5-.662.008-1.208.03-2.416.036-3.624.007-1.476,0-2.952.007-4.428,0-.746.393-.886.874-.922l.08-.005.163,0L62.862,0h.48l.045,0L63.5,0l.242.006a2.493,2.493,0,0,1,.482.076.731.731,0,0,1,.483.641l.016.125c0,.119.011.239.012.358,0,3.118,0,6.236-.007,9.355a4.064,4.064,0,0,1-.151.953.7.7,0,0,1-.613.5,2.823,2.823,0,0,1-.651.076c-.517-.022-.7.333-.733.776-.018.215-.036.431-.074.643a.59.59,0,0,1-.445.466,2.335,2.335,0,0,1-.619.111c-.66.013-1.322.033-1.98-.007-.679-.041-.889-.279-.92-1.032-.015-.366-.113-.594-.408-.639a3.106,3.106,0,0,0-.853,0,.517.517,0,0,0-.425.53c-.011.238-.017.476-.04.712a.633.633,0,0,1-.448.56,1.382,1.382,0,0,1-.444.078c-.893.008-1.787.015-2.68,0a.8.8,0,0,1-.825-.441,1.506,1.506,0,0,1-.083-.381,2.179,2.179,0,0,1,0-.279c0-.456-.173-.708-.736-.733a2.931,2.931,0,0,1-.627-.066c-.436-.117-.56-.471-.6-.871,0-.04,0-.08,0-.12q0-5.226,0-10.452a1.336,1.336,0,0,1,.092-.5c.157-.38.507-.428.863-.445l.123,0L51.976,0h.045" transform="translate(-34.194)" fill="#e9983e"/>
      <path id="Path_116998" data-name="Path 116998" d="M4.818,10.944h4l.119,0,.04,0,.164-.008.051-.006c.507-.013.746-.247.744-.753a11.619,11.619,0,0,0-.044-1.188.469.469,0,0,0-.5-.426c-.27-.017-.542-.034-.813-.034q-3.718,0-7.437,0a2.831,2.831,0,0,1-.417-.032.761.761,0,0,1-.712-.81c-.005-.359,0-.718,0-1.076a.783.783,0,0,1,.8-.839l.053,0c.4-.006.8-.016,1.2-.017q3.271,0,6.542,0c.18,0,.36,0,.54-.012A.55.55,0,0,0,9.7,5.113c-.009-.321-.018-.643,0-.963.038-.615-.284-.8-.8-.809-.386-.01-.774,0-1.16,0l-6.482,0H1.215A2.709,2.709,0,0,1,.7,3.311a.77.77,0,0,1-.679-.845A15.885,15.885,0,0,1,.028.793C.065.3.295.027.962.022,2.774.009,4.586.01,6.4.007q2.089,0,4.178,0l.048,0,.113,0,.125,0c.177.017.357.021.531.055A.891.891,0,0,1,12.1.96a4.689,4.689,0,0,0,.047.651.753.753,0,0,0,.76.524c.12,0,.24,0,.36,0a.805.805,0,0,1,.831.815c.006.139,0,.279,0,.418q0,.881,0,1.762c0,.059,0,.119,0,.179a.721.721,0,0,1-.762.816,3.457,3.457,0,0,0-.451.048c-.228.047-.426.162-.441.416a5.078,5.078,0,0,0,.023.862.408.408,0,0,0,.366.348,5.259,5.259,0,0,0,.726.079.74.74,0,0,1,.78.709c.008.071.017.142.026.214,0,.026,0,.052,0,.078q0,1.138,0,2.276l-.029.083a4.05,4.05,0,0,1-.069.608c-.1.379-.411.473-.757.5-.119.008-.24,0-.36.008A.635.635,0,0,0,12.5,13c-.007.179-.014.358-.035.535-.065.563-.444.732-.906.764-.166.011-.333.007-.5.01h-.04l-3.5,0L.866,14.3a.782.782,0,0,1-.844-.846,14.717,14.717,0,0,1,.006-1.713c.043-.54.278-.727.867-.786.066-.006.133-.006.2-.009H4.818" transform="translate(0 -0.004)" fill="#e9983e"/>
    </g>
  </g>
</svg>
