<svg xmlns="http://www.w3.org/2000/svg" width="44.113" height="43.656" viewBox="0 0 44.113 43.656">
  <g id="card" transform="translate(-267.518 -474.037)">
    <g id="Group_30066" data-name="Group 30066" transform="translate(273.241 482.541)">
      <g id="Group_30061" data-name="Group 30061" transform="translate(0 0)">
        <g id="Group_28454" data-name="Group 28454" transform="translate(18.16 0)">
          <g id="Group_28453" data-name="Group 28453" transform="translate(0 0)">
            <path id="Path_19614" data-name="Path 19614" d="M262.621,158.544l-13.375,2.215h15.519a3.393,3.393,0,0,1,1.756.487A3.409,3.409,0,0,0,262.621,158.544Z" transform="translate(-249.246 -158.498)" fill="#66a1c9"/>
          </g>
        </g>
        <g id="Group_28456" data-name="Group 28456" transform="translate(0 5.564)">
          <g id="Group_28455" data-name="Group 28455" transform="translate(0 0)">
            <path id="Path_19615" data-name="Path 19615" d="M124.5,199.89l1.15,6.947v-9.993c0-.036,0-.071,0-.106A3.407,3.407,0,0,0,124.5,199.89Z" transform="translate(-124.449 -196.737)" fill="#66a1c9"/>
          </g>
        </g>
        <g id="Group_28458" data-name="Group 28458" transform="translate(37.086 12.711)">
          <g id="Group_28457" data-name="Group 28457" transform="translate(0 0)">
            <path id="Path_19616" data-name="Path 19616" d="M380.462,252.8l-1.15-6.946v9.993c0,.036,0,.071,0,.107A3.409,3.409,0,0,0,380.462,252.8Z" transform="translate(-379.309 -245.853)" fill="#66a1c9"/>
          </g>
        </g>
        <g id="Group_28460" data-name="Group 28460" transform="translate(2.849 25.627)">
          <g id="Group_28459" data-name="Group 28459" transform="translate(0 0)">
            <path id="Path_19617" data-name="Path 19617" d="M145.788,335.1a3.394,3.394,0,0,1-1.757-.487,3.409,3.409,0,0,0,3.9,2.7L161.3,335.1H145.788Z" transform="translate(-144.031 -334.613)" fill="#66a1c9"/>
          </g>
        </g>
      </g>
      <g id="Group_28462" data-name="Group 28462" transform="translate(1.197 2.261)">
        <g id="Group_28461" data-name="Group 28461" transform="translate(0 0)">
          <path id="Path_19618" data-name="Path 19618" d="M165.154,174.039H136.082a3.41,3.41,0,0,0-3.41,3.409v17.034a3.41,3.41,0,0,0,3.41,3.41h29.072a3.409,3.409,0,0,0,3.409-3.41V177.448A3.409,3.409,0,0,0,165.154,174.039Z" transform="translate(-132.672 -174.039)" fill="#a7cce7"/>
        </g>
      </g>
    </g>
    <g id="Group_30065" data-name="Group 30065" transform="translate(278.285 485.558)">
      <path id="Path_20581" data-name="Path 20581" d="M9.21,1.323,4.352.022a.632.632,0,0,0-.611.164L.185,3.741a.632.632,0,0,0-.164.611l1.3,4.858a.632.632,0,0,0,.447.447l4.858,1.3a.632.632,0,0,0,.611-.164L10.8,7.239a.632.632,0,0,0,.164-.611L9.657,1.77A.632.632,0,0,0,9.21,1.323Z" transform="translate(30.591 5.49) rotate(120)" fill="#fff"/>
      <line id="Line_798" data-name="Line 798" x2="28.929" transform="translate(1 17.67)" fill="none" stroke="#fafafa" stroke-linecap="round" stroke-width="1" stroke-dasharray="3 3"/>
    </g>
    <g id="Group_30062" data-name="Group 30062" transform="translate(267.518 474.037)" opacity="0.5">
      <path id="Path_20574" data-name="Path 20574" d="M337.588,138.646A2.092,2.092,0,1,0,335.5,140.8,2.124,2.124,0,0,0,337.588,138.646Zm0,0" transform="translate(-333.406 -116.545)" fill="#ff7861"/>
      <path id="Path_20576" data-name="Path 20576" d="M234.468,38.15a2.608,2.608,0,1,0-2.607,2.686A2.647,2.647,0,0,0,234.468,38.15Zm0,0" transform="translate(-202.977 2.82)" fill="#ffe581"/>
      <path id="Path_20577" data-name="Path 20577" d="M16.494,436.622a2.092,2.092,0,1,0-2.091,2.154A2.123,2.123,0,0,0,16.494,436.622Zm0,0" transform="translate(20.621 -434.469)" fill="#70c1b3"/>
      <path id="Path_20578" data-name="Path 20578" d="M107.533,245.591a.972.972,0,0,1-.7-1.65l.011-.011a.971.971,0,0,1,1.39,1.358l-.01.011A.97.97,0,0,1,107.533,245.591Zm0,0" transform="translate(-64.401 -236.952)" fill="#fa0"/>
      <path id="Path_20563" data-name="Path 20563" d="M152.666,137.437a.971.971,0,0,1-.5-1.8l.013-.008a.971.971,0,0,1,1,1.665l-.013.008A.968.968,0,0,1,152.666,137.437Zm0,0" transform="translate(-146.955 -99.683)" fill="#ff4e61"/>
      <path id="Path_20564" data-name="Path 20564" d="M165.174,159.353a.972.972,0,0,1-.5-1.8l.013-.008a.972.972,0,1,1,1.007,1.662l-.013.008A.966.966,0,0,1,165.174,159.353Zm0,0" transform="translate(-157.819 -118.719)" fill="#fa0"/>
      <path id="Path_20548" data-name="Path 20548" d="M5.891,257.76a.971.971,0,0,1-.7-1.648L6.4,254.867A.972.972,0,1,1,7.8,256.221l-1.208,1.244A.968.968,0,0,1,5.891,257.76Zm0,0" transform="translate(28.041 -217.125)" fill="#70c1b3"/>
      <path id="Path_20580" data-name="Path 20580" d="M133.536,11.682a.972.972,0,0,1-.7-1.648l1.208-1.244a.971.971,0,1,1,1.394,1.353l-1.207,1.244A.969.969,0,0,1,133.536,11.682Zm0,0" transform="translate(-95.449 -5.78)" fill="#ff7861"/>
      <g id="Group_30064" data-name="Group 30064" transform="matrix(0.966, 0.259, -0.259, 0.966, 15.32, 5.028)">
        <path id="Path_20554" data-name="Path 20554" d="M.982,1.954A.972.972,0,0,0,1.677.3L1.667.293A.972.972,0,1,0,.277,1.65l.01.011A.97.97,0,0,0,.982,1.954Zm0,0" transform="translate(2.294 0)" fill="#fa0"/>
        <path id="Path_20555" data-name="Path 20555" d="M.982,1.954a.971.971,0,0,0,.7-1.648L1.669.295A.972.972,0,0,0,.274,1.648l.011.011A.969.969,0,0,0,.982,1.954Zm0,0" transform="translate(0 2.362)" fill="#006cb4"/>
      </g>
    </g>
  </g>
</svg>
