<svg xmlns="http://www.w3.org/2000/svg" width="26.301" height="26.724" viewBox="0 0 26.301 26.724">
  <g id="channels" transform="translate(9313.185 -4784.838)">
    <path id="Path_23239" data-name="Path 23239" d="M27.037,19a2.05,2.05,0,0,0-2.346-1l-.721-1.337-2.331-.3A7.521,7.521,0,0,0,20.8,9.205l1.4-1.811,1.048.038a2.044,2.044,0,1,0,.033-.916L21.77,6.461,20.212,8.47a7.519,7.519,0,0,0-5.084-2.443V4.045a2.047,2.047,0,1,0-.917,0v1.98A7.441,7.441,0,0,0,9.342,8.212a7.559,7.559,0,0,0-.923,1.123l-2.345-.3-.5-.923a2.048,2.048,0,1,0-3.154-.566h0a2.052,2.052,0,0,0,2.346,1l.722,1.338,2.432.314a7.527,7.527,0,0,0-.307,5.9L6.123,18.025l-1.048-.038a2.049,2.049,0,0,0-1.937-1.66,2.047,2.047,0,0,0-.148,4.092h.076A2.049,2.049,0,0,0,5.042,18.9l1.518.055,1.481-1.91a7.548,7.548,0,0,0,6.17,3.978v1.655a2.047,2.047,0,1,0,.917,0V21.029A7.44,7.44,0,0,0,20,18.842a7.531,7.531,0,0,0,1.22-1.606l2.169.28.5.924A2.047,2.047,0,1,0,27.037,19ZM24.5,6.219a1.122,1.122,0,0,1,.769-.3h.042a1.13,1.13,0,1,1-.81.3Zm-19.19.675a1.13,1.13,0,0,1-2.077.213h0a1.13,1.13,0,1,1,2.077-.213ZM3.834,19.2a1.13,1.13,0,1,1,.36-.786A1.124,1.124,0,0,1,3.834,19.2ZM13.54,2.049a1.13,1.13,0,1,1,1.13,1.13A1.131,1.131,0,0,1,13.54,2.049ZM15.8,24.677a1.13,1.13,0,1,1-1.13-1.13A1.131,1.131,0,0,1,15.8,24.677Zm3.547-6.483a6.537,6.537,0,0,1-4.659,1.932,6.628,6.628,0,0,1-6.616-6.6,6.576,6.576,0,0,1,6.58-6.6,6.628,6.628,0,0,1,6.616,6.6A6.537,6.537,0,0,1,19.347,18.193Zm6.425,2.778a1.13,1.13,0,1,1,.458-1.531h0A1.132,1.132,0,0,1,25.772,20.971Z" transform="translate(-9314.201 4784.836)" fill="#006db4"/>
    <g id="Group_37672" data-name="Group 37672" transform="translate(-9313.181 4784.84)">
      <path id="Path_23240" data-name="Path 23240" d="M34.076,31.415a1.62,1.62,0,1,0,1.62,1.62A1.62,1.62,0,0,0,34.076,31.415Z" transform="translate(-20.594 -31.257)" fill="#77b9eb"/>
      <path id="Path_23241" data-name="Path 23241" d="M34.076,31.415a1.62,1.62,0,1,0,1.62,1.62A1.62,1.62,0,0,0,34.076,31.415Z" transform="translate(-9.724 -26.24)" fill="#77b9eb"/>
      <path id="Path_23242" data-name="Path 23242" d="M34.076,31.415a1.62,1.62,0,1,0,1.62,1.62A1.62,1.62,0,0,0,34.076,31.415Z" transform="translate(-30.628 -26.24)" fill="#77b9eb"/>
      <path id="Path_23243" data-name="Path 23243" d="M34.076,31.415a1.62,1.62,0,1,0,1.62,1.62A1.62,1.62,0,0,0,34.076,31.415Z" transform="translate(-9.724 -12.861)" fill="#77b9eb"/>
      <path id="Path_23245" data-name="Path 23245" d="M34.076,31.415a1.62,1.62,0,1,0,1.62,1.62A1.62,1.62,0,0,0,34.076,31.415Z" transform="translate(-20.594 -8.68)" fill="#77b9eb"/>
      <path id="Path_23244" data-name="Path 23244" d="M34.076,31.415a1.62,1.62,0,1,0,1.62,1.62A1.62,1.62,0,0,0,34.076,31.415Z" transform="translate(-32.301 -14.533)" fill="#77b9eb"/>
      <path id="Path_23239-2" data-name="Path 23239" d="M27.037,19a2.05,2.05,0,0,0-2.346-1l-.721-1.337-2.331-.3A7.521,7.521,0,0,0,20.8,9.205l1.4-1.811,1.048.038a2.044,2.044,0,1,0,.033-.916L21.77,6.461,20.212,8.47a7.519,7.519,0,0,0-5.084-2.443V4.045a2.047,2.047,0,1,0-.917,0v1.98A7.441,7.441,0,0,0,9.342,8.212a7.559,7.559,0,0,0-.923,1.123l-2.345-.3-.5-.923a2.048,2.048,0,1,0-3.154-.566h0a2.052,2.052,0,0,0,2.346,1l.722,1.338,2.432.314a7.527,7.527,0,0,0-.307,5.9L6.123,18.025l-1.048-.038a2.049,2.049,0,0,0-1.937-1.66,2.047,2.047,0,0,0-.148,4.092h.076A2.049,2.049,0,0,0,5.042,18.9l1.518.055,1.481-1.91a7.548,7.548,0,0,0,6.17,3.978v1.655a2.047,2.047,0,1,0,.917,0V21.029A7.44,7.44,0,0,0,20,18.842a7.531,7.531,0,0,0,1.22-1.606l2.169.28.5.924A2.047,2.047,0,1,0,27.037,19ZM24.5,6.219a1.122,1.122,0,0,1,.769-.3h.042a1.13,1.13,0,1,1-.81.3Zm-19.19.675a1.13,1.13,0,0,1-2.077.213h0a1.13,1.13,0,1,1,2.077-.213ZM3.834,19.2a1.13,1.13,0,1,1,.36-.786A1.124,1.124,0,0,1,3.834,19.2ZM13.54,2.049a1.13,1.13,0,1,1,1.13,1.13A1.131,1.131,0,0,1,13.54,2.049ZM15.8,24.677a1.13,1.13,0,1,1-1.13-1.13A1.131,1.131,0,0,1,15.8,24.677Zm3.547-6.483a6.537,6.537,0,0,1-4.659,1.932,6.628,6.628,0,0,1-6.616-6.6,6.576,6.576,0,0,1,6.58-6.6,6.628,6.628,0,0,1,6.616,6.6A6.537,6.537,0,0,1,19.347,18.193Zm6.425,2.778a1.13,1.13,0,1,1,.458-1.531h0A1.132,1.132,0,0,1,25.772,20.971Z" transform="translate(-1.017 -0.002)" fill="#77b9eb"/>
    </g>
    <path id="Path_23246" data-name="Path 23246" d="M25.426,18.795,24.7,17.458l-2.331-.3A7.521,7.521,0,0,0,21.538,10l1.4-1.811,1.048.038.033-.916L22.5,7.253,20.947,9.262a7.519,7.519,0,0,0-5.084-2.443V4.837h-.917v1.98A7.441,7.441,0,0,0,10.077,9a7.559,7.559,0,0,0-.923,1.123l-2.345-.3L6.31,8.9,5.5,9.337l.722,1.338,2.432.314a7.527,7.527,0,0,0-.307,5.9L6.858,18.817,5.81,18.779l-.033.917,1.518.055,1.481-1.91a7.548,7.548,0,0,0,6.17,3.978v1.655h.917V21.821a7.44,7.44,0,0,0,4.868-2.187,7.531,7.531,0,0,0,1.22-1.606l2.169.28.5.924Zm-5.344.191a6.537,6.537,0,0,1-4.659,1.932,6.628,6.628,0,0,1-6.616-6.6,6.576,6.576,0,0,1,6.58-6.6A6.628,6.628,0,0,1,22,14.32,6.537,6.537,0,0,1,20.082,18.985Z" transform="translate(-9314.937 4784.044)" fill="#006db4"/>
    <path id="Path_23238" data-name="Path 23238" d="M39.989,31.415a7.533,7.533,0,1,0,7.531,7.531A7.532,7.532,0,0,0,39.989,31.415Z" transform="translate(-9339.523 4759.395)" fill="#77b9eb"/>
  </g>
</svg>
