<svg xmlns="http://www.w3.org/2000/svg" xmlns:xlink="http://www.w3.org/1999/xlink" width="36" height="36" viewBox="0 0 36 36"><defs><style>.a{fill:#C36564;}.b{fill:#fafafa;stroke:#fafafa;stroke-width:0.5px;}.c{filter:url(#a);}</style><filter id="a" x="0" y="0" width="36" height="36" filterUnits="userSpaceOnUse"><feOffset dx="3" dy="3" input="SourceAlpha"/><feGaussianBlur stdDeviation="3" result="b"/><feFlood flood-color="#00426e" flood-opacity="0.18"/><feComposite operator="in" in2="b"/><feComposite in="SourceGraphic"/></filter></defs><g transform="translate(-31 -357)"><g class="c" transform="matrix(1, 0, 0, 1, 31, 357)"><circle class="a" cx="9" cy="9" r="9" transform="translate(6 6)"/></g><path class="b" d="M253.881,249.205l-4.9,4.9-1.567-1.567a.7.7,0,0,0-.5-.205h0a.7.7,0,0,0-.495,1.2l2.062,2.063a.7.7,0,0,0,.992,0l5.4-5.4a.7.7,0,1,0-.991-.992Z" transform="translate(-204.646 119.797)"/></g></svg>