<svg xmlns="http://www.w3.org/2000/svg" xmlns:xlink="http://www.w3.org/1999/xlink" width="58" height="49" viewBox="0 0 58 49">
  <defs>
    <clipPath id="clip-path">
      <rect id="Rectangle_7134" data-name="Rectangle 7134" width="58" height="49" transform="translate(30 510)" fill="#fff" stroke="#707070" stroke-width="1"/>
    </clipPath>
  </defs>
  <g id="christmas" transform="translate(-30 -510)" clip-path="url(#clip-path)">
    <g id="Group_37840" data-name="Group 37840" transform="translate(0 -1)">
      <g id="Group_30126" data-name="Group 30126" transform="translate(15500.041 1243.952) rotate(30)">
        <g id="Group_30067" data-name="Group 30067" transform="translate(-13753.482 7082)">
          <g id="Group_30062" data-name="Group 30062" transform="translate(0 0)" opacity="0.5">
            <path id="Path_20574" data-name="Path 20574" d="M338.855,139.3a2.726,2.726,0,1,0-2.724,2.806A2.767,2.767,0,0,0,338.855,139.3Zm0,0" transform="translate(-333.406 -117.153)" fill="#ff7861"/>
            <path id="Path_20576" data-name="Path 20576" d="M236.047,38.964a3.4,3.4,0,1,0-3.4,3.5A3.449,3.449,0,0,0,236.047,38.964Zm0,0" transform="translate(-204.438 7.804)" fill="#ffe581"/>
            <path id="Path_20577" data-name="Path 20577" d="M17.761,437.275a2.725,2.725,0,1,0-2.724,2.807A2.766,2.766,0,0,0,17.761,437.275Zm0,0" transform="translate(19.174 -430.999)" fill="#70c1b3"/>
            <path id="Path_20578" data-name="Path 20578" d="M107.827,246.183a1.266,1.266,0,0,1-.906-2.151l.014-.014a1.266,1.266,0,1,1,1.811,1.769l-.013.014A1.264,1.264,0,0,1,107.827,246.183Zm0,0" transform="translate(-62.226 -231.231)" fill="#fa0"/>
            <path id="Path_20563" data-name="Path 20563" d="M152.961,138.027a1.266,1.266,0,0,1-.654-2.351l.017-.01a1.266,1.266,0,0,1,1.3,2.17l-.017.01A1.261,1.261,0,0,1,152.961,138.027Zm0,0" transform="translate(-144.915 -101.397)" fill="#ff4e61"/>
            <path id="Path_20564" data-name="Path 20564" d="M165.469,159.944a1.266,1.266,0,0,1-.658-2.349l.017-.01a1.266,1.266,0,1,1,1.312,2.165l-.017.01A1.259,1.259,0,0,1,165.469,159.944Zm0,0" transform="translate(-153.327 -121.681)" fill="#fa0"/>
            <path id="Path_20548" data-name="Path 20548" d="M6.185,258.725a1.266,1.266,0,0,1-.908-2.147l1.573-1.621a1.266,1.266,0,1,1,1.817,1.763l-1.574,1.621A1.261,1.261,0,0,1,6.185,258.725Zm0,0" transform="translate(28.903 -216.823)" fill="#70c1b3"/>
            <path id="Path_20580" data-name="Path 20580" d="M133.83,12.647a1.266,1.266,0,0,1-.908-2.147L134.5,8.879a1.266,1.266,0,1,1,1.816,1.763l-1.573,1.621A1.263,1.263,0,0,1,133.83,12.647Zm0,0" transform="translate(-92.335 -4.958)" fill="#ff7861"/>
            <g id="Group_30064" data-name="Group 30064" transform="translate(7.205 12.346) rotate(-37)">
              <path id="Path_20554" data-name="Path 20554" d="M1.28,2.546A1.266,1.266,0,0,0,2.186.4L2.172.381A1.266,1.266,0,0,0,.361,2.15l.013.014A1.264,1.264,0,0,0,1.28,2.546Zm0,0" transform="translate(2.989 0)" fill="#fa0"/>
              <path id="Path_20555" data-name="Path 20555" d="M1.28,2.546A1.266,1.266,0,0,0,2.188.4L2.174.384A1.266,1.266,0,0,0,.358,2.148l.014.014A1.262,1.262,0,0,0,1.28,2.546Zm0,0" transform="translate(0 3.078)" fill="#006cb4"/>
            </g>
            <path id="Path_20617" data-name="Path 20617" d="M59.273,273.468a1.46,1.46,0,1,0-1.459,1.5A1.481,1.481,0,0,0,59.273,273.468Zm0,0" transform="translate(-10.507 -236.98)" fill="#006cb4"/>
            <path id="Path_20618" data-name="Path 20618" d="M275.321,138.028a1.261,1.261,0,0,1-.649-.179l-.017-.01a1.266,1.266,0,0,1,1.3-2.173l.017.01a1.266,1.266,0,0,1-.651,2.352Zm0,0" transform="translate(-226.961 -110.532)" fill="#fa0"/>
            <path id="Path_20619" data-name="Path 20619" d="M262.814,159.945a1.259,1.259,0,0,1-.652-.182l-.017-.01a1.266,1.266,0,1,1,1.307-2.168l.017.01a1.266,1.266,0,0,1-.655,2.35Zm0,0" transform="translate(-211.592 -128.64)" fill="#2dc471"/>
          </g>
        </g>
      </g>
      <g id="Group_37838" data-name="Group 37838" transform="translate(-44.01 -145.769)">
        <path id="Path_23680" data-name="Path 23680" d="M275.748,236.421a9.675,9.675,0,0,0-.413,5.818,9.164,9.164,0,0,0-5.549.464,10.478,10.478,0,0,0-1.717.866l-.048-.023a9.707,9.707,0,0,0-3.853-2.684,10.114,10.114,0,0,0-2.844-.67,10.728,10.728,0,0,0-.655-2.906,9.908,9.908,0,0,0-2.68-3.983,9.384,9.384,0,0,0,1.946-5.966c0-.221-.011-.437-.023-.654.211.013.424.023.64.024a8.948,8.948,0,0,0,5.823-1.974,9.8,9.8,0,0,0,3.682,2.486,10.115,10.115,0,0,0,2.844.67,10.73,10.73,0,0,0,.655,2.9,9.815,9.815,0,0,0,2.872,4.154A10.939,10.939,0,0,0,275.748,236.421Z" transform="translate(-153.305 451.693)" fill="#00b494" stroke="#06a88b" stroke-linejoin="round" stroke-width="1"/>
        <g id="Group_37835" data-name="Group 37835" transform="translate(106.263 686.818)" opacity="0.1">
          <path id="Path_23681" data-name="Path 23681" d="M295.1,365.126a7.137,7.137,0,0,1-.552.621c-3.637,3.632-10.49,2.678-15.3-2.13-.061-.061-.121-.123-.181-.184a10.877,10.877,0,0,1,1.757,5.068,10.115,10.115,0,0,1,2.844.67,9.707,9.707,0,0,1,3.853,2.684l.048.023a10.481,10.481,0,0,1,1.717-.866,9.165,9.165,0,0,1,5.549-.464A9.549,9.549,0,0,1,295.1,365.126Z" transform="translate(-279.06 -363.433)" fill="#414042"/>
        </g>
        <path id="Path_23691" data-name="Path 23691" d="M4316.575,3401.344s-4.876-5.054-5.353-7.189" transform="translate(-4199.851 -2712.615)" fill="none" stroke="#06a88b" stroke-linecap="round" stroke-width="1"/>
        <path id="Path_23675" data-name="Path 23675" d="M8.588,236.422A9.676,9.676,0,0,1,9,242.24a9.164,9.164,0,0,1,5.549.464,10.468,10.468,0,0,1,1.717.866l.048-.023a9.709,9.709,0,0,1,3.853-2.684,10.115,10.115,0,0,1,2.844-.67,10.726,10.726,0,0,1,.655-2.905,9.907,9.907,0,0,1,2.68-3.983,9.384,9.384,0,0,1-1.946-5.967c0-.221.011-.437.023-.654-.211.013-.423.023-.64.024a8.948,8.948,0,0,1-5.823-1.974,9.8,9.8,0,0,1-3.682,2.486,10.115,10.115,0,0,1-2.843.67,10.729,10.729,0,0,1-.655,2.9,9.814,9.814,0,0,1-2.872,4.154A10.9,10.9,0,0,1,8.588,236.422Z" transform="translate(78.041 451.692)" fill="#00b494" stroke="#06a88b" stroke-linejoin="round" stroke-width="1"/>
        <path id="Path_23690" data-name="Path 23690" d="M4311.223,3401.344s4.876-5.054,5.353-7.189" transform="translate(-4219.176 -2712.615)" fill="none" stroke="#06a88b" stroke-linecap="round" stroke-width="1"/>
        <path id="Path_23674" data-name="Path 23674" d="M197.088,37.335a5.056,5.056,0,1,0,0,7.15A5.035,5.035,0,0,0,197.088,37.335Z" transform="translate(-88.971 626.421)" fill="#e0594d" stroke="#e0594d" stroke-linejoin="round" stroke-width="1"/>
        <path id="Path_23676" data-name="Path 23676" d="M133.676,157.7a5.056,5.056,0,1,0,0,7.15A5.035,5.035,0,0,0,133.676,157.7Z" transform="translate(-30.311 515.078)" fill="#ed5d51" stroke="#e0594d" stroke-linejoin="round" stroke-width="1"/>
        <g id="Group_37832" data-name="Group 37832" transform="translate(99.474 663.075)" opacity="0.1">
          <path id="Path_23677" data-name="Path 23677" d="M195.073,54.257a5.056,5.056,0,0,1-4.3-7.725,5.054,5.054,0,0,0-.847,7.831,5.063,5.063,0,0,0,7.88-.906A5.033,5.033,0,0,1,195.073,54.257Z" transform="translate(-188.446 -46.532)" fill="#414042"/>
        </g>
        <g id="Group_37833" data-name="Group 37833" transform="translate(94.723 672.093)" opacity="0.1">
          <path id="Path_23678" data-name="Path 23678" d="M131.662,174.618a5.056,5.056,0,0,1-4.3-7.725,5.11,5.11,0,0,0-.847.681,5.06,5.06,0,1,0,7.88,6.244A5.034,5.034,0,0,1,131.662,174.618Z" transform="translate(-125.035 -166.893)" fill="#414042"/>
        </g>
        <g id="Group_37834" data-name="Group 37834" transform="translate(85.948 678.884)" opacity="0.1">
          <path id="Path_23679" data-name="Path 23679" d="M14.435,270.054c-2.982-2.977-2.876-8.113-.088-12.516l-.069.028a10.113,10.113,0,0,1-2.843.67,10.729,10.729,0,0,1-.655,2.9,9.814,9.814,0,0,1-2.872,4.154,10.935,10.935,0,0,1,.681,1.473A9.676,9.676,0,0,1,9,272.586a9.164,9.164,0,0,1,5.549.464,10.463,10.463,0,0,1,1.717.866l.048-.023a9.214,9.214,0,0,1,2.093-1.8A7.516,7.516,0,0,1,14.435,270.054Z" transform="translate(-7.908 -257.538)" fill="#414042"/>
        </g>
        <path id="Path_23682" data-name="Path 23682" d="M258.02,338.68l-.028.034c.051.044.1.09.151.137C258.1,338.794,258.061,338.737,258.02,338.68Z" transform="translate(-153.307 346.283)" fill="#00ab8c"/>
        <path id="Path_23683" data-name="Path 23683" d="M260.5,157.7a5.051,5.051,0,1,0,1.483,3.575A5.035,5.035,0,0,0,260.5,157.7Z" transform="translate(-147.63 515.078)" fill="#d84f48" stroke="#e0594d" stroke-linejoin="round" stroke-width="1"/>
        <g id="Group_37836" data-name="Group 37836" transform="translate(104.225 672.093)" opacity="0.1">
          <path id="Path_23684" data-name="Path 23684" d="M258.482,174.618a5.056,5.056,0,0,1-4.3-7.725,5.116,5.116,0,0,0-.847.681,5.06,5.06,0,1,0,7.883,6.243A5.034,5.034,0,0,1,258.482,174.618Z" transform="translate(-251.855 -166.893)" fill="#414042"/>
        </g>
        <g id="Group_37837" data-name="Group 37837" transform="translate(101.304 663.705)">
          <path id="Path_23685" data-name="Path 23685" d="M275.4,54.967a.572.572,0,0,0-.74.738,1.656,1.656,0,0,0,1.157,1.156.572.572,0,0,0,.74-.738A1.656,1.656,0,0,0,275.4,54.967Z" transform="translate(-270.01 -54.944)" fill="#fff"/>
          <path id="Path_23686" data-name="Path 23686" d="M340.209,177.4a.572.572,0,0,0-.739.738,1.655,1.655,0,0,0,1.157,1.156.572.572,0,0,0,.739-.738A1.656,1.656,0,0,0,340.209,177.4Z" transform="translate(-329.963 -168.2)" fill="#fff"/>
          <path id="Path_23687" data-name="Path 23687" d="M213.63,177.4a.572.572,0,0,0-.739.738,1.655,1.655,0,0,0,1.157,1.156.572.572,0,0,0,.739-.738A1.656,1.656,0,0,0,213.63,177.4Z" transform="translate(-212.867 -168.2)" fill="#fff"/>
        </g>
      </g>
    </g>
  </g>
</svg>
