<svg xmlns="http://www.w3.org/2000/svg" width="28" height="28" viewBox="0 0 28 28">
  <g id="close" transform="translate(-251 -198)">
    <circle id="Ellipse_1236" data-name="Ellipse 1236" cx="14" cy="14" r="14" transform="translate(251 198)" fill="#A36363"/>
    <g id="Group_12326" data-name="Group 12326" transform="translate(89.941 610.903) rotate(-90)">
      <path id="Close-2" data-name="Close" d="M401.43,170.486l-2.527,2.527-2.531-2.529a1.446,1.446,0,1,0-2.045,2.046l2.529,2.529-2.527,2.527a1.448,1.448,0,0,0,2.047,2.048l2.528-2.527,2.528,2.528a1.446,1.446,0,1,0,2.046-2.045l-2.528-2.53,2.527-2.527a1.448,1.448,0,0,0-2.047-2.047Z" transform="translate(0 0)" fill="#fafafa" fill-rule="evenodd"/>
      <path id="Close-3" data-name="Close" d="M401.43,170.486l-2.527,2.527-2.531-2.529a1.446,1.446,0,1,0-2.045,2.046l2.529,2.529-2.527,2.527a1.448,1.448,0,0,0,2.047,2.048l2.528-2.527,2.528,2.528a1.446,1.446,0,1,0,2.046-2.045l-2.528-2.53,2.527-2.527a1.448,1.448,0,0,0-2.047-2.047Z" transform="translate(0 0)" fill="#fafafa" fill-rule="evenodd"/>
    </g>
  </g>
</svg>
