<svg xmlns="http://www.w3.org/2000/svg" width="45.458" height="41.994" viewBox="0 0 45.458 41.994">
  <g id="diwali" transform="translate(-41.643 -584.802)">
    <g id="Group_30062" data-name="Group 30062" transform="matrix(0.966, -0.259, 0.259, 0.966, 38.327, 595.118)" opacity="0.5">
      <path id="Path_20574" data-name="Path 20574" d="M4.721,2.432A2.4,2.4,0,0,0,2.361,0,2.4,2.4,0,0,0,0,2.432,2.4,2.4,0,0,0,2.361,4.863,2.4,2.4,0,0,0,4.721,2.432Zm0,0" transform="translate(0 12.811)" fill="#ff7861"/>
      <path id="Path_20576" data-name="Path 20576" d="M5.886,3.032A2.989,2.989,0,0,0,2.943,0,2.988,2.988,0,0,0,0,3.032,2.989,2.989,0,0,0,2.943,6.064,2.989,2.989,0,0,0,5.886,3.032Zm0,0" transform="translate(26.101 33.726)" fill="#ffe581"/>
      <path id="Path_20577" data-name="Path 20577" d="M4.721,2.431A2.4,2.4,0,0,0,2.36,0,2.4,2.4,0,0,0,0,2.431,2.4,2.4,0,0,0,2.36,4.863,2.4,2.4,0,0,0,4.721,2.431Zm0,0" transform="translate(35.137 0)" fill="#70c1b3"/>
      <path id="Path_20578" data-name="Path 20578" d="M1.1,2.206A1.1,1.1,0,0,1,.312.342L.324.33A1.1,1.1,0,0,1,1.893,1.863l-.012.012A1.1,1.1,0,0,1,1.1,2.206Zm0,0" transform="translate(43.769 11.086)" fill="#fa0"/>
      <path id="Path_20563" data-name="Path 20563" d="M1.1,2.2A1.1,1.1,0,0,1,.532.166L.547.157a1.1,1.1,0,0,1,1.13,1.88l-.014.009A1.093,1.093,0,0,1,1.1,2.2Zm0,0" transform="translate(5.3 26.6)" fill="#ff4e61"/>
      <path id="Path_20564" data-name="Path 20564" d="M1.1,2.2A1.1,1.1,0,0,1,.528.167L.543.159A1.1,1.1,0,1,1,1.68,2.035l-.015.009A1.091,1.091,0,0,1,1.1,2.2Zm0,0" transform="translate(7.155 29.852)" fill="#fa0"/>
      <path id="Path_20548" data-name="Path 20548" d="M1.1,3.6A1.1,1.1,0,0,1,.31,1.738L1.673.333A1.1,1.1,0,1,1,3.247,1.861l-1.364,1.4A1.093,1.093,0,0,1,1.1,3.6Zm0,0" transform="translate(33.646 32.78)" fill="#70c1b3"/>
      <path id="Path_20580" data-name="Path 20580" d="M1.1,3.6A1.1,1.1,0,0,1,.31,1.738L1.673.333A1.1,1.1,0,1,1,3.247,1.861l-1.363,1.4A1.1,1.1,0,0,1,1.1,3.6Zm0,0" transform="translate(38.075 6.603)" fill="#ff7861"/>
      <g id="Group_30064" data-name="Group 30064" transform="matrix(0.966, 0.259, -0.259, 0.966, 12.458, 1.062)">
        <path id="Path_20554" data-name="Path 20554" d="M1.109,2.206A1.1,1.1,0,0,0,1.894.342L1.881.33A1.1,1.1,0,1,0,.313,1.863l.012.012A1.1,1.1,0,0,0,1.109,2.206Zm0,0" transform="translate(2.589 0)" fill="#fa0"/>
        <path id="Path_20555" data-name="Path 20555" d="M1.109,2.206A1.1,1.1,0,0,0,1.9.345L1.884.333A1.1,1.1,0,0,0,.31,1.861l.012.012A1.094,1.094,0,0,0,1.109,2.206Zm0,0" transform="translate(0 2.667)" fill="#006cb4"/>
      </g>
      <path id="Path_21974" data-name="Path 21974" d="M3.294,1.7A1.672,1.672,0,0,0,1.647,0,1.672,1.672,0,0,0,0,1.7a1.673,1.673,0,0,0,1.647,1.7A1.673,1.673,0,0,0,3.294,1.7Zm0,0" transform="translate(41.89 21.086) rotate(45)" fill="#006cb4"/>
      <path id="Path_21975" data-name="Path 21975" d="M1.1,2.2A1.1,1.1,0,0,1,.528.167L.543.159A1.1,1.1,0,1,1,1.68,2.035l-.015.009A1.091,1.091,0,0,1,1.1,2.2Zm0,0" transform="translate(3.379 17.774)" fill="#fa0"/>
    </g>
    <path id="Path_21962" data-name="Path 21962" d="M25.676,33H40.352a11.236,11.236,0,0,1-2.247,6.762c-1.851-.181-1.942-2.247-3.962-2.247-2.122,0-2.122,2.258-4.233,2.258s-2.111-2.258-4.233-2.258-2.122,2.258-4.233,2.258-2.111-2.258-4.233-2.258c-2.021,0-2.111,2.066-3.963,2.247A11.236,11.236,0,0,1,11,33Z" transform="translate(40.505 572.55)" fill="#9d87e0"/>
    <path id="Path_21963" data-name="Path 21963" d="M37.849,39.247a12.071,12.071,0,0,1-1.061,1.219,11.254,11.254,0,0,1-7.981,3.308H22.033a11.311,11.311,0,0,1-9.043-4.527C14.841,39.066,14.932,37,16.952,37c2.122,0,2.122,2.258,4.233,2.258S23.3,37,25.419,37s2.122,2.258,4.233,2.258S31.764,37,33.886,37C35.907,37,36,39.066,37.849,39.247Z" transform="translate(40.761 573.066)" fill="#b7a7e9"/>
    <path id="Path_21964" data-name="Path 21964" d="M34.231,35c-2.164,0-2.164,2.258-4.328,2.258S27.739,35,25.575,35s-2.164,2.258-4.327,2.258S19.084,35,16.92,35s-2.163,2.258-4.327,2.258a2.434,2.434,0,0,1-.812-.139A11.272,11.272,0,0,0,13.146,39.5c1.851-.181,1.942-2.247,3.963-2.247,2.122,0,2.122,2.258,4.233,2.258s2.111-2.258,4.233-2.258,2.122,2.258,4.233,2.258,2.111-2.258,4.233-2.258c2.021,0,2.111,2.066,3.962,2.247a11.272,11.272,0,0,0,1.365-2.385,2.434,2.434,0,0,1-.812.139C36.394,37.258,36.394,35,34.231,35Z" transform="translate(40.605 572.808)" fill="#9d87e0"/>
    <path id="Path_21965" data-name="Path 21965" d="M12.693,37.516c2.109,0,2.178-2.129,4.177-2.238A11.308,11.308,0,0,1,16.645,33H11a11.221,11.221,0,0,0,1.447,5.522,11.841,11.841,0,0,1-.564-1.145,2.434,2.434,0,0,0,.811.139Z" transform="translate(40.505 572.55)" fill="#9d87e0"/>
    <path id="Path_21966" data-name="Path 21966" d="M13.068,39.109a11.283,11.283,0,0,1-.684-1.043,11.436,11.436,0,0,0,.684,1.043Z" transform="translate(40.683 573.203)" fill="#00c4a2"/>
    <path id="Path_21967" data-name="Path 21967" d="M17.361,37.056A2.258,2.258,0,0,0,16.953,37c-2.021,0-2.111,2.066-3.963,2.247a11.311,11.311,0,0,0,9.043,4.527h5.645a11.289,11.289,0,0,1-10.316-6.717Z" transform="translate(40.761 573.066)" fill="#b7a7e9"/>
    <path id="Path_21968" data-name="Path 21968" d="M12.4,38.089c-.038-.065-.078-.131-.113-.2C12.319,37.958,12.359,38.023,12.4,38.089Z" transform="translate(40.67 573.181)" fill="#00ab8d"/>
    <path id="Path_21969" data-name="Path 21969" d="M17.108,37.256a2.258,2.258,0,0,1,.409.056,11.166,11.166,0,0,1-.743-2.294c-2,.113-2.073,2.238-4.177,2.238a2.434,2.434,0,0,1-.812-.139,11.841,11.841,0,0,0,.564,1.145c.037.067.077.132.113.2a11.282,11.282,0,0,0,.684,1.043C15,39.321,15.087,37.256,17.108,37.256Z" transform="translate(40.606 572.81)" fill="#9d87e0"/>
    <g id="Group_30613" data-name="Group 30613" transform="translate(60.536 589.745)">
      <path id="Path_21958" data-name="Path 21958" d="M24.724,25c.681,0,2.724,2.615,2.724,3.814s-1.226,1.635-2.724,1.635S22,30.013,22,28.814,24.043,25,24.724,25Z" transform="translate(-19.276 -16.827)" fill="#ffda45"/>
      <path id="Path_21959" data-name="Path 21959" d="M25.449,19c1.362,0,5.449,6.525,5.449,9.536s-2.438,4.087-5.449,4.087c1.5,0,2.724-.436,2.724-1.635s-2.043-3.814-2.724-3.814-2.724,2.615-2.724,3.814,1.226,1.635,2.724,1.635c-3.011,0-5.449-1.076-5.449-4.087S24.087,19,25.449,19Z" transform="translate(-20 -19)" fill="#ffda45"/>
      <path id="Path_21960" data-name="Path 21960" d="M25.449,21.724c1.177,0,4.384,4.869,5.235,8.135a4.294,4.294,0,0,0,.214-1.324C30.9,25.525,26.811,19,25.449,19S20,25.525,20,28.536a4.294,4.294,0,0,0,.214,1.324C21.065,26.593,24.272,21.724,25.449,21.724Z" transform="translate(-20 -19)" fill="#ffee6e"/>
      <path id="Path_21970" data-name="Path 21970" d="M24.372,25c-.3,0-.861.515-1.4,1.184a9.51,9.51,0,0,0,4.1,2.494C26.948,27.436,25.031,25,24.372,25Z" transform="translate(-18.923 -16.827)" fill="#ffda45"/>
      <path id="Path_21971" data-name="Path 21971" d="M24.88,21c-.7,0-2.1,1.706-3.309,3.773a9.536,9.536,0,0,0,1.907,2.861c.541-.67,1.1-1.185,1.4-1.185.659,0,2.576,2.436,2.7,3.678a9.314,9.314,0,0,0,1.75.353,3.416,3.416,0,0,0,.911-1.869,5.041,5.041,0,0,1-.128.522C29.263,25.869,26.057,21,24.88,21Z" transform="translate(-19.431 -18.276)" fill="#ffda45"/>
      <path id="Path_21972" data-name="Path 21972" d="M28.023,26a4.613,4.613,0,0,1-.086.8,3.991,3.991,0,0,0,.086-.8Z" transform="translate(-17.125 -16.464)" fill="#ffda45"/>
      <path id="Path_21973" data-name="Path 21973" d="M25.027,21.724c1.177,0,4.384,4.869,5.235,8.135a5.041,5.041,0,0,0,.128-.522,4.613,4.613,0,0,0,.086-.8c0-3.011-4.087-9.536-5.449-9.536-.805,0-2.56,2.283-3.862,4.768a9.475,9.475,0,0,0,.553,1.729C22.926,23.43,24.331,21.724,25.027,21.724Z" transform="translate(-19.578 -19)" fill="#ffee6e"/>
    </g>
  </g>
</svg>
