<svg xmlns="http://www.w3.org/2000/svg" width="17.373" height="23.166" viewBox="0 0 17.373 23.166"><defs><style>.a{fill:#77b9eb;}.b{fill:#006db4;}</style></defs><g transform="translate(0 0.004)"><path class="a" d="M16.673,2.749,14.622.7A2.413,2.413,0,0,0,11.21.7L2.417,9.51a2.413,2.413,0,0,0-.6.965L.052,16.117a.965.965,0,0,0,1.206,1.211L6.9,15.557a2.413,2.413,0,0,0,.965-.594l8.812-8.807A2.413,2.413,0,0,0,16.673,2.749ZM13.6,3.772l-8.2,8.2a.965.965,0,0,1-1.351-1.361l8.2-8.2a.966.966,0,1,1,1.366,1.366Z" transform="translate(-0.004)"/><path class="b" d="M16.167,45.413H1.206a1.206,1.206,0,0,1,0-2.413h14.96a1.206,1.206,0,0,1,0,2.413Z" transform="translate(0 -22.25)"/></g></svg>