<svg id="Icons_Finance-Security_receipt" data-name="Icons / Finance-Security / receipt" xmlns="http://www.w3.org/2000/svg" xmlns:xlink="http://www.w3.org/1999/xlink" width="25.255" height="31.996" viewBox="0 0 25.255 31.996">
  <defs>
    <linearGradient id="linear-gradient" x1="0.5" x2="0.5" y2="1" gradientUnits="objectBoundingBox">
      <stop offset="0" stop-color="#C36564"/>
      <stop offset="1" stop-color="#C36564"/>
    </linearGradient>
  </defs>
  <g id="receipt" transform="translate(-0.568 0)">
    <path id="Shape" d="M21.052,32a1.652,1.652,0,0,1-1.191-.5l-1.829-1.869a1.662,1.662,0,0,0-2.381,0l-1.828,1.869a1.664,1.664,0,0,1-1.193.5,1.664,1.664,0,0,1-1.192-.5L9.61,29.624a1.662,1.662,0,0,0-2.382,0L5.4,31.493a1.659,1.659,0,0,1-2.381,0L.494,28.911A1.709,1.709,0,0,1,0,27.7V3.657A3.633,3.633,0,0,1,1.071,1.071,3.682,3.682,0,0,1,3.656,0H21.6a3.658,3.658,0,0,1,3.655,3.657V27.7a1.739,1.739,0,0,1-.5,1.223l-2.514,2.575a1.656,1.656,0,0,1-1.191.5ZM6.454,14.142a1.684,1.684,0,0,0-1.682,1.682,1.672,1.672,0,0,0,.493,1.19,1.692,1.692,0,0,0,1.189.492H11.32a1.68,1.68,0,0,0,1.553-2.326,1.638,1.638,0,0,0-.365-.545,1.686,1.686,0,0,0-1.189-.493ZM6.454,8a1.682,1.682,0,0,0,0,3.364h9.519a1.671,1.671,0,0,0,1.19-.492,1.683,1.683,0,0,0,0-2.379A1.672,1.672,0,0,0,15.973,8Z" transform="translate(0.568 0)" fill="url(#linear-gradient)"/>
  </g>
</svg>
