<svg xmlns="http://www.w3.org/2000/svg" xmlns:xlink="http://www.w3.org/1999/xlink" width="261.629" height="167.931" viewBox="0 0 261.629 167.931">
  <defs>
    <clipPath id="clip-path">
      <rect width="152.371" height="108.836" fill="none"/>
    </clipPath>
    <clipPath id="clip-path-2">
      <rect width="46.759" height="82.457" fill="none"/>
    </clipPath>
  </defs>
  <g id="illustration" transform="translate(-34 -410.069)">
    <g id="Group_46282" data-name="Group 46282" transform="translate(143.259 469.164)">
      <g id="Repeat_Grid_21" data-name="Repeat Grid 21" transform="translate(0)" clip-path="url(#clip-path)">
        <g transform="translate(-54 -372)">
          <g id="Rectangle_8150" data-name="Rectangle 8150" transform="translate(54 372)" fill="none" stroke="#f8f8f8" stroke-width="1">
            <rect width="29" height="16" rx="2" stroke="none"/>
            <rect x="0.5" y="0.5" width="28" height="15" rx="1.5" fill="none"/>
          </g>
          <rect id="Rectangle_8186" data-name="Rectangle 8186" width="25" height="12" rx="1" transform="translate(56 374)" fill="#de8b86" opacity="0.372"/>
        </g>
        <g transform="translate(-23 -372)">
          <g id="Rectangle_8150-2" data-name="Rectangle 8150" transform="translate(54 372)" fill="none" stroke="#f8f8f8" stroke-width="1">
            <rect width="29" height="16" rx="2" stroke="none"/>
            <rect x="0.5" y="0.5" width="28" height="15" rx="1.5" fill="none"/>
          </g>
          <rect id="Rectangle_8186-2" data-name="Rectangle 8186" width="25" height="12" rx="1" transform="translate(56 374)" fill="#de8b86" opacity="0.372"/>
        </g>
        <g transform="translate(8 -372)">
          <g id="Rectangle_8150-3" data-name="Rectangle 8150" transform="translate(54 372)" fill="none" stroke="#f8f8f8" stroke-width="1">
            <rect width="29" height="16" rx="2" stroke="none"/>
            <rect x="0.5" y="0.5" width="28" height="15" rx="1.5" fill="none"/>
          </g>
          <rect id="Rectangle_8186-3" data-name="Rectangle 8186" width="25" height="12" rx="1" transform="translate(56 374)" fill="#de8b86" opacity="0.372"/>
        </g>
        <g transform="translate(39 -372)">
          <g id="Rectangle_8150-4" data-name="Rectangle 8150" transform="translate(54 372)" fill="none" stroke="#f8f8f8" stroke-width="1">
            <rect width="29" height="16" rx="2" stroke="none"/>
            <rect x="0.5" y="0.5" width="28" height="15" rx="1.5" fill="none"/>
          </g>
          <rect id="Rectangle_8186-4" data-name="Rectangle 8186" width="25" height="12" rx="1" transform="translate(56 374)" fill="#de8b86" opacity="0.372"/>
        </g>
        <g transform="translate(70 -372)">
          <g id="Rectangle_8150-5" data-name="Rectangle 8150" transform="translate(54 372)" fill="none" stroke="#f8f8f8" stroke-width="1">
            <rect width="29" height="16" rx="2" stroke="none"/>
            <rect x="0.5" y="0.5" width="28" height="15" rx="1.5" fill="none"/>
          </g>
          <rect id="Rectangle_8186-5" data-name="Rectangle 8186" width="25" height="12" rx="1" transform="translate(56 374)" fill="#de8b86" opacity="0.372"/>
        </g>
        <g transform="translate(-54 -353)">
          <g id="Rectangle_8150-6" data-name="Rectangle 8150" transform="translate(54 372)" fill="none" stroke="#f8f8f8" stroke-width="1">
            <rect width="29" height="16" rx="2" stroke="none"/>
            <rect x="0.5" y="0.5" width="28" height="15" rx="1.5" fill="none"/>
          </g>
          <rect id="Rectangle_8186-6" data-name="Rectangle 8186" width="25" height="12" rx="1" transform="translate(56 374)" fill="#de8b86" opacity="0.372"/>
        </g>
        <g transform="translate(-23 -353)">
          <g id="Rectangle_8150-7" data-name="Rectangle 8150" transform="translate(54 372)" fill="none" stroke="#f8f8f8" stroke-width="1">
            <rect width="29" height="16" rx="2" stroke="none"/>
            <rect x="0.5" y="0.5" width="28" height="15" rx="1.5" fill="none"/>
          </g>
          <rect id="Rectangle_8186-7" data-name="Rectangle 8186" width="25" height="12" rx="1" transform="translate(56 374)" fill="#de8b86" opacity="0.372"/>
        </g>
        <g transform="translate(8 -353)">
          <g id="Rectangle_8150-8" data-name="Rectangle 8150" transform="translate(54 372)" fill="none" stroke="#f8f8f8" stroke-width="1">
            <rect width="29" height="16" rx="2" stroke="none"/>
            <rect x="0.5" y="0.5" width="28" height="15" rx="1.5" fill="none"/>
          </g>
          <rect id="Rectangle_8186-8" data-name="Rectangle 8186" width="25" height="12" rx="1" transform="translate(56 374)" fill="#de8b86" opacity="0.372"/>
        </g>
        <g transform="translate(39 -353)">
          <g id="Rectangle_8150-9" data-name="Rectangle 8150" transform="translate(54 372)" fill="none" stroke="#f8f8f8" stroke-width="1">
            <rect width="29" height="16" rx="2" stroke="none"/>
            <rect x="0.5" y="0.5" width="28" height="15" rx="1.5" fill="none"/>
          </g>
          <rect id="Rectangle_8186-9" data-name="Rectangle 8186" width="25" height="12" rx="1" transform="translate(56 374)" fill="#de8b86" opacity="0.372"/>
        </g>
        <g transform="translate(70 -353)">
          <g id="Rectangle_8150-10" data-name="Rectangle 8150" transform="translate(54 372)" fill="none" stroke="#f8f8f8" stroke-width="1">
            <rect width="29" height="16" rx="2" stroke="none"/>
            <rect x="0.5" y="0.5" width="28" height="15" rx="1.5" fill="none"/>
          </g>
          <rect id="Rectangle_8186-10" data-name="Rectangle 8186" width="25" height="12" rx="1" transform="translate(56 374)" fill="#de8b86" opacity="0.372"/>
        </g>
        <g transform="translate(-54 -334)">
          <g id="Rectangle_8150-11" data-name="Rectangle 8150" transform="translate(54 372)" fill="none" stroke="#f8f8f8" stroke-width="1">
            <rect width="29" height="16" rx="2" stroke="none"/>
            <rect x="0.5" y="0.5" width="28" height="15" rx="1.5" fill="none"/>
          </g>
          <rect id="Rectangle_8186-11" data-name="Rectangle 8186" width="25" height="12" rx="1" transform="translate(56 374)" fill="#de8b86" opacity="0.372"/>
        </g>
        <g transform="translate(-23 -334)">
          <g id="Rectangle_8150-12" data-name="Rectangle 8150" transform="translate(54 372)" fill="none" stroke="#f8f8f8" stroke-width="1">
            <rect width="29" height="16" rx="2" stroke="none"/>
            <rect x="0.5" y="0.5" width="28" height="15" rx="1.5" fill="none"/>
          </g>
          <rect id="Rectangle_8186-12" data-name="Rectangle 8186" width="25" height="12" rx="1" transform="translate(56 374)" fill="#de8b86" opacity="0.372"/>
        </g>
        <g transform="translate(8 -334)">
          <g id="Rectangle_8150-13" data-name="Rectangle 8150" transform="translate(54 372)" fill="none" stroke="#f8f8f8" stroke-width="1">
            <rect width="29" height="16" rx="2" stroke="none"/>
            <rect x="0.5" y="0.5" width="28" height="15" rx="1.5" fill="none"/>
          </g>
          <rect id="Rectangle_8186-13" data-name="Rectangle 8186" width="25" height="12" rx="1" transform="translate(56 374)" fill="#de8b86" opacity="0.372"/>
        </g>
        <g transform="translate(39 -334)">
          <g id="Rectangle_8150-14" data-name="Rectangle 8150" transform="translate(54 372)" fill="none" stroke="#f8f8f8" stroke-width="1">
            <rect width="29" height="16" rx="2" stroke="none"/>
            <rect x="0.5" y="0.5" width="28" height="15" rx="1.5" fill="none"/>
          </g>
          <rect id="Rectangle_8186-14" data-name="Rectangle 8186" width="25" height="12" rx="1" transform="translate(56 374)" fill="#de8b86" opacity="0.372"/>
        </g>
        <g transform="translate(70 -334)">
          <g id="Rectangle_8150-15" data-name="Rectangle 8150" transform="translate(54 372)" fill="none" stroke="#f8f8f8" stroke-width="1">
            <rect width="29" height="16" rx="2" stroke="none"/>
            <rect x="0.5" y="0.5" width="28" height="15" rx="1.5" fill="none"/>
          </g>
          <rect id="Rectangle_8186-15" data-name="Rectangle 8186" width="25" height="12" rx="1" transform="translate(56 374)" fill="#de8b86" opacity="0.372"/>
        </g>
        <g transform="translate(-54 -315)">
          <g id="Rectangle_8150-16" data-name="Rectangle 8150" transform="translate(54 372)" fill="none" stroke="#f8f8f8" stroke-width="1">
            <rect width="29" height="16" rx="2" stroke="none"/>
            <rect x="0.5" y="0.5" width="28" height="15" rx="1.5" fill="none"/>
          </g>
          <rect id="Rectangle_8186-16" data-name="Rectangle 8186" width="25" height="12" rx="1" transform="translate(56 374)" fill="#de8b86" opacity="0.372"/>
        </g>
        <g transform="translate(-23 -315)">
          <g id="Rectangle_8150-17" data-name="Rectangle 8150" transform="translate(54 372)" fill="none" stroke="#f8f8f8" stroke-width="1">
            <rect width="29" height="16" rx="2" stroke="none"/>
            <rect x="0.5" y="0.5" width="28" height="15" rx="1.5" fill="none"/>
          </g>
          <rect id="Rectangle_8186-17" data-name="Rectangle 8186" width="25" height="12" rx="1" transform="translate(56 374)" fill="#de8b86" opacity="0.372"/>
        </g>
        <g transform="translate(8 -315)">
          <g id="Rectangle_8150-18" data-name="Rectangle 8150" transform="translate(54 372)" fill="none" stroke="#f8f8f8" stroke-width="1">
            <rect width="29" height="16" rx="2" stroke="none"/>
            <rect x="0.5" y="0.5" width="28" height="15" rx="1.5" fill="none"/>
          </g>
          <rect id="Rectangle_8186-18" data-name="Rectangle 8186" width="25" height="12" rx="1" transform="translate(56 374)" fill="#de8b86" opacity="0.372"/>
        </g>
        <g transform="translate(39 -315)">
          <g id="Rectangle_8150-19" data-name="Rectangle 8150" transform="translate(54 372)" fill="none" stroke="#f8f8f8" stroke-width="1">
            <rect width="29" height="16" rx="2" stroke="none"/>
            <rect x="0.5" y="0.5" width="28" height="15" rx="1.5" fill="none"/>
          </g>
          <rect id="Rectangle_8186-19" data-name="Rectangle 8186" width="25" height="12" rx="1" transform="translate(56 374)" fill="#de8b86" opacity="0.372"/>
        </g>
        <g transform="translate(70 -315)">
          <g id="Rectangle_8150-20" data-name="Rectangle 8150" transform="translate(54 372)" fill="none" stroke="#f8f8f8" stroke-width="1">
            <rect width="29" height="16" rx="2" stroke="none"/>
            <rect x="0.5" y="0.5" width="28" height="15" rx="1.5" fill="none"/>
          </g>
          <rect id="Rectangle_8186-20" data-name="Rectangle 8186" width="25" height="12" rx="1" transform="translate(56 374)" fill="#de8b86" opacity="0.372"/>
        </g>
        <g transform="translate(-54 -296)">
          <g id="Rectangle_8150-21" data-name="Rectangle 8150" transform="translate(54 372)" fill="none" stroke="#f8f8f8" stroke-width="1">
            <rect width="29" height="16" rx="2" stroke="none"/>
            <rect x="0.5" y="0.5" width="28" height="15" rx="1.5" fill="none"/>
          </g>
          <rect id="Rectangle_8186-21" data-name="Rectangle 8186" width="25" height="12" rx="1" transform="translate(56 374)" fill="#de8b86" opacity="0.372"/>
        </g>
        <g transform="translate(-23 -296)">
          <g id="Rectangle_8150-22" data-name="Rectangle 8150" transform="translate(54 372)" fill="none" stroke="#f8f8f8" stroke-width="1">
            <rect width="29" height="16" rx="2" stroke="none"/>
            <rect x="0.5" y="0.5" width="28" height="15" rx="1.5" fill="none"/>
          </g>
          <rect id="Rectangle_8186-22" data-name="Rectangle 8186" width="25" height="12" rx="1" transform="translate(56 374)" fill="#de8b86" opacity="0.372"/>
        </g>
        <g transform="translate(8 -296)">
          <g id="Rectangle_8150-23" data-name="Rectangle 8150" transform="translate(54 372)" fill="none" stroke="#f8f8f8" stroke-width="1">
            <rect width="29" height="16" rx="2" stroke="none"/>
            <rect x="0.5" y="0.5" width="28" height="15" rx="1.5" fill="none"/>
          </g>
          <rect id="Rectangle_8186-23" data-name="Rectangle 8186" width="25" height="12" rx="1" transform="translate(56 374)" fill="#de8b86" opacity="0.372"/>
        </g>
        <g transform="translate(39 -296)">
          <g id="Rectangle_8150-24" data-name="Rectangle 8150" transform="translate(54 372)" fill="none" stroke="#f8f8f8" stroke-width="1">
            <rect width="29" height="16" rx="2" stroke="none"/>
            <rect x="0.5" y="0.5" width="28" height="15" rx="1.5" fill="none"/>
          </g>
          <rect id="Rectangle_8186-24" data-name="Rectangle 8186" width="25" height="12" rx="1" transform="translate(56 374)" fill="#de8b86" opacity="0.372"/>
        </g>
        <g transform="translate(70 -296)">
          <g id="Rectangle_8150-25" data-name="Rectangle 8150" transform="translate(54 372)" fill="none" stroke="#f8f8f8" stroke-width="1">
            <rect width="29" height="16" rx="2" stroke="none"/>
            <rect x="0.5" y="0.5" width="28" height="15" rx="1.5" fill="none"/>
          </g>
          <rect id="Rectangle_8186-25" data-name="Rectangle 8186" width="25" height="12" rx="1" transform="translate(56 374)" fill="#de8b86" opacity="0.372"/>
        </g>
        <g transform="translate(-54 -277)">
          <g id="Rectangle_8150-26" data-name="Rectangle 8150" transform="translate(54 372)" fill="none" stroke="#f8f8f8" stroke-width="1">
            <rect width="29" height="16" rx="2" stroke="none"/>
            <rect x="0.5" y="0.5" width="28" height="15" rx="1.5" fill="none"/>
          </g>
          <rect id="Rectangle_8186-26" data-name="Rectangle 8186" width="25" height="12" rx="1" transform="translate(56 374)" fill="#de8b86" opacity="0.372"/>
        </g>
        <g transform="translate(-23 -277)">
          <g id="Rectangle_8150-27" data-name="Rectangle 8150" transform="translate(54 372)" fill="none" stroke="#f8f8f8" stroke-width="1">
            <rect width="29" height="16" rx="2" stroke="none"/>
            <rect x="0.5" y="0.5" width="28" height="15" rx="1.5" fill="none"/>
          </g>
          <rect id="Rectangle_8186-27" data-name="Rectangle 8186" width="25" height="12" rx="1" transform="translate(56 374)" fill="#de8b86" opacity="0.372"/>
        </g>
        <g transform="translate(8 -277)">
          <g id="Rectangle_8150-28" data-name="Rectangle 8150" transform="translate(54 372)" fill="none" stroke="#f8f8f8" stroke-width="1">
            <rect width="29" height="16" rx="2" stroke="none"/>
            <rect x="0.5" y="0.5" width="28" height="15" rx="1.5" fill="none"/>
          </g>
          <rect id="Rectangle_8186-28" data-name="Rectangle 8186" width="25" height="12" rx="1" transform="translate(56 374)" fill="#de8b86" opacity="0.372"/>
        </g>
        <g transform="translate(39 -277)">
          <g id="Rectangle_8150-29" data-name="Rectangle 8150" transform="translate(54 372)" fill="none" stroke="#f8f8f8" stroke-width="1">
            <rect width="29" height="16" rx="2" stroke="none"/>
            <rect x="0.5" y="0.5" width="28" height="15" rx="1.5" fill="none"/>
          </g>
          <rect id="Rectangle_8186-29" data-name="Rectangle 8186" width="25" height="12" rx="1" transform="translate(56 374)" fill="#de8b86" opacity="0.372"/>
        </g>
        <g transform="translate(70 -277)">
          <g id="Rectangle_8150-30" data-name="Rectangle 8150" transform="translate(54 372)" fill="none" stroke="#f8f8f8" stroke-width="1">
            <rect width="29" height="16" rx="2" stroke="none"/>
            <rect x="0.5" y="0.5" width="28" height="15" rx="1.5" fill="none"/>
          </g>
          <rect id="Rectangle_8186-30" data-name="Rectangle 8186" width="25" height="12" rx="1" transform="translate(56 374)" fill="#de8b86" opacity="0.372"/>
        </g>
      </g>
    </g>
    <g id="Repeat_Grid_22" data-name="Repeat Grid 22" transform="translate(34 426)" clip-path="url(#clip-path-2)">
      <g id="Group_46281" data-name="Group 46281" transform="translate(1203 7071)">
        <g id="Group_46209" data-name="Group 46209" transform="translate(-1257 -7443)">
          <g id="Rectangle_8150-31" data-name="Rectangle 8150" transform="translate(54 372)" fill="none" stroke="#f8f8f8" stroke-width="1">
            <rect width="22" height="12" rx="2" stroke="none"/>
            <rect x="0.5" y="0.5" width="21" height="11" rx="1.5" fill="none"/>
          </g>
          <rect id="Rectangle_8186-31" data-name="Rectangle 8186" width="18" height="8" rx="1" transform="translate(56 374)" fill="#f8f8f8" opacity="0.372"/>
        </g>
      </g>
      <g id="Group_46281-2" data-name="Group 46281" transform="translate(1227 7071)">
        <g id="Group_46209-2" data-name="Group 46209" transform="translate(-1257 -7443)">
          <g id="Rectangle_8150-32" data-name="Rectangle 8150" transform="translate(54 372)" fill="none" stroke="#f8f8f8" stroke-width="1">
            <rect width="22" height="12" rx="2" stroke="none"/>
            <rect x="0.5" y="0.5" width="21" height="11" rx="1.5" fill="none"/>
          </g>
          <rect id="Rectangle_8186-32" data-name="Rectangle 8186" width="18" height="8" rx="1" transform="translate(56 374)" fill="#f8f8f8" opacity="0.372"/>
        </g>
      </g>
      <g id="Group_46281-3" data-name="Group 46281" transform="translate(1203 7085)">
        <g id="Group_46209-3" data-name="Group 46209" transform="translate(-1257 -7443)">
          <g id="Rectangle_8150-33" data-name="Rectangle 8150" transform="translate(54 372)" fill="none" stroke="#f8f8f8" stroke-width="1">
            <rect width="22" height="12" rx="2" stroke="none"/>
            <rect x="0.5" y="0.5" width="21" height="11" rx="1.5" fill="none"/>
          </g>
          <rect id="Rectangle_8186-33" data-name="Rectangle 8186" width="18" height="8" rx="1" transform="translate(56 374)" fill="#f8f8f8" opacity="0.372"/>
        </g>
      </g>
      <g id="Group_46281-4" data-name="Group 46281" transform="translate(1227 7085)">
        <g id="Group_46209-4" data-name="Group 46209" transform="translate(-1257 -7443)">
          <g id="Rectangle_8150-34" data-name="Rectangle 8150" transform="translate(54 372)" fill="none" stroke="#f8f8f8" stroke-width="1">
            <rect width="22" height="12" rx="2" stroke="none"/>
            <rect x="0.5" y="0.5" width="21" height="11" rx="1.5" fill="none"/>
          </g>
          <rect id="Rectangle_8186-34" data-name="Rectangle 8186" width="18" height="8" rx="1" transform="translate(56 374)" fill="#f8f8f8" opacity="0.372"/>
        </g>
      </g>
      <g id="Group_46281-5" data-name="Group 46281" transform="translate(1203 7099)">
        <g id="Group_46209-5" data-name="Group 46209" transform="translate(-1257 -7443)">
          <g id="Rectangle_8150-35" data-name="Rectangle 8150" transform="translate(54 372)" fill="none" stroke="#f8f8f8" stroke-width="1">
            <rect width="22" height="12" rx="2" stroke="none"/>
            <rect x="0.5" y="0.5" width="21" height="11" rx="1.5" fill="none"/>
          </g>
          <rect id="Rectangle_8186-35" data-name="Rectangle 8186" width="18" height="8" rx="1" transform="translate(56 374)" fill="#f8f8f8" opacity="0.372"/>
        </g>
      </g>
      <g id="Group_46281-6" data-name="Group 46281" transform="translate(1227 7099)">
        <g id="Group_46209-6" data-name="Group 46209" transform="translate(-1257 -7443)">
          <g id="Rectangle_8150-36" data-name="Rectangle 8150" transform="translate(54 372)" fill="none" stroke="#f8f8f8" stroke-width="1">
            <rect width="22" height="12" rx="2" stroke="none"/>
            <rect x="0.5" y="0.5" width="21" height="11" rx="1.5" fill="none"/>
          </g>
          <rect id="Rectangle_8186-36" data-name="Rectangle 8186" width="18" height="8" rx="1" transform="translate(56 374)" fill="#f8f8f8" opacity="0.372"/>
        </g>
      </g>
      <g id="Group_46281-7" data-name="Group 46281" transform="translate(1203 7113)">
        <g id="Group_46209-7" data-name="Group 46209" transform="translate(-1257 -7443)">
          <g id="Rectangle_8150-37" data-name="Rectangle 8150" transform="translate(54 372)" fill="none" stroke="#f8f8f8" stroke-width="1">
            <rect width="22" height="12" rx="2" stroke="none"/>
            <rect x="0.5" y="0.5" width="21" height="11" rx="1.5" fill="none"/>
          </g>
          <rect id="Rectangle_8186-37" data-name="Rectangle 8186" width="18" height="8" rx="1" transform="translate(56 374)" fill="#f8f8f8" opacity="0.372"/>
        </g>
      </g>
      <g id="Group_46281-8" data-name="Group 46281" transform="translate(1227 7113)">
        <g id="Group_46209-8" data-name="Group 46209" transform="translate(-1257 -7443)">
          <g id="Rectangle_8150-38" data-name="Rectangle 8150" transform="translate(54 372)" fill="none" stroke="#f8f8f8" stroke-width="1">
            <rect width="22" height="12" rx="2" stroke="none"/>
            <rect x="0.5" y="0.5" width="21" height="11" rx="1.5" fill="none"/>
          </g>
          <rect id="Rectangle_8186-38" data-name="Rectangle 8186" width="18" height="8" rx="1" transform="translate(56 374)" fill="#f8f8f8" opacity="0.372"/>
        </g>
      </g>
      <g id="Group_46281-9" data-name="Group 46281" transform="translate(1203 7127)">
        <g id="Group_46209-9" data-name="Group 46209" transform="translate(-1257 -7443)">
          <g id="Rectangle_8150-39" data-name="Rectangle 8150" transform="translate(54 372)" fill="none" stroke="#f8f8f8" stroke-width="1">
            <rect width="22" height="12" rx="2" stroke="none"/>
            <rect x="0.5" y="0.5" width="21" height="11" rx="1.5" fill="none"/>
          </g>
          <rect id="Rectangle_8186-39" data-name="Rectangle 8186" width="18" height="8" rx="1" transform="translate(56 374)" fill="#f8f8f8" opacity="0.372"/>
        </g>
      </g>
      <g id="Group_46281-10" data-name="Group 46281" transform="translate(1227 7127)">
        <g id="Group_46209-10" data-name="Group 46209" transform="translate(-1257 -7443)">
          <g id="Rectangle_8150-40" data-name="Rectangle 8150" transform="translate(54 372)" fill="none" stroke="#f8f8f8" stroke-width="1">
            <rect width="22" height="12" rx="2" stroke="none"/>
            <rect x="0.5" y="0.5" width="21" height="11" rx="1.5" fill="none"/>
          </g>
          <rect id="Rectangle_8186-40" data-name="Rectangle 8186" width="18" height="8" rx="1" transform="translate(56 374)" fill="#f8f8f8" opacity="0.372"/>
        </g>
      </g>
      <g id="Group_46281-11" data-name="Group 46281" transform="translate(1203 7141)">
        <g id="Group_46209-11" data-name="Group 46209" transform="translate(-1257 -7443)">
          <g id="Rectangle_8150-41" data-name="Rectangle 8150" transform="translate(54 372)" fill="none" stroke="#f8f8f8" stroke-width="1">
            <rect width="22" height="12" rx="2" stroke="none"/>
            <rect x="0.5" y="0.5" width="21" height="11" rx="1.5" fill="none"/>
          </g>
          <rect id="Rectangle_8186-41" data-name="Rectangle 8186" width="18" height="8" rx="1" transform="translate(56 374)" fill="#f8f8f8" opacity="0.372"/>
        </g>
      </g>
      <g id="Group_46281-12" data-name="Group 46281" transform="translate(1227 7141)">
        <g id="Group_46209-12" data-name="Group 46209" transform="translate(-1257 -7443)">
          <g id="Rectangle_8150-42" data-name="Rectangle 8150" transform="translate(54 372)" fill="none" stroke="#f8f8f8" stroke-width="1">
            <rect width="22" height="12" rx="2" stroke="none"/>
            <rect x="0.5" y="0.5" width="21" height="11" rx="1.5" fill="none"/>
          </g>
          <rect id="Rectangle_8186-42" data-name="Rectangle 8186" width="18" height="8" rx="1" transform="translate(56 374)" fill="#f8f8f8" opacity="0.372"/>
        </g>
      </g>
    </g>
    <g id="Group_46508" data-name="Group 46508" transform="translate(82.758 402.336)">
      <g id="Group_46500" data-name="Group 46500" transform="translate(20.126 7.733)">
        <g id="Group_46341" data-name="Group 46341" transform="translate(0 0)">
          <g id="Group_46337" data-name="Group 46337">
            <g id="Group_46336" data-name="Group 46336">
              <g id="Group_46335" data-name="Group 46335">
                <path id="Path_117213" data-name="Path 117213" d="M196.041,36.376s-2.193-.869-4.52-1.778c1-2.286,1.936-4.452,1.936-4.452a.7.7,0,0,0-.148-.775l-8.632-8.632a.7.7,0,0,0-.775-.148s-2.163.935-4.448,1.936c-.909-2.323-1.778-4.516-1.778-4.516a.7.7,0,0,0-.653-.444H164.812a.7.7,0,0,0-.653.444s-.869,2.192-1.778,4.516c-2.285-1-4.448-1.936-4.448-1.936a.7.7,0,0,0-.776.148l-8.636,8.631a.7.7,0,0,0-.148.776s.938,2.166,1.94,4.452c-2.327.909-4.52,1.778-4.52,1.778a.7.7,0,0,0-.444.653V49.235a.7.7,0,0,0,.444.653s2.193.869,4.52,1.778c-1,2.285-1.94,4.451-1.94,4.451a.7.7,0,0,0,.148.776l8.636,8.632a.7.7,0,0,0,.776.148s2.163-.935,4.448-1.936c.909,2.323,1.778,4.516,1.778,4.516a.7.7,0,0,0,.653.444h12.211a.7.7,0,0,0,.653-.444s.869-2.192,1.778-4.516c2.285,1,4.448,1.936,4.448,1.936a.7.7,0,0,0,.776-.148l8.632-8.632a.7.7,0,0,0,.148-.775s-.935-2.167-1.936-4.452c2.327-.91,4.52-1.778,4.52-1.778a.7.7,0,0,0,.444-.653V37.029A.7.7,0,0,0,196.041,36.376Zm-.962,12.382c-.857.339-2.827,1.116-4.751,1.866a.7.7,0,0,0-.388.937c.83,1.888,1.672,3.832,2.038,4.678l-7.957,7.956c-.845-.366-2.785-1.208-4.673-2.037a.7.7,0,0,0-.937.388c-.75,1.921-1.527,3.89-1.866,4.747H165.289c-.339-.857-1.116-2.826-1.866-4.747a.7.7,0,0,0-.937-.388c-1.888.829-3.828,1.671-4.673,2.037l-7.961-7.956c.367-.846,1.212-2.789,2.041-4.678a.7.7,0,0,0-.388-.937c-1.925-.75-3.894-1.527-4.751-1.866V37.506c.857-.339,2.827-1.116,4.751-1.866a.7.7,0,0,0,.388-.937c-.83-1.888-1.674-3.831-2.041-4.677l7.961-7.956c.845.366,2.785,1.208,4.673,2.037a.7.7,0,0,0,.937-.388c.75-1.921,1.527-3.89,1.866-4.747h11.256c.339.857,1.116,2.826,1.866,4.747a.7.7,0,0,0,.937.388c1.888-.829,3.828-1.671,4.673-2.037l7.957,7.956c-.366.846-1.208,2.789-2.038,4.678a.7.7,0,0,0,.388.937c1.924.75,3.894,1.527,4.751,1.866Z" transform="translate(-145.35 -17.567)" fill="#f8f8f8"/>
              </g>
            </g>
          </g>
          <g id="Group_46340" data-name="Group 46340" transform="translate(13.856 13.856)">
            <g id="Group_46339" data-name="Group 46339">
              <g id="Group_46338" data-name="Group 46338">
                <path id="Path_117214" data-name="Path 117214" d="M216.2,76.707A11.708,11.708,0,1,0,227.91,88.415,11.721,11.721,0,0,0,216.2,76.707Zm0,22.012a10.3,10.3,0,1,1,10.308-10.3A10.315,10.315,0,0,1,216.2,98.719Z" transform="translate(-204.489 -76.707)" fill="#f8f8f8"/>
              </g>
            </g>
          </g>
        </g>
        <g id="Group_46344" data-name="Group 46344" transform="translate(2.909 2.909)">
          <g id="Group_46343" data-name="Group 46343" transform="translate(0 0)">
            <g id="Group_46342" data-name="Group 46342">
              <path id="Path_117215" data-name="Path 117215" d="M203.081,57.241V48.035c-1-.394-2.408-.948-3.793-1.488l-2.145-.836.926-2.108c.6-1.36,1.2-2.748,1.628-3.733l-1.764-1.766-4.747-4.743c-.984.427-2.37,1.031-3.728,1.628l-2.106.925-.837-2.143c-.54-1.383-1.094-2.791-1.488-3.79h-9.21c-.394,1-.948,2.407-1.488,3.79l-.836,2.143-2.107-.925c-1.358-.6-2.744-1.2-3.728-1.627l-6.514,6.51c.429.985,1.034,2.373,1.631,3.732l.926,2.108-2.145.836c-1.385.54-2.794,1.094-3.793,1.488V57.24c1,.394,2.407.948,3.793,1.488l2.145.836-.926,2.108c-.6,1.359-1.2,2.748-1.631,3.733l6.514,6.509c.984-.427,2.369-1.031,3.728-1.627l2.107-.925.836,2.143c.54,1.383,1.094,2.791,1.488,3.79h9.21c.394-1,.948-2.407,1.488-3.79l.837-2.143,2.106.925c1.358.6,2.744,1.2,3.728,1.627l4.745-4.741L199.7,65.4c-.427-.985-1.031-2.373-1.628-3.733l-.926-2.108,2.145-.836C200.673,58.189,202.082,57.635,203.081,57.241ZM180.42,65.85a13.212,13.212,0,1,1,13.217-13.212A13.227,13.227,0,0,1,180.42,65.85Z" transform="translate(-157.764 -29.982)" fill="#de8b86"/>
            </g>
          </g>
        </g>
      </g>
      <g id="Group_46502" data-name="Group 46502" transform="translate(71.26 40.578)">
        <g id="Group_46312" data-name="Group 46312" transform="translate(0 0)">
          <g id="Group_46308" data-name="Group 46308" transform="translate(0 0)">
            <g id="Group_46307" data-name="Group 46307">
              <g id="Group_46306" data-name="Group 46306">
                <path id="Path_117200" data-name="Path 117200" d="M429.6,25.727s-.712-.282-1.544-.608c.357-.818.66-1.521.66-1.521a.632.632,0,0,0-.133-.7l-3.575-3.575a.632.632,0,0,0-.7-.133s-.7.3-1.519.661c-.326-.831-.608-1.542-.608-1.542a.631.631,0,0,0-.586-.4h-5.056a.63.63,0,0,0-.586.4s-.282.711-.608,1.542c-.818-.357-1.519-.661-1.519-.661a.63.63,0,0,0-.7.133L409.557,22.9a.631.631,0,0,0-.133.7s.3.7.662,1.52c-.832.326-1.543.608-1.543.608a.631.631,0,0,0-.4.586v5.054a.631.631,0,0,0,.4.586s.711.282,1.543.608c-.358.818-.662,1.52-.662,1.52a.631.631,0,0,0,.133.7l3.576,3.574a.631.631,0,0,0,.7.133s.7-.3,1.519-.661c.326.831.608,1.542.608,1.542a.631.631,0,0,0,.586.4H421.6a.63.63,0,0,0,.586-.4s.282-.711.608-1.542c.818.357,1.519.661,1.519.661a.63.63,0,0,0,.7-.133l3.575-3.574a.632.632,0,0,0,.133-.7s-.3-.7-.66-1.521c.832-.326,1.544-.608,1.544-.608a.631.631,0,0,0,.4-.586V26.313A.631.631,0,0,0,429.6,25.727Zm-.863,5.212c-.412.163-1.088.429-1.751.687a.631.631,0,0,0-.348.841c.286.651.575,1.317.751,1.723l-2.968,2.968c-.406-.176-1.071-.466-1.721-.751a.631.631,0,0,0-.841.348c-.258.662-.525,1.337-.687,1.749h-4.2c-.163-.412-.429-1.088-.687-1.749a.631.631,0,0,0-.841-.348c-.65.286-1.315.575-1.721.751l-2.969-2.967c.177-.407.467-1.073.752-1.723a.631.631,0,0,0-.349-.841c-.663-.258-1.338-.524-1.751-.687v-4.2c.412-.163,1.088-.429,1.751-.687a.631.631,0,0,0,.349-.841c-.286-.65-.576-1.316-.752-1.723l2.969-2.968c.406.176,1.071.466,1.721.751a.631.631,0,0,0,.841-.348c.258-.662.524-1.337.687-1.749h4.2c.163.412.429,1.088.687,1.749a.631.631,0,0,0,.841.348c.65-.286,1.315-.575,1.721-.751l2.968,2.968c-.176.407-.465,1.073-.751,1.723a.631.631,0,0,0,.348.841c.663.258,1.338.524,1.751.687Z" transform="translate(-408.144 -17.915)" fill="#f8f8f8"/>
              </g>
            </g>
          </g>
          <g id="Group_46311" data-name="Group 46311" transform="translate(5.737 5.737)">
            <g id="Group_46310" data-name="Group 46310">
              <g id="Group_46309" data-name="Group 46309">
                <path id="Path_117201" data-name="Path 117201" d="M440.6,45.182a5.188,5.188,0,1,0,5.19,5.188A5.194,5.194,0,0,0,440.6,45.182Zm0,9.114a3.926,3.926,0,1,1,3.928-3.926A3.931,3.931,0,0,1,440.6,54.3Z" transform="translate(-435.41 -45.182)" fill="#f8f8f8"/>
              </g>
            </g>
          </g>
        </g>
        <g id="Group_46507" data-name="Group 46507" transform="translate(2.612 2.612)">
          <g id="Group_46314" data-name="Group 46314" transform="translate(6.32 14.541)">
            <g id="Group_46313" data-name="Group 46313" transform="translate(0 0)">
              <path id="Path_117202" data-name="Path 117202" d="M452.584,99.745a6.517,6.517,0,0,1-1.994-.311s.7,1.8.815,2.085h2.359c.111-.282.815-2.086.815-2.086A6.517,6.517,0,0,1,452.584,99.745Z" transform="translate(-450.59 -99.434)" fill="#de8b86"/>
            </g>
          </g>
          <g id="Group_46316" data-name="Group 46316" transform="translate(1.602 11.309)">
            <g id="Group_46315" data-name="Group 46315" transform="translate(0 0)">
              <path id="Path_117203" data-name="Path 117203" d="M429.071,84.072s-.779,1.773-.9,2.051l1.668,1.666,2.051-.9A6.583,6.583,0,0,1,429.071,84.072Z" transform="translate(-428.171 -84.072)" fill="#de8b86"/>
            </g>
          </g>
          <g id="Group_46318" data-name="Group 46318" transform="translate(11.308 11.308)">
            <g id="Group_46317" data-name="Group 46317" transform="translate(0 0)">
              <path id="Path_117204" data-name="Path 117204" d="M477.116,84.071a6.585,6.585,0,0,1-2.819,2.818l2.051.9,1.668-1.666C477.895,85.845,477.116,84.071,477.116,84.071Z" transform="translate(-474.297 -84.071)" fill="#de8b86"/>
            </g>
          </g>
          <g id="Group_46320" data-name="Group 46320" transform="translate(14.544 6.321)">
            <g id="Group_46319" data-name="Group 46319" transform="translate(0 0)">
              <path id="Path_117205" data-name="Path 117205" d="M489.676,60.371a6.547,6.547,0,0,1,0,3.984l2.085-.813V61.184Z" transform="translate(-489.676 -60.371)" fill="#de8b86"/>
            </g>
          </g>
          <g id="Group_46322" data-name="Group 46322" transform="translate(0 6.321)">
            <g id="Group_46321" data-name="Group 46321" transform="translate(0 0)">
              <path id="Path_117206" data-name="Path 117206" d="M422.642,60.371l-2.085.814v2.357l2.085.814a6.553,6.553,0,0,1,0-3.984Z" transform="translate(-420.557 -60.371)" fill="#de8b86"/>
            </g>
          </g>
          <g id="Group_46324" data-name="Group 46324" transform="translate(11.308 1.602)">
            <g id="Group_46323" data-name="Group 46323" transform="translate(0 0)">
              <path id="Path_117207" data-name="Path 117207" d="M476.348,37.939l-2.052.9a6.587,6.587,0,0,1,2.819,2.818s.779-1.774.9-2.051Z" transform="translate(-474.296 -37.939)" fill="#de8b86"/>
            </g>
          </g>
          <g id="Group_46326" data-name="Group 46326" transform="translate(1.602 1.602)">
            <g id="Group_46325" data-name="Group 46325" transform="translate(0 0)">
              <path id="Path_117208" data-name="Path 117208" d="M429.839,37.94l-1.668,1.667c.121.277.9,2.05.9,2.05a6.584,6.584,0,0,1,2.819-2.818Z" transform="translate(-428.171 -37.94)" fill="#de8b86"/>
            </g>
          </g>
          <g id="Group_46328" data-name="Group 46328" transform="translate(6.319 0)">
            <g id="Group_46327" data-name="Group 46327" transform="translate(0)">
              <path id="Path_117209" data-name="Path 117209" d="M453.764,30.329H451.4c-.111.282-.815,2.085-.815,2.085a6.552,6.552,0,0,1,3.99,0S453.875,30.611,453.764,30.329Z" transform="translate(-450.589 -30.329)" fill="#de8b86"/>
            </g>
          </g>
        </g>
      </g>
      <g id="Group_46504" data-name="Group 46504" transform="matrix(-0.777, 0.629, -0.629, -0.777, 40.851, 84.644)">
        <g id="Group_46375" data-name="Group 46375" transform="translate(3.269 2.883)">
          <g id="Group_46374" data-name="Group 46374" transform="translate(0 0)">
            <g id="Group_46373" data-name="Group 46373" transform="translate(0 0)">
              <path id="Path_117219" data-name="Path 117219" d="M0,1.247c.4.189.8.391,1.193.6L1.847.637C1.436.414,1.011.2.584,0Zm2.349,1.27c.375.232.751.479,1.116.734l.79-1.128c-.387-.271-.784-.532-1.182-.778Zm10.212,13.57,1.326-.369c-.126-.454-.267-.91-.42-1.354l-1.3.446C12.309,15.228,12.442,15.658,12.562,16.086ZM7.508,4.845l-.971.976c.315.314.625.64.921.969l1.025-.919C8.17,5.522,7.842,5.177,7.508,4.845ZM13.39,21.359l1.376-.056c-.019-.468-.052-.943-.1-1.412l-1.37.134C13.341,20.468,13.372,20.917,13.39,21.359ZM13.128,18.7l1.36-.213c-.073-.464-.161-.933-.26-1.394l-1.345.292C12.977,17.82,13.059,18.262,13.128,18.7ZM4.537,4.048c.35.276.695.565,1.025.858l.913-1.03c-.35-.31-.715-.616-1.085-.908ZM13,26.683l1.352.257c.088-.461.163-.931.224-1.4l-1.365-.179C13.15,25.8,13.079,26.247,13,26.683Zm-.649,2.592,1.314.41c.14-.449.269-.908.383-1.363l-1.335-.334C12.6,28.418,12.48,28.85,12.347,29.274ZM13.4,22.7c-.008.443-.028.892-.061,1.336l1.373.1c.035-.47.056-.946.064-1.414Zm-2,9.079,1.258.559c.191-.429.371-.87.537-1.31l-1.288-.486C11.755,30.954,11.584,31.37,11.4,31.775ZM11.035,9.26l-1.167.731c.236.376.464.764.677,1.153l1.207-.663C11.526,10.069,11.285,9.658,11.035,9.26ZM9.4,6.951,8.322,7.81c.278.349.549.708.8,1.068l1.123-.8C9.979,7.7,9.692,7.32,9.4,6.951Zm3.574,6.086c-.176-.432-.369-.868-.572-1.3l-1.243.592c.192.4.374.816.541,1.224Z" fill="#f8f8f8"/>
            </g>
          </g>
        </g>
        <g id="Group_46377" data-name="Group 46377" transform="translate(0 0)">
          <g id="Group_46376" data-name="Group 46376" transform="translate(0 0)">
            <path id="Path_117220" data-name="Path 117220" d="M6.277,1.346,5.988,0,.544,1.171a.688.688,0,0,0-.471.981l2.65,5.285L3.953,6.82,1.7,2.33Z" fill="#f8f8f8"/>
          </g>
        </g>
      </g>
    </g>
  </g>
</svg>