<svg xmlns="http://www.w3.org/2000/svg" xmlns:xlink="http://www.w3.org/1999/xlink" width="289" height="232" viewBox="0 0 289 232">
  <defs>
    <clipPath id="clip-path">
      <rect width="175" height="125" fill="none"/>
    </clipPath>
    <clipPath id="clip-path-2">
      <rect width="56" height="97" fill="none"/>
    </clipPath>
  </defs>
  <g id="illustration" transform="translate(-44 -376)">
    <g id="Group_46282" data-name="Group 46282" transform="translate(75 21)">
      <g id="Repeat_Grid_21" data-name="Repeat Grid 21" transform="translate(83 462)" clip-path="url(#clip-path)">
        <g transform="translate(-54 -372)">
          <g id="Rectangle_8150" data-name="Rectangle 8150" transform="translate(54 372)" fill="none" stroke="#f8f8f8" stroke-width="1">
            <rect width="29" height="16" rx="2" stroke="none"/>
            <rect x="0.5" y="0.5" width="28" height="15" rx="1.5" fill="none"/>
          </g>
          <rect id="Rectangle_8186" data-name="Rectangle 8186" width="25" height="12" rx="1" transform="translate(56 374)" fill="#de8b86" opacity="0.372"/>
        </g>
        <g transform="translate(-23 -372)">
          <g id="Rectangle_8150-2" data-name="Rectangle 8150" transform="translate(54 372)" fill="none" stroke="#f8f8f8" stroke-width="1">
            <rect width="29" height="16" rx="2" stroke="none"/>
            <rect x="0.5" y="0.5" width="28" height="15" rx="1.5" fill="none"/>
          </g>
          <rect id="Rectangle_8186-2" data-name="Rectangle 8186" width="25" height="12" rx="1" transform="translate(56 374)" fill="#de8b86" opacity="0.372"/>
        </g>
        <g transform="translate(8 -372)">
          <g id="Rectangle_8150-3" data-name="Rectangle 8150" transform="translate(54 372)" fill="none" stroke="#f8f8f8" stroke-width="1">
            <rect width="29" height="16" rx="2" stroke="none"/>
            <rect x="0.5" y="0.5" width="28" height="15" rx="1.5" fill="none"/>
          </g>
          <rect id="Rectangle_8186-3" data-name="Rectangle 8186" width="25" height="12" rx="1" transform="translate(56 374)" fill="#de8b86" opacity="0.372"/>
        </g>
        <g transform="translate(39 -372)">
          <g id="Rectangle_8150-4" data-name="Rectangle 8150" transform="translate(54 372)" fill="none" stroke="#f8f8f8" stroke-width="1">
            <rect width="29" height="16" rx="2" stroke="none"/>
            <rect x="0.5" y="0.5" width="28" height="15" rx="1.5" fill="none"/>
          </g>
          <rect id="Rectangle_8186-4" data-name="Rectangle 8186" width="25" height="12" rx="1" transform="translate(56 374)" fill="#de8b86" opacity="0.372"/>
        </g>
        <g transform="translate(70 -372)">
          <g id="Rectangle_8150-5" data-name="Rectangle 8150" transform="translate(54 372)" fill="none" stroke="#f8f8f8" stroke-width="1">
            <rect width="29" height="16" rx="2" stroke="none"/>
            <rect x="0.5" y="0.5" width="28" height="15" rx="1.5" fill="none"/>
          </g>
          <rect id="Rectangle_8186-5" data-name="Rectangle 8186" width="25" height="12" rx="1" transform="translate(56 374)" fill="#de8b86" opacity="0.372"/>
        </g>
        <g transform="translate(101 -372)">
          <g id="Rectangle_8150-6" data-name="Rectangle 8150" transform="translate(54 372)" fill="none" stroke="#f8f8f8" stroke-width="1">
            <rect width="29" height="16" rx="2" stroke="none"/>
            <rect x="0.5" y="0.5" width="28" height="15" rx="1.5" fill="none"/>
          </g>
          <rect id="Rectangle_8186-6" data-name="Rectangle 8186" width="25" height="12" rx="1" transform="translate(56 374)" fill="#de8b86" opacity="0.372"/>
        </g>
        <g transform="translate(-54 -353)">
          <g id="Rectangle_8150-7" data-name="Rectangle 8150" transform="translate(54 372)" fill="none" stroke="#f8f8f8" stroke-width="1">
            <rect width="29" height="16" rx="2" stroke="none"/>
            <rect x="0.5" y="0.5" width="28" height="15" rx="1.5" fill="none"/>
          </g>
          <rect id="Rectangle_8186-7" data-name="Rectangle 8186" width="25" height="12" rx="1" transform="translate(56 374)" fill="#de8b86" opacity="0.372"/>
        </g>
        <g transform="translate(-23 -353)">
          <g id="Rectangle_8150-8" data-name="Rectangle 8150" transform="translate(54 372)" fill="none" stroke="#f8f8f8" stroke-width="1">
            <rect width="29" height="16" rx="2" stroke="none"/>
            <rect x="0.5" y="0.5" width="28" height="15" rx="1.5" fill="none"/>
          </g>
          <rect id="Rectangle_8186-8" data-name="Rectangle 8186" width="25" height="12" rx="1" transform="translate(56 374)" fill="#de8b86" opacity="0.372"/>
        </g>
        <g transform="translate(8 -353)">
          <g id="Rectangle_8150-9" data-name="Rectangle 8150" transform="translate(54 372)" fill="none" stroke="#f8f8f8" stroke-width="1">
            <rect width="29" height="16" rx="2" stroke="none"/>
            <rect x="0.5" y="0.5" width="28" height="15" rx="1.5" fill="none"/>
          </g>
          <rect id="Rectangle_8186-9" data-name="Rectangle 8186" width="25" height="12" rx="1" transform="translate(56 374)" fill="#de8b86" opacity="0.372"/>
        </g>
        <g transform="translate(39 -353)">
          <g id="Rectangle_8150-10" data-name="Rectangle 8150" transform="translate(54 372)" fill="none" stroke="#f8f8f8" stroke-width="1">
            <rect width="29" height="16" rx="2" stroke="none"/>
            <rect x="0.5" y="0.5" width="28" height="15" rx="1.5" fill="none"/>
          </g>
          <rect id="Rectangle_8186-10" data-name="Rectangle 8186" width="25" height="12" rx="1" transform="translate(56 374)" fill="#de8b86" opacity="0.372"/>
        </g>
        <g transform="translate(70 -353)">
          <g id="Rectangle_8150-11" data-name="Rectangle 8150" transform="translate(54 372)" fill="none" stroke="#f8f8f8" stroke-width="1">
            <rect width="29" height="16" rx="2" stroke="none"/>
            <rect x="0.5" y="0.5" width="28" height="15" rx="1.5" fill="none"/>
          </g>
          <rect id="Rectangle_8186-11" data-name="Rectangle 8186" width="25" height="12" rx="1" transform="translate(56 374)" fill="#de8b86" opacity="0.372"/>
        </g>
        <g transform="translate(101 -353)">
          <g id="Rectangle_8150-12" data-name="Rectangle 8150" transform="translate(54 372)" fill="none" stroke="#f8f8f8" stroke-width="1">
            <rect width="29" height="16" rx="2" stroke="none"/>
            <rect x="0.5" y="0.5" width="28" height="15" rx="1.5" fill="none"/>
          </g>
          <rect id="Rectangle_8186-12" data-name="Rectangle 8186" width="25" height="12" rx="1" transform="translate(56 374)" fill="#de8b86" opacity="0.372"/>
        </g>
        <g transform="translate(-54 -334)">
          <g id="Rectangle_8150-13" data-name="Rectangle 8150" transform="translate(54 372)" fill="none" stroke="#f8f8f8" stroke-width="1">
            <rect width="29" height="16" rx="2" stroke="none"/>
            <rect x="0.5" y="0.5" width="28" height="15" rx="1.5" fill="none"/>
          </g>
          <rect id="Rectangle_8186-13" data-name="Rectangle 8186" width="25" height="12" rx="1" transform="translate(56 374)" fill="#de8b86" opacity="0.372"/>
        </g>
        <g transform="translate(-23 -334)">
          <g id="Rectangle_8150-14" data-name="Rectangle 8150" transform="translate(54 372)" fill="none" stroke="#f8f8f8" stroke-width="1">
            <rect width="29" height="16" rx="2" stroke="none"/>
            <rect x="0.5" y="0.5" width="28" height="15" rx="1.5" fill="none"/>
          </g>
          <rect id="Rectangle_8186-14" data-name="Rectangle 8186" width="25" height="12" rx="1" transform="translate(56 374)" fill="#de8b86" opacity="0.372"/>
        </g>
        <g transform="translate(8 -334)">
          <g id="Rectangle_8150-15" data-name="Rectangle 8150" transform="translate(54 372)" fill="none" stroke="#f8f8f8" stroke-width="1">
            <rect width="29" height="16" rx="2" stroke="none"/>
            <rect x="0.5" y="0.5" width="28" height="15" rx="1.5" fill="none"/>
          </g>
          <rect id="Rectangle_8186-15" data-name="Rectangle 8186" width="25" height="12" rx="1" transform="translate(56 374)" fill="#de8b86" opacity="0.372"/>
        </g>
        <g transform="translate(39 -334)">
          <g id="Rectangle_8150-16" data-name="Rectangle 8150" transform="translate(54 372)" fill="none" stroke="#f8f8f8" stroke-width="1">
            <rect width="29" height="16" rx="2" stroke="none"/>
            <rect x="0.5" y="0.5" width="28" height="15" rx="1.5" fill="none"/>
          </g>
          <rect id="Rectangle_8186-16" data-name="Rectangle 8186" width="25" height="12" rx="1" transform="translate(56 374)" fill="#de8b86" opacity="0.372"/>
        </g>
        <g transform="translate(70 -334)">
          <g id="Rectangle_8150-17" data-name="Rectangle 8150" transform="translate(54 372)" fill="none" stroke="#f8f8f8" stroke-width="1">
            <rect width="29" height="16" rx="2" stroke="none"/>
            <rect x="0.5" y="0.5" width="28" height="15" rx="1.5" fill="none"/>
          </g>
          <rect id="Rectangle_8186-17" data-name="Rectangle 8186" width="25" height="12" rx="1" transform="translate(56 374)" fill="#de8b86" opacity="0.372"/>
        </g>
        <g transform="translate(101 -334)">
          <g id="Rectangle_8150-18" data-name="Rectangle 8150" transform="translate(54 372)" fill="none" stroke="#f8f8f8" stroke-width="1">
            <rect width="29" height="16" rx="2" stroke="none"/>
            <rect x="0.5" y="0.5" width="28" height="15" rx="1.5" fill="none"/>
          </g>
          <rect id="Rectangle_8186-18" data-name="Rectangle 8186" width="25" height="12" rx="1" transform="translate(56 374)" fill="#de8b86" opacity="0.372"/>
        </g>
        <g transform="translate(-54 -315)">
          <g id="Rectangle_8150-19" data-name="Rectangle 8150" transform="translate(54 372)" fill="none" stroke="#f8f8f8" stroke-width="1">
            <rect width="29" height="16" rx="2" stroke="none"/>
            <rect x="0.5" y="0.5" width="28" height="15" rx="1.5" fill="none"/>
          </g>
          <rect id="Rectangle_8186-19" data-name="Rectangle 8186" width="25" height="12" rx="1" transform="translate(56 374)" fill="#de8b86" opacity="0.372"/>
        </g>
        <g transform="translate(-23 -315)">
          <g id="Rectangle_8150-20" data-name="Rectangle 8150" transform="translate(54 372)" fill="none" stroke="#f8f8f8" stroke-width="1">
            <rect width="29" height="16" rx="2" stroke="none"/>
            <rect x="0.5" y="0.5" width="28" height="15" rx="1.5" fill="none"/>
          </g>
          <rect id="Rectangle_8186-20" data-name="Rectangle 8186" width="25" height="12" rx="1" transform="translate(56 374)" fill="#de8b86" opacity="0.372"/>
        </g>
        <g transform="translate(8 -315)">
          <g id="Rectangle_8150-21" data-name="Rectangle 8150" transform="translate(54 372)" fill="none" stroke="#f8f8f8" stroke-width="1">
            <rect width="29" height="16" rx="2" stroke="none"/>
            <rect x="0.5" y="0.5" width="28" height="15" rx="1.5" fill="none"/>
          </g>
          <rect id="Rectangle_8186-21" data-name="Rectangle 8186" width="25" height="12" rx="1" transform="translate(56 374)" fill="#de8b86" opacity="0.372"/>
        </g>
        <g transform="translate(39 -315)">
          <g id="Rectangle_8150-22" data-name="Rectangle 8150" transform="translate(54 372)" fill="none" stroke="#f8f8f8" stroke-width="1">
            <rect width="29" height="16" rx="2" stroke="none"/>
            <rect x="0.5" y="0.5" width="28" height="15" rx="1.5" fill="none"/>
          </g>
          <rect id="Rectangle_8186-22" data-name="Rectangle 8186" width="25" height="12" rx="1" transform="translate(56 374)" fill="#de8b86" opacity="0.372"/>
        </g>
        <g transform="translate(70 -315)">
          <g id="Rectangle_8150-23" data-name="Rectangle 8150" transform="translate(54 372)" fill="none" stroke="#f8f8f8" stroke-width="1">
            <rect width="29" height="16" rx="2" stroke="none"/>
            <rect x="0.5" y="0.5" width="28" height="15" rx="1.5" fill="none"/>
          </g>
          <rect id="Rectangle_8186-23" data-name="Rectangle 8186" width="25" height="12" rx="1" transform="translate(56 374)" fill="#de8b86" opacity="0.372"/>
        </g>
        <g transform="translate(101 -315)">
          <g id="Rectangle_8150-24" data-name="Rectangle 8150" transform="translate(54 372)" fill="none" stroke="#f8f8f8" stroke-width="1">
            <rect width="29" height="16" rx="2" stroke="none"/>
            <rect x="0.5" y="0.5" width="28" height="15" rx="1.5" fill="none"/>
          </g>
          <rect id="Rectangle_8186-24" data-name="Rectangle 8186" width="25" height="12" rx="1" transform="translate(56 374)" fill="#de8b86" opacity="0.372"/>
        </g>
        <g transform="translate(-54 -296)">
          <g id="Rectangle_8150-25" data-name="Rectangle 8150" transform="translate(54 372)" fill="none" stroke="#f8f8f8" stroke-width="1">
            <rect width="29" height="16" rx="2" stroke="none"/>
            <rect x="0.5" y="0.5" width="28" height="15" rx="1.5" fill="none"/>
          </g>
          <rect id="Rectangle_8186-25" data-name="Rectangle 8186" width="25" height="12" rx="1" transform="translate(56 374)" fill="#de8b86" opacity="0.372"/>
        </g>
        <g transform="translate(-23 -296)">
          <g id="Rectangle_8150-26" data-name="Rectangle 8150" transform="translate(54 372)" fill="none" stroke="#f8f8f8" stroke-width="1">
            <rect width="29" height="16" rx="2" stroke="none"/>
            <rect x="0.5" y="0.5" width="28" height="15" rx="1.5" fill="none"/>
          </g>
          <rect id="Rectangle_8186-26" data-name="Rectangle 8186" width="25" height="12" rx="1" transform="translate(56 374)" fill="#de8b86" opacity="0.372"/>
        </g>
        <g transform="translate(8 -296)">
          <g id="Rectangle_8150-27" data-name="Rectangle 8150" transform="translate(54 372)" fill="none" stroke="#f8f8f8" stroke-width="1">
            <rect width="29" height="16" rx="2" stroke="none"/>
            <rect x="0.5" y="0.5" width="28" height="15" rx="1.5" fill="none"/>
          </g>
          <rect id="Rectangle_8186-27" data-name="Rectangle 8186" width="25" height="12" rx="1" transform="translate(56 374)" fill="#de8b86" opacity="0.372"/>
        </g>
        <g transform="translate(39 -296)">
          <g id="Rectangle_8150-28" data-name="Rectangle 8150" transform="translate(54 372)" fill="none" stroke="#f8f8f8" stroke-width="1">
            <rect width="29" height="16" rx="2" stroke="none"/>
            <rect x="0.5" y="0.5" width="28" height="15" rx="1.5" fill="none"/>
          </g>
          <rect id="Rectangle_8186-28" data-name="Rectangle 8186" width="25" height="12" rx="1" transform="translate(56 374)" fill="#de8b86" opacity="0.372"/>
        </g>
        <g transform="translate(70 -296)">
          <g id="Rectangle_8150-29" data-name="Rectangle 8150" transform="translate(54 372)" fill="none" stroke="#f8f8f8" stroke-width="1">
            <rect width="29" height="16" rx="2" stroke="none"/>
            <rect x="0.5" y="0.5" width="28" height="15" rx="1.5" fill="none"/>
          </g>
          <rect id="Rectangle_8186-29" data-name="Rectangle 8186" width="25" height="12" rx="1" transform="translate(56 374)" fill="#de8b86" opacity="0.372"/>
        </g>
        <g transform="translate(101 -296)">
          <g id="Rectangle_8150-30" data-name="Rectangle 8150" transform="translate(54 372)" fill="none" stroke="#f8f8f8" stroke-width="1">
            <rect width="29" height="16" rx="2" stroke="none"/>
            <rect x="0.5" y="0.5" width="28" height="15" rx="1.5" fill="none"/>
          </g>
          <rect id="Rectangle_8186-30" data-name="Rectangle 8186" width="25" height="12" rx="1" transform="translate(56 374)" fill="#de8b86" opacity="0.372"/>
        </g>
        <g transform="translate(-54 -277)">
          <g id="Rectangle_8150-31" data-name="Rectangle 8150" transform="translate(54 372)" fill="none" stroke="#f8f8f8" stroke-width="1">
            <rect width="29" height="16" rx="2" stroke="none"/>
            <rect x="0.5" y="0.5" width="28" height="15" rx="1.5" fill="none"/>
          </g>
          <rect id="Rectangle_8186-31" data-name="Rectangle 8186" width="25" height="12" rx="1" transform="translate(56 374)" fill="#de8b86" opacity="0.372"/>
        </g>
        <g transform="translate(-23 -277)">
          <g id="Rectangle_8150-32" data-name="Rectangle 8150" transform="translate(54 372)" fill="none" stroke="#f8f8f8" stroke-width="1">
            <rect width="29" height="16" rx="2" stroke="none"/>
            <rect x="0.5" y="0.5" width="28" height="15" rx="1.5" fill="none"/>
          </g>
          <rect id="Rectangle_8186-32" data-name="Rectangle 8186" width="25" height="12" rx="1" transform="translate(56 374)" fill="#de8b86" opacity="0.372"/>
        </g>
        <g transform="translate(8 -277)">
          <g id="Rectangle_8150-33" data-name="Rectangle 8150" transform="translate(54 372)" fill="none" stroke="#f8f8f8" stroke-width="1">
            <rect width="29" height="16" rx="2" stroke="none"/>
            <rect x="0.5" y="0.5" width="28" height="15" rx="1.5" fill="none"/>
          </g>
          <rect id="Rectangle_8186-33" data-name="Rectangle 8186" width="25" height="12" rx="1" transform="translate(56 374)" fill="#de8b86" opacity="0.372"/>
        </g>
        <g transform="translate(39 -277)">
          <g id="Rectangle_8150-34" data-name="Rectangle 8150" transform="translate(54 372)" fill="none" stroke="#f8f8f8" stroke-width="1">
            <rect width="29" height="16" rx="2" stroke="none"/>
            <rect x="0.5" y="0.5" width="28" height="15" rx="1.5" fill="none"/>
          </g>
          <rect id="Rectangle_8186-34" data-name="Rectangle 8186" width="25" height="12" rx="1" transform="translate(56 374)" fill="#de8b86" opacity="0.372"/>
        </g>
        <g transform="translate(70 -277)">
          <g id="Rectangle_8150-35" data-name="Rectangle 8150" transform="translate(54 372)" fill="none" stroke="#f8f8f8" stroke-width="1">
            <rect width="29" height="16" rx="2" stroke="none"/>
            <rect x="0.5" y="0.5" width="28" height="15" rx="1.5" fill="none"/>
          </g>
          <rect id="Rectangle_8186-35" data-name="Rectangle 8186" width="25" height="12" rx="1" transform="translate(56 374)" fill="#de8b86" opacity="0.372"/>
        </g>
        <g transform="translate(101 -277)">
          <g id="Rectangle_8150-36" data-name="Rectangle 8150" transform="translate(54 372)" fill="none" stroke="#f8f8f8" stroke-width="1">
            <rect width="29" height="16" rx="2" stroke="none"/>
            <rect x="0.5" y="0.5" width="28" height="15" rx="1.5" fill="none"/>
          </g>
          <rect id="Rectangle_8186-36" data-name="Rectangle 8186" width="25" height="12" rx="1" transform="translate(56 374)" fill="#de8b86" opacity="0.372"/>
        </g>
        <g transform="translate(-54 -258)">
          <g id="Rectangle_8150-37" data-name="Rectangle 8150" transform="translate(54 372)" fill="none" stroke="#f8f8f8" stroke-width="1">
            <rect width="29" height="16" rx="2" stroke="none"/>
            <rect x="0.5" y="0.5" width="28" height="15" rx="1.5" fill="none"/>
          </g>
          <rect id="Rectangle_8186-37" data-name="Rectangle 8186" width="25" height="12" rx="1" transform="translate(56 374)" fill="#de8b86" opacity="0.372"/>
        </g>
        <g transform="translate(-23 -258)">
          <g id="Rectangle_8150-38" data-name="Rectangle 8150" transform="translate(54 372)" fill="none" stroke="#f8f8f8" stroke-width="1">
            <rect width="29" height="16" rx="2" stroke="none"/>
            <rect x="0.5" y="0.5" width="28" height="15" rx="1.5" fill="none"/>
          </g>
          <rect id="Rectangle_8186-38" data-name="Rectangle 8186" width="25" height="12" rx="1" transform="translate(56 374)" fill="#de8b86" opacity="0.372"/>
        </g>
        <g transform="translate(8 -258)">
          <g id="Rectangle_8150-39" data-name="Rectangle 8150" transform="translate(54 372)" fill="none" stroke="#f8f8f8" stroke-width="1">
            <rect width="29" height="16" rx="2" stroke="none"/>
            <rect x="0.5" y="0.5" width="28" height="15" rx="1.5" fill="none"/>
          </g>
          <rect id="Rectangle_8186-39" data-name="Rectangle 8186" width="25" height="12" rx="1" transform="translate(56 374)" fill="#de8b86" opacity="0.372"/>
        </g>
        <g transform="translate(39 -258)">
          <g id="Rectangle_8150-40" data-name="Rectangle 8150" transform="translate(54 372)" fill="none" stroke="#f8f8f8" stroke-width="1">
            <rect width="29" height="16" rx="2" stroke="none"/>
            <rect x="0.5" y="0.5" width="28" height="15" rx="1.5" fill="none"/>
          </g>
          <rect id="Rectangle_8186-40" data-name="Rectangle 8186" width="25" height="12" rx="1" transform="translate(56 374)" fill="#de8b86" opacity="0.372"/>
        </g>
        <g transform="translate(70 -258)">
          <g id="Rectangle_8150-41" data-name="Rectangle 8150" transform="translate(54 372)" fill="none" stroke="#f8f8f8" stroke-width="1">
            <rect width="29" height="16" rx="2" stroke="none"/>
            <rect x="0.5" y="0.5" width="28" height="15" rx="1.5" fill="none"/>
          </g>
          <rect id="Rectangle_8186-41" data-name="Rectangle 8186" width="25" height="12" rx="1" transform="translate(56 374)" fill="#de8b86" opacity="0.372"/>
        </g>
        <g transform="translate(101 -258)">
          <g id="Rectangle_8150-42" data-name="Rectangle 8150" transform="translate(54 372)" fill="none" stroke="#f8f8f8" stroke-width="1">
            <rect width="29" height="16" rx="2" stroke="none"/>
            <rect x="0.5" y="0.5" width="28" height="15" rx="1.5" fill="none"/>
          </g>
          <rect id="Rectangle_8186-42" data-name="Rectangle 8186" width="25" height="12" rx="1" transform="translate(56 374)" fill="#de8b86" opacity="0.372"/>
        </g>
      </g>
    </g>
    <g id="Repeat_Grid_22" data-name="Repeat Grid 22" transform="translate(44 376)" clip-path="url(#clip-path-2)">
      <g id="Group_46281" data-name="Group 46281" transform="translate(1203 7071)">
        <g id="Group_46209" data-name="Group 46209" transform="translate(-1257 -7443)">
          <g id="Rectangle_8150-43" data-name="Rectangle 8150" transform="translate(54 372)" fill="none" stroke="#f8f8f8" stroke-width="1">
            <rect width="24" height="14" rx="2" stroke="none"/>
            <rect x="0.5" y="0.5" width="23" height="13" rx="1.5" fill="none"/>
          </g>
          <rect id="Rectangle_8186-43" data-name="Rectangle 8186" width="20" height="10" rx="1" transform="translate(56 374)" fill="#f8f8f8" opacity="0.372"/>
        </g>
      </g>
      <g id="Group_46281-2" data-name="Group 46281" transform="translate(1229 7071)">
        <g id="Group_46209-2" data-name="Group 46209" transform="translate(-1257 -7443)">
          <g id="Rectangle_8150-44" data-name="Rectangle 8150" transform="translate(54 372)" fill="none" stroke="#f8f8f8" stroke-width="1">
            <rect width="24" height="14" rx="2" stroke="none"/>
            <rect x="0.5" y="0.5" width="23" height="13" rx="1.5" fill="none"/>
          </g>
          <rect id="Rectangle_8186-44" data-name="Rectangle 8186" width="20" height="10" rx="1" transform="translate(56 374)" fill="#f8f8f8" opacity="0.372"/>
        </g>
      </g>
      <g id="Group_46281-3" data-name="Group 46281" transform="translate(1203 7087)">
        <g id="Group_46209-3" data-name="Group 46209" transform="translate(-1257 -7443)">
          <g id="Rectangle_8150-45" data-name="Rectangle 8150" transform="translate(54 372)" fill="none" stroke="#f8f8f8" stroke-width="1">
            <rect width="24" height="14" rx="2" stroke="none"/>
            <rect x="0.5" y="0.5" width="23" height="13" rx="1.5" fill="none"/>
          </g>
          <rect id="Rectangle_8186-45" data-name="Rectangle 8186" width="20" height="10" rx="1" transform="translate(56 374)" fill="#f8f8f8" opacity="0.372"/>
        </g>
      </g>
      <g id="Group_46281-4" data-name="Group 46281" transform="translate(1229 7087)">
        <g id="Group_46209-4" data-name="Group 46209" transform="translate(-1257 -7443)">
          <g id="Rectangle_8150-46" data-name="Rectangle 8150" transform="translate(54 372)" fill="none" stroke="#f8f8f8" stroke-width="1">
            <rect width="24" height="14" rx="2" stroke="none"/>
            <rect x="0.5" y="0.5" width="23" height="13" rx="1.5" fill="none"/>
          </g>
          <rect id="Rectangle_8186-46" data-name="Rectangle 8186" width="20" height="10" rx="1" transform="translate(56 374)" fill="#f8f8f8" opacity="0.372"/>
        </g>
      </g>
      <g id="Group_46281-5" data-name="Group 46281" transform="translate(1203 7103)">
        <g id="Group_46209-5" data-name="Group 46209" transform="translate(-1257 -7443)">
          <g id="Rectangle_8150-47" data-name="Rectangle 8150" transform="translate(54 372)" fill="none" stroke="#f8f8f8" stroke-width="1">
            <rect width="24" height="14" rx="2" stroke="none"/>
            <rect x="0.5" y="0.5" width="23" height="13" rx="1.5" fill="none"/>
          </g>
          <rect id="Rectangle_8186-47" data-name="Rectangle 8186" width="20" height="10" rx="1" transform="translate(56 374)" fill="#f8f8f8" opacity="0.372"/>
        </g>
      </g>
      <g id="Group_46281-6" data-name="Group 46281" transform="translate(1229 7103)">
        <g id="Group_46209-6" data-name="Group 46209" transform="translate(-1257 -7443)">
          <g id="Rectangle_8150-48" data-name="Rectangle 8150" transform="translate(54 372)" fill="none" stroke="#f8f8f8" stroke-width="1">
            <rect width="24" height="14" rx="2" stroke="none"/>
            <rect x="0.5" y="0.5" width="23" height="13" rx="1.5" fill="none"/>
          </g>
          <rect id="Rectangle_8186-48" data-name="Rectangle 8186" width="20" height="10" rx="1" transform="translate(56 374)" fill="#f8f8f8" opacity="0.372"/>
        </g>
      </g>
      <g id="Group_46281-7" data-name="Group 46281" transform="translate(1203 7119)">
        <g id="Group_46209-7" data-name="Group 46209" transform="translate(-1257 -7443)">
          <g id="Rectangle_8150-49" data-name="Rectangle 8150" transform="translate(54 372)" fill="none" stroke="#f8f8f8" stroke-width="1">
            <rect width="24" height="14" rx="2" stroke="none"/>
            <rect x="0.5" y="0.5" width="23" height="13" rx="1.5" fill="none"/>
          </g>
          <rect id="Rectangle_8186-49" data-name="Rectangle 8186" width="20" height="10" rx="1" transform="translate(56 374)" fill="#f8f8f8" opacity="0.372"/>
        </g>
      </g>
      <g id="Group_46281-8" data-name="Group 46281" transform="translate(1229 7119)">
        <g id="Group_46209-8" data-name="Group 46209" transform="translate(-1257 -7443)">
          <g id="Rectangle_8150-50" data-name="Rectangle 8150" transform="translate(54 372)" fill="none" stroke="#f8f8f8" stroke-width="1">
            <rect width="24" height="14" rx="2" stroke="none"/>
            <rect x="0.5" y="0.5" width="23" height="13" rx="1.5" fill="none"/>
          </g>
          <rect id="Rectangle_8186-50" data-name="Rectangle 8186" width="20" height="10" rx="1" transform="translate(56 374)" fill="#f8f8f8" opacity="0.372"/>
        </g>
      </g>
      <g id="Group_46281-9" data-name="Group 46281" transform="translate(1203 7135)">
        <g id="Group_46209-9" data-name="Group 46209" transform="translate(-1257 -7443)">
          <g id="Rectangle_8150-51" data-name="Rectangle 8150" transform="translate(54 372)" fill="none" stroke="#f8f8f8" stroke-width="1">
            <rect width="24" height="14" rx="2" stroke="none"/>
            <rect x="0.5" y="0.5" width="23" height="13" rx="1.5" fill="none"/>
          </g>
          <rect id="Rectangle_8186-51" data-name="Rectangle 8186" width="20" height="10" rx="1" transform="translate(56 374)" fill="#f8f8f8" opacity="0.372"/>
        </g>
      </g>
      <g id="Group_46281-10" data-name="Group 46281" transform="translate(1229 7135)">
        <g id="Group_46209-10" data-name="Group 46209" transform="translate(-1257 -7443)">
          <g id="Rectangle_8150-52" data-name="Rectangle 8150" transform="translate(54 372)" fill="none" stroke="#f8f8f8" stroke-width="1">
            <rect width="24" height="14" rx="2" stroke="none"/>
            <rect x="0.5" y="0.5" width="23" height="13" rx="1.5" fill="none"/>
          </g>
          <rect id="Rectangle_8186-52" data-name="Rectangle 8186" width="20" height="10" rx="1" transform="translate(56 374)" fill="#f8f8f8" opacity="0.372"/>
        </g>
      </g>
      <g id="Group_46281-11" data-name="Group 46281" transform="translate(1203 7151)">
        <g id="Group_46209-11" data-name="Group 46209" transform="translate(-1257 -7443)">
          <g id="Rectangle_8150-53" data-name="Rectangle 8150" transform="translate(54 372)" fill="none" stroke="#f8f8f8" stroke-width="1">
            <rect width="24" height="14" rx="2" stroke="none"/>
            <rect x="0.5" y="0.5" width="23" height="13" rx="1.5" fill="none"/>
          </g>
          <rect id="Rectangle_8186-53" data-name="Rectangle 8186" width="20" height="10" rx="1" transform="translate(56 374)" fill="#f8f8f8" opacity="0.372"/>
        </g>
      </g>
      <g id="Group_46281-12" data-name="Group 46281" transform="translate(1229 7151)">
        <g id="Group_46209-12" data-name="Group 46209" transform="translate(-1257 -7443)">
          <g id="Rectangle_8150-54" data-name="Rectangle 8150" transform="translate(54 372)" fill="none" stroke="#f8f8f8" stroke-width="1">
            <rect width="24" height="14" rx="2" stroke="none"/>
            <rect x="0.5" y="0.5" width="23" height="13" rx="1.5" fill="none"/>
          </g>
          <rect id="Rectangle_8186-54" data-name="Rectangle 8186" width="20" height="10" rx="1" transform="translate(56 374)" fill="#f8f8f8" opacity="0.372"/>
        </g>
      </g>
    </g>
    <g id="Group_46508" data-name="Group 46508" transform="translate(-13.021 28.154)">
      <g id="Group_46500" data-name="Group 46500" transform="translate(3200.786 7516.639)">
        <g id="Group_46341" data-name="Group 46341" transform="translate(-3064.65 -7140)">
          <g id="Group_46337" data-name="Group 46337" transform="translate(0 0)">
            <g id="Group_46336" data-name="Group 46336">
              <g id="Group_46335" data-name="Group 46335">
                <path id="Path_117213" data-name="Path 117213" d="M203.569,39.169s-2.518-1-5.191-2.042c1.15-2.625,2.224-5.114,2.224-5.114a.808.808,0,0,0-.17-.89l-9.914-9.914a.806.806,0,0,0-.89-.17s-2.484,1.074-5.109,2.224c-1.044-2.668-2.042-5.186-2.042-5.186a.807.807,0,0,0-.75-.509H167.7a.807.807,0,0,0-.75.509s-1,2.518-2.042,5.186c-2.625-1.15-5.109-2.224-5.109-2.224a.806.806,0,0,0-.891.17l-9.918,9.913a.806.806,0,0,0-.17.891s1.077,2.488,2.228,5.113c-2.673,1.044-5.191,2.042-5.191,2.042a.807.807,0,0,0-.509.75V53.938a.807.807,0,0,0,.509.75s2.518,1,5.191,2.042c-1.15,2.625-2.228,5.113-2.228,5.113a.807.807,0,0,0,.17.891l9.919,9.914a.808.808,0,0,0,.891.17s2.484-1.074,5.109-2.224c1.044,2.668,2.042,5.186,2.042,5.186a.807.807,0,0,0,.75.509h14.024a.807.807,0,0,0,.75-.509s1-2.518,2.042-5.186c2.625,1.15,5.109,2.224,5.109,2.224a.809.809,0,0,0,.891-.17l9.914-9.914a.807.807,0,0,0,.17-.89s-1.074-2.488-2.224-5.114c2.673-1.045,5.191-2.042,5.191-2.042a.807.807,0,0,0,.509-.75V39.919A.807.807,0,0,0,203.569,39.169Zm-1.1,14.221c-.985.389-3.246,1.282-5.457,2.143a.807.807,0,0,0-.446,1.076c.953,2.169,1.92,4.4,2.34,5.372l-9.139,9.138c-.971-.421-3.2-1.387-5.367-2.34a.807.807,0,0,0-1.076.446c-.861,2.206-1.754,4.468-2.143,5.452H168.25c-.389-.984-1.282-3.245-2.143-5.452a.807.807,0,0,0-1.076-.446c-2.168.953-4.4,1.919-5.367,2.34l-9.143-9.138c.422-.972,1.392-3.2,2.345-5.372a.807.807,0,0,0-.446-1.076c-2.21-.861-4.472-1.754-5.457-2.143V40.468c.985-.389,3.246-1.282,5.456-2.143a.807.807,0,0,0,.446-1.076c-.953-2.169-1.923-4.4-2.345-5.372l9.143-9.138c.971.421,3.2,1.387,5.367,2.34a.807.807,0,0,0,1.076-.446c.861-2.206,1.754-4.468,2.143-5.452h12.927c.389.984,1.282,3.245,2.143,5.452a.807.807,0,0,0,1.076.446c2.168-.953,4.4-1.919,5.367-2.34l9.138,9.138c-.42.971-1.387,3.2-2.34,5.372a.807.807,0,0,0,.446,1.076c2.21.861,4.472,1.754,5.456,2.143Z" transform="translate(-145.35 -17.567)" fill="#f8f8f8"/>
              </g>
            </g>
          </g>
          <g id="Group_46340" data-name="Group 46340" transform="translate(15.914 15.914)">
            <g id="Group_46339" data-name="Group 46339">
              <g id="Group_46338" data-name="Group 46338">
                <path id="Path_117214" data-name="Path 117214" d="M217.936,76.707a13.447,13.447,0,1,0,13.452,13.447A13.462,13.462,0,0,0,217.936,76.707Zm0,25.281a11.834,11.834,0,1,1,11.839-11.834A11.847,11.847,0,0,1,217.936,101.988Z" transform="translate(-204.489 -76.707)" fill="#f8f8f8"/>
              </g>
            </g>
          </g>
        </g>
        <g id="Group_46344" data-name="Group 46344" transform="translate(-3061.309 -7136.659)">
          <g id="Group_46343" data-name="Group 46343" transform="translate(0 0)">
            <g id="Group_46342" data-name="Group 46342">
              <path id="Path_117215" data-name="Path 117215" d="M209.811,61.289V50.717c-1.147-.452-2.765-1.089-4.356-1.709l-2.463-.96,1.063-2.421c.686-1.562,1.38-3.156,1.87-4.287L203.9,39.312l-5.452-5.448c-1.13.491-2.722,1.184-4.282,1.869L191.746,36.8l-.961-2.461c-.62-1.589-1.257-3.206-1.709-4.353H178.5c-.453,1.147-1.089,2.764-1.709,4.353l-.961,2.462-2.419-1.063c-1.56-.685-3.152-1.378-4.281-1.869l-7.481,7.476c.492,1.132,1.188,2.726,1.873,4.287l1.063,2.421-2.463.96c-1.591.62-3.209,1.256-4.356,1.709V61.289c1.147.452,2.765,1.089,4.356,1.709l2.464.96-1.064,2.421c-.686,1.561-1.381,3.156-1.873,4.288l7.481,7.476c1.13-.491,2.721-1.184,4.281-1.869l2.419-1.063.961,2.462c.62,1.588,1.256,3.205,1.709,4.353h10.578c.453-1.147,1.089-2.764,1.709-4.353l.961-2.461,2.419,1.063c1.56.685,3.152,1.378,4.281,1.869L203.9,72.7l2.028-2.031c-.491-1.131-1.184-2.726-1.87-4.287l-1.064-2.421,2.464-.96C207.046,62.378,208.664,61.741,209.811,61.289Zm-26.026,9.889A15.175,15.175,0,1,1,198.965,56,15.192,15.192,0,0,1,183.785,71.177Z" transform="translate(-157.764 -29.982)" fill="#de8b86"/>
            </g>
          </g>
        </g>
      </g>
      <g id="Group_46502" data-name="Group 46502" transform="translate(2996.72 7554.014)">
        <g id="Group_46312" data-name="Group 46312" transform="translate(-2801.856 -7139.652)">
          <g id="Group_46308" data-name="Group 46308" transform="translate(0 0)">
            <g id="Group_46307" data-name="Group 46307">
              <g id="Group_46306" data-name="Group 46306">
                <path id="Path_117200" data-name="Path 117200" d="M432.785,26.887s-.818-.324-1.773-.7c.41-.94.759-1.747.759-1.747a.725.725,0,0,0-.153-.8l-4.105-4.105a.725.725,0,0,0-.8-.152s-.805.348-1.744.759c-.375-.954-.7-1.771-.7-1.771a.724.724,0,0,0-.674-.457H417.79a.724.724,0,0,0-.674.457s-.324.817-.7,1.771c-.939-.41-1.745-.759-1.745-.759a.724.724,0,0,0-.8.153l-4.107,4.1a.724.724,0,0,0-.153.8s.349.807.76,1.746c-.956.375-1.773.7-1.773.7a.724.724,0,0,0-.458.674v5.805a.724.724,0,0,0,.458.674s.817.324,1.773.7c-.411.939-.76,1.746-.76,1.746a.725.725,0,0,0,.152.8l4.107,4.1a.725.725,0,0,0,.8.153s.806-.348,1.745-.759c.374.954.7,1.771.7,1.771a.724.724,0,0,0,.674.457H423.6a.724.724,0,0,0,.674-.457s.324-.817.7-1.771c.939.41,1.744.759,1.744.759a.723.723,0,0,0,.8-.153l4.105-4.105a.725.725,0,0,0,.153-.8s-.348-.807-.759-1.747c.956-.374,1.773-.7,1.773-.7a.725.725,0,0,0,.457-.674v-5.8A.724.724,0,0,0,432.785,26.887Zm-.992,5.986c-.474.187-1.25.493-2.011.789a.724.724,0,0,0-.4.966c.328.747.66,1.512.862,1.979l-3.409,3.408c-.467-.2-1.23-.535-1.977-.863a.725.725,0,0,0-.966.4c-.3.76-.6,1.536-.789,2.009h-4.822c-.187-.474-.493-1.249-.79-2.009a.724.724,0,0,0-.966-.4c-.747.328-1.51.66-1.977.863l-3.41-3.408c.2-.467.536-1.233.864-1.979a.724.724,0,0,0-.4-.966c-.761-.3-1.537-.6-2.011-.789v-4.82c.474-.187,1.25-.493,2.011-.789a.724.724,0,0,0,.4-.966c-.328-.747-.661-1.512-.864-1.979l3.41-3.408c.466.2,1.23.535,1.977.863a.724.724,0,0,0,.966-.4c.3-.76.6-1.536.79-2.009H423.1c.187.473.493,1.249.789,2.009a.725.725,0,0,0,.966.4c.747-.328,1.51-.66,1.977-.863l3.408,3.408c-.2.467-.535,1.232-.862,1.979a.724.724,0,0,0,.4.966c.761.3,1.537.6,2.011.789Z" transform="translate(-408.144 -17.915)" fill="#f8f8f8"/>
              </g>
            </g>
          </g>
          <g id="Group_46311" data-name="Group 46311" transform="translate(6.589 6.59)">
            <g id="Group_46310" data-name="Group 46310">
              <g id="Group_46309" data-name="Group 46309">
                <path id="Path_117201" data-name="Path 117201" d="M441.369,45.182a5.959,5.959,0,1,0,5.961,5.959A5.965,5.965,0,0,0,441.369,45.182Zm0,10.468a4.51,4.51,0,1,1,4.512-4.51A4.515,4.515,0,0,1,441.369,55.65Z" transform="translate(-435.41 -45.182)" fill="#f8f8f8"/>
              </g>
            </g>
          </g>
        </g>
        <g id="Group_46507" data-name="Group 46507">
          <g id="Group_46314" data-name="Group 46314" transform="translate(-2791.598 -7119.951)">
            <g id="Group_46313" data-name="Group 46313" transform="translate(0 0)">
              <path id="Path_117202" data-name="Path 117202" d="M452.88,99.792a7.485,7.485,0,0,1-2.29-.357s.809,2.071.936,2.395h2.71c.127-.324.936-2.4.936-2.4A7.485,7.485,0,0,1,452.88,99.792Z" transform="translate(-450.59 -99.434)" fill="#de8b86"/>
            </g>
          </g>
          <g id="Group_46316" data-name="Group 46316" transform="translate(-2797.016 -7123.664)">
            <g id="Group_46315" data-name="Group 46315" transform="translate(0 0)">
              <path id="Path_117203" data-name="Path 117203" d="M429.2,84.072s-.894,2.037-1.033,2.356l1.916,1.914,2.355-1.033A7.56,7.56,0,0,1,429.2,84.072Z" transform="translate(-428.171 -84.072)" fill="#de8b86"/>
            </g>
          </g>
          <g id="Group_46318" data-name="Group 46318" transform="translate(-2785.869 -7123.664)">
            <g id="Group_46317" data-name="Group 46317" transform="translate(0 0)">
              <path id="Path_117204" data-name="Path 117204" d="M477.535,84.071a7.563,7.563,0,0,1-3.238,3.236l2.356,1.033,1.915-1.914C478.429,86.108,477.535,84.071,477.535,84.071Z" transform="translate(-474.297 -84.071)" fill="#de8b86"/>
            </g>
          </g>
          <g id="Group_46320" data-name="Group 46320" transform="translate(-2782.152 -7129.392)">
            <g id="Group_46319" data-name="Group 46319" transform="translate(0 0)">
              <path id="Path_117205" data-name="Path 117205" d="M489.676,60.371a7.52,7.52,0,0,1,0,4.576l2.394-.934V61.305Z" transform="translate(-489.676 -60.371)" fill="#de8b86"/>
            </g>
          </g>
          <g id="Group_46322" data-name="Group 46322" transform="translate(-2798.856 -7129.392)">
            <g id="Group_46321" data-name="Group 46321" transform="translate(0 0)">
              <path id="Path_117206" data-name="Path 117206" d="M422.951,60.371l-2.394.935v2.707l2.394.935a7.525,7.525,0,0,1,0-4.576Z" transform="translate(-420.557 -60.371)" fill="#de8b86"/>
            </g>
          </g>
          <g id="Group_46324" data-name="Group 46324" transform="translate(-2785.869 -7134.813)">
            <g id="Group_46323" data-name="Group 46323" transform="translate(0 0)">
              <path id="Path_117207" data-name="Path 117207" d="M476.652,37.939,474.3,38.972a7.565,7.565,0,0,1,3.238,3.236s.894-2.037,1.033-2.356Z" transform="translate(-474.296 -37.939)" fill="#de8b86"/>
            </g>
          </g>
          <g id="Group_46326" data-name="Group 46326" transform="translate(-2797.016 -7134.813)">
            <g id="Group_46325" data-name="Group 46325" transform="translate(0 0)">
              <path id="Path_117208" data-name="Path 117208" d="M430.087,37.94l-1.916,1.914c.139.319,1.033,2.355,1.033,2.355a7.562,7.562,0,0,1,3.237-3.236Z" transform="translate(-428.171 -37.94)" fill="#de8b86"/>
            </g>
          </g>
          <g id="Group_46328" data-name="Group 46328" transform="translate(-2791.598 -7136.652)">
            <g id="Group_46327" data-name="Group 46327" transform="translate(0 0)">
              <path id="Path_117209" data-name="Path 117209" d="M454.235,30.329h-2.71c-.127.324-.936,2.395-.936,2.395a7.525,7.525,0,0,1,4.583,0S454.362,30.653,454.235,30.329Z" transform="translate(-450.589 -30.329)" fill="#de8b86"/>
            </g>
          </g>
        </g>
      </g>
      <g id="Group_46504" data-name="Group 46504" transform="translate(-4201.174 -5781.924) rotate(167)">
        <g id="Group_46375" data-name="Group 46375" transform="translate(-2826.497 -7046.14)">
          <g id="Group_46374" data-name="Group 46374" transform="translate(0 0)">
            <g id="Group_46373" data-name="Group 46373">
              <path id="Path_117219" data-name="Path 117219" d="M393.988,122.106c.463.217.924.449,1.37.69l.752-1.391c-.473-.256-.961-.5-1.451-.731Zm2.7,1.459c.431.266.862.55,1.281.843l.907-1.3c-.444-.311-.9-.611-1.358-.893Zm11.729,15.585,1.523-.424c-.145-.522-.307-1.045-.482-1.555l-1.5.512C408.125,138.164,408.278,138.657,408.415,139.15Zm-5.8-12.911-1.115,1.121c.362.36.718.735,1.057,1.113l1.177-1.056C403.371,127.016,402.994,126.62,402.611,126.238Zm6.755,18.967,1.58-.064c-.022-.537-.059-1.083-.112-1.622l-1.573.154C409.31,144.182,409.346,144.7,409.366,145.205Zm-.3-3.054,1.562-.245c-.084-.533-.184-1.072-.3-1.6l-1.545.335C408.892,141.14,408.987,141.648,409.066,142.151ZM399.2,125.323c.4.317.8.649,1.178.985l1.049-1.183c-.4-.356-.821-.707-1.247-1.043Zm9.715,26,1.553.3c.1-.53.187-1.07.258-1.605l-1.568-.206C409.091,150.309,409.009,150.819,408.914,151.319Zm-.745,2.977,1.509.471c.161-.515.309-1.042.44-1.565l-1.534-.384C408.461,153.312,408.321,153.809,408.169,154.3Zm1.215-7.556c-.009.508-.032,1.025-.07,1.535l1.577.117c.04-.54.065-1.086.074-1.624Zm-2.3,10.427,1.445.642c.219-.493.427-1,.617-1.5l-1.479-.558C407.489,156.225,407.293,156.7,407.086,157.168Zm-.424-25.859-1.34.84c.271.432.532.877.778,1.324l1.386-.761C407.226,132.238,406.949,131.766,406.662,131.309Zm-1.881-2.651-1.235.987c.32.4.63.813.924,1.227l1.29-.915C405.449,129.518,405.12,129.081,404.781,128.658Zm4.1,6.99c-.2-.5-.423-1-.657-1.488l-1.428.679c.221.464.43.937.621,1.405Z" transform="translate(-393.988 -120.674)" fill="#f8f8f8"/>
            </g>
          </g>
        </g>
        <g id="Group_46377" data-name="Group 46377" transform="translate(-2830.252 -7049.452)">
          <g id="Group_46376" data-name="Group 46376" transform="translate(0 0)">
            <path id="Path_117220" data-name="Path 117220" d="M386.958,109.661l-.332-1.546-6.253,1.344a.791.791,0,0,0-.54,1.127l3.043,6.07,1.413-.709-2.586-5.158Z" transform="translate(-379.748 -108.115)" fill="#f8f8f8"/>
          </g>
        </g>
      </g>
      <g id="Group_46509" data-name="Group 46509" transform="translate(182.77 385.339) rotate(-58)">
        <g id="Group_46375-2" data-name="Group 46375" transform="translate(3.755 0)">
          <g id="Group_46374-2" data-name="Group 46374" transform="translate(0)">
            <g id="Group_46373-2" data-name="Group 46373">
              <path id="Path_117219-2" data-name="Path 117219" d="M0,35.7c.463-.217.924-.449,1.37-.69L2.122,36.4c-.473.256-.961.5-1.451.731Zm2.7-1.459c.431-.266.862-.55,1.281-.843l.907,1.3c-.444.311-.9.611-1.358.893ZM14.427,18.66l1.523.424c-.145.522-.307,1.045-.482,1.555l-1.5-.512C14.137,19.646,14.29,19.153,14.427,18.66Zm-5.8,12.911L7.508,30.451c.362-.36.718-.735,1.057-1.113l1.177,1.056C9.383,30.794,9.006,31.19,8.623,31.572ZM15.378,12.6l1.58.064c-.022.537-.059,1.083-.112,1.622l-1.573-.154C15.322,13.628,15.358,13.112,15.378,12.6Zm-.3,3.054,1.562.245c-.084.533-.184,1.072-.3,1.6L14.8,17.169C14.9,16.67,15,16.162,15.078,15.659ZM5.211,32.487c.4-.317.8-.649,1.178-.985l1.049,1.183c-.4.356-.821.707-1.247,1.043Zm9.715-26,1.553-.3c.1.53.187,1.07.258,1.605l-1.568.206C15.1,7.5,15.021,6.991,14.926,6.491Zm-.745-2.977,1.509-.471c.161.515.309,1.042.44,1.565L14.6,4.992C14.473,4.5,14.333,4,14.181,3.514ZM15.4,11.07c-.009-.508-.032-1.025-.07-1.535L16.9,9.418c.04.54.065,1.086.074,1.624ZM13.1.642,14.543,0c.219.493.427,1,.617,1.5l-1.479.558C13.5,1.585,13.3,1.107,13.1.642ZM12.674,26.5l-1.34-.84c.271-.432.532-.877.778-1.324L13.5,25.1C13.238,25.572,12.961,26.044,12.674,26.5Zm-1.881,2.651-1.235-.987c.32-.4.63-.813.924-1.227l1.29.915C11.461,28.292,11.132,28.729,10.793,29.152Zm4.1-6.99c-.2.5-.423,1-.657,1.488l-1.428-.679c.221-.464.43-.937.621-1.405Z" transform="translate(0 0)" fill="#f8f8f8"/>
            </g>
          </g>
        </g>
        <g id="Group_46377-2" data-name="Group 46377" transform="matrix(0.995, -0.105, 0.105, 0.995, -0.427, 32.306)">
          <g id="Group_46376-2" data-name="Group 46376" transform="translate(0 0)">
            <path id="Path_117220-2" data-name="Path 117220" d="M7.209,7,6.877,8.542.624,7.2A.791.791,0,0,1,.084,6.07L3.127,0,4.54.709,1.954,5.866Z" transform="translate(0 0)" fill="#f8f8f8"/>
          </g>
        </g>
      </g>
    </g>
  </g>
</svg>
