<svg xmlns="http://www.w3.org/2000/svg" width="39.986" height="39.571" viewBox="0 0 39.986 39.571">
  <g id="gift" transform="translate(14945.544 15791.001)">
    <g id="Group_44231" data-name="Group 44231" transform="translate(-14940.261 -15782.986)">
      <g id="Group_30066" data-name="Group 30066" transform="translate(0 0)">
        <g id="Group_30061" data-name="Group 30061" transform="translate(0 0)">
          <g id="Group_28454" data-name="Group 28454" transform="translate(16.461 0)">
            <g id="Group_28453" data-name="Group 28453" transform="translate(0)">
              <path id="Path_19614" data-name="Path 19614" d="M261.37,158.54l-12.124,2.008h14.067a3.076,3.076,0,0,1,1.592.441A3.09,3.09,0,0,0,261.37,158.54Z" transform="translate(-249.246 -158.498)" fill="#69a2b0"/>
            </g>
          </g>
          <g id="Group_28456" data-name="Group 28456" transform="translate(0 5.044)">
            <g id="Group_28455" data-name="Group 28455" transform="translate(0 0)">
              <path id="Path_19615" data-name="Path 19615" d="M124.491,199.595l1.043,6.3v-9.058c0-.032,0-.064,0-.1A3.088,3.088,0,0,0,124.491,199.595Z" transform="translate(-124.449 -196.737)" fill="#69a2b0"/>
            </g>
          </g>
          <g id="Group_28458" data-name="Group 28458" transform="translate(33.616 11.522)">
            <g id="Group_28457" data-name="Group 28457" transform="translate(0 0)">
              <path id="Path_19616" data-name="Path 19616" d="M380.354,252.15l-1.043-6.3v9.058c0,.032,0,.065,0,.1A3.09,3.09,0,0,0,380.354,252.15Z" transform="translate(-379.309 -245.853)" fill="#69a2b0"/>
            </g>
          </g>
          <g id="Group_28460" data-name="Group 28460" transform="translate(2.583 23.229)">
            <g id="Group_28459" data-name="Group 28459" transform="translate(0 0)">
              <path id="Path_19617" data-name="Path 19617" d="M145.624,335.055a3.076,3.076,0,0,1-1.593-.442,3.09,3.09,0,0,0,3.536,2.449l12.122-2.007H145.624Z" transform="translate(-144.031 -334.613)" fill="#69a2b0"/>
            </g>
          </g>
        </g>
        <g id="Group_28462" data-name="Group 28462" transform="translate(1.085 2.05)">
          <g id="Group_28461" data-name="Group 28461" transform="translate(0 0)">
            <path id="Path_19618" data-name="Path 19618" d="M162.115,174.039H135.763a3.091,3.091,0,0,0-3.091,3.09v15.44a3.091,3.091,0,0,0,3.091,3.091h26.352a3.09,3.09,0,0,0,3.09-3.091v-15.44A3.09,3.09,0,0,0,162.115,174.039Z" transform="translate(-132.672 -174.039)" fill="#db9692"/>
          </g>
        </g>
      </g>
      <g id="Group_30065" data-name="Group 30065" transform="translate(5.478 4.676)">
        <line id="Line_798" data-name="Line 798" x2="26.222" transform="translate(0 14.076)" fill="none" stroke="#f8f8f8" stroke-linecap="round" stroke-width="1" stroke-dasharray="3 3"/>
        <circle id="Ellipse_2034" data-name="Ellipse 2034" cx="4.985" cy="4.985" r="4.985" transform="translate(15.207 0)" fill="#f8f8f8"/>
      </g>
    </g>
    <g id="Group_42061" data-name="Group 42061" transform="translate(-14945.544 -15791.001)">
      <g id="Group_42060" data-name="Group 42060" transform="translate(0 2.46)" opacity="0.627">
        <path id="Path_20574" data-name="Path 20574" d="M337.2,138.445a1.9,1.9,0,1,0-1.9,1.952A1.925,1.925,0,0,0,337.2,138.445Zm0,0" transform="translate(-333.406 -120.871)" fill="#fd746c"/>
        <path id="Path_20563" data-name="Path 20563" d="M152.575,137.254a.88.88,0,0,1-.455-1.635l.012-.007a.881.881,0,0,1,.907,1.51l-.012.007A.878.878,0,0,1,152.575,137.254Zm0,0" transform="translate(-147.399 -105.493)" fill="#fd746c"/>
        <path id="Path_20580" data-name="Path 20580" d="M133.445,11.383a.881.881,0,0,1-.632-1.494l1.095-1.128a.88.88,0,1,1,1.263,1.227l-1.094,1.128A.879.879,0,0,1,133.445,11.383Zm0,0" transform="translate(-98.922 -8.494)" fill="#fd746c"/>
      </g>
      <g id="Group_42058" data-name="Group 42058" transform="translate(5.785 5.095)" opacity="0.588">
        <path id="Path_20576" data-name="Path 20576" d="M233.98,37.9a2.364,2.364,0,1,0-2.363,2.435A2.4,2.4,0,0,0,233.98,37.9Zm0,0" transform="translate(-211.221 -5.858)" fill="#e9b455"/>
        <path id="Path_20578" data-name="Path 20578" d="M107.442,245.408a.881.881,0,0,1-.63-1.5l.01-.01a.881.881,0,1,1,1.26,1.231l-.009.01A.879.879,0,0,1,107.442,245.408Zm0,0" transform="translate(-74.131 -242.673)" fill="#e9b455"/>
        <path id="Path_20564" data-name="Path 20564" d="M165.083,159.171a.881.881,0,0,1-.457-1.634l.012-.007a.881.881,0,1,1,.913,1.506l-.012.007A.876.876,0,0,1,165.083,159.171Zm0,0" transform="translate(-164.202 -127.434)" fill="#e9b455"/>
        <path id="Path_20554" data-name="Path 20554" d="M.89,1.771a.881.881,0,0,0,.63-1.5l-.01-.01A.881.881,0,1,0,.251,1.5l.009.01A.879.879,0,0,0,.89,1.771Zm0,0" transform="matrix(0.966, 0.259, -0.259, 0.966, 10.11, 0)" fill="#e9b455"/>
      </g>
      <g id="Group_42059" data-name="Group 42059" transform="translate(12.874 0)" opacity="0.546">
        <path id="Path_20577" data-name="Path 20577" d="M16.1,436.421a1.9,1.9,0,1,0-1.9,1.953A1.924,1.924,0,0,0,16.1,436.421Zm0,0" transform="translate(4.665 -434.469)" fill="#69a2b0"/>
        <path id="Path_20548" data-name="Path 20548" d="M5.8,257.462a.88.88,0,0,1-.631-1.494l1.094-1.128a.881.881,0,1,1,1.264,1.227l-1.095,1.128A.877.877,0,0,1,5.8,257.462Zm0,0" transform="translate(12.082 -220.629)" fill="#69a2b0"/>
        <path id="Path_20555" data-name="Path 20555" d="M.89,1.771A.88.88,0,0,0,1.522.277L1.513.267A.881.881,0,0,0,.249,1.494l.01.01A.878.878,0,0,0,.89,1.771Zm0,0" transform="matrix(0.966, 0.259, -0.259, 0.966, 0.458, 6.626)" fill="#69a2b0"/>
      </g>
    </g>
  </g>
</svg>
