<svg id="gift" xmlns="http://www.w3.org/2000/svg" width="17.793" height="17.793" viewBox="0 0 17.793 17.793">
  <path id="Path_116939" data-name="Path 116939" d="M327.116,95H321v3.475h6.116a.521.521,0,0,0,.521-.521V95.521A.521.521,0,0,0,327.116,95Z" transform="translate(-309.845 -91.699)" fill="#69a2b0"/>
  <path id="Path_116940" data-name="Path 116940" d="M0,95.521v2.433a.521.521,0,0,0,.521.521H6.638V95H.521A.521.521,0,0,0,0,95.521Z" transform="translate(0 -91.699)" fill="#69a2b0"/>
  <path id="Path_116941" data-name="Path 116941" d="M31,234.452a.521.521,0,0,0,.521.521H36.56V225H31Z" transform="translate(-29.923 -217.181)" fill="#69a2b0"/>
  <path id="Path_116942" data-name="Path 116942" d="M321,234.974h5.039a.521.521,0,0,0,.521-.521V225H321Z" transform="translate(-309.845 -217.181)" fill="#69a2b0"/>
  <path id="Path_116943" data-name="Path 116943" d="M320.39,2.259h3.823V1.646A1.646,1.646,0,0,0,321.831.174l-1.463.731a2.266,2.266,0,0,1,.022.311Z" transform="translate(-309.235)" fill="#69a2b0"/>
  <path id="Path_116944" data-name="Path 116944" d="M82.646,0A1.648,1.648,0,0,0,81,1.646v.613h3.823V1.216a2.262,2.262,0,0,1,.022-.311L83.382.174A1.654,1.654,0,0,0,82.646,0Z" transform="translate(-78.185)" fill="#69a2b0"/>
  <path id="Path_116945" data-name="Path 116945" d="M222.216,0A1.216,1.216,0,0,0,221,1.216V2.259h2.433V1.216A1.216,1.216,0,0,0,222.216,0Z" transform="translate(-213.32)" fill="#69a2b0"/>
  <path id="Path_116946" data-name="Path 116946" d="M221,95h2.433v14.492H221Z" transform="translate(-213.32 -91.699)" fill="#69a2b0"/>
</svg>
