
<svg xmlns="http://www.w3.org/2000/svg" width="50.052" height="55.43" viewBox="0 0 60.052 59.43">
  <g id="gift" transform="translate(-267.518 -474.037)">
    <g id="Group_30066" data-name="Group 30066" transform="translate(275.31 485.614)">
      <g id="Group_30061" data-name="Group 30061" transform="translate(0 0)">
        <g id="Group_28454" data-name="Group 28454" transform="translate(24.721 0)">
          <g id="Group_28453" data-name="Group 28453" transform="translate(0 0)">
            <path id="Path_19614" data-name="Path 19614" d="M267.454,158.561l-18.208,3.015h21.126a4.619,4.619,0,0,1,2.391.663A4.64,4.64,0,0,0,267.454,158.561Z" transform="translate(-249.246 -158.498)" fill="#66a1c9"/>
          </g>
        </g>
        <g id="Group_28456" data-name="Group 28456" transform="translate(0 7.575)">
          <g id="Group_28455" data-name="Group 28455" transform="translate(0 0)">
            <path id="Path_19615" data-name="Path 19615" d="M124.512,201.029l1.566,9.456v-13.6c0-.048,0-.1,0-.144A4.638,4.638,0,0,0,124.512,201.029Z" transform="translate(-124.449 -196.737)" fill="#66a1c9"/>
          </g>
        </g>
        <g id="Group_28458" data-name="Group 28458" transform="translate(50.485 17.304)">
          <g id="Group_28457" data-name="Group 28457" transform="translate(0 0)">
            <path id="Path_19616" data-name="Path 19616" d="M380.879,255.309l-1.566-9.456v13.6c0,.049,0,.1,0,.145A4.64,4.64,0,0,0,380.879,255.309Z" transform="translate(-379.309 -245.853)" fill="#66a1c9"/>
          </g>
        </g>
        <g id="Group_28460" data-name="Group 28460" transform="translate(3.879 34.887)">
          <g id="Group_28459" data-name="Group 28459" transform="translate(0 0)">
            <path id="Path_19617" data-name="Path 19617" d="M146.423,335.276a4.62,4.62,0,0,1-2.392-.663,4.641,4.641,0,0,0,5.311,3.678l18.2-3.015H146.423Z" transform="translate(-144.031 -334.613)" fill="#66a1c9"/>
          </g>
        </g>
      </g>
      <g id="Group_28462" data-name="Group 28462" transform="translate(1.629 3.079)">
        <g id="Group_28461" data-name="Group 28461" transform="translate(0 0)">
          <path id="Path_19618" data-name="Path 19618" d="M176.89,174.039H137.314a4.642,4.642,0,0,0-4.642,4.641v23.189a4.642,4.642,0,0,0,4.642,4.642H176.89a4.641,4.641,0,0,0,4.641-4.642V178.68A4.641,4.641,0,0,0,176.89,174.039Z" transform="translate(-132.672 -174.039)" fill="#a7cce7"/>
        </g>
      </g>
    </g>
    <g id="Group_30065" data-name="Group 30065" transform="translate(282.175 489.721)">
      <path id="Path_20581" data-name="Path 20581" d="M12.538,1.8,5.925.029a.861.861,0,0,0-.831.223L.252,5.093a.861.861,0,0,0-.223.831L1.8,12.538a.861.861,0,0,0,.609.609l6.613,1.772a.861.861,0,0,0,.831-.223L14.7,9.854a.861.861,0,0,0,.223-.831L13.146,2.41A.861.861,0,0,0,12.538,1.8Z" transform="translate(41.643 7.474) rotate(120)" fill="#fff"/>
      <line id="Line_798" data-name="Line 798" x2="39.381" transform="translate(0 24.055)" fill="none" stroke="#fafafa" stroke-linecap="round" stroke-width="2" stroke-dasharray="4.5 4"/>
    </g>
    <g id="Group_30062" data-name="Group 30062" transform="translate(267.518 474.037)" opacity="0.5">
      <path id="Path_20574" data-name="Path 20574" d="M339.1,139.425a2.848,2.848,0,1,0-2.846,2.932A2.891,2.891,0,0,0,339.1,139.425Zm0,0" transform="translate(-333.406 -109.337)" fill="#ff7861"/>
      <path id="Path_20576" data-name="Path 20576" d="M236.352,39.121a3.55,3.55,0,1,0-3.549,3.656A3.6,3.6,0,0,0,236.352,39.121Zm0,0" transform="translate(-193.483 16.652)" fill="#ffe581"/>
      <path id="Path_20577" data-name="Path 20577" d="M18,437.4a2.847,2.847,0,1,0-2.846,2.932A2.89,2.89,0,0,0,18,437.4Zm0,0" transform="translate(32.52 -434.469)" fill="#70c1b3"/>
      <path id="Path_20578" data-name="Path 20578" d="M107.884,246.3a1.323,1.323,0,0,1-.946-2.247l.015-.015a1.322,1.322,0,0,1,1.892,1.848l-.014.015A1.32,1.32,0,0,1,107.884,246.3Zm0,0" transform="translate(-49.169 -234.537)" fill="#fa0"/>
      <path id="Path_20563" data-name="Path 20563" d="M153.018,138.141a1.322,1.322,0,0,1-.683-2.456l.018-.01a1.322,1.322,0,0,1,1.362,2.267l-.017.01A1.318,1.318,0,0,1,153.018,138.141Zm0,0" transform="translate(-145.243 -86.747)" fill="#ff4e61"/>
      <path id="Path_20564" data-name="Path 20564" d="M165.526,160.058a1.323,1.323,0,0,1-.687-2.454l.017-.01a1.323,1.323,0,1,1,1.371,2.262l-.017.01A1.316,1.316,0,0,1,165.526,160.058Zm0,0" transform="translate(-155.513 -104.743)" fill="#fa0"/>
      <path id="Path_20548" data-name="Path 20548" d="M6.242,258.911a1.322,1.322,0,0,1-.948-2.243l1.644-1.694a1.323,1.323,0,1,1,1.9,1.842L7.191,258.51A1.318,1.318,0,0,1,6.242,258.911Zm0,0" transform="translate(39.95 -203.596)" fill="#70c1b3"/>
      <path id="Path_20580" data-name="Path 20580" d="M133.887,12.833a1.323,1.323,0,0,1-.949-2.243L134.583,8.9a1.322,1.322,0,1,1,1.9,1.842l-1.644,1.694A1.32,1.32,0,0,1,133.887,12.833Zm0,0" transform="translate(-82.039 -4.8)" fill="#ff7861"/>
      <g id="Group_30064" data-name="Group 30064" transform="matrix(0.966, 0.259, -0.259, 0.966, 20.855, 6.844)">
        <path id="Path_20554" data-name="Path 20554" d="M1.337,2.66A1.323,1.323,0,0,0,2.283.413L2.269.4A1.323,1.323,0,0,0,.377,2.247l.014.015A1.32,1.32,0,0,0,1.337,2.66Zm0,0" transform="translate(3.123)" fill="#fa0"/>
        <path id="Path_20555" data-name="Path 20555" d="M1.337,2.66A1.322,1.322,0,0,0,2.286.416L2.272.4a1.323,1.323,0,0,0-1.9,1.843l.015.015A1.319,1.319,0,0,0,1.337,2.66Zm0,0" transform="translate(0 3.216)" fill="#006cb4"/>
      </g>
    </g>
  </g>
</svg>
