<svg xmlns="http://www.w3.org/2000/svg" width="50.403" height="44.84" viewBox="0 0 50.403 44.84">
  <g id="halloween" transform="translate(13753.482 -7082)">
    <g id="Group_30067" data-name="Group 30067" transform="translate(-13753.482 7082)">
      <g id="Group_30062" data-name="Group 30062" transform="translate(0 0)" opacity="0.5">
        <path id="Path_20574" data-name="Path 20574" d="M338.855,139.3a2.726,2.726,0,1,0-2.724,2.806A2.767,2.767,0,0,0,338.855,139.3Zm0,0" transform="translate(-333.406 -117.153)" fill="#ff7861"/>
        <path id="Path_20576" data-name="Path 20576" d="M236.047,38.964a3.4,3.4,0,1,0-3.4,3.5A3.449,3.449,0,0,0,236.047,38.964Zm0,0" transform="translate(-202.407 2.376)" fill="#ffe581"/>
        <path id="Path_20577" data-name="Path 20577" d="M17.761,437.275a2.725,2.725,0,1,0-2.724,2.807A2.766,2.766,0,0,0,17.761,437.275Zm0,0" transform="translate(22.468 -434.469)" fill="#70c1b3"/>
        <path id="Path_20578" data-name="Path 20578" d="M107.827,246.183a1.266,1.266,0,0,1-.906-2.151l.014-.014a1.266,1.266,0,1,1,1.811,1.769l-.013.014A1.264,1.264,0,0,1,107.827,246.183Zm0,0" transform="translate(-62.226 -231.231)" fill="#fa0"/>
        <path id="Path_20563" data-name="Path 20563" d="M152.961,138.027a1.266,1.266,0,0,1-.654-2.351l.017-.01a1.266,1.266,0,0,1,1.3,2.17l-.017.01A1.261,1.261,0,0,1,152.961,138.027Zm0,0" transform="translate(-144.041 -101.884)" fill="#ff4e61"/>
        <path id="Path_20564" data-name="Path 20564" d="M165.469,159.944a1.266,1.266,0,0,1-.658-2.349l.017-.01a1.266,1.266,0,1,1,1.312,2.165l-.017.01A1.259,1.259,0,0,1,165.469,159.944Zm0,0" transform="translate(-154.408 -120.047)" fill="#fa0"/>
        <path id="Path_20548" data-name="Path 20548" d="M6.185,258.725a1.266,1.266,0,0,1-.908-2.147l1.573-1.621a1.266,1.266,0,1,1,1.817,1.763l-1.574,1.621A1.261,1.261,0,0,1,6.185,258.725Zm0,0" transform="translate(30.635 -217.823)" fill="#70c1b3"/>
        <path id="Path_20580" data-name="Path 20580" d="M133.83,12.647a1.266,1.266,0,0,1-.908-2.147L134.5,8.879a1.266,1.266,0,1,1,1.816,1.763l-1.573,1.621A1.263,1.263,0,0,1,133.83,12.647Zm0,0" transform="translate(-92.335 -4.958)" fill="#ff7861"/>
        <g id="Group_30064" data-name="Group 30064" transform="matrix(0.966, 0.259, -0.259, 0.966, 12.57, 4.334)">
          <path id="Path_20554" data-name="Path 20554" d="M1.28,2.546A1.266,1.266,0,0,0,2.186.4L2.172.381A1.266,1.266,0,0,0,.361,2.15l.013.014A1.264,1.264,0,0,0,1.28,2.546Zm0,0" transform="translate(2.989 0)" fill="#fa0"/>
          <path id="Path_20555" data-name="Path 20555" d="M1.28,2.546A1.266,1.266,0,0,0,2.188.4L2.174.384A1.266,1.266,0,0,0,.358,2.148l.014.014A1.262,1.262,0,0,0,1.28,2.546Zm0,0" transform="translate(0 3.078)" fill="#006cb4"/>
        </g>
        <path id="Path_20617" data-name="Path 20617" d="M59.273,273.468a1.46,1.46,0,1,0-1.459,1.5A1.481,1.481,0,0,0,59.273,273.468Zm0,0" transform="translate(-8.87 -236.145)" fill="#006cb4"/>
        <path id="Path_20618" data-name="Path 20618" d="M275.321,138.028a1.261,1.261,0,0,1-.649-.179l-.017-.01a1.266,1.266,0,0,1,1.3-2.173l.017.01a1.266,1.266,0,0,1-.651,2.352Zm0,0" transform="translate(-226.961 -110.532)" fill="#fa0"/>
        <path id="Path_20619" data-name="Path 20619" d="M262.814,159.945a1.259,1.259,0,0,1-.652-.182l-.017-.01a1.266,1.266,0,1,1,1.307-2.168l.017.01a1.266,1.266,0,0,1-.655,2.35Zm0,0" transform="translate(-216.595 -128.695)" fill="#2dc471"/>
      </g>
    </g>
    <g id="halloween-2" data-name="halloween" transform="translate(-13742.507 7086.389)">
      <path id="Path_20250" data-name="Path 20250" d="M29.218,37.238s-3.33-1.488-5.633.815-5.633,9.5-3.826,16.4c1.842,7.086,8.113,6.838,9.283,5.35C30.174,58.319,29.218,37.238,29.218,37.238Z" transform="translate(-19.241 -30.411)" fill="#fa2"/>
      <path id="Path_20251" data-name="Path 20251" d="M40.289,36.621c-.744-.531-4.287-1.134-6.307,4.854A29.479,29.479,0,0,0,32.494,50.4c-.071,3.826,1.027,6.7,2.516,8.22,1.771,1.842,6.944,1.523,7.582-1.063C43.194,55.009,43.619,39.03,40.289,36.621Z" transform="translate(-27.796 -30.113)" fill="#f09503"/>
      <path id="Path_20252" data-name="Path 20252" d="M43.589,33.794c-.744-.567-4.287-1.169-6.306,5.137a32.732,32.732,0,0,0-1.488,9.424c-.071,4.039,1.027,7.051,2.516,8.68,1.771,1.949,6.944,1.594,7.582-1.1C46.494,53.209,46.919,36.309,43.589,33.794Z" transform="translate(-29.927 -28.278)" fill="#fa2"/>
      <path id="Path_20253" data-name="Path 20253" d="M79.428,37.238s3.33-1.488,5.633.815c2.338,2.268,5.633,9.5,3.862,16.4-1.842,7.086-8.113,6.838-9.283,5.35S79.428,37.238,79.428,37.238Z" transform="translate(-57.866 -30.411)" fill="#fa2"/>
      <path id="Path_20254" data-name="Path 20254" d="M56.8,24.6c0-.39-.071-1.027-.106-1.417a2.865,2.865,0,0,0-.886-1.523,6.858,6.858,0,0,0-1.488-1.1.474.474,0,0,1-.142-.815l.638-.673A.766.766,0,0,1,55.846,19s2.941,2.409,1.984,5S56.8,24.6,56.8,24.6Z" transform="translate(-41.689 -18.832)" fill="#96613e"/>
      <path id="Path_20255" data-name="Path 20255" d="M54.467,47.176c0,6.767-2.516,10.842-5.633,10.842S43.2,53.943,43.2,47.176,44.9,33.5,48.833,33.5C52.8,33.5,54.467,40.409,54.467,47.176Z" transform="translate(-34.711 -28.303)" fill="#f09503"/>
      <path id="Path_20257" data-name="Path 20257" d="M68.631,36.324c.709-.531,4.11-1.134,6.094,4.925a31.762,31.762,0,0,1,1.453,9.105c.035,3.9-.992,6.8-2.409,8.361-1.736,1.878-6.7,1.523-7.334-1.063C65.832,55.031,65.407,38.769,68.631,36.324Z" transform="translate(-49.443 -29.922)" fill="#f09503"/>
      <path id="Path_20258" data-name="Path 20258" d="M64.747,33.794c.744-.567,4.287-1.169,6.307,5.137a32.733,32.733,0,0,1,1.488,9.424c.071,4.039-1.027,7.051-2.516,8.68-1.771,1.949-6.944,1.594-7.582-1.1C61.842,53.209,61.417,36.309,64.747,33.794Z" transform="translate(-46.87 -28.278)" fill="#fa2"/>
      <path id="Path_20259" data-name="Path 20259" d="M63.41,47.57c0,6.732-2.3,10.771-5.173,10.771S53.1,54.3,53.1,47.57,54.659,34,58.273,34C61.851,34,63.41,40.838,63.41,47.57Z" transform="translate(-41.104 -28.626)" fill="#f09503"/>
      <path id="Path_20260" data-name="Path 20260" d="M59.71,46.085c0,7.121-2.3,11.408-5.173,11.408S49.4,53.206,49.4,46.085,50.959,31.7,54.573,31.7,59.71,38.963,59.71,46.085Z" transform="translate(-38.715 -27.141)" fill="#fa2"/>
      <path id="Path_20261" data-name="Path 20261" d="M43.167,83.62c-1.275,1.1-3.791,1.382-5.7.815a3.475,3.475,0,0,1-2.2.779,3.537,3.537,0,0,1-2.232-.815c-1.913.6-4.535.354-5.81-.779A7.32,7.32,0,0,1,19.5,79.9a13.719,13.719,0,0,0,.425,2.409c1.771,6.767,7.547,6.838,9.07,5.527a6.251,6.251,0,0,0,4.322.035,3.055,3.055,0,0,0,1.949.744,3.122,3.122,0,0,0,1.913-.709,6.368,6.368,0,0,0,4.216-.071c1.559,1.311,7.3,1.24,9.07-5.527a14.976,14.976,0,0,0,.425-2.409A7.32,7.32,0,0,1,43.167,83.62Z" transform="translate(-19.408 -58.264)" fill="#f09503"/>
    </g>
  </g>
</svg>
