<svg xmlns="http://www.w3.org/2000/svg" width="44.337" height="39.93" viewBox="0 0 44.337 39.93">
  <g id="halloween" transform="translate(-48 -443)">
    <g id="Group_25706" data-name="Group 25706" transform="translate(48 443)" opacity="0.3">
      <path id="Path_18304" data-name="Path 18304" d="M43.278,24.8c-4.693-7.186-4.194-14.551-6.456-18.015s-9-9.434-24.932.97S.012,29.468,2.5,33.276C14.151,51.11,51.591,37.524,43.278,24.8Z" transform="translate(-0.134 -1.91)" fill="#a7fcd0"/>
    </g>
    <g id="halloween-2" data-name="halloween" transform="translate(48.622 443.12)">
      <path id="Path_20250" data-name="Path 20250" d="M27.154,37.14s-2.642-1.18-4.468.646S18.218,45.318,19.651,50.8c1.461,5.62,6.435,5.424,7.363,4.243C27.913,53.861,27.154,37.14,27.154,37.14Z" transform="translate(-11.135 -23.907)" fill="#f99900"/>
      <path id="Path_20251" data-name="Path 20251" d="M38.676,36.555c-.59-.422-3.4-.9-5,3.85a23.382,23.382,0,0,0-1.18,7.082c-.056,3.035.815,5.311,2,6.52,1.405,1.461,5.508,1.208,6.014-.843C40.98,51.14,41.318,38.466,38.676,36.555Z" transform="translate(-20.661 -23.575)" fill="#e08605"/>
      <path id="Path_20252" data-name="Path 20252" d="M41.976,33.725c-.59-.45-3.4-.927-5,4.075a25.963,25.963,0,0,0-1.18,7.475c-.056,3.2.815,5.592,2,6.885,1.405,1.546,5.508,1.265,6.014-.871C44.28,49.125,44.618,35.72,41.976,33.725Z" transform="translate(-23.034 -21.531)" fill="#f99900"/>
      <path id="Path_20253" data-name="Path 20253" d="M79.352,37.14s2.642-1.18,4.468.646c1.855,1.8,4.468,7.531,3.063,13.011-1.461,5.62-6.435,5.424-7.363,4.243S79.352,37.14,79.352,37.14Z" transform="translate(-54.143 -23.907)" fill="#f99900"/>
      <path id="Path_20254" data-name="Path 20254" d="M56.225,23.4c0-.309-.056-.815-.084-1.124a2.272,2.272,0,0,0-.7-1.208,5.44,5.44,0,0,0-1.18-.871.376.376,0,0,1-.112-.646l.506-.534a.608.608,0,0,1,.815-.056s2.332,1.911,1.574,3.962S56.225,23.4,56.225,23.4Z" transform="translate(-36.13 -11.014)" fill="#96613e"/>
      <path id="Path_20255" data-name="Path 20255" d="M52.137,44.348c0,5.368-2,8.6-4.468,8.6s-4.468-3.232-4.468-8.6S44.549,33.5,47.668,33.5C50.816,33.5,52.137,38.98,52.137,44.348Z" transform="translate(-28.361 -21.56)" fill="#e08605"/>
      <path id="Path_20257" data-name="Path 20257" d="M68.09,36.259c.562-.422,3.26-.9,4.834,3.906a25.193,25.193,0,0,1,1.152,7.222c.028,3.091-.787,5.4-1.911,6.632-1.377,1.489-5.311,1.208-5.817-.843C65.87,51.1,65.533,38.2,68.09,36.259Z" transform="translate(-44.764 -23.363)" fill="#e08605"/>
      <path id="Path_20258" data-name="Path 20258" d="M64.185,33.725c.59-.45,3.4-.927,5,4.075a25.963,25.963,0,0,1,1.18,7.475c.056,3.2-.815,5.592-2,6.885-1.405,1.546-5.508,1.265-6.014-.871C61.881,49.125,61.543,35.72,64.185,33.725Z" transform="translate(-41.899 -21.531)" fill="#f99900"/>
      <path id="Path_20259" data-name="Path 20259" d="M61.278,44.763c0,5.339-1.827,8.543-4.1,8.543S53.1,50.1,53.1,44.763,54.337,34,57.2,34C60.041,34,61.278,39.424,61.278,44.763Z" transform="translate(-35.479 -21.919)" fill="#e08605"/>
      <path id="Path_20260" data-name="Path 20260" d="M57.578,43.11c0,5.649-1.827,9.049-4.1,9.049S49.4,48.758,49.4,43.11,50.637,31.7,53.5,31.7,57.578,37.461,57.578,43.11Z" transform="translate(-32.818 -20.265)" fill="#f99900"/>
      <path id="Path_20261" data-name="Path 20261" d="M38.272,82.851a5.3,5.3,0,0,1-4.524.646,2.756,2.756,0,0,1-1.742.618,2.806,2.806,0,0,1-1.77-.646,5.29,5.29,0,0,1-4.609-.618A5.806,5.806,0,0,1,19.5,79.9a10.882,10.882,0,0,0,.337,1.911c1.405,5.368,5.986,5.424,7.194,4.384a4.958,4.958,0,0,0,3.428.028,2.423,2.423,0,0,0,1.546.59,2.476,2.476,0,0,0,1.518-.562,5.051,5.051,0,0,0,3.344-.056c1.236,1.04,5.789.984,7.194-4.384A11.878,11.878,0,0,0,44.4,79.9,5.806,5.806,0,0,1,38.272,82.851Z" transform="translate(-11.321 -54.92)" fill="#e08605"/>
    </g>
  </g>
</svg>
