<svg xmlns="http://www.w3.org/2000/svg" width="45.794" height="45.973" viewBox="0 0 45.794 45.973">
  <g id="icon_wedding" transform="translate(-38.138 -650.816)">
    <g id="Cheers" transform="translate(41.461 655.306)">
      <path id="Path_23692" data-name="Path 23692" d="M23.475,26.323l-1.844.869-.781-1.668-.07-.2-3.56-7.677-1.006-2.222-.058-.117-.418-.882-.156-.355,1.867-.851.126.3.114.214.12.255.187.434.064.158.023.018L22.6,24.459a.019.019,0,0,1,.023.018l.156.355.146.293Z" transform="translate(11.822 9.77)" fill="#e3e3e3"/>
      <path id="Path_23693" data-name="Path 23693" d="M21.954,24.248l-.658.366L16.45,14.4l.72-.563Z" transform="translate(12.644 10.353)" fill="#b4b4b4" opacity="0.572"/>
      <path id="Path_23694" data-name="Path 23694" d="M24.5,21.412c-.162.21-.356.42-.533.614a3.714,3.714,0,0,1-.679.566h-.065v.032c-.081.065-.21.129-.323.21-.081.032-.178.081-.275.113a.124.124,0,0,1-.081.032l-.1.048-.307.146a4.8,4.8,0,0,1-.759.275.946.946,0,0,1-.307.065,5.218,5.218,0,0,1-5.852-2.894l-1.794-3.913-.873-1.924-1.7-3.67-.662-1.455a.634.634,0,0,1,.291-.84l6.159-2.829.986-.453.857-.388.728-.34a.628.628,0,0,1,.808.259l5.06,11.009A5.179,5.179,0,0,1,24.5,21.412Z" transform="translate(6.66 1.75)" fill="#e3e3e3"/>
      <path id="Path_23695" data-name="Path 23695" d="M17.789,6.615,17.127,8.07l-1.7,3.67L13.424,16.1l-.873-1.924-1.7-3.67-.662-1.455a.634.634,0,0,1,.291-.84l6.159-2.829.841.388a.626.626,0,0,1,.307.84Z" transform="translate(6.66 2.353)" fill="#b4b4b4" opacity="0.572"/>
      <path id="Path_23696" data-name="Path 23696" d="M20.93,16.57a1.429,1.429,0,0,1-.252.14c-.039.026-.056.05-.1.056a3.507,3.507,0,0,1-.949.386,4.431,4.431,0,0,1-4.959-1.912l-2.423-3.8a.484.484,0,0,1,.376-.744c.29-.019.645-.029,1-.058,1.975-.092,4.612-.236,6.5-.337l.1-.014c.768-.046,1.392-.072,1.787-.086a.689.689,0,0,1,.709.422A4.856,4.856,0,0,1,20.93,16.57Z" transform="translate(8.594 6.907)" fill="#f5710c"/>
      <path id="Path_23697" data-name="Path 23697" d="M17.451,13.836a5.206,5.206,0,0,1-.382,2.1,4.048,4.048,0,0,1-.337.718.45.45,0,0,1-.068.114c.041-.006.058-.029.1-.056a1.429,1.429,0,0,0,.252-.14,4.856,4.856,0,0,0,1.792-5.947A.689.689,0,0,0,18.1,10.2c-.4.014-1.02.04-1.787.086l.643,1.436a5.313,5.313,0,0,1,.5,2.114" transform="translate(12.511 6.907)" fill="#e26510"/>
      <path id="Path_23698" data-name="Path 23698" d="M20.855,21.411a7.749,7.749,0,0,1-.54.621,3.432,3.432,0,0,1-.675.556c-.017.023-.017.023-.039.026l-.02,0c-.094.076-.211.135-.326.214-.079.032-.175.088-.275.123-.021,0-.058.029-.079.032l-.1.035-.314.149a3.559,3.559,0,0,1-.756.275.792.792,0,0,1-.3.064,1.111,1.111,0,0,0,.246-.181,4.917,4.917,0,0,0,1.2-1.405c.041-.006.058-.029.1-.056.079-.032.156-.085.234-.117l.018-.023a.432.432,0,0,0,.112-.1,5.723,5.723,0,0,0,.545-.433,4.5,4.5,0,0,0,1.129-1.625,4.876,4.876,0,0,0,.006-3.789.689.689,0,0,0-.709-.423c-.313,0-.75.023-1.289.058-.146,0-.311.023-.5.029l-.149-.314-1.384-2.986-3.01-6.6.865-.4.727-.333a.619.619,0,0,1,.811.261l5.057,11A5.185,5.185,0,0,1,20.855,21.411Z" transform="translate(10.303 1.751)" fill="#b4b4b4" opacity="0.572"/>
      <path id="Path_23699" data-name="Path 23699" d="M24.007,20.2l-.19.089-5.983,2.753a.258.258,0,0,1-.338-.35l1-1.983L18.5,20.7l.175-.353a2.41,2.41,0,0,1,2.732-1.254l2.319.56.251.066a.259.259,0,0,1,.03.48Z" transform="translate(13.608 15.264)" fill="#e3e3e3"/>
      <path id="Path_23700" data-name="Path 23700" d="M23.506,20.233l-.19.089-2.862-.7A2.184,2.184,0,0,0,18,20.735l.253-.527a2.17,2.17,0,0,1,2.44-1.166l2.534.647.251.066a.259.259,0,0,1,.029.479Z" transform="translate(14.11 15.23)" fill="#b4b4b4" opacity="0.572"/>
      <path id="Path_23702" data-name="Path 23702" d="M4.364,24.473l1.844.869.781-1.668.07-.2,3.56-7.677,1.006-2.222.058-.117.418-.882.156-.355-1.867-.851-.126.3-.114.214-.12.255-.187.434-.064.158-.023.018L5.236,22.609a.019.019,0,0,0-.023.018l-.156.355-.146.293Z" transform="translate(1.2 8.019)" fill="#e3e3e3"/>
      <path id="Path_23703" data-name="Path 23703" d="M4.723,22.4l.658.366,4.846-10.213-.72-.565Z" transform="translate(1.54 8.602)" fill="#b4b4b4" opacity="0.572"/>
      <path id="Path_23704" data-name="Path 23704" d="M7.008,19.561a7.682,7.682,0,0,0,.54.621,3.432,3.432,0,0,0,.675.556l.061.009,0,.02c.094.076.211.135.326.214.079.032.175.088.275.123.021,0,.058.029.079.032l.1.035.314.149a3.559,3.559,0,0,0,.756.275.785.785,0,0,0,.3.064,5.2,5.2,0,0,0,5.851-2.894l2.671-5.836,1.694-3.673L21.318,7.8a.629.629,0,0,0-.3-.837L13.886,3.691,13.022,3.3l-.727-.334a.619.619,0,0,0-.811.261l-5.057,11A5.185,5.185,0,0,0,7.008,19.561Z" transform="translate(2.695 0)" fill="#e3e3e3"/>
      <path id="Path_23705" data-name="Path 23705" d="M8.389,14.719a1.442,1.442,0,0,0,.252.141c.039.026.056.05.1.055a3.5,3.5,0,0,0,.949.386,4.431,4.431,0,0,0,4.959-1.912l2.423-3.8a.484.484,0,0,0-.376-.744c-.29-.019-.645-.029-1-.058-1.975-.092-4.612-.236-6.5-.337l-.1-.015C8.324,8.391,7.7,8.365,7.3,8.35a.689.689,0,0,0-.709.423,4.856,4.856,0,0,0,1.793,5.946Z" transform="translate(2.948 5.156)" fill="#f5710c"/>
      <path id="Path_23706" data-name="Path 23706" d="M7.95,11.987a5.313,5.313,0,0,1,.5-2.114l.642-1.436C8.324,8.391,7.7,8.365,7.3,8.351a.689.689,0,0,0-.709.423,4.856,4.856,0,0,0,1.794,5.946,1.442,1.442,0,0,0,.252.141c.039.026.056.05.1.055a.452.452,0,0,1-.068-.114,4.061,4.061,0,0,1-.338-.717,5.208,5.208,0,0,1-.382-2.1" transform="translate(2.948 5.156)" fill="#e26510"/>
      <path id="Path_23707" data-name="Path 23707" d="M7.008,19.561a7.682,7.682,0,0,0,.54.621,3.432,3.432,0,0,0,.675.556c.017.023.017.023.038.026l.02,0c.094.076.211.135.326.214.079.032.175.088.275.123.021,0,.058.029.079.032l.1.035.314.149a3.558,3.558,0,0,0,.756.275.785.785,0,0,0,.3.064,1.111,1.111,0,0,1-.246-.181,4.916,4.916,0,0,1-1.2-1.405c-.041-.006-.058-.029-.1-.055-.079-.032-.156-.085-.234-.117l-.018-.024a.431.431,0,0,1-.112-.1,5.752,5.752,0,0,1-.545-.433,4.5,4.5,0,0,1-1.129-1.625,4.876,4.876,0,0,1-.006-3.789.689.689,0,0,1,.709-.422c.313,0,.75.023,1.289.058.146,0,.312.023.5.029l.149-.314L10.877,10.3l3.01-6.6L13.022,3.3l-.727-.334a.619.619,0,0,0-.811.261l-5.057,11A5.185,5.185,0,0,0,7.008,19.561Z" transform="translate(2.695 0)" fill="#b4b4b4" opacity="0.572"/>
      <path id="Path_23708" data-name="Path 23708" d="M3.245,18.349l.19.089,5.983,2.753a.258.258,0,0,0,.338-.35l-1-1.983-.007-.009L8.576,18.5a2.41,2.41,0,0,0-2.732-1.254l-2.319.56-.251.066a.259.259,0,0,0-.029.48Z" transform="translate(0 13.513)" fill="#e3e3e3"/>
      <path id="Path_23709" data-name="Path 23709" d="M3.245,18.384l.19.089,2.862-.7a2.184,2.184,0,0,1,2.455,1.113L8.5,18.358a2.17,2.17,0,0,0-2.44-1.166l-2.534.647-.251.066a.259.259,0,0,0-.029.479Z" transform="translate(0.001 13.478)" fill="#b4b4b4" opacity="0.572"/>
    </g>
    <g id="Group_30067" data-name="Group 30067" transform="translate(35.59 650.816)">
      <g id="Group_30062" data-name="Group 30062" transform="translate(0 0)" opacity="0.5">
        <path id="Path_20574" data-name="Path 20574" d="M333.406,139.3a2.726,2.726,0,1,1,2.724,2.806A2.767,2.767,0,0,1,333.406,139.3Zm0,0" transform="translate(-290.513 -117.153)" fill="#ff7861"/>
        <path id="Path_20576" data-name="Path 20576" d="M229.254,38.964a3.4,3.4,0,1,1,3.4,3.5A3.449,3.449,0,0,1,229.254,38.964Zm0,0" transform="translate(-207.49 -1.839)" fill="#ffe581"/>
        <path id="Path_20577" data-name="Path 20577" d="M12.313,437.275a2.725,2.725,0,1,1,2.724,2.807A2.766,2.766,0,0,1,12.313,437.275Zm0,0" transform="translate(1.258 -434.469)" fill="#70c1b3"/>
        <path id="Path_20578" data-name="Path 20578" d="M107.841,246.183a1.266,1.266,0,0,0,.906-2.151l-.014-.014a1.266,1.266,0,1,0-1.811,1.769l.013.014A1.264,1.264,0,0,0,107.841,246.183Zm0,0" transform="translate(-103.038 -231.231)" fill="#fa0"/>
        <path id="Path_20563" data-name="Path 20563" d="M152.976,138.027a1.266,1.266,0,0,0,.654-2.351l-.017-.01a1.266,1.266,0,0,0-1.3,2.17l.017.01A1.261,1.261,0,0,0,152.976,138.027Zm0,0" transform="matrix(0.899, 0.438, -0.438, 0.899, -36.346, -155.283)" fill="#ff4e61"/>
        <path id="Path_20564" data-name="Path 20564" d="M165.483,159.944a1.266,1.266,0,0,0,.658-2.349l-.017-.01a1.266,1.266,0,1,0-1.312,2.165l.017.01A1.259,1.259,0,0,0,165.483,159.944Zm0,0" transform="matrix(0.899, 0.438, -0.438, 0.899, -44.067, -176.329)" fill="#fa0"/>
        <path id="Path_20548" data-name="Path 20548" d="M7.76,258.725a1.266,1.266,0,0,0,.908-2.147l-1.573-1.621a1.266,1.266,0,1,0-1.817,1.763l1.574,1.621A1.261,1.261,0,0,0,7.76,258.725Zm0,0" transform="translate(11.374 -212.753)" fill="#70c1b3"/>
        <path id="Path_20580" data-name="Path 20580" d="M135.4,12.647a1.266,1.266,0,0,0,.908-2.147l-1.574-1.621a1.266,1.266,0,1,0-1.816,1.763l1.573,1.621A1.263,1.263,0,0,0,135.4,12.647Zm0,0" transform="translate(-123.1 -0.805)" fill="#ff7861"/>
        <g id="Group_30064" data-name="Group 30064" transform="matrix(-0.966, 0.259, -0.259, -0.966, 40.203, 10.41)">
          <path id="Path_20554" data-name="Path 20554" d="M1.28,0a1.266,1.266,0,0,1,.906,2.151l-.014.014A1.266,1.266,0,0,1,.361.4L.374.381A1.264,1.264,0,0,1,1.28,0Zm0,0" transform="translate(2.989 3.078)" fill="#fa0"/>
          <path id="Path_20555" data-name="Path 20555" d="M1.28,0a1.266,1.266,0,0,1,.908,2.147l-.013.015A1.266,1.266,0,0,1,.358.4L.372.384A1.262,1.262,0,0,1,1.28,0Zm0,0" transform="translate(0 0)" fill="#006cb4"/>
        </g>
        <path id="Path_20617" data-name="Path 20617" d="M56.355,273.468a1.46,1.46,0,1,1,1.459,1.5A1.481,1.481,0,0,1,56.355,273.468Zm0,0" transform="translate(-53.808 -235.651)" fill="#006cb4"/>
        <g id="Group_37738" data-name="Group 37738" transform="matrix(0.454, 0.891, -0.891, 0.454, 29.692, 11.563)">
          <path id="Path_20618" data-name="Path 20618" d="M275.307,138.028a1.261,1.261,0,0,0,.649-.179l.017-.01a1.266,1.266,0,0,0-1.3-2.173l-.017.01a1.266,1.266,0,0,0,.651,2.352Zm0,0" transform="translate(-273.265 -110.532)" fill="#fa0"/>
          <path id="Path_20619" data-name="Path 20619" d="M262.8,159.945a1.259,1.259,0,0,0,.652-.182l.017-.01a1.266,1.266,0,1,0-1.307-2.168l-.017.01a1.266,1.266,0,0,0,.655,2.35Zm0,0" transform="translate(-258.615 -128.695)" fill="#2dc471"/>
        </g>
      </g>
    </g>
  </g>
</svg>
