<svg xmlns="http://www.w3.org/2000/svg" width="5.453" height="10.025" viewBox="0 0 5.453 10.025">
  <path id="icon_dollar" d="M5.453-2.058c0-1.184-.61-1.776-1.971-2.218-.941-.3-1.191-.411-1.191-.753,0-.291.24-.472.71-.472a2.2,2.2,0,0,1,1.421.532l.861-1.024a2.988,2.988,0,0,0-1.7-.843V-8.34H2.231v1.5A2.046,2.046,0,0,0,.28-4.868c0,.963.46,1.646,2.061,2.147.861.271,1.071.442,1.071.833,0,.341-.25.592-.82.592A2.44,2.44,0,0,1,.961-1.938L0-.884A3.541,3.541,0,0,0,2.231.1V1.685H3.582V.029A2.127,2.127,0,0,0,5.453-2.058Z" transform="translate(0 8.34)" fill="#4286f5" opacity="0.998"/>
</svg>
