<svg xmlns="http://www.w3.org/2000/svg" width="24" height="28.112" viewBox="0 0 24 28.112">
  <path id="Path_33833" data-name="Path 33833" d="M122.912,28.116c-5.164-3.634-11.952-4.207-11.952-14.343V4.116A13.9,13.9,0,0,0,122.912,0,14.188,14.188,0,0,0,134.96,4.116v9.657C134.96,23.909,128.171,24.482,122.912,28.116Zm0-23.522a2.869,2.869,0,1,1-2.869,2.869A2.9,2.9,0,0,1,122.912,4.594ZM121.765,11h2.39a4.571,4.571,0,0,1,4.494,4.59v5.259a7.6,7.6,0,0,1-2.1.574v-2.2a1.714,1.714,0,0,0-1.721-1.721H121.1a1.8,1.8,0,0,0-1.817,1.721v.287a8.955,8.955,0,0,0,4.112.574,1,1,0,0,1,.765,1.721,17.641,17.641,0,0,1-6.98-.956V15.59a4.654,4.654,0,0,1,4.59-4.59Zm1.147,1.817a1.865,1.865,0,1,1,0,3.729,1.881,1.881,0,0,1-1.817-1.817A1.9,1.9,0,0,1,122.912,12.817Zm0-11.092v2.2a3.51,3.51,0,0,0-3.442,3.538,3.377,3.377,0,0,0,1.721,2.964,5.182,5.182,0,0,0-4.59,5.164v5.737l.382.1a17.908,17.908,0,0,0,5.928.956v4.207c1.147-.669,2.295-1.339,3.538-1.912a23.373,23.373,0,0,0,3.634-2.295c2.869-2.2,3.634-5.164,3.634-8.606V5.455a15.4,15.4,0,0,1-10.8-3.729Z" transform="translate(-110.96 -0.004)" fill="#056eb4" fill-rule="evenodd"/>
</svg>
