<svg xmlns="http://www.w3.org/2000/svg" width="12.158" height="3.203" viewBox="0 0 12.158 3.203"><defs><style>.a{fill:#006db4;stroke:#006cb4;stroke-width:0.5px;}</style></defs><path class="a" d="M1.275,2.7a1.251,1.251,0,0,1-.9-.4A1.409,1.409,0,0,1,.373.4a1.251,1.251,0,0,1,.9-.4,1.25,1.25,0,0,1,.9.4,1.409,1.409,0,0,1,0,1.911A1.25,1.25,0,0,1,1.275,2.7Zm5.455-.4A1.409,1.409,0,0,0,6.73.4a1.225,1.225,0,0,0-1.8,0,1.409,1.409,0,0,0,0,1.911,1.225,1.225,0,0,0,1.8,0Zm4.554,0a1.409,1.409,0,0,0,0-1.911,1.225,1.225,0,0,0-1.8,0,1.409,1.409,0,0,0,0,1.911,1.225,1.225,0,0,0,1.8,0Z" transform="translate(11.908 2.953) rotate(180)"/></svg>