<svg xmlns="http://www.w3.org/2000/svg" width="26.394" height="26.394" viewBox="0 0 26.394 26.394"><defs><style>.a{fill:#C36564;}.b{fill:#fafafa;}</style></defs><path class="a" d="M143.8,128.531h-.579v4.5a6.054,6.054,0,0,1-6.047,6.047h-8.642v.579a4.505,4.505,0,0,0,4.5,4.5h9.245l4.754,3.962a.773.773,0,0,0,1.268-.594V133.032A4.5,4.5,0,0,0,143.8,128.531Zm0,0" transform="translate(-121.905 -121.905)"/><path class="b" d="M19.768,11.126V4.5a4.5,4.5,0,0,0-4.5-4.5H4.5A4.5,4.5,0,0,0,0,4.5V18.995a.773.773,0,0,0,1.268.594l4.754-3.962h9.245A4.505,4.505,0,0,0,19.768,11.126ZM9.884,12.314a.773.773,0,1,1,.773-.773A.773.773,0,0,1,9.884,12.314Zm.773-3.42v.162a.773.773,0,0,1-1.546,0V8.227a.773.773,0,0,1,.773-.773,1.3,1.3,0,1,0-1.3-1.3.773.773,0,1,1-1.546,0h0a2.844,2.844,0,1,1,3.617,2.738Zm0,0"/></svg>