<svg xmlns="http://www.w3.org/2000/svg" width="11.522" height="21.12" viewBox="0 0 11.522 21.12"><defs><style>.a{fill:#d0d0d0;}</style></defs><path class="a" d="M11.522,4.894c0-2.495-1.29-3.742-4.165-4.672C5.37-.412,4.841-.645,4.841-1.363c0-.613.507-.994,1.5-.994a4.646,4.646,0,0,1,3,1.12l1.818-2.156A6.321,6.321,0,0,0,7.569-5.169V-8.34H4.715v3.15C2.283-4.809.592-3.287.592-1.025.592,1,1.565,2.442,4.947,3.5c1.818.571,2.262.93,2.262,1.755,0,.719-.529,1.247-1.734,1.247A5.165,5.165,0,0,1,2.03,5.148L0,7.368A7.492,7.492,0,0,0,4.715,9.44v3.34H7.569V9.292C10.064,8.742,11.522,7.093,11.522,4.894Z" transform="translate(0 8.34)"/></svg>