<svg id="icon_bitcoin" xmlns="http://www.w3.org/2000/svg" width="7.307" height="10.112" viewBox="0 0 7.307 10.112">
  <path id="Path_5548" data-name="Path 5548" d="M72.912,5.3a1.825,1.825,0,0,0-1.063-.626,1.441,1.441,0,0,0,.8-1.568,1.55,1.55,0,0,0-.222-.7,1.392,1.392,0,0,0-.5-.474,2.76,2.76,0,0,0-.687-.274,5.418,5.418,0,0,0-.851-.137V0h-.936V1.489q-.243,0-.741.012V0h-.936V1.531q-.2.006-.589.006l-1.288-.006v1h.674a.483.483,0,0,1,.541.413V4.685a.618.618,0,0,1,.1.006h-.1V7.134a.325.325,0,0,1-.352.31h-.674l-.188,1.112h1.215l.334,0,.328,0v1.55h.936V8.58q.255.006.741.006v1.525h.936V8.562a7.275,7.275,0,0,0,.884-.091,3.6,3.6,0,0,0,.738-.21,1.992,1.992,0,0,0,.589-.356,1.677,1.677,0,0,0,.392-.541,2.3,2.3,0,0,0,.2-.76A1.8,1.8,0,0,0,72.912,5.3Zm-4.187-2.71.24,0,.328-.006q.131,0,.353.015a3.353,3.353,0,0,1,.374.049,2.082,2.082,0,0,1,.334.1.906.906,0,0,1,.292.17.844.844,0,0,1,.185.255.8.8,0,0,1,.076.355.846.846,0,0,1-.055.31.584.584,0,0,1-.164.234,1.662,1.662,0,0,1-.225.164,1.03,1.03,0,0,1-.295.112q-.179.043-.313.067a2.562,2.562,0,0,1-.334.033l-.3.012q-.1,0-.283,0l-.21,0V2.595h0ZM71.28,6.733a.864.864,0,0,1-.149.243.844.844,0,0,1-.24.182,2.059,2.059,0,0,1-.289.128,2.324,2.324,0,0,1-.337.085q-.2.036-.347.052t-.355.024q-.207.009-.322.009l-.292,0-.225,0V5.4l.289-.006q.24-.006.392-.006t.419.018a3.583,3.583,0,0,1,.45.055,2.957,2.957,0,0,1,.4.112,1.154,1.154,0,0,1,.349.185.912.912,0,0,1,.225.28.868.868,0,0,1,.033.7Z" transform="translate(-65.893)" fill="#d0d0d0"/>
</svg>
