<svg id="icon_bitcoin" xmlns="http://www.w3.org/2000/svg" width="6.791" height="9.399" viewBox="0 0 6.791 9.399">
  <path id="Path_5548" data-name="Path 5548" d="M72.417,4.931a1.7,1.7,0,0,0-.988-.582,1.339,1.339,0,0,0,.74-1.457,1.44,1.44,0,0,0-.206-.647A1.294,1.294,0,0,0,71.5,1.8a2.566,2.566,0,0,0-.638-.254,5.036,5.036,0,0,0-.791-.127V0H69.2V1.384q-.226,0-.689.011V0h-.87V1.423q-.186.006-.548.006l-1.2-.006V2.35h.627a.449.449,0,0,1,.5.384V4.355a.574.574,0,0,1,.09.006h-.09V6.631a.3.3,0,0,1-.328.288h-.627l-.175,1.034h1.13l.311,0,.3,0V9.4h.87V7.975q.237.006.689.006V9.4h.87V7.958a6.763,6.763,0,0,0,.822-.085,3.344,3.344,0,0,0,.686-.195,1.852,1.852,0,0,0,.548-.33,1.559,1.559,0,0,0,.364-.5,2.137,2.137,0,0,0,.183-.706A1.673,1.673,0,0,0,72.417,4.931ZM68.525,2.412l.223,0,.305-.006q.121,0,.328.014a3.117,3.117,0,0,1,.347.045,1.935,1.935,0,0,1,.311.093.842.842,0,0,1,.271.158.785.785,0,0,1,.172.237.741.741,0,0,1,.071.33.786.786,0,0,1-.051.288.543.543,0,0,1-.152.217,1.544,1.544,0,0,1-.209.153.957.957,0,0,1-.274.1q-.167.04-.291.062a2.381,2.381,0,0,1-.311.031l-.282.011q-.1,0-.263,0l-.195,0V2.412h0ZM70.9,6.258a.8.8,0,0,1-.138.226.784.784,0,0,1-.223.169,1.913,1.913,0,0,1-.268.119,2.159,2.159,0,0,1-.313.079q-.184.034-.322.048t-.33.023q-.192.008-.3.008l-.271,0-.209,0V5.015l.268-.006Q69.016,5,69.158,5t.39.017a3.33,3.33,0,0,1,.418.051,2.749,2.749,0,0,1,.37.1,1.073,1.073,0,0,1,.325.172.848.848,0,0,1,.209.26.807.807,0,0,1,.031.65Z" transform="translate(-65.893)" fill="#fabc05"/>
</svg>
