<svg xmlns="http://www.w3.org/2000/svg" width="30" height="30" viewBox="0 0 30 30">
  <g id="checking_account" data-name="checking account" transform="translate(-50 -160)">
    <circle id="Ellipse_1947" data-name="Ellipse 1947" cx="15" cy="15" r="15" transform="translate(50 160)" fill="#f8b238"/>
    <g id="wallet" transform="translate(56.195 166.824)">
      <path id="Shape" d="M16.019,16.352H2.39A2.39,2.39,0,0,1,0,13.987V3.506A3.506,3.506,0,0,1,3.505,0h8.837a3.506,3.506,0,0,1,3.505,3.506,1.886,1.886,0,0,1,1.761,1.753v9.515a1.589,1.589,0,0,1-1.59,1.578ZM12.68,8.079a1.738,1.738,0,0,0-.008,3.477v0h0a1.737,1.737,0,1,0,0-3.474ZM3.229,1.753A1.468,1.468,0,0,0,1.761,3.22v.286H14.087V3.22A1.467,1.467,0,0,0,12.62,1.753Z" transform="translate(0 0)" fill="#fafafa"/>
    </g>
  </g>
</svg>
