<svg xmlns="http://www.w3.org/2000/svg" xmlns:xlink="http://www.w3.org/1999/xlink" width="40.742" height="42.99" viewBox="0 0 40.742 42.99">
  <defs>
    <clipPath id="clip-path">
      <path id="Path_17772" data-name="Path 17772" d="M23.33,0H11.448A5.506,5.506,0,0,0,6.679,2.753L.738,13.044a5.506,5.506,0,0,0,0,5.506L6.679,28.841a5.506,5.506,0,0,0,4.768,2.753H23.33A5.506,5.506,0,0,0,28.1,28.841L34.04,18.55a5.506,5.506,0,0,0,0-5.506L28.1,2.753A5.506,5.506,0,0,0,23.33,0Z" transform="matrix(-0.259, -0.966, 0.966, -0.259, 9.001, 41.77)" fill="#76b9eb"/>
    </clipPath>
  </defs>
  <g id="icon_checking" transform="translate(-33.388 -303.389)">
    <g id="Path_6080" data-name="Path 6080" transform="matrix(-0.259, -0.966, 0.966, -0.259, 43.001, 345.769)" fill="#ffdf69">
      <path d="M 23.33027267456055 31.84408187866211 L 11.44753265380859 31.84408187866211 C 9.397562026977539 31.84408187866211 7.487421989440918 30.74119186401367 6.462532043457031 28.96582221984863 L 0.5211222171783447 18.67511177062988 C -0.5036978125572205 16.89985275268555 -0.5036978125572205 14.69422149658203 0.5211222171783447 12.91896152496338 L 6.462532043457031 2.628261804580688 C 7.487411975860596 0.8528919219970703 9.397552490234375 -0.2499981075525284 11.44753265380859 -0.2499981075525284 L 23.33027267456055 -0.2499981075525284 C 25.38022232055664 -0.2499981075525284 27.29036140441895 0.8528919219970703 28.31527137756348 2.628271818161011 L 34.25667190551758 12.91895198822021 C 35.28153228759766 14.69422149658203 35.28152084350586 16.89985275268555 34.25667190551758 18.67510223388672 L 28.31527137756348 28.9658317565918 C 27.29035186767578 30.74120140075684 25.38021278381348 31.84408187866211 23.33027267456055 31.84408187866211 Z" stroke="none"/>
      <path d="M 11.44753265380859 1.9073486328125e-06 C 9.480442047119141 1.9073486328125e-06 7.662542343139648 1.049562454223633 6.679042816162109 2.753261566162109 L 0.7376327514648438 13.0439510345459 C -0.2458763122558594 14.74765205383301 -0.2458763122558594 16.84642219543457 0.7376327514648438 18.55011177062988 L 6.679042816162109 28.8408317565918 C 7.662542343139648 30.54451179504395 9.480442047119141 31.59408187866211 11.44753265380859 31.59408187866211 L 23.33027267456055 31.59408187866211 C 25.29736328125 31.59408187866211 27.11523246765137 30.54451179504395 28.09876251220703 28.8408317565918 L 34.04015350341797 18.55011177062988 C 35.02370071411133 16.84642219543457 35.02370071411133 14.74765205383301 34.04015350341797 13.0439510345459 L 28.09876251220703 2.753261566162109 C 27.11523246765137 1.049562454223633 25.29736328125 1.9073486328125e-06 23.33027267456055 1.9073486328125e-06 L 11.44753265380859 1.9073486328125e-06 M 11.44753265380859 -0.4999980926513672 L 23.33027267456055 -0.4999980926513672 C 25.46926116943359 -0.4999980926513672 27.46236228942871 0.6507911682128906 28.53178215026855 2.50328254699707 L 34.47316360473633 12.7939510345459 C 35.54255294799805 14.64633178710938 35.54254150390625 16.9477424621582 34.47317123413086 18.80010223388672 L 28.53177261352539 29.0908317565918 C 27.46235275268555 30.94330215454102 25.46925354003906 32.09408187866211 23.33027267456055 32.09408187866211 L 11.44753265380859 32.09408187866211 C 9.308521270751953 32.09408187866211 7.315422058105469 30.94329261779785 6.246011734008789 29.09081268310547 L 0.3046226501464844 18.80011177062988 C -0.7647171020507812 16.9477424621582 -0.7647171020507812 14.64633178710938 0.3046035766601562 12.79397201538086 L 6.24603271484375 2.503261566162109 C 7.315412521362305 0.6507911682128906 9.308511734008789 -0.4999980926513672 11.44753265380859 -0.4999980926513672 Z" stroke="none" fill="#fafafa"/>
    </g>
    <g id="Mask_Group_297" data-name="Mask Group 297" transform="translate(34 303.999)" clip-path="url(#clip-path)">
      <path id="Path_17771" data-name="Path 17771" d="M23.33,0H11.448A5.506,5.506,0,0,0,6.679,2.753L.738,13.044a5.506,5.506,0,0,0,0,5.506L6.679,28.841a5.506,5.506,0,0,0,4.768,2.753H23.33A5.506,5.506,0,0,0,28.1,28.841L34.04,18.55a5.506,5.506,0,0,0,0-5.506L28.1,2.753A5.506,5.506,0,0,0,23.33,0Z" transform="matrix(-0.259, -0.966, 0.966, -0.259, 23.603, 56.371)" fill="rgba(204,178,79,0.31)"/>
    </g>
    <g id="checking" transform="translate(45.864 316.776)">
      <g id="Group_24222" data-name="Group 24222" transform="translate(0 0)">
        <path id="Rectangle_5487" data-name="Rectangle 5487" d="M0,0H16.626a0,0,0,0,1,0,0V11.092a1,1,0,0,1-1,1H1a1,1,0,0,1-1-1V0A0,0,0,0,1,0,0Z" transform="translate(0 4.534)" fill="#fafafa"/>
        <g id="Rectangle_5488" data-name="Rectangle 5488" fill="none" stroke="#fafafa" stroke-width="1">
          <path d="M1,0H15.626a1,1,0,0,1,1,1V4.534a0,0,0,0,1,0,0H0a0,0,0,0,1,0,0V1A1,1,0,0,1,1,0Z" stroke="none"/>
          <rect x="0.5" y="0.5" width="15.626" height="3.534" rx="0.5" fill="none"/>
        </g>
      </g>
      <path id="Path_16735" data-name="Path 16735" d="M56.269,166.182a.269.269,0,1,0,0,.538h2.688v2.129a.269.269,0,1,0,.538,0V166.72H64.87v2.15a.269.269,0,0,0,.538,0v-2.15H68.1a.269.269,0,1,0,0-.538H65.408v-3.225H68.1a.269.269,0,1,0,0-.538H65.408v-2.15a.269.269,0,1,0-.538,0v2.15H59.494v-2.15a.269.269,0,1,0-.538,0v2.15H56.269a.269.269,0,0,0,0,.538h2.688v3.225Zm3.225-3.225H64.87v3.225H59.494Zm0,0" transform="translate(-53.85 -154.473)" fill="#ffdf69" stroke="#ffdf69" stroke-width="0.3"/>
    </g>
  </g>
</svg>
