<svg xmlns="http://www.w3.org/2000/svg" width="23.568" height="23.567" viewBox="0 0 23.568 23.567"><defs><style>.a{fill:#006db4;}.b{fill:#77b9eb;}.c{fill:#fff;}</style></defs><g transform="translate(-75.999 -459)"><path class="a" d="M76.56,483.611H99a.561.561,0,0,0,.476-.858l-2.806-4.489A.562.562,0,0,0,96.2,478H79.366a.562.562,0,0,0-.476.264l-2.806,4.489A.561.561,0,0,0,76.56,483.611Z" transform="translate(0 -8.339)"/><path class="b" d="M78.8,483.367l2.1-3.367H97.12l2.1,3.367Z" transform="translate(-1.231 -9.217)"/><path class="b" d="M81,479.761V460.683A1.683,1.683,0,0,1,82.683,459H97.272a1.683,1.683,0,0,1,1.683,1.683v19.078Z" transform="translate(-2.195 0)"/><path class="b" d="M83,479.517H98.711V461.561A.561.561,0,0,0,98.15,461H83.561a.561.561,0,0,0-.561.561Z" transform="translate(-3.073 -0.878)"/><path class="c" d="M90.561,473.122h6.733a.561.561,0,0,0,0-1.122H90.561a.561.561,0,0,0,0,1.122Z" transform="translate(-6.145 -5.706)"/><path class="a" d="M77,487h7.33l.526,2.244,6.732,0L92.174,487h7.27v6.172a1.122,1.122,0,0,1-1.122,1.122h-20.2A1.122,1.122,0,0,1,77,493.172Z" transform="translate(-0.44 -12.289)"/><path class="c" d="M77,497H99.444v.561a1.122,1.122,0,0,1-1.122,1.122h-20.2A1.122,1.122,0,0,1,77,497.561Z" transform="translate(-0.44 -16.678)"/><path class="a" d="M91.192,486.42a.561.561,0,0,1,.543-.42h7.27a.561.561,0,0,1,.561.561v6.172a1.683,1.683,0,0,1-1.683,1.683h-20.2A1.683,1.683,0,0,1,76,492.733v-6.172a.561.561,0,0,1,.561-.561h7.33a.562.562,0,0,1,.547.433l.424,1.812,5.854,0Zm-14.07.7v5.611a.561.561,0,0,0,.561.561h20.2a.561.561,0,0,0,.561-.561v-5.611H92.169l-.478,1.829a.561.561,0,0,1-.543.42l-6.732,0a.561.561,0,0,1-.546-.433l-.424-1.811Z" transform="translate(-0.001 -11.85)"/></g></svg>