<svg xmlns="http://www.w3.org/2000/svg" width="23.578" height="23.578" viewBox="0 0 23.578 23.578">
  <g id="icon_settings" transform="translate(-8 -415)">
    <path id="Path_5946" data-name="Path 5946" d="M22.771,9.522H21.5a9.907,9.907,0,0,0-1.242-3l.9-.9a.808.808,0,0,0,0-1.142L19.093,2.42a.808.808,0,0,0-1.142,0l-.9.9a9.91,9.91,0,0,0-3-1.241V.808A.807.807,0,0,0,13.249,0h-2.92a.807.807,0,0,0-.807.808V2.076a9.907,9.907,0,0,0-3,1.242l-.9-.9a.808.808,0,0,0-1.142,0L2.421,4.485a.808.808,0,0,0,0,1.142l.9.9a9.9,9.9,0,0,0-1.242,3H.808A.807.807,0,0,0,0,10.33v2.92a.807.807,0,0,0,.808.807H2.076a9.907,9.907,0,0,0,1.242,3l-.9.9a.808.808,0,0,0,0,1.142l2.064,2.064a.808.808,0,0,0,1.142,0l.9-.9a9.918,9.918,0,0,0,3,1.242v1.268a.807.807,0,0,0,.807.808h2.92a.807.807,0,0,0,.807-.808V21.5a9.907,9.907,0,0,0,3-1.242l.9.9a.808.808,0,0,0,1.142,0l2.064-2.064a.808.808,0,0,0,0-1.142l-.9-.9a9.925,9.925,0,0,0,1.242-3h1.268a.807.807,0,0,0,.807-.807v-2.92A.807.807,0,0,0,22.771,9.522ZM11.789,15.87a4.081,4.081,0,1,1,4.081-4.081A4.081,4.081,0,0,1,11.789,15.87Z" transform="translate(8 415)" fill="#a36363"/>
    <path id="Path_5947" data-name="Path 5947" d="M18.895,13a5.895,5.895,0,1,0,5.895,5.895A5.894,5.894,0,0,0,18.895,13Zm0,9.975a4.081,4.081,0,1,1,4.081-4.081A4.081,4.081,0,0,1,18.895,22.975Z" transform="translate(0.895 407.895)" fill="#2c3e50"/>
  </g>
</svg>
