<svg id="Icons_Document-media_project" data-name="Icons / Document-media / project" xmlns="http://www.w3.org/2000/svg" width="16.15" height="20" viewBox="0 0 16.15 20">
  <g id="project" transform="translate(0 0)">
    <path id="Combined_Shape" data-name="Combined Shape" d="M1.153,20a1.161,1.161,0,0,1-.815-.337A1.147,1.147,0,0,1,0,18.849V2.993A1.152,1.152,0,0,1,1.153,1.838h.77A1.154,1.154,0,0,1,3.075,2.993,1.505,1.505,0,0,0,4.579,4.5h6.993a1.505,1.505,0,0,0,1.5-1.475v-.03a1.148,1.148,0,0,1,.338-.816,1.162,1.162,0,0,1,.815-.339H15A1.152,1.152,0,0,1,16.15,2.993V18.846a1.136,1.136,0,0,1-.087.442A1.152,1.152,0,0,1,15,20Zm9.229-5.768h.042A1.154,1.154,0,0,0,10.836,12a1.136,1.136,0,0,0-.412-.077h-4.7a1.155,1.155,0,0,0-.8.323,1.154,1.154,0,0,0,.8,1.985h4.655Zm0-4.615h.042a1.154,1.154,0,0,0,.412-2.232,1.135,1.135,0,0,0-.412-.077h-4.7a1.155,1.155,0,0,0-.8.323,1.154,1.154,0,0,0,.8,1.985h4.655Zm0-7.309H5.768A1.154,1.154,0,1,1,5.768,0h4.614a1.153,1.153,0,0,1,.843.323,1.155,1.155,0,0,1,0,1.661,1.149,1.149,0,0,1-.8.324Z" transform="translate(0 0)" fill="#6a5059"/>
  </g>
</svg>
