<svg xmlns="http://www.w3.org/2000/svg" width="28.061" height="29.659" viewBox="0 0 28.061 29.659"><defs><style>.a{fill:#6a5059;fill-rule:evenodd;}.b{fill:#fafafa;}.c{fill:#6a5059;}</style></defs><g transform="translate(-29.056 -546.287)"><path class="a" d="M16.566,0H8.129A3.91,3.91,0,0,0,4.743,1.955L.524,9.262a3.91,3.91,0,0,0,0,3.91l4.219,7.307a3.91,3.91,0,0,0,3.386,1.955h8.438a3.91,3.91,0,0,0,3.386-1.955l4.219-7.307a3.91,3.91,0,0,0,0-3.91L19.952,1.955A3.91,3.91,0,0,0,16.566,0Z" transform="matrix(-0.259, -0.966, 0.966, -0.259, 35.447, 575.947)"/><g transform="translate(12.144 118.287)"><g transform="translate(31.594 439.621)"><path class="b" d="M1868.812,3502.129a6.6,6.6,0,0,0-4.787-2.021,4.9,4.9,0,0,0-.54.024,6.391,6.391,0,0,0-1.849.42l-.583.253c-.1.048-.205.1-.3.162l-.941.635-.014.014a6.565,6.565,0,0,0-.946.946l-.019.019a6.407,6.407,0,0,0-.573.826,4.189,4.189,0,0,0-.205.382,4.114,4.114,0,0,0-.182.392c-.053.115-.1.234-.143.354a6.784,6.784,0,0,0-.244.86c-.024.115-.043.229-.062.349,0,.029-.009.062-.014.1q-.029.2-.043.4a4.28,4.28,0,0,0-.029.554,6.586,6.586,0,0,0,2.016,4.778l0,0a6.685,6.685,0,0,0,9.455-9.451Z" transform="translate(-1857.336 -3500.108)"/></g><path class="c" d="M9.326,3.824h-.92a.353.353,0,0,1-.25-.6l.65-.65a.507.507,0,0,0,0-.716l-.829-.829a.518.518,0,0,0-.716,0l-.65.65a.342.342,0,0,1-.246.1.367.367,0,0,1-.248-.1.341.341,0,0,1-.108-.256V.506A.507.507,0,0,0,5.5,0H4.33a.507.507,0,0,0-.506.506v.92a.352.352,0,0,1-.357.354.342.342,0,0,1-.246-.1l-.65-.65a.518.518,0,0,0-.716,0l-.829.829a.507.507,0,0,0,0,.716l.65.65a.353.353,0,0,1-.25.6H.506A.507.507,0,0,0,0,4.33V5.5a.507.507,0,0,0,.506.507h.92a.353.353,0,0,1,.25.6l-.65.65a.507.507,0,0,0,0,.716l.829.829a.518.518,0,0,0,.716,0l.65-.65a.342.342,0,0,1,.246-.1.352.352,0,0,1,.357.354v.92a.507.507,0,0,0,.506.506H5.5a.507.507,0,0,0,.506-.506v-.92a.352.352,0,0,1,.357-.354.343.343,0,0,1,.246.1l.65.65a.518.518,0,0,0,.716,0l.829-.829a.507.507,0,0,0,0-.716l-.65-.65a.353.353,0,0,1,.25-.6h.92A.507.507,0,0,0,9.832,5.5V4.33A.507.507,0,0,0,9.326,3.824ZM6.191,4.916A1.275,1.275,0,1,1,4.916,3.642,1.276,1.276,0,0,1,6.191,4.916Z" transform="translate(33.4 441.4)"/></g></g></svg>