<svg xmlns="http://www.w3.org/2000/svg" width="53.283" height="47.987" viewBox="0 0 53.283 47.987"><defs><style>.a{opacity:0.12;}.b{fill:#77b9eb;}.c{fill:#6faad2;}.d{fill:#fbb1a4;}.e{fill:#acd9d1;}.f{fill:#ff4e61;}.f,.g{opacity:0.55;}.g{fill:#fa0;}.h{fill:#b0d4f0;}.i{fill:#fafafa;}</style></defs><g transform="translate(-42.872 -296.006)"><g class="a" transform="translate(42.737 294.096)"><g transform="translate(0.134 1.91)"><path class="b" d="M51.984,29.416c-5.64-8.636-5.04-17.488-7.759-21.65S33.4-3.572,14.262,8.932-.012,35.029,2.979,39.605C16.979,61.037,61.974,44.71,51.984,29.416Z" transform="translate(-0.134 -1.91)"/></g></g><g transform="translate(-82.745 -269.999)"><path class="c" d="M41.414,2.141a3.359,3.359,0,0,0-.728-.9A4.026,4.026,0,0,0,38.824.15,4.215,4.215,0,0,0,35.57.578a4.3,4.3,0,0,0-2.141,3.853c.021.214.128,3.4.128,3.4C33.322,7.7,30.882,6.18,30.882,6.18A4.25,4.25,0,0,0,26.3,5.987a4.316,4.316,0,0,0-1.991,2.59,4.215,4.215,0,0,0,.428,3.254,4.275,4.275,0,0,0,5.844,1.563L33.338,11.8,29.5,11.547a2.134,2.134,0,0,1-2.9-.781,2.076,2.076,0,0,1-.218-1.632,2.179,2.179,0,0,1,1.008-1.3,1.983,1.983,0,0,1,1.015-.3,2.492,2.492,0,0,1,1.259.416l.136.077c.336.209,2.512,1.56,2.738,1.683l.08.044-.018.01h.03l2.569,1.5.5-3.283.012-.039L35.7,7.755s-.116-3.318-.139-3.542a2.138,2.138,0,0,1,1.083-1.781A2.052,2.052,0,0,1,37.7,2.14a2.2,2.2,0,0,1,.573.077,1.88,1.88,0,0,1,.874.508l.161.152a1.182,1.182,0,0,1,.244.311,2.232,2.232,0,0,1-.35,2.7,2.471,2.471,0,0,1-.408.3l-.106.061L38.4,8.882l1.455-.84a4.7,4.7,0,0,0,.835-.621,4.352,4.352,0,0,0,.728-5.281Z" transform="translate(111.562 571)"/><path class="d" d="M427.123,152.952h-1.07v-1.07a1.07,1.07,0,0,0-2.141,0v1.07h-1.07a1.07,1.07,0,1,0,0,2.141h1.07v1.07a1.07,1.07,0,1,0,2.141,0v-1.07h1.07a1.07,1.07,0,0,0,0-2.141Z" transform="translate(-257.677 430.95)"/><g transform="translate(159.863 582.512)"><circle class="e" cx="1.068" cy="1.068" r="1.068" transform="translate(0 0)"/></g><path class="f" d="M319.927,242.477a.862.862,0,0,1-.618-.259l-.01-.01a.866.866,0,0,1,1.236-1.215l.01.01a.867.867,0,0,1-.618,1.474Zm0,0" transform="translate(-152.351 349.537)"/><path class="g" d="M302.477,260.455a.864.864,0,0,1-.622-.263l-.01-.01a.867.867,0,0,1,1.243-1.207l.01.01a.867.867,0,0,1-.622,1.47Zm0,0" transform="translate(-136.643 319.272)"/><path class="h" d="M11.775,19.338H1.071A1.06,1.06,0,0,1,0,18.268V4.368L9.354-1H22.478A1.06,1.06,0,0,1,23.549.07v18.2a1.06,1.06,0,0,1-1.071,1.07Z" transform="translate(140.474 588.183)"/><path class="h" d="M26.668,37.155l-2.32-4.278a1.081,1.081,0,0,0-1.477-.385l-4.581,2.655-.613.354L5.5,42.522.628,45.336a1.075,1.075,0,0,0-.457,1.456L2.562,51.07a1.056,1.056,0,0,0,1.456.385L17.4,43.727l8.863-5.117a1.082,1.082,0,0,0,.407-1.456Z" transform="translate(133.959 540.964)"/><g transform="translate(148.107 591.446)"><path class="i" d="M74.707,6.662a2.291,2.291,0,0,0-1.335-.786,1.809,1.809,0,0,0,1-1.969,1.946,1.946,0,0,0-.279-.873,1.748,1.748,0,0,0-.63-.6,3.466,3.466,0,0,0-.862-.343,6.8,6.8,0,0,0-1.068-.172V0H70.357V1.87q-.305,0-.931.015V0H68.251V1.923q-.252.008-.74.008l-1.618-.008V3.175h.847a.606.606,0,0,1,.679.519v2.19a.775.775,0,0,1,.122.008h-.122V8.959a.408.408,0,0,1-.443.389H66.13l-.237,1.4h1.526l.42,0,.412,0V12.7h1.175V10.775q.32.008.931.008V12.7h1.175V10.752a9.136,9.136,0,0,0,1.11-.114,4.518,4.518,0,0,0,.927-.263,2.5,2.5,0,0,0,.74-.446,2.106,2.106,0,0,0,.492-.679,2.888,2.888,0,0,0,.248-.954A2.261,2.261,0,0,0,74.707,6.662Zm-5.258-3.4.3,0,.412-.008q.164,0,.443.019a4.211,4.211,0,0,1,.469.061,2.615,2.615,0,0,1,.42.126,1.137,1.137,0,0,1,.366.214,1.06,1.06,0,0,1,.233.321,1,1,0,0,1,.1.446,1.062,1.062,0,0,1-.069.389.734.734,0,0,1-.206.294,2.085,2.085,0,0,1-.282.206,1.293,1.293,0,0,1-.37.141q-.225.053-.393.084a3.216,3.216,0,0,1-.42.042l-.382.015q-.13,0-.355,0l-.263,0V3.258h0Zm3.209,5.2a1.085,1.085,0,0,1-.187.305,1.06,1.06,0,0,1-.3.229,2.585,2.585,0,0,1-.362.16,2.918,2.918,0,0,1-.423.107q-.248.046-.435.065t-.446.031q-.259.011-.4.011t-.366,0l-.282,0V6.776l.362-.008q.3-.008.492-.008t.527.023a4.5,4.5,0,0,1,.565.068,3.713,3.713,0,0,1,.5.141,1.45,1.45,0,0,1,.439.233,1.145,1.145,0,0,1,.282.351,1.09,1.09,0,0,1,.042.878Z" transform="translate(-65.893)"/></g></g></g></svg>