<svg xmlns="http://www.w3.org/2000/svg" width="24.156" height="18.245" viewBox="0 0 24.156 18.245">
  <g id="icon_wallet" transform="translate(3385.053 555.895)">
    <g id="Group_11249" data-name="Group 11249" transform="translate(-3385.053 -555.895)">
      <path id="Path_8626" data-name="Path 8626" d="M61.542,408.514H60.257a.257.257,0,1,1,0-.514h1.285a.257.257,0,1,1,0,.514Z" transform="translate(-58.458 -392.324)" fill="#a36364"/>
      <path id="Path_8627" data-name="Path 8627" d="M101.542,408.514h-1.285a.257.257,0,1,1,0-.514h1.285a.257.257,0,1,1,0,.514Z" transform="translate(-95.888 -392.324)" fill="#a36364"/>
      <path id="Path_8628" data-name="Path 8628" d="M141.542,408.514h-1.285a.257.257,0,1,1,0-.514h1.285a.257.257,0,1,1,0,.514Z" transform="translate(-133.319 -392.324)" fill="#a36364"/>
      <path id="Path_8629" data-name="Path 8629" d="M181.542,408.514h-1.285a.257.257,0,1,1,0-.514h1.285a.257.257,0,1,1,0,.514Z" transform="translate(-170.749 -392.324)" fill="#a36364"/>
      <path id="Path_8630" data-name="Path 8630" d="M221.542,408.514h-1.285a.257.257,0,1,1,0-.514h1.285a.257.257,0,1,1,0,.514Z" transform="translate(-208.179 -392.324)" fill="#a36364"/>
      <path id="Path_8631" data-name="Path 8631" d="M261.542,408.514h-1.285a.257.257,0,0,1,0-.514h1.285a.257.257,0,0,1,0,.514Z" transform="translate(-245.609 -392.324)" fill="#a36364"/>
      <path id="Path_8632" data-name="Path 8632" d="M301.542,408.514h-1.285a.257.257,0,0,1,0-.514h1.285a.257.257,0,0,1,0,.514Z" transform="translate(-283.04 -392.324)" fill="#a36364"/>
      <path id="Path_8633" data-name="Path 8633" d="M341.542,408.514h-1.285a.257.257,0,1,1,0-.514h1.285a.257.257,0,1,1,0,.514Z" transform="translate(-320.47 -392.324)" fill="#a36364"/>
      <path id="Path_8634" data-name="Path 8634" d="M57.329,182.245H37.542A1.544,1.544,0,0,1,36,180.7V165.542A1.544,1.544,0,0,1,37.542,164H57.329a1.544,1.544,0,0,1,1.542,1.542V180.7A1.544,1.544,0,0,1,57.329,182.245Z" transform="translate(-36 -164)" fill="#a36364"/>
    </g>
    <g id="Group_11245" data-name="Group 11245" transform="translate(-3385.053 -555.895)">
      <path id="Path_8626-2" data-name="Path 8626" d="M61.542,408.514H60.257a.257.257,0,1,1,0-.514h1.285a.257.257,0,1,1,0,.514Z" transform="translate(-58.458 -392.324)" fill="#f8f8f8"/>
      <path id="Path_8627-2" data-name="Path 8627" d="M101.542,408.514h-1.285a.257.257,0,1,1,0-.514h1.285a.257.257,0,1,1,0,.514Z" transform="translate(-95.888 -392.324)" fill="#f8f8f8"/>
      <path id="Path_8628-2" data-name="Path 8628" d="M141.542,408.514h-1.285a.257.257,0,1,1,0-.514h1.285a.257.257,0,1,1,0,.514Z" transform="translate(-133.319 -392.324)" fill="#f8f8f8"/>
      <path id="Path_8629-2" data-name="Path 8629" d="M181.542,408.514h-1.285a.257.257,0,1,1,0-.514h1.285a.257.257,0,1,1,0,.514Z" transform="translate(-170.749 -392.324)" fill="#f8f8f8"/>
      <path id="Path_8630-2" data-name="Path 8630" d="M221.542,408.514h-1.285a.257.257,0,1,1,0-.514h1.285a.257.257,0,1,1,0,.514Z" transform="translate(-208.179 -392.324)" fill="#f8f8f8"/>
      <path id="Path_8631-2" data-name="Path 8631" d="M261.542,408.514h-1.285a.257.257,0,0,1,0-.514h1.285a.257.257,0,0,1,0,.514Z" transform="translate(-245.609 -392.324)" fill="#f8f8f8"/>
      <path id="Path_8632-2" data-name="Path 8632" d="M301.542,408.514h-1.285a.257.257,0,0,1,0-.514h1.285a.257.257,0,0,1,0,.514Z" transform="translate(-283.04 -392.324)" fill="#f8f8f8"/>
      <path id="Path_8633-2" data-name="Path 8633" d="M341.542,408.514h-1.285a.257.257,0,1,1,0-.514h1.285a.257.257,0,1,1,0,.514Z" transform="translate(-320.47 -392.324)" fill="#f8f8f8"/>
      <path id="Path_8634-2" data-name="Path 8634" d="M57.329,182.245H37.542A1.544,1.544,0,0,1,36,180.7V165.542A1.544,1.544,0,0,1,37.542,164H57.329a1.544,1.544,0,0,1,1.542,1.542v4.112a.257.257,0,0,1-.514,0v-4.112a1.029,1.029,0,0,0-1.028-1.028H37.542a1.029,1.029,0,0,0-1.028,1.028V180.7a1.029,1.029,0,0,0,1.028,1.028H57.329a1.029,1.029,0,0,0,1.028-1.028v-3.855a.257.257,0,0,1,.514,0V180.7A1.544,1.544,0,0,1,57.329,182.245Z" transform="translate(-36 -164)" fill="#a36364"/>
    </g>
    <path id="Path_8635" data-name="Path 8635" d="M295.2,280.112h-6.681A.514.514,0,0,1,288,279.6v-3.084a.514.514,0,0,1,.514-.514H295.2a.514.514,0,0,1,.514.514V279.6A.514.514,0,0,1,295.2,280.112Z" transform="translate(-3656.863 -824.699)" fill="#2c3f50"/>
    <path id="Path_8636" data-name="Path 8636" d="M291.452,276.626h-6.681a.772.772,0,0,1-.771-.771v-3.084a.772.772,0,0,1,.771-.771h6.681a.772.772,0,0,1,.771.771v3.084A.772.772,0,0,1,291.452,276.626Zm-6.681-4.112a.257.257,0,0,0-.257.257v3.084a.257.257,0,0,0,.257.257h6.681a.257.257,0,0,0,.257-.257v-3.084a.257.257,0,0,0-.257-.257Z" transform="translate(-3653.12 -820.956)" fill="#2c3f50"/>
    <circle id="Ellipse_329" data-name="Ellipse 329" cx="1.386" cy="1.386" r="1.386" transform="translate(-3368.451 -548.041)" fill="#fafafa"/>
  </g>
</svg>
