<svg id="icon_bitcoin" xmlns="http://www.w3.org/2000/svg" width="10.243" height="14.175" viewBox="0 0 10.243 14.175">
  <path id="Path_5548" data-name="Path 5548" d="M75.732,7.437a2.558,2.558,0,0,0-1.491-.877,2.02,2.02,0,0,0,1.116-2.2,2.172,2.172,0,0,0-.311-.975,1.951,1.951,0,0,0-.7-.664,3.87,3.87,0,0,0-.963-.383,7.6,7.6,0,0,0-1.193-.192V0H70.877V2.087q-.341,0-1.039.017V0H68.525V2.147q-.281.009-.826.009l-1.806-.009v1.4h.946a.677.677,0,0,1,.758.579V6.568a.865.865,0,0,1,.136.009H67.6V10a.455.455,0,0,1-.494.435h-.945l-.264,1.559h1.7l.469,0,.46,0v2.172h1.312V12.029q.358.009,1.039.009v2.138h1.312V12a10.2,10.2,0,0,0,1.239-.128,5.044,5.044,0,0,0,1.035-.294,2.793,2.793,0,0,0,.826-.5,2.351,2.351,0,0,0,.55-.758,3.223,3.223,0,0,0,.277-1.065A2.524,2.524,0,0,0,75.732,7.437Zm-5.87-3.8.337,0,.46-.009q.183,0,.494.021a4.7,4.7,0,0,1,.524.068,2.919,2.919,0,0,1,.468.141,1.27,1.27,0,0,1,.409.238,1.183,1.183,0,0,1,.26.358,1.117,1.117,0,0,1,.107.5,1.185,1.185,0,0,1-.077.435.819.819,0,0,1-.23.328,2.329,2.329,0,0,1-.315.23,1.444,1.444,0,0,1-.413.158q-.251.06-.439.094a3.591,3.591,0,0,1-.469.047q-.281.013-.426.017t-.4,0l-.294,0V3.637h0Zm3.582,5.8a1.212,1.212,0,0,1-.209.341,1.183,1.183,0,0,1-.337.255,2.885,2.885,0,0,1-.4.179,3.257,3.257,0,0,1-.473.119q-.277.051-.486.072t-.5.034q-.29.013-.451.013t-.409,0l-.315,0V7.565q.068,0,.4-.009t.549-.008q.213,0,.588.026a5.023,5.023,0,0,1,.63.076,4.146,4.146,0,0,1,.558.158,1.618,1.618,0,0,1,.49.26,1.278,1.278,0,0,1,.315.392,1.217,1.217,0,0,1,.047.98Z" transform="translate(-65.893)" fill="#fafafa"/>
</svg>
