<svg xmlns="http://www.w3.org/2000/svg" width="32.547" height="28.378" viewBox="0 0 32.547 28.378">
  <g id="Group_42087" data-name="Group 42087" transform="translate(-59.037 -415.363)">
    <path id="Path_24012" data-name="Path 24012" d="M16.631,0C25.816,0,20.4,8.377,29.442,14.189S25.816,28.378,16.631,28.378,0,22.026,0,14.189,7.446,0,16.631,0Z" transform="translate(59.037 415.363)" fill="#76b9eb" opacity="0.26"/>
    <g id="Group_38754" data-name="Group 38754" transform="translate(65.17 421.918)">
      <path id="Path_23994" data-name="Path 23994" d="M.953.643,0,1.249,1.164,3.08,3.13,1.831,1.965,0l-1,.634L.953.643Z" transform="translate(3.088 4.987)" fill="#006cb4"/>
      <path id="Path_23995" data-name="Path 23995" d="M.019.627a.8.8,0,0,0,.608.956l.157.035L1.974.871a.221.221,0,0,1,.042-.02l.7-.445L.975.019A.8.8,0,0,0,.019.627Z" transform="translate(0.7 5.112)" fill="#006cb4"/>
      <path id="Path_23996" data-name="Path 23996" d="M1.5.019A.8.8,0,0,0,.54.627L0,3.053.708,2.6a.22.22,0,0,1,.036-.03l1.181-.749L2.1.978A.8.8,0,0,0,1.5.019Z" transform="translate(4.256 1.931)" fill="#006cb4"/>
      <path id="Path_23997" data-name="Path 23997" d="M3.313.021A.886.886,0,0,0,3.123,0a.865.865,0,0,0-.465.136L0,1.826,1.164,3.657,4.556,1.5,3.859.4A.864.864,0,0,0,3.314.021Z" transform="translate(5.023 3.16)" fill="#006cb4"/>
      <path id="Path_23998" data-name="Path 23998" d="M3.119,0,.4,1.727a.871.871,0,0,0-.267,1.2l.7,1.1,3.45-2.194Z" transform="translate(0 6.271)" fill="#006cb4"/>
      <path id="Path_23999" data-name="Path 23999" d="M0,6.487H2.787a.871.871,0,0,0,.87-.87V0H0Z" transform="translate(7.323 10.325)" fill="#006cb4"/>
      <path id="Path_24000" data-name="Path 24000" d="M0,5.616a.871.871,0,0,0,.87.87H2.939V0H0Z" transform="translate(2.135 10.325)" fill="#006cb4"/>
      <path id="Path_24001" data-name="Path 24001" d="M0,0H2.306V6.487H0Z" transform="translate(5.045 10.325)" fill="#006cb4"/>
      <path id="Path_24002" data-name="Path 24002" d="M2,.852l.1-.6h0A.215.215,0,0,0,1.79.025L1.25.308.711.025A.215.215,0,0,0,.4.252l.1.6-.436.425a.215.215,0,0,0,.119.367l.6.088.27.546a.215.215,0,0,0,.386,0l.27-.546.6-.088a.215.215,0,0,0,.119-.367Z" transform="translate(12.064 7.086)" fill="#76cceb"/>
      <path id="Path_24003" data-name="Path 24003" d="M2.327.852,1.735.708,1.517.139h0A.215.215,0,0,0,1.133.1L.813.621.2.652a.215.215,0,0,0-.153.354l.394.465-.159.588a.215.215,0,0,0,.29.255l.563-.232.51.333h0a.215.215,0,0,0,.332-.2l-.046-.608.474-.382A.215.215,0,0,0,2.327.852Z" transform="translate(14.213 4.119)" fill="#70c1b3"/>
      <path id="Path_24004" data-name="Path 24004" d="M2.486,1.014A.215.215,0,0,0,2.327.852L1.735.708,1.517.139A.215.215,0,0,0,1.133.1L.813.621.2.652a.215.215,0,0,0-.153.354l.395.464-.159.588h0a.215.215,0,0,0,.29.255l.563-.232.51.333a.215.215,0,0,0,.332-.2l-.046-.608.474-.382h0a.216.216,0,0,0,.075-.215Z" transform="translate(12.928 0)" fill="#ff7861" opacity="0.42"/>
      <path id="Path_24005" data-name="Path 24005" d="M3.008.1a2.814,2.814,0,0,0-2.241.3A2.482,2.482,0,0,0,.033,1.1.215.215,0,0,0,.4,1.329,2.255,2.255,0,0,1,2.9.52h0A.215.215,0,1,0,3.008.1Z" transform="translate(8.699 7.564)" fill="#006cb4"/>
      <path id="Path_24006" data-name="Path 24006" d="M.023,1.922a.215.215,0,1,0,.386.192A3.633,3.633,0,0,1,1.358,1,2.73,2.73,0,0,1,4.242.7a.215.215,0,0,0,.165-.4A3.158,3.158,0,0,0,1.1.657h0A4.04,4.04,0,0,0,.023,1.922Z" transform="translate(9.311 4.986)" fill="#006cb4"/>
      <path id="Path_24007" data-name="Path 24007" d="M.282,1.464a.215.215,0,0,0-.132.41,3.237,3.237,0,0,0,.913.132A2.246,2.246,0,0,0,2.211,1.72,2.044,2.044,0,0,0,3.142.256a.215.215,0,1,0-.423-.08,1.636,1.636,0,0,1-.725,1.173A2.4,2.4,0,0,1,.282,1.464Z" transform="translate(11.122 2.491)" fill="#006cb4"/>
      <path id="Path_24008" data-name="Path 24008" d="M.776.388A.388.388,0,1,1,.388,0,.388.388,0,0,1,.776.388" transform="translate(7.899 8.882)" fill="#e9e92c"/>
      <path id="Path_24009" data-name="Path 24009" d="M.776.388A.388.388,0,1,1,.388,0,.388.388,0,0,1,.776.388" transform="translate(10.95 1.847)" fill="#70c1b3"/>
      <path id="Path_24010" data-name="Path 24010" d="M.776.388A.388.388,0,1,1,.388,0,.388.388,0,0,1,.776.388" transform="translate(7.352 7.086)" fill="#76b9eb"/>
      <path id="Path_24011" data-name="Path 24011" d="M.776.388A.388.388,0,1,1,.388,0,.388.388,0,0,1,.776.388" transform="translate(15.778 7.717)" fill="#e9e92c"/>
      <g id="_1421344023328" transform="matrix(0.978, -0.208, 0.208, 0.978, 4.257, 11.905)">
        <path id="Path_390" data-name="Path 390" d="M3.053,1.629c.064-.426-.26-.655-.7-.807L2.493.245,2.142.157,2,.719C1.909.7,1.815.674,1.721.653L1.861.087,1.511,0,1.367.576,1.143.524v0L.659.4.566.776s.26.06.255.063a.187.187,0,0,1,.164.2L.82,1.7a.284.284,0,0,1,.036.012L.82,1.7l-.23.92a.128.128,0,0,1-.161.083c0,.005-.255-.064-.255-.064L0,3.045l.457.114.25.065-.145.583.351.087.144-.577c.1.026.189.05.28.073l-.143.574.351.087.145-.582c.6.113,1.049.068,1.238-.474A.616.616,0,0,0,2.6,2.144a.56.56,0,0,0,.448-.515h0Zm-.8,1.125c-.108.436-.842.2-1.08.141l.193-.773C1.6,2.181,2.364,2.3,2.251,2.753Zm.109-1.131c-.1.4-.71.2-.908.146l.175-.7c.2.049.836.142.733.555Z" transform="translate(0 0)" fill="#f8f8f8"/>
      </g>
    </g>
  </g>
</svg>
