<svg xmlns="http://www.w3.org/2000/svg" width="16.646" height="16.646" viewBox="0 0 16.646 16.646">
  <path id="icon_settings" d="M15.789,6.474H14.232a.6.6,0,0,1-.423-1.021l1.1-1.1a.858.858,0,0,0,0-1.212l-1.4-1.4a.878.878,0,0,0-1.212,0l-1.1,1.1a.579.579,0,0,1-.417.177.622.622,0,0,1-.42-.166.577.577,0,0,1-.183-.433V.857A.858.858,0,0,0,9.316,0H7.331a.858.858,0,0,0-.857.857V2.414a.6.6,0,0,1-.6.6.58.58,0,0,1-.416-.177l-1.1-1.1a.878.878,0,0,0-1.212,0l-1.4,1.4a.858.858,0,0,0,0,1.212l1.1,1.1a.6.6,0,0,1-.423,1.021H.857A.858.858,0,0,0,0,7.331V9.315a.858.858,0,0,0,.857.858H2.414a.6.6,0,0,1,.423,1.021l-1.1,1.1a.858.858,0,0,0,0,1.212l1.4,1.4a.877.877,0,0,0,1.212,0l1.1-1.1a.579.579,0,0,1,.417-.177.6.6,0,0,1,.6.6v1.557a.858.858,0,0,0,.857.857H9.315a.858.858,0,0,0,.857-.857V14.232a.6.6,0,0,1,.6-.6.58.58,0,0,1,.417.177l1.1,1.1a.878.878,0,0,0,1.212,0l1.4-1.4a.858.858,0,0,0,0-1.212l-1.1-1.1a.6.6,0,0,1,.423-1.021h1.557a.858.858,0,0,0,.857-.857V7.331A.858.858,0,0,0,15.789,6.474Zm-5.308,1.85A2.158,2.158,0,1,1,8.323,6.165,2.161,2.161,0,0,1,10.481,8.323Z" fill="#006db4"/>
</svg>
