<svg xmlns="http://www.w3.org/2000/svg" width="24.243" height="25.228" viewBox="0 0 24.243 25.228"><defs><style>.a,.b{fill:#77b9eb;}.b{stroke:#77b9eb;}.b,.c,.d{stroke-width:0.5px;}.c,.f{fill:#006db4;}.c{stroke:#006db4;}.d,.e{fill:#fff;}.d{stroke:#fff;}</style></defs><g transform="translate(3075.25 -9496.769)"><g transform="translate(-3075 9497.019)"><path class="a" d="M19.725,0H1.461C.654,0,0,2.082,0,4.649V16.271H21.187V4.649C21.187,2.082,20.532,0,19.725,0Zm0,0" transform="translate(21.552 21.917) rotate(180)"/><path class="b" d="M20.091,0H1.826A1.829,1.829,0,0,0,0,1.826V20.091a1.829,1.829,0,0,0,1.826,1.826H20.091a1.829,1.829,0,0,0,1.826-1.826V1.826A1.829,1.829,0,0,0,20.091,0ZM.731,1.826a1.1,1.1,0,0,1,1.1-1.1H20.091a1.1,1.1,0,0,1,1.1,1.1V5.114H.731ZM21.187,20.091a1.1,1.1,0,0,1-1.1,1.1H1.826a1.1,1.1,0,0,1-1.1-1.1V5.845H21.187Zm0,0"/><path class="c" d="M72.438,56H56.365a.365.365,0,1,0,0,.731H72.438a.365.365,0,0,0,0-.731Zm0,0" transform="translate(-53.443 -53.443)"/><path class="d" d="M56.365,168.4a.365.365,0,1,0,0,.731h3.653v2.893a.365.365,0,0,0,.731,0v-2.893h7.306v2.922a.365.365,0,1,0,.731,0v-2.922h3.653a.365.365,0,0,0,0-.731H68.785v-4.383h3.653a.365.365,0,0,0,0-.731H68.785v-2.922a.365.365,0,1,0-.731,0v2.922H60.749v-2.922a.365.365,0,1,0-.731,0v2.922H56.365a.365.365,0,0,0,0,.731h3.653V168.4Zm4.383-4.383h7.306V168.4H60.749Zm0,0" transform="translate(-53.443 -152.694)"/></g><g transform="translate(-3062.238 9510.704)"><g transform="translate(0.793 1.514)"><g transform="translate(0)"><path class="e" d="M1827.7,147.524a5.687,5.687,0,0,0-2.837-.735c-2.737,0-4.964,1.832-4.964,4.085s2.227,4.085,4.964,4.085a5.688,5.688,0,0,0,2.837-.735,3.7,3.7,0,0,0,0-6.7Z" transform="translate(-1819.899 -146.789)"/></g></g><path class="f" d="M10.033,11.085,8.2,9.244h0a5.05,5.05,0,0,1-.478.226,1.748,1.748,0,0,1-.2.077c-.168.064-.351.12-.534.17H6.977a2.181,2.181,0,0,1-.238.049,4.234,4.234,0,0,1-.618.086,3.917,3.917,0,0,1-.506.028C1.678,9.881.112,6.07.048,5.907a.75.75,0,0,1,0-.522A7.026,7.026,0,0,1,.625,4.326,4.344,4.344,0,0,1,.912,3.91c.035-.056.084-.113.126-.169.1-.127.2-.254.323-.382.043-.049.084-.1.133-.148.113-.113.232-.234.358-.346l0,0L.205,1.205a.709.709,0,0,1,0-1,.7.7,0,0,1,.992,0l9.828,9.88a.709.709,0,0,1,0,1,.7.7,0,0,1-.992,0ZM2.856,3.875a4.235,4.235,0,0,0-.365.338c-.049.049-.091.1-.133.148a4.8,4.8,0,0,0-.316.388l-.126.169c-.112.155-.2.3-.281.423s-.119.22-.161.3a5.044,5.044,0,0,0,3.151,2.7,3.722,3.722,0,0,0,.815.113,1.452,1.452,0,0,0,.175.007.639.639,0,0,0,.119-.007,3.751,3.751,0,0,0,.646-.056c.077-.021.154-.035.224-.057a2.687,2.687,0,0,0,.527-.176h0l-.613-.616a2.11,2.11,0,0,1-.535.172,2.157,2.157,0,0,1-.372.036,1.947,1.947,0,0,1-.7-.127A2.1,2.1,0,0,1,3.636,6.352a1.971,1.971,0,0,1-.126-.706,2.179,2.179,0,0,1,.035-.374,2.149,2.149,0,0,1,.172-.537l-.857-.862ZM9.308,6.366a5.72,5.72,0,0,0,.45-.72A4.84,4.84,0,0,0,5.791,2.83l-1.3-1.305a5.125,5.125,0,0,1,1.123-.114c3.938,0,5.5,3.811,5.567,3.974a.743.743,0,0,1,0,.522,7.108,7.108,0,0,1-.863,1.475Z" transform="translate(0 0)"/></g></g></svg>