<svg xmlns="http://www.w3.org/2000/svg" xmlns:xlink="http://www.w3.org/1999/xlink" width="103" height="128" viewBox="0 0 103 128"><defs><style>.a{fill:none;}.b{clip-path:url(#a);}.c{opacity:0.551;}.d{fill:#ff7861;}.e{fill:#ff4e61;}.f{fill:#C36564;}.g{fill:#ffe581;}.h{fill:#fa0;}.i{fill:#70c1b3;}.j{fill:#77b9eb;}.k{fill:#2dc471;}</style><clipPath id="a"><rect class="a" width="103" height="128" transform="translate(273 684)"/></clipPath></defs><g class="b" transform="translate(-273 -684)"><g class="c" transform="translate(283.34 693.373)"><path class="d" d="M96.243,477.715a1.713,1.713,0,0,1-1.228-2.906l2.129-2.193A1.713,1.713,0,0,1,99.6,475l-2.13,2.193A1.705,1.705,0,0,1,96.243,477.715Zm0,0" transform="translate(-72.244 -362.714)"/><path class="e" d="M195.972,114.629a1.713,1.713,0,0,1-1.228-2.905l2.13-2.194a1.712,1.712,0,1,1,2.457,2.386l-2.13,2.194A1.708,1.708,0,0,1,195.972,114.629Zm0,0" transform="translate(-148.867 -83.753)"/><path class="f" d="M408.125,81.76a1.712,1.712,0,0,1-1.229-2.905l2.13-2.194a1.713,1.713,0,0,1,2.458,2.386l-2.13,2.194A1.708,1.708,0,0,1,408.125,81.76Zm0,0" transform="translate(-311.865 -58.501)"/><path class="g" d="M408.125,445.142a1.712,1.712,0,0,1-1.229-2.905l2.13-2.194a1.713,1.713,0,1,1,2.458,2.386l-2.13,2.194A1.708,1.708,0,0,1,408.125,445.142Zm0,0" transform="translate(-311.865 -337.688)"/><path class="h" d="M57.394,94.28a1.712,1.712,0,0,1-1.228-2.905l2.13-2.194a1.712,1.712,0,1,1,2.457,2.386l-2.13,2.194A1.708,1.708,0,0,1,57.394,94.28Zm0,0" transform="translate(-42.396 -68.119)"/><path class="i" d="M6.632,260.191A1.712,1.712,0,0,1,5.4,257.286l2.129-2.194a1.713,1.713,0,1,1,2.458,2.386l-2.13,2.194A1.706,1.706,0,0,1,6.632,260.191Zm0,0" transform="translate(-3.396 -195.59)"/><path class="j" d="M173.156,198.137l-5.56,3.011a1.979,1.979,0,0,1-2.852-2.135l1.062-6.377a2.061,2.061,0,0,0-.565-1.792l-4.5-4.517a2.041,2.041,0,0,1,1.09-3.454l6.215-.93a1.968,1.968,0,0,0,1.48-1.108l2.78-5.8a1.941,1.941,0,0,1,3.525,0l2.779,5.8a1.971,1.971,0,0,0,1.48,1.108l6.216.93a2.041,2.041,0,0,1,1.089,3.454l-4.5,4.517a2.062,2.062,0,0,0-.566,1.792l1.062,6.377a1.978,1.978,0,0,1-2.851,2.135l-5.56-3.011A1.913,1.913,0,0,0,173.156,198.137Zm0,0" transform="translate(-122.658 -133.612)"/><path class="f" d="M214.56,411.829a1.712,1.712,0,0,1-1.712-1.712V383.334a1.712,1.712,0,1,1,3.425,0v26.782A1.712,1.712,0,0,1,214.56,411.829Zm0,0" transform="translate(-163.148 -293.202)"/><path class="f" d="M214.529,346.062H214.5a1.713,1.713,0,1,1,0-3.426h.026a1.713,1.713,0,0,1,0,3.426Zm0,0" transform="translate(-163.103 -263.25)"/><path class="h" d="M214.529,320.64h-.034a1.712,1.712,0,0,1,.007-3.425h.034a1.712,1.712,0,0,1-.007,3.425Zm0,0" transform="translate(-163.103 -243.718)"/><path class="d" d="M20.6,156.739a1.708,1.708,0,0,1-1.229-.52L.984,137.281A1.712,1.712,0,0,1,3.442,134.9l18.383,18.938a1.713,1.713,0,0,1-1.229,2.905Zm0,0" transform="translate(0 -103.242)"/><path class="h" d="M108.274,247.082a1.713,1.713,0,0,1-1.225-2.91l.019-.019a1.713,1.713,0,1,1,2.45,2.394l-.018.019A1.71,1.71,0,0,1,108.274,247.082Zm0,0" transform="translate(-81.487 -187.188)"/><path class="f" d="M125.725,265.058a1.712,1.712,0,0,1-1.228-2.905l.018-.02a1.713,1.713,0,0,1,2.458,2.387l-.019.019A1.708,1.708,0,0,1,125.725,265.058Zm0,0" transform="translate(-94.896 -200.999)"/><path class="g" d="M347.566,153.833a1.712,1.712,0,0,1-1.228-2.905l18.383-18.937a1.713,1.713,0,0,1,2.458,2.386l-18.383,18.937A1.708,1.708,0,0,1,347.566,153.833Zm0,0" transform="translate(-265.337 -101.01)"/><path class="e" d="M320.783,244.18a1.7,1.7,0,0,1-1.221-.512l-.019-.019a1.713,1.713,0,1,1,2.443-2.4l.019.019a1.713,1.713,0,0,1-1.222,2.913Zm0,0" transform="translate(-244.745 -184.958)"/><path class="h" d="M303.333,262.157a1.708,1.708,0,0,1-1.229-.52l-.019-.019a1.713,1.713,0,0,1,2.458-2.387l.019.019a1.713,1.713,0,0,1-1.229,2.906Zm0,0" transform="translate(-231.338 -198.771)"/><path class="i" d="M294.98,28.771a1.713,1.713,0,0,1-1.485-2.561L306.669,3.121a1.713,1.713,0,0,1,2.975,1.7L296.47,27.908A1.713,1.713,0,0,1,294.98,28.771Zm0,0" transform="translate(-224.936 -1.734)"/><path class="h" d="M275.774,138.925a1.706,1.706,0,0,1-.878-.243l-.023-.014a1.713,1.713,0,0,1,1.759-2.94l.023.014a1.712,1.712,0,0,1-.881,3.182Zm0,0" transform="translate(-210.162 -104.095)"/><path class="k" d="M263.266,160.842a1.7,1.7,0,0,1-.882-.246l-.023-.014a1.713,1.713,0,1,1,1.768-2.933l.023.014a1.713,1.713,0,0,1-.886,3.179Zm0,0" transform="translate(-200.553 -120.934)"/><path class="f" d="M90.589,28.77a1.712,1.712,0,0,1-1.49-.864L75.924,4.818A1.713,1.713,0,0,1,78.9,3.12L92.074,26.208a1.713,1.713,0,0,1-1.485,2.562Zm0,0" transform="translate(-57.776 -1.734)"/><path class="e" d="M153.408,138.925a1.712,1.712,0,0,1-.884-3.18l.024-.014a1.713,1.713,0,0,1,1.764,2.936l-.023.014A1.706,1.706,0,0,1,153.408,138.925Zm0,0" transform="translate(-116.163 -104.095)"/><path class="h" d="M165.916,160.842a1.713,1.713,0,0,1-.89-3.178l.023-.014a1.713,1.713,0,1,1,1.776,2.93l-.023.014A1.7,1.7,0,0,1,165.916,160.842Zm0,0" transform="translate(-125.773 -120.933)"/><path class="j" d="M367.576,300.65l-3.6,2.688a1.389,1.389,0,0,1-2.207-1.2l.117-4.576a1.45,1.45,0,0,0-.572-1.2l-3.593-2.693a1.45,1.45,0,0,1,.423-2.532l4.261-1.3a1.412,1.412,0,0,0,.927-.93l1.376-4.352a1.374,1.374,0,0,1,2.468-.368l2.517,3.773a1.38,1.38,0,0,0,1.145.621l4.444,0a1.436,1.436,0,0,1,1.1,2.305l-2.705,3.631a1.468,1.468,0,0,0-.22,1.314l1.371,4.355a1.411,1.411,0,0,1-1.787,1.792l-4.189-1.529A1.357,1.357,0,0,0,367.576,300.65Zm0,0" transform="translate(-274.017 -217.87)"/><path class="d" d="M255.83,387.561a1.712,1.712,0,0,1-1.712-1.712c0-13.26,5.29-22.224,9.728-27.41a35.624,35.624,0,0,1,9.844-8.218,1.713,1.713,0,0,1,1.55,3.055,32.934,32.934,0,0,0-8.889,7.506c-5.845,6.886-8.808,15.32-8.808,25.068A1.712,1.712,0,0,1,255.83,387.561Zm0,0" transform="translate(-194.856 -268.934)"/><path class="j" d="M79.352,344.243l2.726,3.616a1.376,1.376,0,0,0,2.444-.516l1.127-4.428a1.418,1.418,0,0,1,.873-.984l4.18-1.554a1.451,1.451,0,0,0,.28-2.552l-3.74-2.473a1.447,1.447,0,0,1-.639-1.159l-.143-4.576a1.385,1.385,0,0,0-2.27-1.063l-3.438,2.9a1.36,1.36,0,0,1-1.268.268l-4.268-1.274a1.415,1.415,0,0,0-1.682,1.9l1.615,4.266A1.469,1.469,0,0,1,75,337.934l-2.5,3.788a1.432,1.432,0,0,0,1.231,2.235l4.436-.264A1.375,1.375,0,0,1,79.352,344.243Zm0,0" transform="translate(-55.137 -252.18)"/><path class="g" d="M157.4,435.128a1.712,1.712,0,0,1-1.712-1.712,39.1,39.1,0,0,0-4.6-18.937,1.713,1.713,0,0,1,3.008-1.639,42.505,42.505,0,0,1,5.016,20.576A1.712,1.712,0,0,1,157.4,435.128Zm0,0" transform="translate(-115.537 -316.5)"/><path class="g" d="M238.446,40.2a4.6,4.6,0,1,0-4.6,4.735A4.667,4.667,0,0,0,238.446,40.2Zm0,0" transform="translate(-175.753 -27.248)"/><path class="f" d="M342.6,431.113a4.6,4.6,0,1,0-4.595,4.734A4.666,4.666,0,0,0,342.6,431.113Zm0,0" transform="translate(-255.777 -327.59)"/><path class="i" d="M19.684,438.265a3.687,3.687,0,1,0-3.686,3.8A3.742,3.742,0,0,0,19.684,438.265Zm0,0" transform="translate(-9.075 -333.805)"/><path class="f" d="M63.727,275.762a3.687,3.687,0,1,0-3.686,3.8A3.742,3.742,0,0,0,63.727,275.762Zm0,0" transform="translate(-42.914 -208.952)"/><g transform="translate(31.099)"><path class="d" d="M186.4,3.8a3.687,3.687,0,1,0-7.372,0,3.687,3.687,0,1,0,7.372,0Zm0,0" transform="translate(-168.259)"/><path class="d" d="M340.779,140.29a3.688,3.688,0,1,0-3.686,3.8A3.744,3.744,0,0,0,340.779,140.29Zm0,0" transform="translate(-286.872 -104.868)"/><path class="d" d="M134.277,14.113a1.713,1.713,0,0,1-1.229-2.905l2.13-2.194a1.712,1.712,0,1,1,2.457,2.386l-2.129,2.194A1.709,1.709,0,0,1,134.277,14.113Zm0,0" transform="translate(-132.565 -6.526)"/></g></g></g></svg>