<svg xmlns="http://www.w3.org/2000/svg" width="234" height="174.965" viewBox="0 0 234 174.965">
  <g id="illustration" transform="translate(-74 -369)">
    <g id="Group_46204" data-name="Group 46204" transform="translate(-496 7688)">
      <rect id="Rectangle_8186" data-name="Rectangle 8186" width="25" height="12" rx="1" transform="translate(591 -7319)" fill="#f8f8f8" opacity="0.27"/>
      <rect id="Rectangle_8186-2" data-name="Rectangle 8186" width="25" height="12" rx="1" transform="translate(622 -7319)" fill="#f8f8f8" opacity="0.27"/>
      <rect id="Rectangle_8186-3" data-name="Rectangle 8186" width="25" height="12" rx="1" transform="translate(653 -7319)" fill="#f8f8f8" opacity="0.27"/>
      <rect id="Rectangle_8186-4" data-name="Rectangle 8186" width="25" height="12" rx="1" transform="translate(684 -7319)" fill="#f8f8f8" opacity="0.27"/>
      <rect id="Rectangle_8186-5" data-name="Rectangle 8186" width="25" height="12" rx="1" transform="translate(715 -7319)" fill="#f8f8f8" opacity="0.27"/>
      <rect id="Rectangle_8186-6" data-name="Rectangle 8186" width="25" height="12" rx="1" transform="translate(746 -7319)" fill="#f8f8f8" opacity="0.27"/>
      <rect id="Rectangle_8186-7" data-name="Rectangle 8186" width="25" height="12" rx="1" transform="translate(777 -7319)" fill="#f8f8f8" opacity="0.27"/>
      <g id="Group_46138" data-name="Group 46138" transform="translate(535 -7674)">
        <g id="Rectangle_8150" data-name="Rectangle 8150" transform="translate(54 372)" fill="none" stroke="#de8b86" stroke-width="1">
          <rect width="29" height="16" rx="2" stroke="none"/>
          <rect x="0.5" y="0.5" width="28" height="15" rx="1.5" fill="none"/>
        </g>
        <rect id="Rectangle_8186-8" data-name="Rectangle 8186" width="25" height="12" rx="1" transform="translate(56 374)" fill="#de8b86" opacity="0.27"/>
      </g>
      <g id="Group_46139" data-name="Group 46139" transform="translate(566 -7674)">
        <g id="Rectangle_8150-2" data-name="Rectangle 8150" transform="translate(54 372)" fill="none" stroke="#de8b86" stroke-width="1">
          <rect width="29" height="16" rx="2" stroke="none"/>
          <rect x="0.5" y="0.5" width="28" height="15" rx="1.5" fill="none"/>
        </g>
        <rect id="Rectangle_8186-9" data-name="Rectangle 8186" width="25" height="12" rx="1" transform="translate(56 374)" fill="#de8b86" opacity="0.27"/>
      </g>
      <g id="Group_46140" data-name="Group 46140" transform="translate(597 -7674)">
        <g id="Rectangle_8150-3" data-name="Rectangle 8150" transform="translate(54 372)" fill="none" stroke="#de8b86" stroke-width="1">
          <rect width="29" height="16" rx="2" stroke="none"/>
          <rect x="0.5" y="0.5" width="28" height="15" rx="1.5" fill="none"/>
        </g>
        <rect id="Rectangle_8186-10" data-name="Rectangle 8186" width="25" height="12" rx="1" transform="translate(56 374)" fill="#de8b86" opacity="0.27"/>
      </g>
      <g id="Group_46141" data-name="Group 46141" transform="translate(628 -7674)">
        <g id="Rectangle_8150-4" data-name="Rectangle 8150" transform="translate(54 372)" fill="none" stroke="#de8b86" stroke-width="1">
          <rect width="29" height="16" rx="2" stroke="none"/>
          <rect x="0.5" y="0.5" width="28" height="15" rx="1.5" fill="none"/>
        </g>
        <rect id="Rectangle_8186-11" data-name="Rectangle 8186" width="25" height="12" rx="1" transform="translate(56 374)" fill="#de8b86" opacity="0.27"/>
      </g>
      <g id="Group_46142" data-name="Group 46142" transform="translate(659 -7674)">
        <g id="Rectangle_8150-5" data-name="Rectangle 8150" transform="translate(54 372)" fill="none" stroke="#de8b86" stroke-width="1">
          <rect width="29" height="16" rx="2" stroke="none"/>
          <rect x="0.5" y="0.5" width="28" height="15" rx="1.5" fill="none"/>
        </g>
        <rect id="Rectangle_8186-12" data-name="Rectangle 8186" width="25" height="12" rx="1" transform="translate(56 374)" fill="#de8b86" opacity="0.27"/>
      </g>
      <g id="Group_46143" data-name="Group 46143" transform="translate(690 -7674)">
        <g id="Rectangle_8150-6" data-name="Rectangle 8150" transform="translate(54 372)" fill="none" stroke="#de8b86" stroke-width="1">
          <rect width="29" height="16" rx="2" stroke="none"/>
          <rect x="0.5" y="0.5" width="28" height="15" rx="1.5" fill="none"/>
        </g>
        <rect id="Rectangle_8186-13" data-name="Rectangle 8186" width="25" height="12" rx="1" transform="translate(56 374)" fill="#de8b86" opacity="0.27"/>
      </g>
      <g id="Group_46144" data-name="Group 46144" transform="translate(721 -7674)">
        <g id="Rectangle_8150-7" data-name="Rectangle 8150" transform="translate(54 372)" fill="none" stroke="#de8b86" stroke-width="1">
          <rect width="29" height="16" rx="2" stroke="none"/>
          <rect x="0.5" y="0.5" width="28" height="15" rx="1.5" fill="none"/>
        </g>
        <rect id="Rectangle_8186-14" data-name="Rectangle 8186" width="25" height="12" rx="1" transform="translate(56 374)" fill="#de8b86" opacity="0.27"/>
      </g>
      <g id="Group_46146" data-name="Group 46146" transform="translate(535 -7655)">
        <g id="Rectangle_8150-8" data-name="Rectangle 8150" transform="translate(54 372)" fill="none" stroke="#de8b86" stroke-width="1">
          <rect width="29" height="16" rx="2" stroke="none"/>
          <rect x="0.5" y="0.5" width="28" height="15" rx="1.5" fill="none"/>
        </g>
        <rect id="Rectangle_8186-15" data-name="Rectangle 8186" width="25" height="12" rx="1" transform="translate(56 374)" fill="#de8b86" opacity="0.27"/>
      </g>
      <g id="Group_46147" data-name="Group 46147" transform="translate(566 -7655)">
        <g id="Rectangle_8150-9" data-name="Rectangle 8150" transform="translate(54 372)" fill="none" stroke="#de8b86" stroke-width="1">
          <rect width="29" height="16" rx="2" stroke="none"/>
          <rect x="0.5" y="0.5" width="28" height="15" rx="1.5" fill="none"/>
        </g>
        <rect id="Rectangle_8186-16" data-name="Rectangle 8186" width="25" height="12" rx="1" transform="translate(56 374)" fill="#de8b86" opacity="0.27"/>
      </g>
      <g id="Group_46148" data-name="Group 46148" transform="translate(597 -7655)">
        <g id="Rectangle_8150-10" data-name="Rectangle 8150" transform="translate(54 372)" fill="none" stroke="#de8b86" stroke-width="1">
          <rect width="29" height="16" rx="2" stroke="none"/>
          <rect x="0.5" y="0.5" width="28" height="15" rx="1.5" fill="none"/>
        </g>
        <rect id="Rectangle_8186-17" data-name="Rectangle 8186" width="25" height="12" rx="1" transform="translate(56 374)" fill="#de8b86" opacity="0.27"/>
      </g>
      <g id="Group_46149" data-name="Group 46149" transform="translate(628 -7655)">
        <g id="Rectangle_8150-11" data-name="Rectangle 8150" transform="translate(54 372)" fill="none" stroke="#de8b86" stroke-width="1">
          <rect width="29" height="16" rx="2" stroke="none"/>
          <rect x="0.5" y="0.5" width="28" height="15" rx="1.5" fill="none"/>
        </g>
        <rect id="Rectangle_8186-18" data-name="Rectangle 8186" width="25" height="12" rx="1" transform="translate(56 374)" fill="#de8b86" opacity="0.27"/>
      </g>
      <g id="Group_46150" data-name="Group 46150" transform="translate(659 -7655)">
        <g id="Rectangle_8150-12" data-name="Rectangle 8150" transform="translate(54 372)" fill="none" stroke="#de8b86" stroke-width="1">
          <rect width="29" height="16" rx="2" stroke="none"/>
          <rect x="0.5" y="0.5" width="28" height="15" rx="1.5" fill="none"/>
        </g>
        <rect id="Rectangle_8186-19" data-name="Rectangle 8186" width="25" height="12" rx="1" transform="translate(56 374)" fill="#de8b86" opacity="0.27"/>
      </g>
      <g id="Group_46151" data-name="Group 46151" transform="translate(690 -7655)">
        <g id="Rectangle_8150-13" data-name="Rectangle 8150" transform="translate(54 372)" fill="none" stroke="#de8b86" stroke-width="1">
          <rect width="29" height="16" rx="2" stroke="none"/>
          <rect x="0.5" y="0.5" width="28" height="15" rx="1.5" fill="none"/>
        </g>
        <rect id="Rectangle_8186-20" data-name="Rectangle 8186" width="25" height="12" rx="1" transform="translate(56 374)" fill="#de8b86" opacity="0.27"/>
      </g>
      <g id="Group_46152" data-name="Group 46152" transform="translate(721 -7655)">
        <g id="Rectangle_8150-14" data-name="Rectangle 8150" transform="translate(54 372)" fill="none" stroke="#de8b86" stroke-width="1">
          <rect width="29" height="16" rx="2" stroke="none"/>
          <rect x="0.5" y="0.5" width="28" height="15" rx="1.5" fill="none"/>
        </g>
        <rect id="Rectangle_8186-21" data-name="Rectangle 8186" width="25" height="12" rx="1" transform="translate(56 374)" fill="#de8b86" opacity="0.27"/>
      </g>
      <g id="Group_46154" data-name="Group 46154" transform="translate(535 -7636)">
        <g id="Rectangle_8150-15" data-name="Rectangle 8150" transform="translate(54 372)" fill="none" stroke="#de8b86" stroke-width="1">
          <rect width="29" height="16" rx="2" stroke="none"/>
          <rect x="0.5" y="0.5" width="28" height="15" rx="1.5" fill="none"/>
        </g>
        <rect id="Rectangle_8186-22" data-name="Rectangle 8186" width="25" height="12" rx="1" transform="translate(56 374)" fill="#de8b86" opacity="0.27"/>
      </g>
      <g id="Group_46155" data-name="Group 46155" transform="translate(566 -7636)">
        <g id="Rectangle_8150-16" data-name="Rectangle 8150" transform="translate(54 372)" fill="none" stroke="#de8b86" stroke-width="1">
          <rect width="29" height="16" rx="2" stroke="none"/>
          <rect x="0.5" y="0.5" width="28" height="15" rx="1.5" fill="none"/>
        </g>
        <rect id="Rectangle_8186-23" data-name="Rectangle 8186" width="25" height="12" rx="1" transform="translate(56 374)" fill="#de8b86" opacity="0.27"/>
      </g>
      <g id="Group_46156" data-name="Group 46156" transform="translate(597 -7636)">
        <g id="Rectangle_8150-17" data-name="Rectangle 8150" transform="translate(54 372)" fill="none" stroke="#de8b86" stroke-width="1">
          <rect width="29" height="16" rx="2" stroke="none"/>
          <rect x="0.5" y="0.5" width="28" height="15" rx="1.5" fill="none"/>
        </g>
        <rect id="Rectangle_8186-24" data-name="Rectangle 8186" width="25" height="12" rx="1" transform="translate(56 374)" fill="#de8b86" opacity="0.27"/>
      </g>
      <g id="Group_46157" data-name="Group 46157" transform="translate(628 -7636)">
        <g id="Rectangle_8150-18" data-name="Rectangle 8150" transform="translate(54 372)" fill="none" stroke="#de8b86" stroke-width="1">
          <rect width="29" height="16" rx="2" stroke="none"/>
          <rect x="0.5" y="0.5" width="28" height="15" rx="1.5" fill="none"/>
        </g>
        <rect id="Rectangle_8186-25" data-name="Rectangle 8186" width="25" height="12" rx="1" transform="translate(56 374)" fill="#de8b86" opacity="0.27"/>
      </g>
      <g id="Group_46158" data-name="Group 46158" transform="translate(659 -7636)">
        <g id="Rectangle_8150-19" data-name="Rectangle 8150" transform="translate(54 372)" fill="none" stroke="#de8b86" stroke-width="1">
          <rect width="29" height="16" rx="2" stroke="none"/>
          <rect x="0.5" y="0.5" width="28" height="15" rx="1.5" fill="none"/>
        </g>
        <rect id="Rectangle_8186-26" data-name="Rectangle 8186" width="25" height="12" rx="1" transform="translate(56 374)" fill="#de8b86" opacity="0.27"/>
      </g>
      <g id="Group_46159" data-name="Group 46159" transform="translate(690 -7636)">
        <g id="Rectangle_8150-20" data-name="Rectangle 8150" transform="translate(54 372)" fill="none" stroke="#de8b86" stroke-width="1">
          <rect width="29" height="16" rx="2" stroke="none"/>
          <rect x="0.5" y="0.5" width="28" height="15" rx="1.5" fill="none"/>
        </g>
        <rect id="Rectangle_8186-27" data-name="Rectangle 8186" width="25" height="12" rx="1" transform="translate(56 374)" fill="#de8b86" opacity="0.27"/>
      </g>
      <g id="Group_46160" data-name="Group 46160" transform="translate(721 -7636)">
        <g id="Rectangle_8150-21" data-name="Rectangle 8150" transform="translate(54 372)" fill="none" stroke="#de8b86" stroke-width="1">
          <rect width="29" height="16" rx="2" stroke="none"/>
          <rect x="0.5" y="0.5" width="28" height="15" rx="1.5" fill="none"/>
        </g>
        <rect id="Rectangle_8186-28" data-name="Rectangle 8186" width="25" height="12" rx="1" transform="translate(56 374)" fill="#de8b86" opacity="0.27"/>
      </g>
      <g id="Group_46162" data-name="Group 46162" transform="translate(535 -7617)">
        <g id="Rectangle_8150-22" data-name="Rectangle 8150" transform="translate(54 372)" fill="none" stroke="#de8b86" stroke-width="1">
          <rect width="29" height="16" rx="2" stroke="none"/>
          <rect x="0.5" y="0.5" width="28" height="15" rx="1.5" fill="none"/>
        </g>
        <rect id="Rectangle_8186-29" data-name="Rectangle 8186" width="25" height="12" rx="1" transform="translate(56 374)" fill="#de8b86" opacity="0.27"/>
      </g>
      <g id="Group_46163" data-name="Group 46163" transform="translate(566 -7617)">
        <g id="Rectangle_8150-23" data-name="Rectangle 8150" transform="translate(54 372)" fill="none" stroke="#de8b86" stroke-width="1">
          <rect width="29" height="16" rx="2" stroke="none"/>
          <rect x="0.5" y="0.5" width="28" height="15" rx="1.5" fill="none"/>
        </g>
        <rect id="Rectangle_8186-30" data-name="Rectangle 8186" width="25" height="12" rx="1" transform="translate(56 374)" fill="#de8b86" opacity="0.27"/>
      </g>
      <g id="Group_46164" data-name="Group 46164" transform="translate(597 -7617)">
        <g id="Rectangle_8150-24" data-name="Rectangle 8150" transform="translate(54 372)" fill="none" stroke="#de8b86" stroke-width="1">
          <rect width="29" height="16" rx="2" stroke="none"/>
          <rect x="0.5" y="0.5" width="28" height="15" rx="1.5" fill="none"/>
        </g>
        <rect id="Rectangle_8186-31" data-name="Rectangle 8186" width="25" height="12" rx="1" transform="translate(56 374)" fill="#de8b86" opacity="0.27"/>
      </g>
      <g id="Group_46165" data-name="Group 46165" transform="translate(628 -7617)">
        <g id="Rectangle_8150-25" data-name="Rectangle 8150" transform="translate(54 372)" fill="none" stroke="#de8b86" stroke-width="1">
          <rect width="29" height="16" rx="2" stroke="none"/>
          <rect x="0.5" y="0.5" width="28" height="15" rx="1.5" fill="none"/>
        </g>
        <rect id="Rectangle_8186-32" data-name="Rectangle 8186" width="25" height="12" rx="1" transform="translate(56 374)" fill="#de8b86" opacity="0.27"/>
      </g>
      <g id="Group_46166" data-name="Group 46166" transform="translate(659 -7617)">
        <g id="Rectangle_8150-26" data-name="Rectangle 8150" transform="translate(54 372)" fill="none" stroke="#de8b86" stroke-width="1">
          <rect width="29" height="16" rx="2" stroke="none"/>
          <rect x="0.5" y="0.5" width="28" height="15" rx="1.5" fill="none"/>
        </g>
        <rect id="Rectangle_8186-33" data-name="Rectangle 8186" width="25" height="12" rx="1" transform="translate(56 374)" fill="#de8b86" opacity="0.27"/>
      </g>
      <g id="Group_46167" data-name="Group 46167" transform="translate(690 -7617)">
        <g id="Rectangle_8150-27" data-name="Rectangle 8150" transform="translate(54 372)" fill="none" stroke="#de8b86" stroke-width="1">
          <rect width="29" height="16" rx="2" stroke="none"/>
          <rect x="0.5" y="0.5" width="28" height="15" rx="1.5" fill="none"/>
        </g>
        <rect id="Rectangle_8186-34" data-name="Rectangle 8186" width="25" height="12" rx="1" transform="translate(56 374)" fill="#de8b86" opacity="0.27"/>
      </g>
      <g id="Group_46168" data-name="Group 46168" transform="translate(721 -7617)">
        <g id="Rectangle_8150-28" data-name="Rectangle 8150" transform="translate(54 372)" fill="none" stroke="#de8b86" stroke-width="1">
          <rect width="29" height="16" rx="2" stroke="none"/>
          <rect x="0.5" y="0.5" width="28" height="15" rx="1.5" fill="none"/>
        </g>
        <rect id="Rectangle_8186-35" data-name="Rectangle 8186" width="25" height="12" rx="1" transform="translate(56 374)" fill="#de8b86" opacity="0.27"/>
      </g>
      <g id="Group_46170" data-name="Group 46170" transform="translate(535 -7598)">
        <g id="Rectangle_8150-29" data-name="Rectangle 8150" transform="translate(54 372)" fill="none" stroke="#de8b86" stroke-width="1">
          <rect width="29" height="16" rx="2" stroke="none"/>
          <rect x="0.5" y="0.5" width="28" height="15" rx="1.5" fill="none"/>
        </g>
        <rect id="Rectangle_8186-36" data-name="Rectangle 8186" width="25" height="12" rx="1" transform="translate(56 374)" fill="#de8b86" opacity="0.27"/>
      </g>
      <g id="Group_46171" data-name="Group 46171" transform="translate(566 -7598)">
        <g id="Rectangle_8150-30" data-name="Rectangle 8150" transform="translate(54 372)" fill="none" stroke="#de8b86" stroke-width="1">
          <rect width="29" height="16" rx="2" stroke="none"/>
          <rect x="0.5" y="0.5" width="28" height="15" rx="1.5" fill="none"/>
        </g>
        <rect id="Rectangle_8186-37" data-name="Rectangle 8186" width="25" height="12" rx="1" transform="translate(56 374)" fill="#de8b86" opacity="0.27"/>
      </g>
      <g id="Group_46172" data-name="Group 46172" transform="translate(597 -7598)">
        <g id="Rectangle_8150-31" data-name="Rectangle 8150" transform="translate(54 372)" fill="none" stroke="#de8b86" stroke-width="1">
          <rect width="29" height="16" rx="2" stroke="none"/>
          <rect x="0.5" y="0.5" width="28" height="15" rx="1.5" fill="none"/>
        </g>
        <rect id="Rectangle_8186-38" data-name="Rectangle 8186" width="25" height="12" rx="1" transform="translate(56 374)" fill="#de8b86" opacity="0.27"/>
      </g>
      <g id="Group_46173" data-name="Group 46173" transform="translate(628 -7598)">
        <g id="Rectangle_8150-32" data-name="Rectangle 8150" transform="translate(54 372)" fill="none" stroke="#de8b86" stroke-width="1">
          <rect width="29" height="16" rx="2" stroke="none"/>
          <rect x="0.5" y="0.5" width="28" height="15" rx="1.5" fill="none"/>
        </g>
        <rect id="Rectangle_8186-39" data-name="Rectangle 8186" width="25" height="12" rx="1" transform="translate(56 374)" fill="#de8b86" opacity="0.27"/>
      </g>
      <g id="Group_46174" data-name="Group 46174" transform="translate(659 -7598)">
        <g id="Rectangle_8150-33" data-name="Rectangle 8150" transform="translate(54 372)" fill="none" stroke="#de8b86" stroke-width="1">
          <rect width="29" height="16" rx="2" stroke="none"/>
          <rect x="0.5" y="0.5" width="28" height="15" rx="1.5" fill="none"/>
        </g>
        <rect id="Rectangle_8186-40" data-name="Rectangle 8186" width="25" height="12" rx="1" transform="translate(56 374)" fill="#de8b86" opacity="0.27"/>
      </g>
      <g id="Group_46175" data-name="Group 46175" transform="translate(690 -7598)">
        <g id="Rectangle_8150-34" data-name="Rectangle 8150" transform="translate(54 372)" fill="none" stroke="#de8b86" stroke-width="1">
          <rect width="29" height="16" rx="2" stroke="none"/>
          <rect x="0.5" y="0.5" width="28" height="15" rx="1.5" fill="none"/>
        </g>
        <rect id="Rectangle_8186-41" data-name="Rectangle 8186" width="25" height="12" rx="1" transform="translate(56 374)" fill="#de8b86" opacity="0.27"/>
      </g>
      <g id="Group_46176" data-name="Group 46176" transform="translate(721 -7598)">
        <g id="Rectangle_8150-35" data-name="Rectangle 8150" transform="translate(54 372)" fill="none" stroke="#de8b86" stroke-width="1">
          <rect width="29" height="16" rx="2" stroke="none"/>
          <rect x="0.5" y="0.5" width="28" height="15" rx="1.5" fill="none"/>
        </g>
        <rect id="Rectangle_8186-42" data-name="Rectangle 8186" width="25" height="12" rx="1" transform="translate(56 374)" fill="#de8b86" opacity="0.27"/>
      </g>
      <g id="Group_46178" data-name="Group 46178" transform="translate(535 -7579)">
        <g id="Rectangle_8150-36" data-name="Rectangle 8150" transform="translate(54 372)" fill="none" stroke="#de8b86" stroke-width="1">
          <rect width="29" height="16" rx="2" stroke="none"/>
          <rect x="0.5" y="0.5" width="28" height="15" rx="1.5" fill="none"/>
        </g>
        <rect id="Rectangle_8186-43" data-name="Rectangle 8186" width="25" height="12" rx="1" transform="translate(56 374)" fill="#de8b86" opacity="0.27"/>
      </g>
      <g id="Group_46179" data-name="Group 46179" transform="translate(566 -7579)">
        <g id="Rectangle_8150-37" data-name="Rectangle 8150" transform="translate(54 372)" fill="none" stroke="#de8b86" stroke-width="1">
          <rect width="29" height="16" rx="2" stroke="none"/>
          <rect x="0.5" y="0.5" width="28" height="15" rx="1.5" fill="none"/>
        </g>
        <rect id="Rectangle_8186-44" data-name="Rectangle 8186" width="25" height="12" rx="1" transform="translate(56 374)" fill="#de8b86" opacity="0.27"/>
      </g>
      <g id="Group_46180" data-name="Group 46180" transform="translate(597 -7579)">
        <g id="Rectangle_8150-38" data-name="Rectangle 8150" transform="translate(54 372)" fill="none" stroke="#de8b86" stroke-width="1">
          <rect width="29" height="16" rx="2" stroke="none"/>
          <rect x="0.5" y="0.5" width="28" height="15" rx="1.5" fill="none"/>
        </g>
        <rect id="Rectangle_8186-45" data-name="Rectangle 8186" width="25" height="12" rx="1" transform="translate(56 374)" fill="#de8b86" opacity="0.27"/>
      </g>
      <g id="Group_46181" data-name="Group 46181" transform="translate(628 -7579)">
        <g id="Rectangle_8150-39" data-name="Rectangle 8150" transform="translate(54 372)" fill="none" stroke="#de8b86" stroke-width="1">
          <rect width="29" height="16" rx="2" stroke="none"/>
          <rect x="0.5" y="0.5" width="28" height="15" rx="1.5" fill="none"/>
        </g>
        <rect id="Rectangle_8186-46" data-name="Rectangle 8186" width="25" height="12" rx="1" transform="translate(56 374)" fill="#de8b86" opacity="0.27"/>
      </g>
      <g id="Group_46182" data-name="Group 46182" transform="translate(659 -7579)">
        <g id="Rectangle_8150-40" data-name="Rectangle 8150" transform="translate(54 372)" fill="none" stroke="#de8b86" stroke-width="1">
          <rect width="29" height="16" rx="2" stroke="none"/>
          <rect x="0.5" y="0.5" width="28" height="15" rx="1.5" fill="none"/>
        </g>
        <rect id="Rectangle_8186-47" data-name="Rectangle 8186" width="25" height="12" rx="1" transform="translate(56 374)" fill="#de8b86" opacity="0.27"/>
      </g>
      <g id="Group_46183" data-name="Group 46183" transform="translate(690 -7579)">
        <g id="Rectangle_8150-41" data-name="Rectangle 8150" transform="translate(54 372)" fill="none" stroke="#de8b86" stroke-width="1">
          <rect width="29" height="16" rx="2" stroke="none"/>
          <rect x="0.5" y="0.5" width="28" height="15" rx="1.5" fill="none"/>
        </g>
        <rect id="Rectangle_8186-48" data-name="Rectangle 8186" width="25" height="12" rx="1" transform="translate(56 374)" fill="#de8b86" opacity="0.27"/>
      </g>
      <g id="Group_46184" data-name="Group 46184" transform="translate(721 -7579)">
        <g id="Rectangle_8150-42" data-name="Rectangle 8150" transform="translate(54 372)" fill="none" stroke="#de8b86" stroke-width="1">
          <rect width="29" height="16" rx="2" stroke="none"/>
          <rect x="0.5" y="0.5" width="28" height="15" rx="1.5" fill="none"/>
        </g>
        <rect id="Rectangle_8186-49" data-name="Rectangle 8186" width="25" height="12" rx="1" transform="translate(56 374)" fill="#de8b86" opacity="0.27"/>
      </g>
      <g id="Group_46186" data-name="Group 46186" transform="translate(535 -7560)">
        <g id="Rectangle_8150-43" data-name="Rectangle 8150" transform="translate(54 372)" fill="none" stroke="#de8b86" stroke-width="1">
          <rect width="29" height="16" rx="2" stroke="none"/>
          <rect x="0.5" y="0.5" width="28" height="15" rx="1.5" fill="none"/>
        </g>
        <rect id="Rectangle_8186-50" data-name="Rectangle 8186" width="25" height="12" rx="1" transform="translate(56 374)" fill="#de8b86" opacity="0.27"/>
      </g>
      <g id="Group_46187" data-name="Group 46187" transform="translate(566 -7560)">
        <g id="Rectangle_8150-44" data-name="Rectangle 8150" transform="translate(54 372)" fill="none" stroke="#de8b86" stroke-width="1">
          <rect width="29" height="16" rx="2" stroke="none"/>
          <rect x="0.5" y="0.5" width="28" height="15" rx="1.5" fill="none"/>
        </g>
        <rect id="Rectangle_8186-51" data-name="Rectangle 8186" width="25" height="12" rx="1" transform="translate(56 374)" fill="#de8b86" opacity="0.27"/>
      </g>
      <g id="Group_46188" data-name="Group 46188" transform="translate(597 -7560)">
        <g id="Rectangle_8150-45" data-name="Rectangle 8150" transform="translate(54 372)" fill="none" stroke="#de8b86" stroke-width="1">
          <rect width="29" height="16" rx="2" stroke="none"/>
          <rect x="0.5" y="0.5" width="28" height="15" rx="1.5" fill="none"/>
        </g>
        <rect id="Rectangle_8186-52" data-name="Rectangle 8186" width="25" height="12" rx="1" transform="translate(56 374)" fill="#de8b86" opacity="0.27"/>
      </g>
      <g id="Group_46189" data-name="Group 46189" transform="translate(628 -7560)">
        <g id="Rectangle_8150-46" data-name="Rectangle 8150" transform="translate(54 372)" fill="none" stroke="#de8b86" stroke-width="1">
          <rect width="29" height="16" rx="2" stroke="none"/>
          <rect x="0.5" y="0.5" width="28" height="15" rx="1.5" fill="none"/>
        </g>
        <rect id="Rectangle_8186-53" data-name="Rectangle 8186" width="25" height="12" rx="1" transform="translate(56 374)" fill="#de8b86" opacity="0.27"/>
      </g>
      <g id="Group_46190" data-name="Group 46190" transform="translate(659 -7560)">
        <g id="Rectangle_8150-47" data-name="Rectangle 8150" transform="translate(54 372)" fill="none" stroke="#de8b86" stroke-width="1">
          <rect width="29" height="16" rx="2" stroke="none"/>
          <rect x="0.5" y="0.5" width="28" height="15" rx="1.5" fill="none"/>
        </g>
        <rect id="Rectangle_8186-54" data-name="Rectangle 8186" width="25" height="12" rx="1" transform="translate(56 374)" fill="#de8b86" opacity="0.27"/>
      </g>
      <g id="Group_46191" data-name="Group 46191" transform="translate(690 -7560)">
        <g id="Rectangle_8150-48" data-name="Rectangle 8150" transform="translate(54 372)" fill="none" stroke="#de8b86" stroke-width="1">
          <rect width="29" height="16" rx="2" stroke="none"/>
          <rect x="0.5" y="0.5" width="28" height="15" rx="1.5" fill="none"/>
        </g>
        <rect id="Rectangle_8186-55" data-name="Rectangle 8186" width="25" height="12" rx="1" transform="translate(56 374)" fill="#de8b86" opacity="0.27"/>
      </g>
      <g id="Group_46192" data-name="Group 46192" transform="translate(721 -7560)">
        <g id="Rectangle_8150-49" data-name="Rectangle 8150" transform="translate(54 372)" fill="none" stroke="#de8b86" stroke-width="1">
          <rect width="29" height="16" rx="2" stroke="none"/>
          <rect x="0.5" y="0.5" width="28" height="15" rx="1.5" fill="none"/>
        </g>
        <rect id="Rectangle_8186-56" data-name="Rectangle 8186" width="25" height="12" rx="1" transform="translate(56 374)" fill="#de8b86" opacity="0.27"/>
      </g>
      <rect id="Rectangle_8186-57" data-name="Rectangle 8186" width="15" height="12" rx="1" transform="translate(570 -7300)" fill="#f8f8f8" opacity="0.27"/>
      <rect id="Rectangle_8186-58" data-name="Rectangle 8186" width="15" height="12" rx="1" transform="translate(570 -7281)" fill="#f8f8f8" opacity="0.27"/>
      <rect id="Rectangle_8186-59" data-name="Rectangle 8186" width="15" height="12" rx="1" transform="translate(570 -7262)" fill="#f8f8f8" opacity="0.27"/>
      <rect id="Rectangle_8186-60" data-name="Rectangle 8186" width="15" height="12" rx="1" transform="translate(570 -7243)" fill="#f8f8f8" opacity="0.27"/>
      <rect id="Rectangle_8186-61" data-name="Rectangle 8186" width="15" height="12" rx="1" transform="translate(570 -7224)" fill="#f8f8f8" opacity="0.27"/>
      <rect id="Rectangle_8186-62" data-name="Rectangle 8186" width="15" height="12" rx="1" transform="translate(570 -7205)" fill="#f8f8f8" opacity="0.27"/>
      <rect id="Rectangle_8186-63" data-name="Rectangle 8186" width="15" height="12" rx="1" transform="translate(570 -7186)" fill="#f8f8f8" opacity="0.27"/>
      <rect id="Rectangle_8186-64" data-name="Rectangle 8186" width="15" height="12" rx="1" transform="translate(570 -7167)" fill="#f8f8f8" opacity="0.27"/>
      <g id="Group_46194" data-name="Group 46194" transform="translate(535 -7541)">
        <g id="Rectangle_8150-50" data-name="Rectangle 8150" transform="translate(54 372)" fill="none" stroke="#de8b86" stroke-width="1">
          <rect width="29" height="16" rx="2" stroke="none"/>
          <rect x="0.5" y="0.5" width="28" height="15" rx="1.5" fill="none"/>
        </g>
        <rect id="Rectangle_8186-65" data-name="Rectangle 8186" width="25" height="12" rx="1" transform="translate(56 374)" fill="#de8b86" opacity="0.27"/>
      </g>
      <g id="Group_46195" data-name="Group 46195" transform="translate(566 -7541)">
        <g id="Rectangle_8150-51" data-name="Rectangle 8150" transform="translate(54 372)" fill="none" stroke="#de8b86" stroke-width="1">
          <rect width="29" height="16" rx="2" stroke="none"/>
          <rect x="0.5" y="0.5" width="28" height="15" rx="1.5" fill="none"/>
        </g>
        <rect id="Rectangle_8186-66" data-name="Rectangle 8186" width="25" height="12" rx="1" transform="translate(56 374)" fill="#de8b86" opacity="0.27"/>
      </g>
      <g id="Group_46196" data-name="Group 46196" transform="translate(597 -7541)">
        <g id="Rectangle_8150-52" data-name="Rectangle 8150" transform="translate(54 372)" fill="none" stroke="#de8b86" stroke-width="1">
          <rect width="29" height="16" rx="2" stroke="none"/>
          <rect x="0.5" y="0.5" width="28" height="15" rx="1.5" fill="none"/>
        </g>
        <rect id="Rectangle_8186-67" data-name="Rectangle 8186" width="25" height="12" rx="1" transform="translate(56 374)" fill="#de8b86" opacity="0.27"/>
      </g>
      <g id="Group_46197" data-name="Group 46197" transform="translate(628 -7541)">
        <g id="Rectangle_8150-53" data-name="Rectangle 8150" transform="translate(54 372)" fill="none" stroke="#de8b86" stroke-width="1">
          <rect width="29" height="16" rx="2" stroke="none"/>
          <rect x="0.5" y="0.5" width="28" height="15" rx="1.5" fill="none"/>
        </g>
        <rect id="Rectangle_8186-68" data-name="Rectangle 8186" width="25" height="12" rx="1" transform="translate(56 374)" fill="#de8b86" opacity="0.27"/>
      </g>
      <g id="Group_46198" data-name="Group 46198" transform="translate(659 -7541)">
        <g id="Rectangle_8150-54" data-name="Rectangle 8150" transform="translate(54 372)" fill="none" stroke="#de8b86" stroke-width="1">
          <rect width="29" height="16" rx="2" stroke="none"/>
          <rect x="0.5" y="0.5" width="28" height="15" rx="1.5" fill="none"/>
        </g>
        <rect id="Rectangle_8186-69" data-name="Rectangle 8186" width="25" height="12" rx="1" transform="translate(56 374)" fill="#de8b86" opacity="0.27"/>
      </g>
      <g id="Group_46199" data-name="Group 46199" transform="translate(690 -7541)">
        <g id="Rectangle_8150-55" data-name="Rectangle 8150" transform="translate(54 372)" fill="none" stroke="#de8b86" stroke-width="1">
          <rect width="29" height="16" rx="2" stroke="none"/>
          <rect x="0.5" y="0.5" width="28" height="15" rx="1.5" fill="none"/>
        </g>
        <rect id="Rectangle_8186-70" data-name="Rectangle 8186" width="25" height="12" rx="1" transform="translate(56 374)" fill="#de8b86" opacity="0.27"/>
      </g>
      <g id="Group_46200" data-name="Group 46200" transform="translate(721 -7541)">
        <g id="Rectangle_8150-56" data-name="Rectangle 8150" transform="translate(54 372)" fill="none" stroke="#de8b86" stroke-width="1">
          <rect width="29" height="16" rx="2" stroke="none"/>
          <rect x="0.5" y="0.5" width="28" height="15" rx="1.5" fill="none"/>
        </g>
        <rect id="Rectangle_8186-71" data-name="Rectangle 8186" width="25" height="12" rx="1" transform="translate(56 374)" fill="#de8b86" opacity="0.27"/>
      </g>
    </g>
    <g id="Group_46128" data-name="Group 46128" transform="translate(-419 7504)">
      <g id="Group_46125" data-name="Group 46125">
        <g id="Group_45245" data-name="Group 45245" transform="translate(619.329 -7093.669)">
          <g id="Group_45244" data-name="Group 45244">
            <g id="Ellipse_2061" data-name="Ellipse 2061" fill="#f8f8f8" stroke="#8a5d64" stroke-width="2">
              <circle cx="4.841" cy="4.841" r="4.841" stroke="none"/>
              <circle cx="4.841" cy="4.841" r="5.841" fill="none"/>
            </g>
          </g>
        </g>
        <g id="Group_45247" data-name="Group 45247" transform="translate(671.445 -7083.089)">
          <g id="Group_45246" data-name="Group 45246">
            <g id="Ellipse_2062" data-name="Ellipse 2062" fill="#f8f8f8" stroke="#8a5d64" stroke-width="2">
              <circle cx="4.841" cy="4.841" r="4.841" stroke="none"/>
              <circle cx="4.841" cy="4.841" r="5.841" fill="none"/>
            </g>
          </g>
        </g>
        <g id="Group_45249" data-name="Group 45249" transform="translate(669.983 -7029.613)">
          <g id="Group_45248" data-name="Group 45248">
            <g id="Ellipse_2063" data-name="Ellipse 2063" fill="#f8f8f8" stroke="#8a5d64" stroke-width="2">
              <circle cx="6.685" cy="6.685" r="6.685" stroke="none"/>
              <circle cx="6.685" cy="6.685" r="7.685" fill="none"/>
            </g>
          </g>
        </g>
        <g id="Group_45251" data-name="Group 45251" transform="translate(548.446 -7107.102)">
          <g id="Group_45250" data-name="Group 45250">
            <g id="Ellipse_2064" data-name="Ellipse 2064" fill="#f8f8f8" stroke="#8a5d64" stroke-width="2">
              <circle cx="6.685" cy="6.685" r="6.685" stroke="none"/>
              <circle cx="6.685" cy="6.685" r="7.685" fill="none"/>
            </g>
          </g>
        </g>
        <g id="Group_45253" data-name="Group 45253" transform="translate(541.647 -7037.528)">
          <g id="Group_45252" data-name="Group 45252">
            <g id="Ellipse_2065" data-name="Ellipse 2065" fill="#f8f8f8" stroke="#8a5d64" stroke-width="2">
              <circle cx="4.062" cy="4.062" r="4.062" stroke="none"/>
              <circle cx="4.062" cy="4.062" r="5.062" fill="none"/>
            </g>
          </g>
        </g>
      </g>
      <g id="Group_46124" data-name="Group 46124">
        <g id="Group_45243" data-name="Group 45243" transform="translate(584.899 -7061.575)">
          <g id="Group_45242" data-name="Group 45242">
            <g id="Path_117127" data-name="Path 117127" transform="translate(-160.554 -160.871)" fill="#f8f8f8" stroke-linejoin="round">
              <path d="M 163.6540985107422 183.9811859130859 L 162.9992980957031 183.2256469726562 C 160.7775726318359 180.6621704101562 159.5540161132812 177.3804016113281 159.5540161132812 173.98486328125 C 159.5540161132812 166.2024536132812 165.8855895996094 159.8710021972656 173.6681518554688 159.8710021972656 C 181.4502410888672 159.8710021972656 187.7814331054688 166.2025909423828 187.7814483642578 173.9851684570312 C 187.7814483642578 177.3291625976562 186.5912170410156 180.5721893310547 184.4300079345703 183.1168365478516 L 183.78271484375 183.8789520263672 L 183.0205383300781 183.2317504882812 L 181.5060882568359 181.9457702636719 L 180.7438201904297 181.2984771728516 L 181.3911285400391 180.5362091064453 C 182.9413146972656 178.7107086181641 183.7950439453125 176.3840789794922 183.7950439453125 173.98486328125 C 183.7950439453125 168.4007263183594 179.2521514892578 163.8576965332031 173.6681518554688 163.8576965332031 C 168.0838470458984 163.8576965332031 163.5406951904297 168.4007263183594 163.5406951904297 173.98486328125 C 163.5406951904297 176.4218597412109 164.4184417724609 178.7763519287109 166.0122375488281 180.6145935058594 L 166.6675872802734 181.3704528808594 L 165.9114990234375 182.0254974365234 L 164.4097747802734 183.3265228271484 L 163.6540985107422 183.9811859130859 Z" stroke="none"/>
              <path d="M 173.6681518554688 160.8710021972656 C 166.4368438720703 160.8710021972656 160.5540161132812 166.7538452148438 160.5540161132812 173.98486328125 C 160.5540161132812 177.1398620605469 161.6907806396484 180.1889953613281 163.7549743652344 182.5707092285156 L 165.2566986083984 181.2696838378906 C 163.5048370361328 179.2491455078125 162.5406951904297 176.662109375 162.5406951904297 173.98486328125 C 162.5406951904297 167.8492736816406 167.5322875976562 162.8576965332031 173.6681518554688 162.8576965332031 C 179.8031768798828 162.8576965332031 184.7950439453125 167.8492736816406 184.7950439453125 173.98486328125 C 184.7950439453125 176.6213684082031 183.8566436767578 179.177734375 182.1533660888672 181.1835021972656 L 183.6678009033203 182.469482421875 C 185.6758880615234 180.1051330566406 186.7814483642578 177.0921630859375 186.7814483642578 173.9851684570312 C 186.7814331054688 166.7538452148438 180.8985900878906 160.8710021972656 173.6681518554688 160.8710021972656 M 173.6681518554688 158.8710021972656 C 182.0016326904297 158.8710021972656 188.7814331054688 165.6511840820312 188.7814483642578 173.9851684570312 C 188.7814483642578 177.5660552978516 187.5067596435547 181.0389709472656 185.1921997070312 183.7641754150391 C 184.4772186279297 184.6060028076172 183.2151947021484 184.7089385986328 182.3732604980469 183.9940032958984 L 180.8588256835938 182.7080230712891 C 180.4544830322266 182.3646850585938 180.2031097412109 181.8747863769531 180.1599884033203 181.3460998535156 C 180.1168670654297 180.8174133300781 180.2855224609375 180.2932586669922 180.6288757324219 179.8889312744141 C 182.0257568359375 178.2439727783203 182.7950439453125 176.1472015380859 182.7950439453125 173.98486328125 C 182.7950439453125 168.9521331787109 178.7007293701172 164.8576965332031 173.6681518554688 164.8576965332031 C 168.63525390625 164.8576965332031 164.5406951904297 168.9521331787109 164.5406951904297 173.98486328125 C 164.5406951904297 176.1812286376953 165.3316345214844 178.3030700683594 166.7678070068359 179.9595184326172 C 167.1153717041016 180.3603820800781 167.2893981933594 180.8829345703125 167.2516174316406 181.4121551513672 C 167.2138214111328 181.9413757324219 166.9673004150391 182.4338836669922 166.5662841796875 182.7812957763672 L 165.0645599365234 184.0823211669922 C 164.2298431396484 184.8054656982422 162.9669189453125 184.7151641845703 162.2436065673828 183.8805847167969 C 159.8643341064453 181.1353302001953 158.5540161132812 177.6209564208984 158.5540161132812 173.98486328125 C 158.5540161132812 165.6510620117188 165.3341827392578 158.8710021972656 173.6681518554688 158.8710021972656 Z" stroke="none" fill="#8a5d64"/>
            </g>
          </g>
        </g>
      </g>
      <g id="Group_46123" data-name="Group 46123">
        <g id="Group_45271" data-name="Group 45271" transform="translate(560.359 -7093.22)">
          <g id="Group_45270" data-name="Group 45270">
            <g id="Group_45269" data-name="Group 45269">
              <g id="Path_117133" data-name="Path 117133" transform="translate(-75.694 -51.443)" fill="#f8f8f8">
                <path d="M 92.57345581054688 72.87883758544922 L 92.24493408203125 72.50184631347656 L 90.97889709472656 71.04899597167969 L 90.65044403076172 70.67208099365234 L 91.02732086181641 70.34358978271484 L 92.52499389648438 69.03821563720703 L 92.90195465087891 68.70965576171875 L 93.23048400878906 69.08664703369141 L 94.49653625488281 70.53949737548828 L 94.82498168945312 70.91641998291016 L 94.44809722900391 71.24491119384766 L 92.95041656494141 72.55027770996094 L 92.57345581054688 72.87883758544922 Z M 90.00228118896484 69.927978515625 L 89.67380523681641 69.55101776123047 L 88.36872100830078 68.05333709716797 L 88.04024505615234 67.67637634277344 L 88.41720581054688 67.347900390625 L 89.91488647460938 66.04281616210938 L 90.29184722900391 65.71434020996094 L 90.62032318115234 66.09130096435547 L 91.92540740966797 67.58898162841797 L 92.25388336181641 67.96593475341797 L 91.87692260742188 68.29441833496094 L 90.37924194335938 69.59949493408203 L 90.00228118896484 69.927978515625 Z M 87.39182281494141 66.93262481689453 L 87.06334686279297 66.55567169189453 L 85.75827026367188 65.05799102783203 L 85.42979431152344 64.6810302734375 L 85.80675506591797 64.35254669189453 L 87.30443572998047 63.04745864868164 L 87.681396484375 62.71896743774414 L 88.00987243652344 63.09593963623047 L 89.31494140625 64.5936279296875 L 89.64342498779297 64.97058868408203 L 89.26646423339844 65.29906463623047 L 87.76878356933594 66.60414886474609 L 87.39182281494141 66.93262481689453 Z M 84.78167724609375 63.9372673034668 L 84.45319366455078 63.56030654907227 L 83.14811706542969 62.06262969970703 L 82.81963348388672 61.6856689453125 L 83.19659423828125 61.3571891784668 L 84.69427490234375 60.05210876464844 L 85.07123565673828 59.72362899780273 L 85.39971160888672 60.10058975219727 L 86.70479583740234 61.5982666015625 L 87.03327178955078 61.97522735595703 L 86.65631103515625 62.30370712280273 L 85.15863037109375 63.60878753662109 L 84.78167724609375 63.9372673034668 Z M 82.17122650146484 60.94190979003906 L 81.84274291992188 60.56494903564453 L 80.53766632080078 59.06726837158203 L 80.20918273925781 58.6903076171875 L 80.58614349365234 58.3618278503418 L 82.08381652832031 57.05674743652344 L 82.46076202392578 56.72826766967773 L 82.78925323486328 57.10522842407227 L 84.09434509277344 58.60290908813477 L 84.42282104492188 58.9798698425293 L 84.04586029052734 59.308349609375 L 82.54818725585938 60.61342620849609 L 82.17122650146484 60.94190979003906 Z M 79.56105041503906 57.94654846191406 L 79.23257446289062 57.56958770751953 L 77.92749786376953 56.07191848754883 L 77.59901428222656 55.6949577331543 L 77.97597503662109 55.36647796630859 L 79.47365570068359 54.06139755249023 L 79.85061645507812 53.73291778564453 L 80.17909240722656 54.10987854003906 L 81.48417663574219 55.60755920410156 L 81.81265258789062 55.98451614379883 L 81.43569183349609 56.3129997253418 L 79.93801116943359 57.61806869506836 L 79.56105041503906 57.94654846191406 Z M 76.95061492919922 54.95119857788086 L 76.62212371826172 54.57423782348633 L 75.31704711914062 53.07656860351562 L 74.98856353759766 52.69961929321289 L 75.36551666259766 52.37112808227539 L 76.86318206787109 51.06603622436523 L 77.24014282226562 50.737548828125 L 77.56863403320312 51.11451721191406 L 78.87371063232422 52.61219787597656 L 79.20219421386719 52.98915863037109 L 78.82523345947266 53.3176383972168 L 77.32756042480469 54.62271881103516 L 76.95061492919922 54.95119857788086 Z" stroke="none"/>
                <path d="M 77.19167327880859 51.44300079345703 L 75.69400024414062 52.74808502197266 L 76.99908447265625 54.24576568603516 L 78.49675750732422 52.94068145751953 L 77.19167327880859 51.44300079345703 M 79.80213165283203 54.4383544921875 L 78.30445098876953 55.74343872070312 L 79.60953521728516 57.24111175537109 L 81.10721588134766 55.93603515625 L 79.80213165283203 54.4383544921875 M 82.41229248046875 57.43370819091797 L 80.91462707519531 58.73878479003906 L 82.21970367431641 60.23646926879883 L 83.71738433837891 58.93138885498047 L 82.41229248046875 57.43370819091797 M 85.02275085449219 60.42906951904297 L 83.52507781982422 61.73414611816406 L 84.83015441894531 63.23181915283203 L 86.32783508300781 61.9267463684082 L 85.02275085449219 60.42906951904297 M 87.63291168212891 63.42441940307617 L 86.13523101806641 64.72950744628906 L 87.4403076171875 66.22718811035156 L 88.93798065185547 64.92210388183594 L 87.63291168212891 63.42441940307617 M 90.24336242675781 66.41977691650391 L 88.74568176269531 67.724853515625 L 90.05076599121094 69.2225341796875 L 91.54844665527344 67.91745758056641 L 90.24336242675781 66.41977691650391 M 92.85352325439453 69.41513824462891 L 91.35585784912109 70.72050476074219 L 92.62189483642578 72.17335510253906 L 94.11957550048828 70.86798858642578 L 92.85352325439453 69.41513824462891 M 77.28862762451172 50.0321044921875 L 79.89891052246094 53.02761840820312 L 79.89908599853516 53.0274658203125 L 85.11954498291016 59.01831817626953 L 85.11970520019531 59.01818084716797 L 87.72986602783203 62.0135383605957 L 87.72987365722656 62.01352691650391 L 90.34013366699219 65.00904846191406 L 90.34031677246094 65.00888824462891 L 95.5303955078125 70.96484375 L 92.5250244140625 73.58432006835938 L 89.94503784179688 70.62364959716797 L 89.94518280029297 70.62351989746094 L 87.34352111816406 67.63792419433594 L 87.34334564208984 67.63807678222656 L 82.12291717529297 61.647216796875 L 82.12275695800781 61.64735794067383 L 76.90229797363281 55.65651702880859 L 76.90213775634766 55.65665435791016 L 74.28312683105469 52.65113830566406 L 77.28862762451172 50.0321044921875 Z" stroke="none" fill="#8a5d64"/>
              </g>
            </g>
          </g>
        </g>
        <g id="Group_45274" data-name="Group 45274" transform="translate(581.603 -7068.721)">
          <g id="Group_45273" data-name="Group 45273">
            <g id="Group_45272" data-name="Group 45272">
              <g id="Path_117134" data-name="Path 117134" transform="translate(-149.156 -136.161)" fill="#f8f8f8">
                <path d="M 155.6332397460938 145.6602020263672 L 155.3047485351562 145.2832489013672 L 153.9996490478516 143.7855834960938 L 153.6711578369141 143.4086303710938 L 154.0481414794922 143.0801391601562 L 155.5458068847656 141.7750396728516 L 155.9227752685547 141.4465637207031 L 156.2512512207031 141.8235321044922 L 157.5563201904297 143.3212127685547 L 157.8848114013672 143.6981658935547 L 157.5078430175781 144.0266418457031 L 156.0101776123047 145.3317108154297 L 155.6332397460938 145.6602020263672 Z M 153.0233459472656 142.66455078125 L 152.6948699951172 142.2875823974609 L 151.3897705078125 140.7899017333984 L 151.061279296875 140.4129486083984 L 151.4382476806641 140.08447265625 L 152.9359436035156 138.7794036865234 L 153.3128967285156 138.4509124755859 L 153.6413879394531 138.827880859375 L 154.9464569091797 140.3255462646484 L 155.2749481201172 140.7024993896484 L 154.8979797363281 141.0309906005859 L 153.4002990722656 142.3360595703125 L 153.0233459472656 142.66455078125 Z M 150.41259765625 139.6692199707031 L 150.0841217041016 139.2922515869141 L 148.7790374755859 137.7945709228516 L 148.4505615234375 137.4176177978516 L 148.8275146484375 137.0891418457031 L 150.3251953125 135.7840423583984 L 150.7021636962891 135.4555511474609 L 151.0306396484375 135.83251953125 L 152.3357086181641 137.3302001953125 L 152.6641998291016 137.7071533203125 L 152.2872467041016 138.0356292724609 L 150.7895660400391 139.3407440185547 L 150.41259765625 139.6692199707031 Z" stroke="none"/>
                <path d="M 150.6536865234375 136.1609954833984 L 149.156005859375 137.4660949707031 L 150.4610748291016 138.9637756347656 L 151.9587554931641 137.6586761474609 L 150.6536865234375 136.1609954833984 M 153.2644195556641 139.1563568115234 L 151.7667388916016 140.46142578125 L 153.0718231201172 141.9591064453125 L 154.5695037841797 140.6540222167969 L 153.2644195556641 139.1563568115234 M 155.8742980957031 142.1520080566406 L 154.3766174316406 143.4570922851562 L 155.6817016601562 144.9547576904297 L 157.1793670654297 143.6496887207031 L 155.8742980957031 142.1520080566406 M 150.7506408691406 134.7501068115234 L 153.3610534667969 137.7457733154297 L 153.3613891601562 137.7454833984375 L 155.9803924560547 140.7509765625 L 155.9800720214844 140.7512512207031 L 158.5902404785156 143.7466430664062 L 155.5847625732422 146.3656311035156 L 152.9657287597656 143.3601531982422 L 152.9660491943359 143.35986328125 L 150.3644714355469 140.3743591308594 L 150.3641204833984 140.3746643066406 L 147.7451171875 137.369140625 L 150.7506408691406 134.7501068115234 Z" stroke="none" fill="#8a5d64"/>
              </g>
            </g>
          </g>
        </g>
        <g id="Group_45277" data-name="Group 45277" transform="translate(605.005 -7070.369)">
          <g id="Group_45276" data-name="Group 45276">
            <g id="Group_45275" data-name="Group 45275">
              <g id="Path_117135" data-name="Path 117135" transform="translate(-230.083 -130.462)" fill="#f8f8f8">
                <path d="M 231.8892669677734 140.5523681640625 L 231.4709777832031 140.2784271240234 L 229.8090362548828 139.18994140625 L 229.3907165527344 138.9159851074219 L 229.6647338867188 138.4976959228516 L 230.7532348632812 136.8360290527344 L 231.0271606445312 136.4178619384766 L 231.4453887939453 136.6917114257812 L 233.1072998046875 137.7799072265625 L 233.5256500244141 138.0538330078125 L 233.2516784667969 138.4721527099609 L 232.1632080078125 140.1340942382812 L 231.8892669677734 140.5523681640625 Z M 234.06591796875 137.2285003662109 L 233.6476593017578 136.9545593261719 L 231.9857177734375 135.8660736083984 L 231.5674285888672 135.5921020507812 L 231.8414154052734 135.173828125 L 232.9298858642578 133.5121765136719 L 233.2038116455078 133.0940093994141 L 233.6220397949219 133.3678588867188 L 235.2839965820312 134.4560546875 L 235.7023620605469 134.72998046875 L 235.4283752441406 135.1483154296875 L 234.3398742675781 136.8102264404297 L 234.06591796875 137.2285003662109 Z M 236.2426147460938 133.904296875 L 235.8243560791016 133.6304321289062 L 234.1624450683594 132.542236328125 L 233.7440795898438 132.2682952880859 L 234.01806640625 131.8499755859375 L 235.1065673828125 130.1880493164062 L 235.3804931640625 129.7698364257812 L 235.7987365722656 130.0436859130859 L 237.4606781005859 131.1318969726562 L 237.8790283203125 131.4058380126953 L 237.6050415039062 131.8241577148438 L 236.5165252685547 133.486083984375 L 236.2426147460938 133.904296875 Z" stroke="none"/>
                <path d="M 231.7449340820312 139.8601531982422 L 232.8334045410156 138.1982116699219 L 231.1714782714844 137.1100158691406 L 230.0829772949219 138.7716674804688 L 231.7449340820312 139.8601531982422 M 233.9216003417969 136.5362854003906 L 235.0101013183594 134.8743591308594 L 233.34814453125 133.7861633300781 L 232.2596740722656 135.4477996826172 L 233.9216003417969 136.5362854003906 M 236.0982666015625 133.2121276855469 L 237.186767578125 131.5502014160156 L 235.5248413085938 130.4620056152344 L 234.4363403320312 132.1239318847656 L 236.0982666015625 133.2121276855469 M 232.0335998535156 141.2445983886719 L 228.6984710693359 139.0602874755859 L 230.8756256103516 135.7367248535156 L 230.8751678466797 135.7364044189453 L 233.0522308349609 132.4129333496094 L 233.0518341064453 132.4126739501953 L 235.2361297607422 129.0776672363281 L 238.5712890625 131.2614593505859 L 236.3942413330078 134.5853576660156 L 236.3946228027344 134.5856170654297 L 234.2176971435547 137.9093322753906 L 234.2178955078125 137.9094543457031 L 232.0335998535156 141.2445983886719 Z" stroke="none" fill="#8a5d64"/>
              </g>
            </g>
          </g>
        </g>
        <g id="Group_45280" data-name="Group 45280" transform="translate(629.361 -7075.88)">
          <g id="Group_45279" data-name="Group 45279">
            <g id="Group_45278" data-name="Group 45278">
              <g id="Path_117136" data-name="Path 117136" transform="translate(-314.304 -111.404)" fill="#f8f8f8">
                <path d="M 314.7920227050781 129.8296508789062 L 314.6010131835938 129.3676452636719 L 313.8419189453125 127.5316162109375 L 313.6508483886719 127.0694885253906 L 314.1130065917969 126.8784866333008 L 315.9490051269531 126.1196746826172 L 316.4110107421875 125.9287261962891 L 316.60205078125 126.3907165527344 L 317.3611755371094 128.2267456054688 L 317.55224609375 128.6888732910156 L 317.090087890625 128.8798828125 L 315.2540588378906 129.6387023925781 L 314.7920227050781 129.8296508789062 Z M 318.4640808105469 128.31201171875 L 318.2730712890625 127.8500061035156 L 317.5139770507812 126.0139846801758 L 317.3229064941406 125.551872253418 L 317.7850646972656 125.3608551025391 L 319.6210632324219 124.6020355224609 L 320.0830993652344 124.4110870361328 L 320.2741088867188 124.8730850219727 L 321.0332336425781 126.7091064453125 L 321.2243041992188 127.1712265014648 L 320.7621459960938 127.3622360229492 L 318.9261169433594 128.1210632324219 L 318.4640808105469 128.31201171875 Z M 322.1358642578125 126.7940902709961 L 321.94482421875 126.3320999145508 L 321.1856994628906 124.4960784912109 L 320.99462890625 124.033935546875 L 321.456787109375 123.8429412841797 L 323.2928466796875 123.0841293334961 L 323.7548828125 122.893180847168 L 323.9458923339844 123.3551788330078 L 324.7049865722656 125.1911849975586 L 324.8960571289062 125.6533203125 L 324.4338989257812 125.8443222045898 L 322.5978698730469 126.603141784668 L 322.1358642578125 126.7940902709961 Z M 325.8075866699219 125.2764587402344 L 325.6165771484375 124.8144607543945 L 324.8574829101562 122.9784317016602 L 324.6664123535156 122.5162963867188 L 325.1285705566406 122.3253021240234 L 326.9645690917969 121.5664901733398 L 327.4265747070312 121.3755416870117 L 327.6176147460938 121.837532043457 L 328.3767395019531 123.6735458374023 L 328.5678100585938 124.1356811523438 L 328.1056518554688 124.3266906738281 L 326.2696228027344 125.0855102539062 L 325.8075866699219 125.2764587402344 Z M 329.4796142578125 123.7585296630859 L 329.2886047363281 123.2965316772461 L 328.5295104980469 121.4605102539062 L 328.3384399414062 120.9983749389648 L 328.8005981445312 120.8073806762695 L 330.6366271972656 120.0485687255859 L 331.0986633300781 119.8576202392578 L 331.2896728515625 120.3196182250977 L 332.0487670898438 122.1556396484375 L 332.2398376464844 122.6177673339844 L 331.7776794433594 122.8087692260742 L 329.941650390625 123.5675811767578 L 329.4796142578125 123.7585296630859 Z M 333.1513977050781 122.240966796875 L 332.9603576660156 121.7789001464844 L 332.2012634277344 119.9428787231445 L 332.0102233886719 119.4808120727539 L 332.4722900390625 119.2897796630859 L 334.3083190917969 118.5306777954102 L 334.7703857421875 118.3396377563477 L 334.96142578125 118.8016967773438 L 335.7205200195312 120.6377105712891 L 335.9115600585938 121.0997695922852 L 335.4494934082031 121.2908096313477 L 333.6134643554688 122.049919128418 L 333.1513977050781 122.240966796875 Z M 336.8234252929688 120.7229766845703 L 336.6324157714844 120.2609786987305 L 335.8733215332031 118.4249572753906 L 335.6822509765625 117.9628295898438 L 336.1444091796875 117.7718276977539 L 337.9804077148438 117.0130157470703 L 338.4424133300781 116.8220672607422 L 338.6334533691406 117.2840576171875 L 339.392578125 119.1200790405273 L 339.5836486816406 119.5822219848633 L 339.1214904785156 119.7732162475586 L 337.2854614257812 120.5320281982422 L 336.8234252929688 120.7229766845703 Z M 340.4951782226562 119.2050552368164 L 340.3041687011719 118.7430572509766 L 339.5450439453125 116.9070358276367 L 339.3539733886719 116.4449081420898 L 339.8161315917969 116.25390625 L 341.6521911621094 115.4951019287109 L 342.1142272949219 115.3041458129883 L 342.3052368164062 115.7661514282227 L 343.0643310546875 117.602165222168 L 343.2554016113281 118.0643005371094 L 342.7932434082031 118.2552947998047 L 340.9572143554688 119.0141067504883 L 340.4951782226562 119.2050552368164 Z M 344.1669311523438 117.6874389648438 L 343.9759216308594 117.2254409790039 L 343.2168273925781 115.3894119262695 L 343.0257568359375 114.9272918701172 L 343.4879150390625 114.7362747192383 L 345.3239135742188 113.9774551391602 L 345.7859497070312 113.786506652832 L 345.9769592285156 114.2485122680664 L 346.736083984375 116.0845413208008 L 346.9271545410156 116.5466613769531 L 346.4649963378906 116.7376708984375 L 344.6289672851562 117.4964904785156 L 344.1669311523438 117.6874389648438 Z M 347.8387145996094 116.1695098876953 L 347.6476745605469 115.70751953125 L 346.8885498046875 113.8714981079102 L 346.6974792480469 113.4093551635742 L 347.1596374511719 113.2183609008789 L 348.9956665039062 112.4595489501953 L 349.4577026367188 112.2686004638672 L 349.6487121582031 112.730598449707 L 350.4078063964844 114.5666122436523 L 350.598876953125 115.0287246704102 L 350.13671875 115.2197418212891 L 348.3007202148438 115.9785614013672 L 347.8387145996094 116.1695098876953 Z M 351.5104370117188 114.6518707275391 L 351.3194274902344 114.1898651123047 L 350.560302734375 112.3538513183594 L 350.3692321777344 111.891716003418 L 350.8313903808594 111.7007217407227 L 352.6674194335938 110.9419097900391 L 353.1294555664062 110.7509613037109 L 353.3204650878906 111.2129592895508 L 354.0795593261719 113.0489807128906 L 354.2706298828125 113.5111083984375 L 353.8084716796875 113.7021102905273 L 351.9724731445312 114.4609222412109 L 351.5104370117188 114.6518707275391 Z" stroke="none"/>
                <path d="M 315.0630798339844 129.1766052246094 L 316.8991088867188 128.4177856445312 L 316.1399841308594 126.5817718505859 L 314.3039855957031 127.340576171875 L 315.0630798339844 129.1766052246094 M 318.7351379394531 127.6589660644531 L 320.5711669921875 126.900146484375 L 319.8120422363281 125.0641250610352 L 317.9760437011719 125.8229522705078 L 318.7351379394531 127.6589660644531 M 322.4068908691406 126.1410522460938 L 324.242919921875 125.3822250366211 L 323.4838256835938 123.5462188720703 L 321.6477661132812 124.3050308227539 L 322.4068908691406 126.1410522460938 M 326.0786437988281 124.623420715332 L 327.9146728515625 123.8646011352539 L 327.1555480957031 122.0285797119141 L 325.3195495605469 122.7873916625977 L 326.0786437988281 124.623420715332 M 329.7506713867188 123.1054916381836 L 331.5867004394531 122.3466796875 L 330.8276062011719 120.5106582641602 L 328.9915771484375 121.2694702148438 L 329.7506713867188 123.1054916381836 M 333.4224243164062 121.5878601074219 L 335.2584533691406 120.8287506103516 L 334.4993591308594 118.9927368164062 L 332.663330078125 119.751838684082 L 333.4224243164062 121.5878601074219 M 337.094482421875 120.069938659668 L 338.9305114746094 119.3111267089844 L 338.17138671875 117.4751052856445 L 336.3353881835938 118.2339172363281 L 337.094482421875 120.069938659668 M 340.7662353515625 118.5520172119141 L 342.6022644042969 117.7932052612305 L 341.8431701660156 115.9571914672852 L 340.0071105957031 116.7159957885742 L 340.7662353515625 118.5520172119141 M 344.43798828125 117.0344009399414 L 346.2740173339844 116.2755813598633 L 345.514892578125 114.4395446777344 L 343.6788940429688 115.198371887207 L 344.43798828125 117.0344009399414 M 348.1097412109375 115.516471862793 L 349.9457397460938 114.7576446533203 L 349.1866455078125 112.9216384887695 L 347.3506164550781 113.6804504394531 L 348.1097412109375 115.516471862793 M 351.781494140625 113.9988250732422 L 353.6174926757812 113.2400207519531 L 352.8583984375 111.4039993286133 L 351.0223693847656 112.1628112792969 L 351.781494140625 113.9988250732422 M 314.52099609375 130.4826965332031 L 312.9977111816406 126.7984085083008 L 320.3416442871094 123.7632064819336 L 320.3414916992188 123.7628479003906 L 324.0133666992188 122.2453308105469 L 324.0133056640625 122.2452163696289 L 327.6854248046875 120.7275466918945 L 327.685302734375 120.7272872924805 L 335.0414123535156 117.6865310668945 L 335.0414428710938 117.686653137207 L 338.7009887695312 116.174186706543 L 338.7008361816406 116.1738204956055 L 342.3726806640625 114.6563110351562 L 342.3726501464844 114.6561965942383 L 346.0444946289062 113.1386260986328 L 346.0443420410156 113.1382751464844 L 349.7161560058594 111.6207580566406 L 349.7160949707031 111.6206359863281 L 353.4004821777344 110.0979156494141 L 354.9237670898438 113.7821884155273 L 351.251953125 115.2997207641602 L 351.2520141601562 115.2998199462891 L 347.5801391601562 116.8173980712891 L 347.5802917480469 116.8177490234375 L 343.9084777832031 118.3352813720703 L 343.9085388183594 118.3353881835938 L 340.2366333007812 119.8529357910156 L 340.2367858886719 119.8533020019531 L 336.5523986816406 121.3760147094727 L 336.5523376464844 121.3759002685547 L 329.2208251953125 124.4065017700195 L 329.220947265625 124.4067687988281 L 325.5491333007812 125.9243011474609 L 325.5491943359375 125.9244003295898 L 321.8772888183594 127.4419708251953 L 321.87744140625 127.4423217773438 L 314.52099609375 130.4826965332031 Z" stroke="none" fill="#8a5d64"/>
              </g>
            </g>
          </g>
        </g>
        <g id="Group_45283" data-name="Group 45283" transform="translate(627.567 -7040.015)">
          <g id="Group_45282" data-name="Group 45282">
            <g id="Group_45281" data-name="Group 45281">
              <g id="Path_117137" data-name="Path 117137" transform="translate(-308.101 -235.427)" fill="#f8f8f8">
                <path d="M 344.1319885253906 250.1426544189453 L 343.6589660644531 249.9810485839844 L 341.7789916992188 249.3387756347656 L 341.3057250976562 249.1770935058594 L 341.467529296875 248.703857421875 L 342.1103515625 246.8238525390625 L 342.2720947265625 246.3508758544922 L 342.7451171875 246.5124664306641 L 344.6251220703125 247.1547546386719 L 345.098388671875 247.3164367675781 L 344.9365844726562 247.7896728515625 L 344.2937316894531 249.669677734375 L 344.1319885253906 250.1426544189453 Z M 340.3728637695312 248.8581237792969 L 339.8996276855469 248.6964874267578 L 338.0190734863281 248.0542144775391 L 337.5459899902344 247.8926391601562 L 337.7074890136719 247.4195404052734 L 338.3491821289062 245.5395660400391 L 338.5107116699219 245.0662841796875 L 338.9839477539062 245.2279205322266 L 340.864501953125 245.8701934814453 L 341.3375854492188 246.0317687988281 L 341.1760864257812 246.5048675537109 L 340.5343933105469 248.3848419189453 L 340.3728637695312 248.8581237792969 Z M 336.6117858886719 247.5741119384766 L 336.1387634277344 247.4125061035156 L 334.2587890625 246.7702484130859 L 333.7855224609375 246.6085510253906 L 333.9473266601562 246.1353302001953 L 334.5901489257812 244.2553405761719 L 334.7518920898438 243.7823638916016 L 335.2249145507812 243.9439697265625 L 337.1049194335938 244.5862274169922 L 337.5781860351562 244.7479248046875 L 337.4163818359375 245.2211608886719 L 336.7735290527344 247.1011505126953 L 336.6117858886719 247.5741119384766 Z M 332.851806640625 246.2895660400391 L 332.3787841796875 246.1279602050781 L 330.4988098144531 245.4856872558594 L 330.0255126953125 245.3240051269531 L 330.1873474121094 244.8507537841797 L 330.8302612304688 242.9707794189453 L 330.9919738769531 242.4978179931641 L 331.4649963378906 242.659423828125 L 333.3449401855469 243.3016967773438 L 333.8182067871094 243.46337890625 L 333.6563720703125 243.9366302490234 L 333.0135498046875 245.8165893554688 L 332.851806640625 246.2895660400391 Z M 329.0921325683594 245.0052947998047 L 328.6191101074219 244.8436889648438 L 326.7391357421875 244.201416015625 L 326.265869140625 244.0397338867188 L 326.4276733398438 243.5664978027344 L 327.070556640625 241.6865081787109 L 327.2322998046875 241.2135467529297 L 327.705322265625 241.3751373291016 L 329.5852661132812 242.0174255371094 L 330.0585327148438 242.1791229248047 L 329.896728515625 242.6523590087891 L 329.2538452148438 244.5323181152344 L 329.0921325683594 245.0052947998047 Z M 325.3322143554688 243.7210540771484 L 324.8591918945312 243.5594482421875 L 322.9791870117188 242.9171905517578 L 322.5059204101562 242.7554931640625 L 322.667724609375 242.2822570800781 L 323.3105773925781 240.4022674560547 L 323.4723205566406 239.9293060302734 L 323.9453430175781 240.0908966064453 L 325.8253173828125 240.7331848144531 L 326.298583984375 240.8948669433594 L 326.1367797851562 241.3681030273438 L 325.4939575195312 243.2480773925781 L 325.3322143554688 243.7210540771484 Z M 321.5725402832031 242.4367828369141 L 321.0995178222656 242.2751770019531 L 319.2195129394531 241.6329193115234 L 318.7462463378906 241.4712219238281 L 318.9080505371094 240.9979858398438 L 319.5509033203125 239.1179962158203 L 319.712646484375 238.6450347900391 L 320.1856689453125 238.806640625 L 322.065673828125 239.4489135742188 L 322.5389709472656 239.610595703125 L 322.3771362304688 240.0838470458984 L 321.7342529296875 241.9638061523438 L 321.5725402832031 242.4367828369141 Z M 317.81201171875 241.1525115966797 L 317.3389892578125 240.9909057617188 L 315.458984375 240.3486480712891 L 314.9857177734375 240.1869506835938 L 315.1475219726562 239.7137145996094 L 315.7903747558594 237.833740234375 L 315.9521179199219 237.3607635498047 L 316.4251403808594 237.5223693847656 L 318.3051147460938 238.1646270751953 L 318.7783813476562 238.3263244628906 L 318.6165771484375 238.799560546875 L 317.9737548828125 240.6795349121094 L 317.81201171875 241.1525115966797 Z M 314.0523376464844 239.8682403564453 L 313.5793151855469 239.7066497802734 L 311.6993103027344 239.0643615722656 L 311.2260437011719 238.9026794433594 L 311.3878784179688 238.4294281005859 L 312.0307312011719 236.5494995117188 L 312.1924438476562 236.0765228271484 L 312.6654663085938 236.2381286621094 L 314.5454406738281 236.8803863525391 L 315.0187072753906 237.0420837402344 L 314.8569030761719 237.5153198242188 L 314.2140808105469 239.395263671875 L 314.0523376464844 239.8682403564453 Z M 310.2923583984375 238.5840148925781 L 309.8193359375 238.4224090576172 L 307.9393920898438 237.7801208496094 L 307.466064453125 237.618408203125 L 307.6279602050781 237.1451263427734 L 308.2710876464844 235.2651672363281 L 308.432861328125 234.7922515869141 L 308.9058227539062 234.953857421875 L 310.7854919433594 235.5961303710938 L 311.2587585449219 235.7578277587891 L 311.0969543457031 236.2310485839844 L 310.4541015625 238.1110382080078 L 310.2923583984375 238.5840148925781 Z" stroke="none"/>
                <path d="M 308.7441711425781 235.427001953125 L 308.1010437011719 237.3069763183594 L 309.9809875488281 237.9492492675781 L 310.6238403320312 236.0692749023438 L 308.7441711425781 235.427001953125 M 312.5038146972656 236.7112731933594 L 311.8609619140625 238.5912170410156 L 313.740966796875 239.2334899902344 L 314.3837890625 237.3535461425781 L 312.5038146972656 236.7112731933594 M 316.2634887695312 237.9955139160156 L 315.6206359863281 239.87548828125 L 317.5006408691406 240.5177612304688 L 318.1434631347656 238.6377868652344 L 316.2634887695312 237.9955139160156 M 320.0240173339844 239.27978515625 L 319.3811645507812 241.1597595214844 L 321.2611694335938 241.8020324707031 L 321.9040222167969 239.9220581054688 L 320.0240173339844 239.27978515625 M 323.78369140625 240.5640563964844 L 323.1408386230469 242.4440307617188 L 325.0208435058594 243.0863037109375 L 325.6636657714844 241.2063293457031 L 323.78369140625 240.5640563964844 M 327.5436706542969 241.8482971191406 L 326.9007873535156 243.728271484375 L 328.78076171875 244.3705444335938 L 329.4236145019531 242.4905700683594 L 327.5436706542969 241.8482971191406 M 331.3033447265625 243.132568359375 L 330.6604614257812 245.0125427246094 L 332.5404357910156 245.6548156738281 L 333.1832885742188 243.7748413085938 L 331.3033447265625 243.132568359375 M 335.0632629394531 244.4171142578125 L 334.4204406738281 246.2970886230469 L 336.3004150390625 246.9393615722656 L 336.9432678222656 245.0593872070312 L 335.0632629394531 244.4171142578125 M 338.8223571777344 245.7010803222656 L 338.1806640625 247.5810546875 L 340.0612182617188 248.2233276367188 L 340.7029113769531 246.3433532714844 L 338.8223571777344 245.7010803222656 M 342.5834655761719 246.9856262207031 L 341.9406433105469 248.8656311035156 L 343.8206176757812 249.5079040527344 L 344.4634704589844 247.6278991699219 L 342.5834655761719 246.9856262207031 M 308.1215515136719 234.1574859619141 L 311.8809814453125 235.4420623779297 L 311.8810729980469 235.4417724609375 L 315.6406860351562 236.7261962890625 L 315.6407470703125 236.7260131835938 L 319.401123046875 238.0106964111328 L 319.4012756347656 238.0102844238281 L 323.160888671875 239.2947082519531 L 323.1609497070312 239.2945404052734 L 326.9208374023438 240.5790863037109 L 326.9209289550781 240.5787811279297 L 330.6805419921875 241.8632507324219 L 330.6806030273438 241.8630676269531 L 338.1990051269531 244.431640625 L 338.1990661621094 244.4314880371094 L 341.9606628417969 245.7162017822266 L 341.960693359375 245.7161102294922 L 345.7333068847656 247.0049896240234 L 344.443359375 250.7774047851562 L 340.6708068847656 249.4885559082031 L 340.6709289550781 249.4882659912109 L 336.92333984375 248.2083587646484 L 336.9231567382812 248.2088623046875 L 329.403564453125 245.6398773193359 L 329.4035034179688 245.6400451660156 L 325.6437072753906 244.3555450439453 L 325.6436157226562 244.3558044433594 L 321.8839721679688 243.0713806152344 L 321.8839111328125 243.071533203125 L 318.12353515625 241.7868499755859 L 318.1233825683594 241.7872619628906 L 314.36376953125 240.5028533935547 L 314.3637390136719 240.5029907226562 L 310.6038208007812 239.2184753417969 L 310.6037292480469 239.2187652587891 L 306.8310852050781 237.9298400878906 L 308.1215515136719 234.1574859619141 Z" stroke="none" fill="#8a5d64"/>
              </g>
            </g>
          </g>
        </g>
        <g id="Group_45286" data-name="Group 45286" transform="translate(553.779 -7041.546)">
          <g id="Group_45285" data-name="Group 45285">
            <g id="Group_45284" data-name="Group 45284">
              <g id="Path_117138" data-name="Path 117138" transform="translate(-52.942 -230.132)" fill="#f8f8f8">
                <path d="M 53.27710723876953 237.1667938232422 L 53.11458969116211 236.6938018798828 L 52.4691276550293 234.8152618408203 L 52.30669784545898 234.3425140380859 L 52.77939987182617 234.1799621582031 L 54.65792846679688 233.5339508056641 L 55.13087844848633 233.3713226318359 L 55.29338836669922 233.8442993164062 L 55.93884658813477 235.7228088378906 L 56.10128784179688 236.1955413818359 L 55.62859725952148 236.3581085205078 L 53.75006866455078 237.004150390625 L 53.27710723876953 237.1667938232422 Z M 57.03414916992188 235.8749542236328 L 56.87164688110352 235.4020233154297 L 56.22618865966797 233.5234985351562 L 56.06373977661133 233.0507049560547 L 56.53651809692383 232.88818359375 L 58.41505813598633 232.242431640625 L 58.88796615600586 232.0798645019531 L 59.05046844482422 232.5528106689453 L 59.69591903686523 234.4313201904297 L 59.85836791992188 234.9041137695312 L 59.38558959960938 235.0666351318359 L 57.50705718994141 235.7123870849609 L 57.03414916992188 235.8749542236328 Z M 60.79209899902344 234.5835113525391 L 60.62957763671875 234.1105194091797 L 59.98412704467773 232.2319793701172 L 59.82169723510742 231.7592620849609 L 60.29439926147461 231.5966949462891 L 62.17292785644531 230.9506683349609 L 62.64587783813477 230.7880249023438 L 62.80839920043945 231.2610321044922 L 63.45384979248047 233.1395721435547 L 63.61627960205078 233.6123046875 L 63.14357757568359 233.7748565673828 L 61.26504898071289 234.4208679199219 L 60.79209899902344 234.5835113525391 Z M 64.54946136474609 233.2920379638672 L 64.38692474365234 232.8190612792969 L 63.7414665222168 230.9405212402344 L 63.57903671264648 230.4677734375 L 64.05173492431641 230.3052215576172 L 65.93026733398438 229.6591796875 L 66.40320587158203 229.4965362548828 L 66.56572723388672 229.9695281982422 L 67.21119689941406 231.8480377197266 L 67.37363433837891 232.3207855224609 L 66.90094757080078 232.4833526611328 L 65.02240753173828 233.12939453125 L 64.54946136474609 233.2920379638672 Z" stroke="none"/>
                <path d="M 53.58745956420898 236.5313262939453 L 55.46598815917969 235.8852844238281 L 54.82052612304688 234.0067749023438 L 52.94199752807617 234.6527862548828 L 53.58745956420898 236.5313262939453 M 57.34451675415039 235.2395477294922 L 59.22304916381836 234.5937957763672 L 58.57759857177734 232.7152709960938 L 56.69905853271484 233.3610229492188 L 57.34451675415039 235.2395477294922 M 61.10244750976562 233.9480438232422 L 62.98097610473633 233.3020324707031 L 62.33552932739258 231.4234924316406 L 60.45699691772461 232.0695190429688 L 61.10244750976562 233.9480438232422 M 64.85979461669922 232.6565704345703 L 66.73833465576172 232.0105285644531 L 66.09286499023438 230.1320037841797 L 64.21434020996094 230.7780303955078 L 64.85979461669922 232.6565704345703 M 52.96676635742188 237.8022613525391 L 51.6713981628418 234.0322570800781 L 55.44121932983398 232.73583984375 L 55.44125747680664 232.7359619140625 L 59.19833755493164 231.4444580078125 L 59.19846725463867 231.4448394775391 L 62.95622634887695 230.1525573730469 L 62.9564323425293 230.1531524658203 L 66.71354675292969 228.8610687255859 L 68.00894165039062 232.6310424804688 L 64.23910522460938 233.9275207519531 L 64.23889923095703 233.9269256591797 L 60.48174667358398 235.2189788818359 L 60.48161697387695 235.2185974121094 L 56.72378921508789 236.5103607177734 L 56.7237434387207 236.5102233886719 L 52.96676635742188 237.8022613525391 Z" stroke="none" fill="#8a5d64"/>
              </g>
            </g>
          </g>
        </g>
        <g id="Group_45291" data-name="Group 45291" transform="translate(614.523 -7081.107)">
          <g id="Group_45290" data-name="Group 45290">
            <g id="Group_45289" data-name="Group 45289">
              <g id="Path_117140" data-name="Path 117140" transform="translate(-262.996 -93.328)" fill="#f8f8f8">
                <path d="M 264.7834777832031 100.0786666870117 L 264.3680725097656 99.80031585693359 L 262.7176818847656 98.69446563720703 L 262.3023376464844 98.41616821289062 L 262.5805969238281 98.00080871582031 L 263.6864318847656 96.35015869140625 L 263.9647521972656 95.93472290039062 L 264.3801574707031 96.21307373046875 L 266.030517578125 97.31891632080078 L 266.4458618164062 97.59720611572266 L 266.1676025390625 98.01256561279297 L 265.0617980957031 99.66322326660156 L 264.7834777832031 100.0786666870117 Z M 266.9952697753906 96.777587890625 L 266.5798034667969 96.49935913085938 L 264.929443359375 95.39410400390625 L 264.5140380859375 95.11590576171875 L 264.7922058105469 94.70047760009766 L 265.8974609375 93.04981231689453 L 266.1756896972656 92.63426208496094 L 266.5911865234375 92.91259765625 L 268.2415466308594 94.01813507080078 L 268.6569213867188 94.29637908935547 L 268.3787231445312 94.71176910400391 L 267.2734680175781 96.36213684082031 L 266.9952697753906 96.777587890625 Z" stroke="none"/>
                <path d="M 266.3129272460938 93.3280029296875 L 265.2076721191406 94.97866821289062 L 266.8580322265625 96.08391571044922 L 267.9632873535156 94.43354797363281 L 266.3129272460938 93.3280029296875 M 264.1018371582031 96.62844848632812 L 262.9960021972656 98.27909851074219 L 264.6463928222656 99.38494873046875 L 265.752197265625 97.73428344726562 L 264.1018371582031 96.62844848632812 M 266.0384826660156 91.94052886962891 L 269.3505554199219 94.15920257568359 L 267.1324768066406 97.47124481201172 L 267.1322021484375 97.47105407714844 L 264.9205627441406 100.7723922729492 L 261.6086730957031 98.55324554443359 L 263.8276672363281 95.24100494384766 L 263.8282775878906 95.24141693115234 L 266.0384826660156 91.94052886962891 Z" stroke="none" fill="#8a5d64"/>
              </g>
            </g>
          </g>
        </g>
        <g id="Group_45294" data-name="Group 45294" transform="translate(612.119 -7045.14)">
          <g id="Group_45293" data-name="Group 45293">
            <g id="Group_45292" data-name="Group 45292">
              <g id="Path_117141" data-name="Path 117141" transform="translate(-254.682 -217.705)" fill="#f8f8f8">
                <path d="M 264.45361328125 223.2843322753906 L 263.9779663085938 223.1303558349609 L 262.0875854492188 222.5184326171875 L 261.6118469238281 222.3644409179688 L 261.765869140625 221.8887176513672 L 262.3777160644531 219.9989166259766 L 262.53173828125 219.5232849121094 L 263.0074157714844 219.67724609375 L 264.8977966308594 220.2891235351562 L 265.3735656738281 220.443115234375 L 265.2195129394531 220.9188537597656 L 264.6076354980469 222.8086853027344 L 264.45361328125 223.2843322753906 Z M 260.6737060546875 222.0602264404297 L 260.1980285644531 221.9062652587891 L 258.3076477050781 221.2943572998047 L 257.8318481445312 221.1403350830078 L 257.9859619140625 220.6645660400391 L 258.59814453125 218.7747344970703 L 258.752197265625 218.2991485595703 L 259.2278137207031 218.453125 L 261.117919921875 219.0650482177734 L 261.5936584472656 219.2190551757812 L 261.4396362304688 219.6947631835938 L 260.8276977539062 221.5845794677734 L 260.6737060546875 222.0602264404297 Z M 256.8940734863281 220.8363952636719 L 256.4183959960938 220.6824340820312 L 254.5280303955078 220.0705261230469 L 254.0522308349609 219.91650390625 L 254.2063446044922 219.4407348632812 L 254.8185272216797 217.5509033203125 L 254.9725799560547 217.0753326416016 L 255.4481964111328 217.2293090820312 L 257.3382873535156 217.8412170410156 L 257.8139953613281 217.9952239990234 L 257.6599731445312 218.4709320068359 L 257.048095703125 220.3607482910156 L 256.8940734863281 220.8363952636719 Z" stroke="none"/>
                <path d="M 255.294189453125 217.7050018310547 L 254.6820068359375 219.5948181152344 L 256.5723876953125 220.2067260742188 L 257.1842956542969 218.3169097900391 L 255.294189453125 217.7050018310547 M 259.0738220214844 218.9288177490234 L 258.4616394042969 220.8186492919922 L 260.3520202636719 221.4305572509766 L 260.9639282226562 219.5407409667969 L 259.0738220214844 218.9288177490234 M 262.8534240722656 220.1529388427734 L 262.2415466308594 222.0427398681641 L 264.1319274902344 222.6546630859375 L 264.7438354492188 220.7648315429688 L 262.8534240722656 220.1529388427734 M 254.6509704589844 216.4456634521484 L 258.4437255859375 217.6735382080078 L 258.4436645507812 217.6737060546875 L 262.2233581542969 218.8973846435547 L 262.2232055664062 218.8978729248047 L 266.0032653808594 220.1214141845703 L 264.7752685546875 223.9140014648438 L 260.9821166992188 222.6861572265625 L 260.9822692871094 222.6856689453125 L 257.2020568847656 221.4620208740234 L 257.2021789550781 221.4616851806641 L 253.4224548339844 220.2381896972656 L 254.6509704589844 216.4456634521484 Z" stroke="none" fill="#8a5d64"/>
              </g>
            </g>
          </g>
        </g>
      </g>
      <g id="Group_46126" data-name="Group 46126">
        <g id="Group_46127" data-name="Group 46127" transform="translate(584.542 -7054.494)">
          <g id="Group_45236" data-name="Group 45236">
            <g id="Group_45235" data-name="Group 45235">
              <path id="Path_117125" data-name="Path 117125" d="M210.5,215.3c0-2.364-1.925-3.288-4.291-3.288h-1.721a4.269,4.269,0,0,0-2.638.911,5.606,5.606,0,0,0-5.306-3.815h-2.4a5.573,5.573,0,0,0-4.121,1.82,5.6,5.6,0,0,0-5.124-3.345h-2.4c-.189,0-.375.011-.559.029l-.064.009c-.157.018-.313-.959-.464-.929l-.138.031a5.583,5.583,0,0,0-2.289,1.057l-.008-18.927a6.744,6.744,0,0,0-6.739-6.732c-3.713,0-5.733,3.024-5.732,6.738l.009,21.4c-1.556-1.546-4.7-2.241-6.119-2.4l-1.08-.122.014,32.052a8.871,8.871,0,0,0,2.006,5.6l4.405,5.409,3.564,4.506,35.075-.015,6.132-11.732Z" transform="translate(-159.32 -182.124)" fill="#de8b86"/>
            </g>
          </g>
        </g>
        <g id="Group_45231" data-name="Group 45231" transform="translate(590.292 -6981.319)">
          <g id="Group_45230" data-name="Group 45230">
            <rect id="Rectangle_8109" data-name="Rectangle 8109" width="43.984" height="19.762" fill="#de8b86"/>
          </g>
        </g>
        <g id="Group_45229" data-name="Group 45229" transform="translate(588.831 -6982.542)">
          <g id="Group_45228" data-name="Group 45228">
            <g id="Group_45227" data-name="Group 45227">
              <path id="Path_117123" data-name="Path 117123" d="M221.049,434.168l-46.9.02.01,22.488,46.9-.02Zm-44.9,20.52-.007-18.514,42.925-.018.007,18.514Z" transform="translate(-174.151 -434.168)" fill="#f8f8f8"/>
            </g>
          </g>
        </g>
        <g id="Group_45234" data-name="Group 45234" transform="translate(593.958 -6976.034)">
          <g id="Group_45233" data-name="Group 45233" transform="translate(0)">
            <g id="Group_45232" data-name="Group 45232">
              <path id="Path_117124" data-name="Path 117124" d="M196.63,456.673a4.752,4.752,0,0,0,0,9.5h0a4.752,4.752,0,0,0,0-9.5Zm0,8.51Z" transform="translate(-191.881 -456.673)" fill="#f8f8f8"/>
            </g>
          </g>
        </g>
        <g id="Group_45237" data-name="Group 45237" transform="translate(584.542 -7055.429)">
          <g id="Group_45236-2" data-name="Group 45236">
            <g id="Group_45235-2" data-name="Group 45235">
              <path id="Path_117125-2" data-name="Path 117125" d="M211.705,216.08a4.4,4.4,0,0,0-4.392-4.389h-1.762a4.369,4.369,0,0,0-2.7.932,5.737,5.737,0,0,0-5.431-3.9h-2.454a5.7,5.7,0,0,0-4.218,1.862,5.728,5.728,0,0,0-5.245-3.424h-2.457c-.193,0-.384.011-.572.03l-.066.009c-.161.018-.32.042-.475.073l-.141.032a5.714,5.714,0,0,0-2.342,1.082l-.008-19.371a6.893,6.893,0,0,0-13.787.006l.009,21.9a9.275,9.275,0,0,0-5.239-2.458l-1.106-.125.014,32.8a9.079,9.079,0,0,0,2.053,5.729L165.9,252.4l3.648,4.612,35.9-.015,6.276-12.007Zm-7.467,38.936-33.733.014-3.06-3.868-4.552-5.59a7.041,7.041,0,0,1-1.573-4.433l-.013-30.465c1.6.464,4.357,1.759,4.359,5.18h1.987l-.011-26.832a4.907,4.907,0,0,1,9.813,0l.009,22.6c0,.063,0,.13,0,.206l1.463-.032.486.138a.81.81,0,0,1,.035-.084c.03-.07.06-.14.1-.243a3.446,3.446,0,0,1,2.677-2.354l.094-.022c.1-.02.206-.036.354-.054a3.746,3.746,0,0,1,.376-.021h2.459a3.739,3.739,0,0,1,3.738,3.737l.016,2.091,1.921.459.063-1.19a3.732,3.732,0,0,1,3.723-3.535h2.455a3.744,3.744,0,0,1,3.739,3.738v1.64h1.987a2.406,2.406,0,0,1,2.4-2.4h1.762a2.407,2.407,0,0,1,2.4,2.4l.012,28.426Z" transform="translate(-159.32 -182.124)" fill="#f8f8f8"/>
            </g>
          </g>
        </g>
        <g id="Group_45241" data-name="Group 45241" transform="translate(590.892 -7022.928)">
          <g id="Group_45240" data-name="Group 45240">
            <rect id="Rectangle_8110" data-name="Rectangle 8110" width="1.987" height="15.122" fill="#f8f8f8"/>
          </g>
        </g>
      </g>
    </g>
  </g>
</svg>
