<svg xmlns="http://www.w3.org/2000/svg" width="24.068" height="24.068" viewBox="0 0 24.068 24.068"><defs><style>.a{fill:#79b8eb;}.b{fill:#77b9eb;stroke:#77b9eb;}.b,.c,.d{stroke-width:0.5px;}.c{fill:#C36564;stroke:#C36564;}.d{fill:#fff;stroke:#fff;}</style></defs><g transform="translate(-15.566 -17.769)"><g transform="translate(15.816 18.019)"><path class="a" d="M21.212,0H1.571C.7,0,0,2.238,0,5V17.5H22.783V5C22.783,2.238,22.079,0,21.212,0Zm0,0" transform="translate(23.176 23.568) rotate(180)"/><path class="b" d="M21.6,0H1.964A1.966,1.966,0,0,0,0,1.964V21.6a1.966,1.966,0,0,0,1.964,1.964H21.6A1.966,1.966,0,0,0,23.568,21.6V1.964A1.966,1.966,0,0,0,21.6,0ZM.786,1.964A1.178,1.178,0,0,1,1.964.786H21.6a1.178,1.178,0,0,1,1.178,1.178V5.5h-22Zm22,19.64A1.178,1.178,0,0,1,21.6,22.783H1.964A1.178,1.178,0,0,1,.786,21.6V6.285h22Zm0,0"/><path class="c" d="M73.676,56H56.393a.393.393,0,1,0,0,.786H73.676a.393.393,0,0,0,0-.786Zm0,0" transform="translate(-53.25 -53.25)"/><path class="d" d="M56.393,169.035a.393.393,0,1,0,0,.786h3.928v3.111a.393.393,0,1,0,.786,0V169.82h7.856v3.142a.393.393,0,0,0,.786,0V169.82h3.928a.393.393,0,0,0,0-.786H69.748v-4.714h3.928a.393.393,0,0,0,0-.786H69.748v-3.142a.393.393,0,1,0-.786,0v3.142H61.106v-3.142a.393.393,0,1,0-.786,0v3.142H56.393a.393.393,0,1,0,0,.786h3.928v4.714Zm4.714-4.714h7.856v4.714H61.106Zm0,0" transform="translate(-53.25 -152.144)"/></g></g></svg>