
<svg xmlns="http://www.w3.org/2000/svg" width="21.826" height="22.573" viewBox="0 0 21.826 22.573">
  <g id="onchain" transform="translate(-5.817 -7.619)">
    <g id="Group_35670" data-name="Group 35670" transform="translate(6.817 8.619)">
      <g id="Group_35596" data-name="Group 35596" transform="translate(0 0)">
        <g id="Group_35594" data-name="Group 35594" transform="translate(0 0)">
          <g id="Ellipse_1867" data-name="Ellipse 1867" fill="#f5aa97" stroke="#fafafa" stroke-width="1">
            <circle cx="7.235" cy="7.235" r="7.235" stroke="none"/>
            <circle cx="7.235" cy="7.235" r="7.735" fill="none"/>
          </g>
        </g>
      </g>
      <g id="Group_35598" data-name="Group 35598" transform="translate(1.005 1.005)">
        <g id="Group_35597" data-name="Group 35597">
          <path id="Path_23186" data-name="Path 23186" d="M30.23,38.96a6.23,6.23,0,1,1,6.23-6.23A6.237,6.237,0,0,1,30.23,38.96Zm0-12.059a5.828,5.828,0,1,0,5.828,5.828A5.835,5.835,0,0,0,30.23,26.9Z" transform="translate(-24 -26.5)" fill="#fafafa"/>
        </g>
      </g>
    </g>
    <g id="Group_35669" data-name="Group 35669" transform="translate(12.172 14.722)">
      <g id="Group_35596-2" data-name="Group 35596" transform="translate(0 0)">
        <g id="Group_35594-2" data-name="Group 35594" transform="translate(0 0)">
          <g id="Ellipse_1867-2" data-name="Ellipse 1867" fill="#f5aa97" stroke="#fafafa" stroke-width="1">
            <circle cx="7.235" cy="7.235" r="7.235" stroke="none"/>
            <circle cx="7.235" cy="7.235" r="7.735" fill="none"/>
          </g>
        </g>
      </g>
      <g id="Group_35598-2" data-name="Group 35598" transform="translate(1.005 1.005)">
        <g id="Group_35597-2" data-name="Group 35597">
          <path id="Path_23186-2" data-name="Path 23186" d="M30.23,38.96a6.23,6.23,0,1,1,6.23-6.23A6.237,6.237,0,0,1,30.23,38.96Zm0-12.059a5.828,5.828,0,1,0,5.828,5.828A5.835,5.835,0,0,0,30.23,26.9Z" transform="translate(-24 -26.5)" fill="#fafafa"/>
        </g>
      </g>
    </g>
  </g>
</svg>
