<!-- <svg xmlns="http://www.w3.org/2000/svg" width="26.394" height="26.394" viewBox="0 0 26.394 26.394"><defs><style>.a{fill:#006db4;}.b{fill:#77b9eb;}</style></defs><path class="a" d="M143.8,128.531h-.579v4.5a6.054,6.054,0,0,1-6.047,6.047h-8.642v.579a4.505,4.505,0,0,0,4.5,4.5h9.245l4.754,3.962a.773.773,0,0,0,1.268-.594V133.032A4.5,4.5,0,0,0,143.8,128.531Zm0,0" transform="translate(-121.905 -121.905)"/><path class="b" d="M19.768,11.126V4.5a4.5,4.5,0,0,0-4.5-4.5H4.5A4.5,4.5,0,0,0,0,4.5V18.995a.773.773,0,0,0,1.268.594l4.754-3.962h9.245A4.505,4.505,0,0,0,19.768,11.126ZM9.884,12.314a.773.773,0,1,1,.773-.773A.773.773,0,0,1,9.884,12.314Zm.773-3.42v.162a.773.773,0,0,1-1.546,0V8.227a.773.773,0,0,1,.773-.773,1.3,1.3,0,1,0-1.3-1.3.773.773,0,1,1-1.546,0h0a2.844,2.844,0,1,1,3.617,2.738Zm0,0"/></svg> -->


<svg xmlns="http://www.w3.org/2000/svg" width="20" height="20" viewBox="0 0 20 20">
  <g id="faq" transform="translate(-39 -598)">
    <path id="icon_info" d="M12,2A10,10,0,1,0,22,12,10,10,0,0,0,12,2Z" transform="translate(37 596)" fill="#77b9eb"/>
    <g id="Group_37676" data-name="Group 37676" transform="translate(-5.038 8.52)">
      <path id="Path_23648" data-name="Path 23648" d="M11,11.58a.26.26,0,0,1,.26-.26H12a1.032,1.032,0,1,0-1.04-1.06H9.22a.08.08,0,0,1-.08-.08h0A2.78,2.78,0,0,1,10.8,7.61a2.87,2.87,0,1,1,2,5.35v.65a.26.26,0,0,1-.26.26H11.23a.26.26,0,0,1-.26-.26Z" transform="translate(42 587)" fill="#fcfcfc"/>
      <path id="Path_23649" data-name="Path 23649" d="M12.29,14.88a.76.76,0,0,1,.45.46.92.92,0,0,1-1,1.29.91.91,0,0,1-.77-.76.93.93,0,0,1,1.32-.99Z" transform="translate(42 587)" fill="#fcfcfc"/>
    </g>
  </g>
</svg>
