<svg id="ramplogo" xmlns="http://www.w3.org/2000/svg" width="51.5" height="12" viewBox="0 0 51.5 12">
  <path id="Path_16737" data-name="Path 16737" d="M30.416,7.062l-2.272,2.28a.5.5,0,0,0,0,.7l1.736,1.739a.77.77,0,0,0,1.076,0l5.322-5.252a.746.746,0,0,0,0-1.062L30.956.219a.77.77,0,0,0-1.076,0L28.144,1.958a.5.5,0,0,0,0,.7l2.272,2.28A1.491,1.491,0,0,1,30.416,7.062Z" transform="translate(-17.5 0)" fill="#8b8b8b"/>
  <path id="Path_16738" data-name="Path 16738" d="M6.084,7.062l2.272,2.28a.5.5,0,0,1,0,.7L6.619,11.781a.77.77,0,0,1-1.076,0L.222,6.528a.746.746,0,0,1,0-1.062L5.544.219a.77.77,0,0,1,1.076,0L8.355,1.958a.5.5,0,0,1,0,.7L6.084,4.938A1.491,1.491,0,0,0,6.084,7.062Z" transform="translate(0 0)" fill="#8b8b8b"/>
  <path id="Path_16739" data-name="Path 16739" d="M17.513,11.434a.614.614,0,0,1,0-.868L19.9,8.18a.614.614,0,0,1,.868,0l2.386,2.386a.614.614,0,0,1,0,.868L20.767,13.82a.614.614,0,0,1-.868,0Z" transform="translate(-10.833 -5)" fill="#8b8b8b"/>
  <path id="Path_16740" data-name="Path 16740" d="M67.51,13.35h-1.7L64.879,10.9a.707.707,0,0,0-.349-.4,1.28,1.28,0,0,0-.576-.114H62.916V13.35H61.334V6h3.258a2.918,2.918,0,0,1,1.932.557,1.981,1.981,0,0,1,.658,1.6,2.055,2.055,0,0,1-.391,1.259,2.077,2.077,0,0,1-1.1.754,1.278,1.278,0,0,1,.935.9ZM64.355,9.159a1.759,1.759,0,0,0,1.007-.227.854.854,0,0,0,.319-.733.826.826,0,0,0-.319-.723,1.7,1.7,0,0,0-1.007-.237H62.9v1.92Z" transform="translate(-38.333 -3.75)" fill="#8b8b8b"/>
  <path id="Path_16741" data-name="Path 16741" d="M85.257,11.42v5.234H83.725v-.774a1.643,1.643,0,0,1-.668.63,2.065,2.065,0,0,1-.976.227,2.207,2.207,0,0,1-1.2-.33,2.272,2.272,0,0,1-.812-.939,3.346,3.346,0,0,1-.288-1.425,3.416,3.416,0,0,1,.288-1.435,2.294,2.294,0,0,1,.822-.97,2.093,2.093,0,0,1,1.192-.351,1.992,1.992,0,0,1,.976.237,1.714,1.714,0,0,1,.668.64V11.42Zm-2.724,4.129a1.058,1.058,0,0,0,.884-.392,1.806,1.806,0,0,0,.308-1.136,1.806,1.806,0,0,0-.308-1.136,1.047,1.047,0,0,0-.884-.4,1.064,1.064,0,0,0-.894.413,1.835,1.835,0,0,0-.319,1.146,1.787,1.787,0,0,0,.308,1.125A1.112,1.112,0,0,0,82.533,15.549Z" transform="translate(-49.862 -7.053)" fill="#8b8b8b"/>
  <path id="Path_16742" data-name="Path 16742" d="M103.962,11.285a1.586,1.586,0,0,1,1.326.547,2.569,2.569,0,0,1,.442,1.652v3.169h-1.552V13.536a1.355,1.355,0,0,0-.175-.785.655.655,0,0,0-.576-.248.871.871,0,0,0-.73.33,1.481,1.481,0,0,0-.257.929v2.89h-1.552V13.536a1.322,1.322,0,0,0-.185-.785.643.643,0,0,0-.565-.248.9.9,0,0,0-.74.33,1.484,1.484,0,0,0-.257.929v2.89H97.59V12.917a12.22,12.22,0,0,0-.082-1.5h1.459l.093.785a1.656,1.656,0,0,1,.658-.681,2.013,2.013,0,0,1,.987-.237,1.494,1.494,0,0,1,1.542.97,1.882,1.882,0,0,1,.709-.7A1.972,1.972,0,0,1,103.962,11.285Z" transform="translate(-60.942 -7.053)" fill="#8b8b8b"/>
  <path id="Path_16743" data-name="Path 16743" d="M125.747,11.285a2.094,2.094,0,0,1,1.192.351,2.229,2.229,0,0,1,.812.97,3.639,3.639,0,0,1,.01,2.86,2.177,2.177,0,0,1-.812.939,2.208,2.208,0,0,1-1.2.33,2.064,2.064,0,0,1-.976-.227,1.574,1.574,0,0,1-.658-.63v3.174h-1.552V12.917a12.234,12.234,0,0,0-.082-1.5h1.46l.1.867a1.58,1.58,0,0,1,.658-.733A2.05,2.05,0,0,1,125.747,11.285Zm-.442,4.263a1.07,1.07,0,0,0,.884-.382,1.787,1.787,0,0,0,.308-1.125,1.834,1.834,0,0,0-.319-1.146,1.025,1.025,0,0,0-.873-.413,1.076,1.076,0,0,0-.894.4,1.806,1.806,0,0,0-.308,1.136,1.806,1.806,0,0,0,.308,1.136A1.088,1.088,0,0,0,125.305,15.549Z" transform="translate(-76.549 -7.053)" fill="#8b8b8b"/>
</svg>
