<svg xmlns="http://www.w3.org/2000/svg" width="24.737" height="21.371" viewBox="0 0 24.737 21.371"><defs><style>.a,.b{fill:#77b9eb;}.b{stroke:#77b9eb;stroke-width:2px;}.b,.d{stroke-linecap:round;stroke-linejoin:round;stroke-miterlimit:10;}.c{fill:#006db4;}.d{fill:none;stroke:#fafafa;stroke-width:1.5px;}</style></defs><g transform="translate(-31.448 -616.049)"><path class="a" d="M16.5,14.6c2.4,0,4-3.2,4.235-4.008.017-.059.377-.242.407-.295,1.3-2.3-.121-2.565-.121-2.565a8.659,8.659,0,0,0-.235-2.354A4.2,4.2,0,0,0,16.5,2.549a4.2,4.2,0,0,0-4.286,2.83,8.659,8.659,0,0,0-.235,2.354s-1.423.262-.121,2.565c.03.053.39.236.407.295C12.5,11.4,14.093,14.6,16.5,14.6Z" transform="translate(25.452 613.5)"/><g transform="translate(32.448 627.413)"><g transform="translate(0 0)"><path class="b" d="M14.844,27.02a6.93,6.93,0,0,0,2.622,1.437c2.436.769,4.523,2.216,4.7,6.035a49.844,49.844,0,0,1-9.5.849,49.844,49.844,0,0,1-9.5-.849c.182-3.819,2.269-5.266,4.7-6.035a6.93,6.93,0,0,0,2.622-1.437" transform="translate(-3.167 -27.02)"/></g></g><g transform="translate(44.95 626.185)"><circle class="c" cx="5.617" cy="5.617" r="5.617" transform="translate(0 0)"/><line class="d" x1="4.213" y2="4.213" transform="translate(3.511 3.511)"/><line class="d" x1="4.213" y1="4.213" transform="translate(3.511 3.511)"/></g></g></svg>