
<svg xmlns="http://www.w3.org/2000/svg" width="12.59" height="12.59" viewBox="0 0 12.59 12.59">
  <g id="icon_gear" transform="translate(-229.705 -74.705)">
    <path id="icon_settings" d="M11.941,4.9H10.764a.452.452,0,0,1-.32-.772l.833-.833a.649.649,0,0,0,0-.917L10.215,1.313a.664.664,0,0,0-.917,0l-.833.833a.438.438,0,0,1-.315.134.47.47,0,0,1-.318-.126.437.437,0,0,1-.139-.328V.648A.649.649,0,0,0,7.046,0h-1.5A.649.649,0,0,0,4.9.648V1.826a.451.451,0,0,1-.457.453.438.438,0,0,1-.315-.134l-.833-.833a.664.664,0,0,0-.917,0L1.313,2.375a.649.649,0,0,0,0,.917l.833.833a.452.452,0,0,1-.32.772H.648A.649.649,0,0,0,0,5.544v1.5a.649.649,0,0,0,.648.649H1.826a.452.452,0,0,1,.32.772L1.313,9.3a.649.649,0,0,0,0,.917l1.061,1.061a.663.663,0,0,0,.917,0l.833-.833a.438.438,0,0,1,.315-.134.451.451,0,0,1,.457.453v1.178a.649.649,0,0,0,.648.648h1.5a.649.649,0,0,0,.648-.648V10.764a.451.451,0,0,1,.457-.453.439.439,0,0,1,.315.134l.833.833a.664.664,0,0,0,.917,0l1.061-1.061a.649.649,0,0,0,0-.917l-.833-.833a.452.452,0,0,1,.32-.772h1.178a.649.649,0,0,0,.648-.648v-1.5A.649.649,0,0,0,11.941,4.9Zm-4.015,1.4A1.632,1.632,0,1,1,6.295,4.663,1.634,1.634,0,0,1,7.927,6.295Z" transform="translate(229.705 74.705)" fill="#fafafa"/>
    <circle id="Ellipse_1945" data-name="Ellipse 1945" cx="3.5" cy="3.5" r="3.5" transform="translate(232.5 77.5)" fill="#C36564"/>
  </g>
</svg>