<svg xmlns="http://www.w3.org/2000/svg" xmlns:xlink="http://www.w3.org/1999/xlink" width="135" height="125" viewBox="0 0 135 125">
  <defs>
    <clipPath id="clip-path">
      <path id="Rectangle_5776" data-name="Rectangle 5776" d="M0,0H135a0,0,0,0,1,0,0V125a0,0,0,0,1,0,0H10A10,10,0,0,1,0,115V0A0,0,0,0,1,0,0Z" fill="#fafafa" stroke="#707070" stroke-width="1"/>
    </clipPath>
    <clipPath id="clip-path-2">
      <rect id="Rectangle_3309" data-name="Rectangle 3309" width="103" height="128" fill="none"/>
    </clipPath>
  </defs>
  <g id="illustration" clip-path="url(#clip-path)">
    <g id="illustration-2" data-name="illustration" transform="translate(0 -7)" clip-path="url(#clip-path-2)">
      <g id="fireworks" transform="translate(-10 9.373)" opacity="0.551">
        <path id="Path_8357" data-name="Path 8357" d="M198.1,114.629a1.713,1.713,0,0,0,1.228-2.905l-2.13-2.194a1.712,1.712,0,1,0-2.457,2.386l2.13,2.194A1.708,1.708,0,0,0,198.1,114.629Zm0,0" transform="translate(-142.548 -83.753)" fill="#ff4e61"/>
        <path id="Path_8359" data-name="Path 8359" d="M410.255,445.142a1.712,1.712,0,0,0,1.229-2.905l-2.13-2.194a1.713,1.713,0,1,0-2.458,2.386l2.13,2.194A1.708,1.708,0,0,0,410.255,445.142Zm0,0" transform="translate(-403.855 -337.688)" fill="#ffe581"/>
        <path id="Path_8361" data-name="Path 8361" d="M8.762,260.191a1.712,1.712,0,0,0,1.228-2.905l-2.129-2.194A1.713,1.713,0,1,0,5.4,257.478l2.13,2.194A1.706,1.706,0,0,0,8.762,260.191Zm0,0" transform="translate(90.661 -195.59)" fill="#70c1b3"/>
        <path id="Path_8370" data-name="Path 8370" d="M320.764,244.18a1.7,1.7,0,0,0,1.221-.512l.019-.019a1.713,1.713,0,1,0-2.443-2.4l-.019.019a1.713,1.713,0,0,0,1.222,2.913Zm0,0" transform="translate(-294.142 -184.958)" fill="#ff4e61"/>
        <path id="Path_8372" data-name="Path 8372" d="M308.159,28.771a1.713,1.713,0,0,0,1.485-2.561L296.47,3.121a1.713,1.713,0,0,0-2.975,1.7l13.175,23.089A1.713,1.713,0,0,0,308.159,28.771Zm0,0" transform="translate(-275.543 -1.734)" fill="#f4d59e"/>
        <path id="Path_8374" data-name="Path 8374" d="M263.247,160.842a1.7,1.7,0,0,0,.882-.246l.023-.014a1.713,1.713,0,1,0-1.768-2.933l-.023.014a1.713,1.713,0,0,0,.886,3.179Zm0,0" transform="translate(-223.301 -120.934)" fill="#2dc471"/>
        <path id="Path_8376" data-name="Path 8376" d="M153.428,138.925a1.712,1.712,0,0,0,.884-3.18l-.024-.014a1.713,1.713,0,0,0-1.764,2.936l.023.014A1.706,1.706,0,0,0,153.428,138.925Zm0,0" transform="translate(-88.014 -104.095)" fill="#ff4e61"/>
        <path id="Path_8379" data-name="Path 8379" d="M274.464,387.561a1.712,1.712,0,0,0,1.712-1.712c0-13.26-5.29-22.224-9.728-27.41a35.624,35.624,0,0,0-9.844-8.218,1.713,1.713,0,0,0-1.55,3.055,32.934,32.934,0,0,1,8.889,7.506c5.845,6.886,8.808,15.32,8.808,25.068A1.712,1.712,0,0,0,274.464,387.561Zm0,0" transform="translate(-232.778 -268.934)" fill="#a9c3c9"/>
        <g id="Group_44655" data-name="Group 44655">
          <path id="Path_8360" data-name="Path 8360" d="M59.524,94.28a1.712,1.712,0,0,0,1.228-2.905l-2.13-2.194a1.712,1.712,0,1,0-2.457,2.386L58.3,93.76A1.708,1.708,0,0,0,59.524,94.28Zm0,0" transform="translate(28.138 -68.119)" fill="#f4d59e"/>
          <path id="Path_8365" data-name="Path 8365" d="M214.5,320.64h.034a1.712,1.712,0,0,0-.007-3.425h-.034a1.712,1.712,0,0,0,.007,3.425Zm0,0" transform="translate(-163.268 -243.719)" fill="#f4d59e"/>
          <path id="Path_8367" data-name="Path 8367" d="M108.293,247.082a1.713,1.713,0,0,0,1.225-2.91l-.019-.019a1.713,1.713,0,1,0-2.45,2.394l.018.019A1.71,1.71,0,0,0,108.293,247.082Zm0,0" transform="translate(-32.42 -187.188)" fill="#f4d59e"/>
          <path id="Path_8369" data-name="Path 8369" d="M365.95,153.833a1.712,1.712,0,0,0,1.228-2.905L348.8,131.991a1.713,1.713,0,0,0-2.458,2.386l18.383,18.937A1.708,1.708,0,0,0,365.95,153.833Zm0,0" transform="translate(-345.519 -101.01)" fill="#f4d59e"/>
          <path id="Path_8371" data-name="Path 8371" d="M303.314,262.157a1.708,1.708,0,0,0,1.229-.52l.019-.019a1.713,1.713,0,0,0-2.458-2.387l-.019.019a1.713,1.713,0,0,0,1.229,2.906Zm0,0" transform="translate(-272.648 -198.771)" fill="#f4d59e"/>
          <path id="Path_8373" data-name="Path 8373" d="M275.754,138.925a1.706,1.706,0,0,0,.878-.243l.023-.014a1.713,1.713,0,0,0-1.759-2.94l-.023.014a1.712,1.712,0,0,0,.881,3.182Zm0,0" transform="translate(-238.706 -104.096)" fill="#f4d59e"/>
          <path id="Path_8377" data-name="Path 8377" d="M165.936,160.842a1.713,1.713,0,0,0,.89-3.178l-.023-.014a1.713,1.713,0,1,0-1.776,2.93l.023.014A1.7,1.7,0,0,0,165.936,160.842Zm0,0" transform="translate(-103.419 -120.934)" fill="#f4d59e"/>
          <path id="Path_8381" data-name="Path 8381" d="M152.592,435.128a1.712,1.712,0,0,0,1.712-1.712,39.1,39.1,0,0,1,4.6-18.937,1.713,1.713,0,0,0-3.008-1.639,42.505,42.505,0,0,0-5.016,20.576A1.712,1.712,0,0,0,152.592,435.128Zm0,0" transform="translate(-91.795 -316.5)" fill="#f4d59e"/>
          <path id="Path_8382" data-name="Path 8382" d="M229.254,40.2a4.6,4.6,0,1,1,4.6,4.735A4.667,4.667,0,0,1,229.254,40.2Zm0,0" transform="translate(-189.287 -27.248)" fill="#f4d59e"/>
        </g>
        <path id="Path_8384" data-name="Path 8384" d="M12.313,438.265a3.687,3.687,0,1,1,3.686,3.8A3.742,3.742,0,0,1,12.313,438.265Zm0,0" transform="translate(79.738 -333.805)" fill="#70c1b3"/>
        <g id="Group_44653" data-name="Group 44653">
          <path id="Path_8358" data-name="Path 8358" d="M410.255,81.76a1.712,1.712,0,0,0,1.229-2.905l-2.13-2.194a1.713,1.713,0,0,0-2.458,2.386l2.13,2.194A1.708,1.708,0,0,0,410.255,81.76Zm0,0" transform="translate(-403.855 -58.5)" fill="#a9c3c9"/>
          <path id="Path_8363" data-name="Path 8363" d="M214.56,411.829a1.712,1.712,0,0,0,1.712-1.712V383.334a1.712,1.712,0,1,0-3.425,0v26.782A1.712,1.712,0,0,0,214.56,411.829Zm0,0" transform="translate(-163.313 -293.201)" fill="#a9c3c9"/>
          <path id="Path_8364" data-name="Path 8364" d="M214.5,346.062h.026a1.713,1.713,0,1,0,0-3.426H214.5a1.713,1.713,0,0,0,0,3.426Zm0,0" transform="translate(-163.268 -263.25)" fill="#a9c3c9"/>
          <path id="Path_8368" data-name="Path 8368" d="M125.745,265.058a1.712,1.712,0,0,0,1.228-2.905l-.018-.02a1.713,1.713,0,0,0-2.458,2.387l.019.019A1.708,1.708,0,0,0,125.745,265.058Zm0,0" transform="translate(-53.915 -201)" fill="#a9c3c9"/>
          <path id="Path_8375" data-name="Path 8375" d="M77.409,28.77a1.712,1.712,0,0,0,1.49-.864L92.074,4.818A1.713,1.713,0,0,0,89.1,3.12L75.924,26.208a1.713,1.713,0,0,0,1.485,2.562Zm0,0" transform="translate(-7.563 -1.734)" fill="#a9c3c9"/>
          <path id="Path_8383" data-name="Path 8383" d="M333.41,431.113a4.6,4.6,0,1,1,4.595,4.734A4.666,4.666,0,0,1,333.41,431.113Zm0,0" transform="translate(-317.574 -327.59)" fill="#a9c3c9"/>
          <path id="Path_8385" data-name="Path 8385" d="M56.355,275.762a3.687,3.687,0,1,1,3.686,3.8A3.742,3.742,0,0,1,56.355,275.762Zm0,0" transform="translate(25.491 -208.953)" fill="#a9c3c9"/>
        </g>
        <g id="Group_44654" data-name="Group 44654">
          <path id="Path_8356" data-name="Path 8356" d="M98.372,477.715a1.713,1.713,0,0,0,1.228-2.906l-2.129-2.193A1.713,1.713,0,0,0,95.014,475l2.13,2.193A1.705,1.705,0,0,0,98.372,477.715Zm0,0" transform="translate(-19.712 -362.715)" fill="#fda7a2"/>
          <path id="Path_8366" data-name="Path 8366" d="M2.213,156.739a1.708,1.708,0,0,0,1.229-.52l18.383-18.938a1.712,1.712,0,0,0-2.457-2.386L.984,153.834a1.713,1.713,0,0,0,1.229,2.905Zm0,0" transform="translate(79.851 -103.242)" fill="#fda7a2"/>
          <g id="Group_11057" data-name="Group 11057" transform="translate(17.654)">
            <path id="Path_8386" data-name="Path 8386" d="M179.023,3.8a3.687,3.687,0,1,1,7.372,0,3.687,3.687,0,1,1-7.372,0Zm0,0" transform="translate(-143.253)" fill="#fda7a2"/>
            <path id="Path_8387" data-name="Path 8387" d="M333.406,140.29a3.688,3.688,0,1,1,3.686,3.8A3.744,3.744,0,0,1,333.406,140.29Zm0,0" transform="translate(-333.406 -104.868)" fill="#fda7a2"/>
            <path id="Path_8388" data-name="Path 8388" d="M136.406,14.113a1.713,1.713,0,0,0,1.229-2.905l-2.13-2.194a1.712,1.712,0,1,0-2.457,2.386l2.129,2.194A1.709,1.709,0,0,0,136.406,14.113Zm0,0" transform="translate(-84.212 -6.526)" fill="#fda7a2"/>
          </g>
        </g>
      </g>
    </g>
    <path id="Path_116982" data-name="Path 116982" d="M174.984,198.137l5.56,3.011a1.979,1.979,0,0,0,2.852-2.135l-1.062-6.377a2.061,2.061,0,0,1,.565-1.792l4.5-4.517a2.041,2.041,0,0,0-1.09-3.454l-6.215-.93a1.968,1.968,0,0,1-1.48-1.108l-2.78-5.8a1.941,1.941,0,0,0-3.525,0l-2.779,5.8a1.971,1.971,0,0,1-1.48,1.108l-6.216.93a2.041,2.041,0,0,0-1.089,3.454l4.5,4.517a2.062,2.062,0,0,1,.566,1.792l-1.062,6.377a1.978,1.978,0,0,0,2.851,2.135l5.56-3.011A1.913,1.913,0,0,1,174.984,198.137Zm0,0" transform="translate(-132.822 -131.238)" fill="#db9692"/>
    <path id="Path_116983" data-name="Path 116983" d="M366.252,300.65l3.6,2.688a1.389,1.389,0,0,0,2.207-1.2l-.117-4.576a1.45,1.45,0,0,1,.572-1.2l3.593-2.693a1.45,1.45,0,0,0-.423-2.532l-4.261-1.3a1.412,1.412,0,0,1-.927-.93l-1.376-4.352a1.374,1.374,0,0,0-2.468-.368l-2.517,3.773a1.38,1.38,0,0,1-1.145.621l-4.444,0a1.436,1.436,0,0,0-1.1,2.305l2.705,3.631a1.468,1.468,0,0,1,.22,1.314l-1.371,4.355a1.411,1.411,0,0,0,1.787,1.792l4.189-1.529A1.357,1.357,0,0,1,366.252,300.65Zm0,0" transform="translate(-367.15 -215.496)" fill="#db9692"/>
    <path id="Path_116984" data-name="Path 116984" d="M84.533,344.243l-2.726,3.616a1.376,1.376,0,0,1-2.444-.516l-1.127-4.428a1.418,1.418,0,0,0-.873-.984l-4.18-1.554a1.451,1.451,0,0,1-.28-2.552l3.74-2.473a1.447,1.447,0,0,0,.639-1.159l.143-4.576a1.385,1.385,0,0,1,2.27-1.063l3.438,2.9a1.36,1.36,0,0,0,1.268.268l4.268-1.274a1.415,1.415,0,0,1,1.682,1.9l-1.615,4.266a1.469,1.469,0,0,0,.145,1.325l2.5,3.788a1.432,1.432,0,0,1-1.231,2.235l-4.436-.264A1.375,1.375,0,0,0,84.533,344.243Zm0,0" transform="translate(-16.088 -249.807)" fill="#db9692"/>
  </g>
</svg>
