<svg xmlns="http://www.w3.org/2000/svg" width="30" height="30" viewBox="0 0 30 30">
  <g id="test" transform="translate(-38 -283)">
    <circle id="Ellipse_2030" data-name="Ellipse 2030" cx="15" cy="15" r="15" transform="translate(38 283)" fill="#69a2b0"/>
    <g id="Group_10891" data-name="Group 10891" transform="translate(46.064 291.064)">
      <path id="Path_8093" data-name="Path 8093" d="M27.441,23.408a1.7,1.7,0,0,0,1.906.065,1.661,1.661,0,0,0,.623-.71l1.673,1.673a1.132,1.132,0,0,1,0,1.6L29.971,27.71a1.7,1.7,0,1,1-2.257,2.257L26.04,31.641a1.132,1.132,0,0,1-1.6,0l-1.673-1.673a1.661,1.661,0,0,0,.71-.623,1.7,1.7,0,0,0-2.639-2.107,1.557,1.557,0,0,0-.328.472l-2.073-2.073a1.132,1.132,0,0,1,0-1.6l1.913-1.913a1.68,1.68,0,0,1-1.359-.8,1.7,1.7,0,1,1,3.134-.975l1.913-1.913a1.132,1.132,0,0,1,1.6,0L27.712,20.5a1.557,1.557,0,0,0-.472.328,1.7,1.7,0,0,0,.2,2.575Z" transform="translate(-18.103 -18.099)" fill="#f8f8f8"/>
      <path id="Path_8095" data-name="Path 8095" d="M31.687,34.655a.566.566,0,0,1-.4-.966l2.4-2.4a.566.566,0,1,1,.8.8l-2.4,2.4a.562.562,0,0,1-.4.166Z" transform="translate(-23.719 -23.684)" fill="#69a2b0"/>
      <path id="Path_8096" data-name="Path 8096" d="M23.909,26.877a.566.566,0,0,1-.4-.966l2.4-2.4a.566.566,0,1,1,.8.8l-2.4,2.4A.566.566,0,0,1,23.909,26.877Z" transform="translate(-20.372 -20.362)" fill="#69a2b0"/>
    </g>
  </g>
</svg>
