<svg xmlns="http://www.w3.org/2000/svg" xmlns:xlink="http://www.w3.org/1999/xlink" width="66.991" height="62.332" viewBox="0 0 66.991 62.332">
  <defs>
    <clipPath id="clip-path">
      <rect id="Rectangle_7122" data-name="Rectangle 7122" width="47.958" height="57.049" fill="none"/>
    </clipPath>
  </defs>
  <g id="illustration_thanksgiving" transform="translate(-36.277 -439.108)">
    <g id="Group_30067" data-name="Group 30067" transform="translate(35.79 441.5)">
      <g id="Group_30062" data-name="Group 30062" transform="translate(0 0)" opacity="0.5">
        <path id="Path_20574" data-name="Path 20574" d="M333.406,140.421a3.816,3.816,0,1,1,3.814,3.928A3.873,3.873,0,0,1,333.406,140.421Zm0,0" transform="translate(-273.557 -113.62)" fill="#ff7861"/>
        <path id="Path_20576" data-name="Path 20576" d="M229.254,40.363a4.757,4.757,0,1,1,4.755,4.9A4.828,4.828,0,0,1,229.254,40.363Zm0,0" transform="translate(-201.868 14.678)" fill="#ffe581"/>
        <path id="Path_20577" data-name="Path 20577" d="M12.313,438.4a3.815,3.815,0,1,1,3.814,3.929A3.872,3.872,0,0,1,12.313,438.4Zm0,0" transform="translate(-1.15 -434.469)" fill="#70c1b3"/>
        <path id="Path_20578" data-name="Path 20578" d="M108.353,247.2a1.773,1.773,0,0,0,1.268-3.01l-.02-.02a1.772,1.772,0,1,0-2.535,2.477l.019.02A1.769,1.769,0,0,0,108.353,247.2Zm0,0" transform="translate(-104.71 -226.271)" fill="#fa0"/>
        <path id="Path_20563" data-name="Path 20563" d="M1.794,3.558A1.772,1.772,0,0,0,2.709.267L2.685.253A1.772,1.772,0,0,0,.86,3.291L.883,3.3A1.766,1.766,0,0,0,1.794,3.558Zm0,0" transform="matrix(0.899, 0.438, -0.438, 0.899, 53.758, 46.181)" fill="#ff4e61"/>
        <path id="Path_20564" data-name="Path 20564" d="M1.794,3.558A1.772,1.772,0,0,0,2.714.271L2.691.257A1.772,1.772,0,1,0,.854,3.288L.877,3.3A1.763,1.763,0,0,0,1.794,3.558Zm0,0" transform="matrix(0.899, 0.438, -0.438, 0.899, 48.76, 49.589)" fill="#fa0"/>
        <path id="Path_20548" data-name="Path 20548" d="M8.9,260.386a1.772,1.772,0,0,0,1.271-3.006l-2.2-2.27a1.772,1.772,0,1,0-2.543,2.468l2.2,2.27A1.765,1.765,0,0,0,8.9,260.386Zm0,0" transform="translate(10.996 -204.43)" fill="#70c1b3"/>
        <path id="Path_20580" data-name="Path 20580" d="M136.539,14.308a1.772,1.772,0,0,0,1.272-3.006l-2.2-2.27a1.772,1.772,0,1,0-2.542,2.468l2.2,2.27A1.768,1.768,0,0,0,136.539,14.308Zm0,0" transform="translate(-122.396 2.27)" fill="#ff7861"/>
        <g id="Group_30064" data-name="Group 30064" transform="matrix(-0.966, 0.259, -0.259, -0.966, 53.198, 8.758)">
          <path id="Path_20554" data-name="Path 20554" d="M1.792,0A1.773,1.773,0,0,1,3.06,3.01l-.02.02A1.772,1.772,0,0,1,.5.553L.524.534A1.769,1.769,0,0,1,1.792,0Zm0,0" transform="translate(4.184 4.309)" fill="#fa0"/>
          <path id="Path_20555" data-name="Path 20555" d="M1.792,0A1.772,1.772,0,0,1,3.063,3.006l-.019.021A1.772,1.772,0,0,1,.5.557L.52.537A1.767,1.767,0,0,1,1.792,0Zm0,0" transform="translate(0 0)" fill="#C36564"/>
        </g>
        <path id="Path_20617" data-name="Path 20617" d="M56.355,274.069a2.043,2.043,0,1,1,2.043,2.1A2.074,2.074,0,0,1,56.355,274.069Zm0,0" transform="translate(-55.869 -221.131)" fill="#C36564"/>
        <g id="Group_37738" data-name="Group 37738" transform="matrix(0.454, 0.891, -0.891, 0.454, 7.851, 33.013)">
          <path id="Path_20618" data-name="Path 20618" d="M1.774,3.558a1.765,1.765,0,0,0,.908-.251l.023-.014A1.772,1.772,0,0,0,.886.251L.863.266a1.772,1.772,0,0,0,.911,3.292Zm0,0" transform="translate(0 0)" fill="#fa0"/>
          <path id="Path_20619" data-name="Path 20619" d="M1.774,3.558A1.763,1.763,0,0,0,2.687,3.3l.023-.014A1.772,1.772,0,1,0,.88.255L.857.269a1.772,1.772,0,0,0,.917,3.29Zm0,0" transform="translate(2.999 5.254)" fill="#2dc471"/>
        </g>
      </g>
    </g>
    <g id="Group_37737" data-name="Group 37737" transform="translate(47.361 498.67) rotate(-103)">
      <g id="Group_37736" data-name="Group 37736" clip-path="url(#clip-path)">
        <path id="Path_23655" data-name="Path 23655" d="M13.74,27a21.606,21.606,0,0,0-8.784,1.553c.974.662,3.572,2.225-1.857,4.615.323.423,1.943,2.317-3.1,6.475.4-.052,10.347-6.307,5.85,6.682.664-.2,3.844-2.065,3.6,4.664.686-.082,2.067-.079,1.881,6.058.652-1.916,1.6-5.849,3.783-5.177.092-.913,1.433-11.532,8.395,2.758.29-.636-.388-7.626,4.454-.9.254-.7.1-2.9,5.658,1.1-.456-1.124-2.722-8.561.646-8.549-.975-1.049-3.825-3.678-1.831-3.888C31.36,41.318,22.55,31.811,38.4,39.105c-.735-1.313,1.281-6.491,5.167-4.012-.566-1.321-1.5-2.523,4.394-3.622-1.514-.7-6.034-2.312-3.118-4.418-1.358.113-8.257-.508-3.494-5.629-2.862.739-20.18,4.137-4.57-6.32-.923-.647-3.571-1.837.483-4.451-.936-.209-3.178.1.906-4.773-1.774.6-5.712,2.808-5.649-.545-1.195,1.1-5.584,4.115-5.164-2.067-1.948,3.373-8.575,12.555-7.7,2.412-.846.645-3.3-.436-3.48-5.681-1,3.144-1.647,6.222-3.691,4.263.223,1.168.448,5.653-4.259,2.555.387,2.154,4.9,12.77-6.165,7.543.5,1.357,5.4,6.113,2.695,6.9,1.156.6,5.1,3.265.348,3.856C7.807,26.679,13.74,27,13.74,27" fill="#fea526"/>
        <path id="Path_23656" data-name="Path 23656" d="M33.469,5.722l.33-.233.275-.195-.272.2-.327.238-.435.332c-.65.5-1.564,1.231-2.636,2.138-.343.289-.7.6-1.074.919l.071.041.145.084c.057.031.123.06.195.094a3.293,3.293,0,0,0,1.12.3,3.718,3.718,0,0,0,.624-.014c.2-.023.383-.057.541-.087s.29-.053.383-.061.147-.006.147-.006-.054,0-.147.011-.224.038-.381.073-.34.074-.54.1a3.792,3.792,0,0,1-.631.033,3.355,3.355,0,0,1-1.152-.27c-.074-.033-.144-.061-.2-.091l-.15-.081-.105-.057c-.594.514-1.22,1.066-1.869,1.645l.073.045a1.624,1.624,0,0,0,.175.095,1.967,1.967,0,0,0,.235.107,4.363,4.363,0,0,0,.618.2,6.012,6.012,0,0,0,.738.127,6.891,6.891,0,0,0,1.4.007c.191-.02.349-.045.459-.066l.173-.036-.171.04c-.11.023-.268.052-.459.077a6.917,6.917,0,0,1-1.411.028,6.2,6.2,0,0,1-.749-.109,4.51,4.51,0,0,1-.635-.189,2.226,2.226,0,0,1-.244-.1,1.66,1.66,0,0,1-.183-.093l-.1-.06-.685.615,0,.013-.027.009c-.808.728-1.642,1.491-2.482,2.269a2.061,2.061,0,0,0,.223.1,4.113,4.113,0,0,0,.972.177,16.473,16.473,0,0,0,3.056-.137c.472-.057.943-.126,1.392-.2l.2-.176a2.176,2.176,0,0,1,.572-.4,2.72,2.72,0,0,1,.686-.14c.189-.023.315-.043.315-.043s-.125.022-.314.049a2.7,2.7,0,0,0-.678.152,2.162,2.162,0,0,0-.558.412l-.147.138c.578-.094,1.118-.194,1.572-.285.411-.082.753-.157.992-.213s.373-.094.373-.094-.134.042-.371.1-.577.144-.987.236c-.82.184-1.919.4-3.029.565-.24.035-.481.066-.72.094l.165.116a6.05,6.05,0,0,0,.571.347,6.085,6.085,0,0,0,.616.263l.289.1L29,14.884a6.047,6.047,0,0,1-.634-.232,6.03,6.03,0,0,1-.6-.32l-.262-.164.007-.01a13.831,13.831,0,0,1-2.225.1,4.291,4.291,0,0,1-1.023-.163,1.77,1.77,0,0,1-.278-.114l-.043-.022q-.6.56-1.206,1.127l-.189.178.259.125c.206.1.48.237.755.361.07.026.142.046.212.07a1.062,1.062,0,0,0,.215.024,1.671,1.671,0,0,0,.384-.047c.111-.027.2-.054.266-.074l.1-.031-.1.036c-.063.023-.153.054-.264.086a1.685,1.685,0,0,1-.387.064,1.115,1.115,0,0,1-.223-.015c-.073-.021-.149-.04-.223-.063-.286-.115-.561-.241-.773-.33l-.3-.131c-.994.936-1.978,1.876-2.921,2.788.075.031.179.085.319.132a6.034,6.034,0,0,0,1.226.311,8.512,8.512,0,0,0,1.8.062,13.039,13.039,0,0,0,2.006-.307c0-.013.005-.027.009-.045a2.541,2.541,0,0,1,.065-.256,2.864,2.864,0,0,1,.346-.713,2.679,2.679,0,0,1,.521-.59,1.064,1.064,0,0,1,.218-.14.589.589,0,0,1,.092-.032.625.625,0,0,0-.091.036,1.046,1.046,0,0,0-.21.149,2.636,2.636,0,0,0-.488.6,2.772,2.772,0,0,0-.306.71,2.375,2.375,0,0,0-.051.248v0a21.636,21.636,0,0,0,3.3-1.1c.007-.02.034-.095.08-.2a2.385,2.385,0,0,1,.265-.414,2.978,2.978,0,0,1,.332-.361,1.414,1.414,0,0,1,.174-.139,1.45,1.45,0,0,0-.17.143,3,3,0,0,0-.319.369,2.357,2.357,0,0,0-.249.416c-.029.072-.049.128-.061.164l.268-.114c.488-.212.89-.4,1.171-.533l.442-.207-.438.215c-.278.138-.676.334-1.161.555-.572.261-1.269.554-2.028.823l.033.037a1.12,1.12,0,0,0,.133.133,1.568,1.568,0,0,0,.492.288,4.191,4.191,0,0,0,.824.154,4.2,4.2,0,0,1-.831-.135,1.608,1.608,0,0,1-.508-.281,1.211,1.211,0,0,1-.139-.134l-.045-.049c-.513.18-1.053.349-1.6.488a13.767,13.767,0,0,1-1.767.325c.009.059.024.141.045.239a1.855,1.855,0,0,0,.288.68,1.573,1.573,0,0,0,.286.274,2.407,2.407,0,0,0,.3.173c.092.047.172.079.227.1l.087.037-.089-.033c-.057-.021-.138-.049-.232-.092a2.472,2.472,0,0,1-.316-.16,1.629,1.629,0,0,1-.309-.27,1.917,1.917,0,0,1-.331-.69c-.028-.1-.047-.19-.059-.25-.065.007-.132.016-.2.021a8.677,8.677,0,0,1-1.832-.03,6.232,6.232,0,0,1-1.269-.3c-.151-.048-.262-.1-.342-.134l-.07-.029c-.644.624-1.268,1.234-1.861,1.819l.083.046.224.124a3.137,3.137,0,0,0,.3.151,9.824,9.824,0,0,0,3.425.977,3.223,3.223,0,0,0,.333.027l.258.013.225.011-.225,0-.258,0a3.112,3.112,0,0,1-.335-.015,9.929,9.929,0,0,1-3.5-.85,3.274,3.274,0,0,1-.307-.142l-.233-.117-.141-.071c-.553.547-1.077,1.071-1.564,1.564a.561.561,0,0,0,.1.079,1.608,1.608,0,0,0,.491.181,3.013,3.013,0,0,0,.529.07,1.132,1.132,0,0,0,.243-.01,1.13,1.13,0,0,1-.243.026,3,3,0,0,1-.539-.035,1.679,1.679,0,0,1-.525-.156.656.656,0,0,1-.125-.086l-.383.39c-.982,1-1.787,1.85-2.327,2.46-.212.241-.386.444-.51.6l.021.047,5.368.668c.034-.079.081-.18.138-.3a4.544,4.544,0,0,1,.626-.97,2.148,2.148,0,0,1,.936-.657,1.894,1.894,0,0,1,.371-.082l.144-.011-.143.014a1.857,1.857,0,0,0-.368.088,2.127,2.127,0,0,0-.915.668,4.484,4.484,0,0,0-.6.972c-.052.108-.094.2-.126.28l2.843.354c.005-.017.012-.034.019-.053a2.43,2.43,0,0,1,.175-.339,6.485,6.485,0,0,1,.8-1.041c.126-.136.267-.275.415-.414l.027-.123c.025-.155.047-.364.061-.574a2.68,2.68,0,0,1,.079-.573.591.591,0,0,1,.088-.169l.049-.053-.048.054a.586.586,0,0,0-.084.17,2.665,2.665,0,0,0-.064.572c-.009.21-.026.42-.047.578l-.015.074a9.735,9.735,0,0,1,.922-.758,11.511,11.511,0,0,1,1.813-1.071c.076-.036.154-.069.231-.1l.005-.028c.01-.046.018-.112.039-.189a1.255,1.255,0,0,1,.242-.532,2.313,2.313,0,0,1,.453-.369l.219-.15-.215.156a2.284,2.284,0,0,0-.441.377,1.233,1.233,0,0,0-.224.527c-.019.077-.026.143-.034.189h0a15.121,15.121,0,0,1,3.468-1.049c.527-.095.97-.149,1.28-.183s.488-.047.488-.047-.177.018-.487.058-.75.1-1.274.21a14.8,14.8,0,0,0-3.7,1.246,11.585,11.585,0,0,0-1.279.749,1.532,1.532,0,0,0,.155.132,1.93,1.93,0,0,0,.54.3,3.362,3.362,0,0,0,.6.156l.279.047-.28-.04a3.41,3.41,0,0,1-.607-.143,1.965,1.965,0,0,1-.553-.289,1.5,1.5,0,0,1-.16-.131l-.008-.007c-.156.106-.308.214-.454.325a9.273,9.273,0,0,0-1.331,1.222,6.244,6.244,0,0,0-.752,1.02,2.248,2.248,0,0,0-.149.3l4.756.591.33-.291a1.9,1.9,0,0,1,.217-.171l.263-.191c.184-.142.407-.277.646-.429.6-.375,1.34-.782,2.146-1.186l.089-.2A6.066,6.066,0,0,1,29.826,24c.058-.1.126-.2.188-.288a2.107,2.107,0,0,1,.183-.239.7.7,0,0,1,.251-.147.693.693,0,0,0-.241.156,2.118,2.118,0,0,0-.17.244c-.057.093-.121.191-.175.294a6.037,6.037,0,0,0-.28.575l-.046.116c.46-.23.939-.458,1.421-.678s.985-.441,1.466-.645c.011-.048.039-.16.084-.306a5.97,5.97,0,0,1,.266-.7,3.545,3.545,0,0,1,.372-.652,1.359,1.359,0,0,1,.164-.185l.073-.058-.071.061a1.337,1.337,0,0,0-.156.19,3.56,3.56,0,0,0-.344.661,5.944,5.944,0,0,0-.237.707c-.027.1-.047.189-.059.247.825-.351,1.606-.665,2.257-.916.526-.2.967-.364,1.278-.475.156-.052.278-.1.362-.121l.13-.037-.129.039c-.084.027-.2.073-.359.128-.307.117-.746.286-1.266.5-.315.129-.664.276-1.031.433l.008.008a1.139,1.139,0,0,0,.119.11,2.1,2.1,0,0,0,.42.261,4.689,4.689,0,0,0,.467.183l.217.071-.221-.059a4.8,4.8,0,0,1-.479-.157,2.147,2.147,0,0,1-.447-.244,1.214,1.214,0,0,1-.131-.108l-.034-.03c-.826.355-1.75.769-2.664,1.209-.437.21-.868.427-1.286.644.045.022.1.05.175.082a2.2,2.2,0,0,0,.61.194l.931.157L30.5,25.1a2.39,2.39,0,0,1-.344-.068c-.106-.035-.206-.067-.288-.1-.11-.044-.193-.081-.237-.1-.844.442-1.624.887-2.237,1.29-.233.155-.451.292-.626.435l-.252.192a1.813,1.813,0,0,0-.207.17l-.163.15,1.248.155,3.234.422.057-.076.107-.142.15-.175a5.741,5.741,0,0,1,.909-.826,5.9,5.9,0,0,1,1.058-.611,3.545,3.545,0,0,1,.376-.143,1.072,1.072,0,0,1,.148-.036,1.09,1.09,0,0,0-.146.043,3.56,3.56,0,0,0-.367.16,5.8,5.8,0,0,0-1.019.654,5.627,5.627,0,0,0-.853.849l-.137.176-.1.142-.005.008,2.762.361.085-.2a1.153,1.153,0,0,1,.054-.118l.079-.13.09-.148c.036-.049.077-.1.118-.151a5.04,5.04,0,0,1,1.494-1.221,7.4,7.4,0,0,1,1.782-.729,4.14,4.14,0,0,1,.624-.115c.153-.008.241-.008.241-.008s-.088,0-.24.014a4.1,4.1,0,0,0-.619.128,7.348,7.348,0,0,0-1.755.764,6.109,6.109,0,0,0-.833.59,4.38,4.38,0,0,0-.339.322l-.147.158c-.045.053-.083.109-.123.16s-.078.1-.111.149l-.083.144-.073.126a1,1,0,0,0-.049.113l-.067.166,3.131.409.075-.117c.028-.043.06-.1.1-.155l.15-.188a3.571,3.571,0,0,1,.993-.805,4.166,4.166,0,0,1,1.2-.433,2.414,2.414,0,0,1,.417-.048.58.58,0,0,1,.158.015.571.571,0,0,0-.158-.011,2.384,2.384,0,0,0-.414.059,4.14,4.14,0,0,0-1.175.463,3.51,3.51,0,0,0-.952.816l-.141.186c-.038.058-.068.111-.094.154l-.048.079,5.833.762-4.249-.5.031.086.052.145.088.179a2.748,2.748,0,0,0,.676.829,3.648,3.648,0,0,0,.933.543c.137.057.255.093.337.12l.131.039-.131-.036c-.083-.024-.2-.058-.341-.111a3.658,3.658,0,0,1-.954-.523,2.8,2.8,0,0,1-.712-.828l-.1-.182-.058-.147-.049-.125-4.3-.5.04.142c.02.071.044.157.073.256s.076.2.12.323a4.871,4.871,0,0,0,.985,1.558,5.59,5.59,0,0,0,.753.648c.26.182.516.335.738.46s.41.225.537.3c.065.036.111.073.144.095l.05.035-.051-.034c-.034-.021-.081-.056-.146-.091-.128-.076-.318-.172-.543-.291s-.485-.267-.751-.444a5.673,5.673,0,0,1-.775-.637,4.96,4.96,0,0,1-1.037-1.561c-.048-.12-.1-.228-.131-.327l-.08-.259L34,28.206l-6.484-.758c0,.074.007.176.019.3a2.075,2.075,0,0,0,.093.465,1.864,1.864,0,0,0,.3.537,15.248,15.248,0,0,0,1.26,1.386l.249-.063a4.538,4.538,0,0,1,.682-.142,1.309,1.309,0,0,1,.372.014,2.393,2.393,0,0,1,.311.092c.09.031.162.063.213.084l.081.034-.081-.032c-.052-.02-.125-.051-.215-.08a2.238,2.238,0,0,0-.312-.085,1.282,1.282,0,0,0-.367-.006,4.517,4.517,0,0,0-.675.155l-.225.061a9.507,9.507,0,0,0,1.2.986c.264.178.532.348.789.529l.752.535c.247.169.472.351.689.517l.612.471,1.256.98-1.279-.949-.445-.326-.076.17a2.2,2.2,0,0,0-.129.453,1.994,1.994,0,0,0-.02.472c.011.129.019.215.019.215s-.01-.086-.025-.215a2.036,2.036,0,0,1,.006-.475,2.232,2.232,0,0,1,.118-.462l.074-.182-.143-.105c-.222-.16-.451-.336-.7-.5l-.762-.514c-.26-.175-.535-.339-.8-.511-.137-.082-.261-.186-.392-.277s-.261-.184-.382-.286l-.356-.306-.175-.15-.163-.159c-.215-.21-.426-.411-.608-.618s-.366-.39-.517-.584a2.915,2.915,0,0,1-.2-.292l-.009-.016-.022.006a.268.268,0,0,0-.136.115,1,1,0,0,0-.087.564c.014.428.028.856.028.856s-.024-.427-.049-.856a1.028,1.028,0,0,1,.078-.584.307.307,0,0,1,.152-.134l.016,0c-.017-.033-.033-.066-.049-.1a.789.789,0,0,1-.063-.147,2.321,2.321,0,0,1-.117-.515c-.016-.144-.025-.255-.028-.33,0-.011,0-.019,0-.028l-5.113-.567c.014.058.033.127.055.209a6.142,6.142,0,0,0,.407,1.011,10.842,10.842,0,0,0,1.448,2.1l.3-.076a2.944,2.944,0,0,1,.343-.047,1.037,1.037,0,0,1,.2,0c.067,0,.135,0,.2.011a1.723,1.723,0,0,1,.692.248,1.373,1.373,0,0,1,.19.15l.067.063-.07-.059a1.367,1.367,0,0,0-.2-.14,1.688,1.688,0,0,0-.688-.21c-.065-.007-.132,0-.2,0a.964.964,0,0,0-.189.011,2.894,2.894,0,0,0-.33.062l-.246.075c.148.17.3.34.454.505a23.968,23.968,0,0,0,2.5,2.259c.354.294.668.514.881.678l.337.254-.343-.245c-.216-.159-.536-.372-.9-.657-.291-.217-.617-.471-.956-.751l-.062.178a1.413,1.413,0,0,0-.047.484,1.435,1.435,0,0,0,.143.467,1.923,1.923,0,0,0,.114.193,1.972,1.972,0,0,1-.12-.19,1.269,1.269,0,0,1-.125-.962l.062-.2c-.511-.424-1.055-.907-1.571-1.423a12.445,12.445,0,0,1-2.022-2.591.569.569,0,0,0-.074.12,1.348,1.348,0,0,0-.142.49,1.374,1.374,0,0,0,.066.513.964.964,0,0,0,.068.158l.029.06-.033-.057a.946.946,0,0,1-.079-.155,1.4,1.4,0,0,1-.1-.521,1.417,1.417,0,0,1,.115-.526.974.974,0,0,1,.086-.159l.013-.021a6.38,6.38,0,0,1-.444-1.031c-.039-.131-.07-.234-.086-.306l-2.622-.29c-.005.081-.006.185,0,.3a4.159,4.159,0,0,0,.2,1.094,4.445,4.445,0,0,0,.474,1.012,2.541,2.541,0,0,0,.22.3l.1.1-.1-.1a2.6,2.6,0,0,1-.23-.291,4.461,4.461,0,0,1-.51-1,4.225,4.225,0,0,1-.238-1.106c-.006-.126-.009-.235-.006-.32l-6.448-.715.074.171.241.5c.367.752.938,1.806,1.685,3.039.269.446.562.917.872,1.405a.954.954,0,0,1,.286-.117,1.03,1.03,0,0,0,.366-.212,1.452,1.452,0,0,1,.438-.264,2.381,2.381,0,0,1,.94-.116,2.947,2.947,0,0,1,.31.038l.117.02-.117-.016a2.916,2.916,0,0,0-.31-.026,2.336,2.336,0,0,0-.92.148,1.379,1.379,0,0,0-.413.271,1.114,1.114,0,0,1-.383.239.827.827,0,0,0-.26.117c.332.52.685,1.061,1.055,1.617l.776-.221a8.225,8.225,0,0,1,2.17-.375,7.174,7.174,0,0,1,2.172.321l.389.128.291.121.253.107-.256-.1-.294-.113-.391-.118a7.139,7.139,0,0,0-2.162-.264,8.141,8.141,0,0,0-2.134.427l-.722.226c.553.828,1.14,1.688,1.751,2.564l.382-.017a11.1,11.1,0,0,1,1.189.012,10.406,10.406,0,0,1,1.662.243,6.814,6.814,0,0,1,.662.175l.217-.192c.139-.122.32-.288.509-.447a1.948,1.948,0,0,1,.577-.356,1,1,0,0,1,.218-.048l.084-.009-.084.012a.989.989,0,0,0-.214.057,1.916,1.916,0,0,0-.554.375c-.181.165-.355.34-.489.467l-.173.167.161.047c.3.113.614.215.91.354.3.124.59.282.876.429.2.114.389.228.576.345a.558.558,0,0,0,.1-.049,1.834,1.834,0,0,1,.179-.088c.034-.015.067-.032.1-.045l.113-.031.112-.03c.037-.006.075-.008.112-.013a1,1,0,0,1,.2-.01l.192.013H25.98a.982.982,0,0,0-.194.023c-.035.006-.072.011-.108.019l-.107.037-.107.036c-.034.015-.065.035-.1.051a1.773,1.773,0,0,0-.168.1.553.553,0,0,1-.058.037c.051.033.105.064.155.1.259.162.491.346.719.509s.43.334.611.5.354.306.5.444.272.252.371.354l.316.316-.324-.309c-.1-.1-.232-.213-.379-.345s-.318-.276-.506-.431-.4-.311-.621-.482-.466-.334-.728-.489c-.064-.042-.133-.08-.2-.12l-.032.015-.012-.042c-.184-.109-.373-.215-.566-.321-.286-.139-.574-.288-.877-.4-.258-.114-.526-.2-.789-.289a.916.916,0,0,1,.053.1c.079.152.166.361.254.568a3.3,3.3,0,0,0,.284.547,1.344,1.344,0,0,0,.125.16l.05.06-.053-.057a1.349,1.349,0,0,1-.133-.156,3.281,3.281,0,0,1-.312-.537c-.1-.2-.193-.408-.277-.552-.039-.075-.082-.129-.108-.17h0c-.308-.079-.606-.174-.905-.223a10.161,10.161,0,0,0-1.637-.2,10.8,10.8,0,0,0-1.166.016l-.228.015c.63.9,1.281,1.813,1.941,2.721q.305.421.612.84l.033-.018c.078-.043.191-.107.333-.17a1.761,1.761,0,0,1,.234-.092,1.842,1.842,0,0,1,.272-.071,4.649,4.649,0,0,1,.6-.052,6.678,6.678,0,0,1,1.124.02,2.09,2.09,0,0,1,.207.034,1.341,1.341,0,0,1,.157.036l.135.038-.136-.034a1.393,1.393,0,0,0-.158-.031,1.891,1.891,0,0,0-.207-.027,6.641,6.641,0,0,0-1.12.015,4.658,4.658,0,0,0-.591.07,1.745,1.745,0,0,0-.259.076,1.652,1.652,0,0,0-.223.1c-.136.066-.244.131-.321.177l-.023.014c.618.843,1.236,1.678,1.841,2.488l.04-.014a1.818,1.818,0,0,1,.243-.075,3.074,3.074,0,0,1,.886-.087,7.914,7.914,0,0,1,2.562.621c.535.212,1.053.456,1.518.692l.137-.051a1.873,1.873,0,0,1,.311-.081,1.851,1.851,0,0,1,.319-.012l.145.009h-.145a1.833,1.833,0,0,0-.314.033,1.855,1.855,0,0,0-.3.1l-.085.039c.281.144.542.285.772.413l.75.426c.091.052.162.092.211.118a.587.587,0,0,0,.077.037.535.535,0,0,1-.078-.034c-.05-.024-.123-.062-.215-.11l-.763-.4a21.543,21.543,0,0,0-2.1-.953c.014.127.049.425.1.718a1.043,1.043,0,0,0,.243.473.441.441,0,0,0,.074.068.352.352,0,0,0,.063.044l.059.033-.06-.031a.337.337,0,0,1-.066-.042.435.435,0,0,1-.078-.065,1.061,1.061,0,0,1-.266-.472c-.069-.331-.118-.657-.131-.75l-.221-.082a7.765,7.765,0,0,0-2.521-.528,2.859,2.859,0,0,0-.822.108,1.235,1.235,0,0,0-.191.065c1.122,1.5,2.2,2.912,3.143,4.146l.061-.033a.732.732,0,0,1,.132-.053.937.937,0,0,1,.177-.048,2.688,2.688,0,0,1,.964.013,6.677,6.677,0,0,1,.93.233c.249.079.412.139.412.139s-.165-.054-.417-.124a6.6,6.6,0,0,0-.932-.2,2.612,2.612,0,0,0-.937.021.918.918,0,0,0-.164.051.613.613,0,0,0-.12.054l-.044.025.487.635,1,1.306.053-.017.079-.025.1-.017a3.922,3.922,0,0,1,.558-.044,4.718,4.718,0,0,1,.559.023,1.053,1.053,0,0,1,.181.029l.068.016-.068-.015A1.129,1.129,0,0,0,29.377,48a4.816,4.816,0,0,0-.557-.009,3.907,3.907,0,0,0-.553.058l-.1.019-.074.026-.04.014,1.1,1.432c.254.336.453.6.584.785a3.133,3.133,0,0,1,.192.288,3.157,3.157,0,0,0-.2-.286c-.133-.182-.335-.445-.594-.777l-1.8-2.283-.028.059a.575.575,0,0,0-.042.115.831.831,0,0,0-.037.155,2.539,2.539,0,0,0,.026.861,4.789,4.789,0,0,0,.233.837,2.287,2.287,0,0,0,.164.359,2.3,2.3,0,0,1-.17-.357,4.8,4.8,0,0,1-.247-.836,2.569,2.569,0,0,1-.04-.871.847.847,0,0,1,.035-.16.582.582,0,0,1,.041-.12l.036-.079-.335-.425c-.359-.455-.743-.943-1.145-1.454l-.059.152a2.639,2.639,0,0,0-.087.267,3.53,3.53,0,0,0-.092.354,9.137,9.137,0,0,0-.207,1.957,9.845,9.845,0,0,0,.169,1.966c.023.133.059.251.084.358s.062.2.085.27l.1.228-.1-.226c-.025-.075-.058-.165-.091-.269s-.065-.225-.09-.358a9.867,9.867,0,0,1-.2-1.969A9.192,9.192,0,0,1,25.5,46.1a3.58,3.58,0,0,1,.087-.361,2.751,2.751,0,0,1,.084-.274l.079-.212c-.45-.573-.92-1.175-1.407-1.8l-.074.12-.065.1-.065.13a3.056,3.056,0,0,0-.147.317,6.584,6.584,0,0,0-.441,1.834,9.207,9.207,0,0,0-.005,1.9c.026.259.064.472.092.621l.055.232-.061-.231c-.033-.148-.078-.361-.111-.62a9.263,9.263,0,0,1-.052-1.911,6.7,6.7,0,0,1,.394-1.878,3.232,3.232,0,0,1,.142-.332l.064-.137.064-.111.1-.178q-.547-.7-1.114-1.441l-.028.033a3,3,0,0,0-.213.265,3.109,3.109,0,0,0-.475.912A2.486,2.486,0,0,0,22.3,44.11a1.809,1.809,0,0,0,.106.461,1.833,1.833,0,0,1-.122-.459,2.519,2.519,0,0,1,.075-1.041,3.186,3.186,0,0,1,.453-.948,3.14,3.14,0,0,1,.209-.278l.041-.051c-.843-1.1-1.709-2.236-2.565-3.384q-.249-.333-.5-.668l-.026.069c-.02.062-.039.135-.063.215a7.659,7.659,0,0,0-.233,1.389,20.094,20.094,0,0,0,0,2.889l.054.009.11.019.139.04a1.872,1.872,0,0,1,.665.38c.21.183.392.393.535.543l.236.253-.245-.244c-.148-.145-.338-.348-.552-.52a1.806,1.806,0,0,0-.658-.345l-.134-.034-.106-.014-.037,0c.029.448.066.9.115,1.36.129,1.242.314,2.475.5,3.515l.028,0a1.562,1.562,0,0,1,.194.029,2.041,2.041,0,0,1,1.03.542,1.54,1.54,0,0,1,.131.141l.049.055-.051-.052a1.579,1.579,0,0,0-.137-.134,2.195,2.195,0,0,0-.484-.317,2.171,2.171,0,0,0-.55-.165,1.488,1.488,0,0,0-.188-.019h-.008c.044.248.088.489.131.711.112.584.214,1.068.293,1.406.04.169.073.3.1.39a1.136,1.136,0,0,0,.044.136,1.145,1.145,0,0,1-.047-.135c-.028-.089-.064-.22-.108-.388-.087-.336-.2-.818-.328-1.4-.2-.9-.414-2.039-.6-3.239l-.018.005a1.048,1.048,0,0,0-.255.148,2.239,2.239,0,0,0-.548.732,3.2,3.2,0,0,0-.292.879,2.024,2.024,0,0,0-.032.3c0,.074,0,.117,0,.117s0-.042,0-.117a2.044,2.044,0,0,1,.023-.307,3.218,3.218,0,0,1,.268-.895,2.292,2.292,0,0,1,.54-.768,1.138,1.138,0,0,1,.27-.168l.036-.011c-.049-.324-.1-.651-.138-.98a24.372,24.372,0,0,1-.228-4.369,7.9,7.9,0,0,1,.207-1.446c.023-.086.042-.164.061-.231l.059-.168.037-.105c-.8-1.085-1.582-2.167-2.32-3.215l-.07.182-.189.495-.2.655c-.053.176-.1.368-.154.566l.044.02.084.061a1.547,1.547,0,0,1,.191.172,2.784,2.784,0,0,1,.185.228,3.208,3.208,0,0,1,.285.467c.065.134.1.226.1.226s-.04-.091-.109-.223a3.22,3.22,0,0,0-.3-.458,2.721,2.721,0,0,0-.189-.221,1.5,1.5,0,0,0-.191-.163l-.082-.057-.034-.014a16.44,16.44,0,0,0-.463,3.032c-.031.6-.037,1.2-.017,1.772l.044.019a1.357,1.357,0,0,1,.173.085,2.367,2.367,0,0,1,.472.34,3.638,3.638,0,0,1,.4.422l.158.211-.163-.207a3.7,3.7,0,0,0-.406-.411,2.369,2.369,0,0,0-.475-.325,1.357,1.357,0,0,0-.172-.079l-.027-.011c0,.055,0,.111.005.165.031.632.079,1.223.135,1.727s.1.925.126,1.22c.015.148.018.264.019.343s0,.122,0,.122,0-.042-.006-.121-.01-.2-.028-.342c-.03-.294-.094-.713-.162-1.216s-.136-1.093-.185-1.727q-.016-.218-.027-.443a1.174,1.174,0,0,0-.175.1,2.636,2.636,0,0,0-.471.412,2.572,2.572,0,0,0-.2.265c-.029.045-.06.087-.084.13l-.061.124a.9.9,0,0,0-.07.194l-.023.076.021-.076a.912.912,0,0,1,.066-.2l.058-.126c.023-.044.053-.086.081-.133a2.607,2.607,0,0,1,.2-.272,2.641,2.641,0,0,1,.467-.427,1.13,1.13,0,0,1,.178-.111l.014-.008c-.023-.49-.029-1-.017-1.507a16.634,16.634,0,0,1,.464-3.438c-.041-.008-.093-.016-.154-.021a4.027,4.027,0,0,0-.594-.009,3.88,3.88,0,0,0-.592.072.906.906,0,0,0-.187.06.2.2,0,0,0-.061.042.191.191,0,0,1,.059-.045.9.9,0,0,1,.186-.069,3.953,3.953,0,0,1,.592-.1,4.022,4.022,0,0,1,.6-.019,1.63,1.63,0,0,1,.167.016c.016-.062.031-.128.047-.187l.19-.673.177-.509.135-.383c-.386-.551-.758-1.092-1.114-1.617l-.146.243-.2.332c-.071.122-.165.241-.25.365l-.255.361a2.981,2.981,0,0,0-.217.316.705.705,0,0,0-.087.254.755.755,0,0,0,0,.1.759.759,0,0,1,0-.1.709.709,0,0,1,.077-.261,2.914,2.914,0,0,1,.2-.328l.238-.371c.079-.128.167-.249.233-.374l.183-.337.158-.293c-.6-.891-1.153-1.736-1.636-2.513-.768-1.229-1.359-2.287-1.742-3.046l-.252-.509-.149-.334c-.027.194-.066.47-.115.817-.048.365-.121.8-.178,1.317s-.121,1.089-.191,1.719c-.167,1.491-.347,3.281-.533,5.192l.091.037c.1.037.243.106.424.162.358.118.855.238,1.339.419a3.032,3.032,0,0,1,.657.378,2.228,2.228,0,0,1,.453.476l.078.114.056.111a.9.9,0,0,1,.08.184l.054.167-.063-.163a.877.877,0,0,0-.089-.179L14.3,36.46l-.082-.108a2.18,2.18,0,0,0-.466-.442,2.95,2.95,0,0,0-.653-.335c-.48-.153-.98-.246-1.354-.349-.187-.048-.338-.112-.446-.145l-.037-.013c-.116,1.2-.234,2.441-.353,3.686l.03.01.17.055a1.38,1.38,0,0,1,.215.081,4.385,4.385,0,0,1,1.91,1.494,1.346,1.346,0,0,1,.129.186l.092.149.08.129-.087-.125-.1-.142a1.322,1.322,0,0,0-.139-.177,4.683,4.683,0,0,0-.881-.815,4.654,4.654,0,0,0-1.064-.535A1.33,1.33,0,0,0,11.046,39l-.162-.042-.519,5.463.092.019.325.06a5.217,5.217,0,0,1,.97.278,2.393,2.393,0,0,1,.837.553,1.5,1.5,0,0,1,.2.266l.063.109L12.78,45.6a1.467,1.467,0,0,0-.205-.256,2.349,2.349,0,0,0-.845-.508,5.112,5.112,0,0,0-.965-.232l-.327-.047-.084-.013c-.055.579-.109,1.142-.16,1.682l.188.1c.071.045.149.105.234.165s.164.141.243.22a3.14,3.14,0,0,1,.378.479,2.612,2.612,0,0,1,.136.242,2.567,2.567,0,0,0-.144-.236,3.126,3.126,0,0,0-.392-.463c-.08-.075-.166-.144-.246-.209s-.165-.112-.236-.153l-.167-.082c-.063.67-.124,1.307-.18,1.9-.065.631-.124,1.209-.177,1.722-.026.256-.051.5-.074.718l-.077.608-.148,1.153.13-1.156c.02-.184.043-.387.068-.609s.04-.462.063-.719l.115-1.324-.034.011a.8.8,0,0,0-.135.06,1.407,1.407,0,0,0-.35.286,2.1,2.1,0,0,0-.268.369.86.86,0,0,0-.085.19.852.852,0,0,1,.079-.193,2.105,2.105,0,0,1,.259-.38,1.443,1.443,0,0,1,.349-.3.908.908,0,0,1,.139-.067l.051-.019c.01-.117.02-.235.031-.356.059-.741.124-1.556.193-2.421l-.039.018-.142.063-.176.1a2.506,2.506,0,0,0-.79.732,3.117,3.117,0,0,0-.442,1c-.037.145-.062.268-.079.354l-.028.135.023-.136c.015-.086.036-.21.068-.356a3.146,3.146,0,0,1,.415-1.02,2.572,2.572,0,0,1,.787-.778l.178-.108.144-.07.09-.043c.1-1.21.2-2.516.307-3.863l-.4.366c-.345.318-.792.754-1.209,1.22a8.225,8.225,0,0,0-.993,1.4l-.084.146-.062.139-.1.225-.088.2.08-.2.092-.23.057-.142.078-.15A8.265,8.265,0,0,1,8.764,43.3c.4-.487.833-.945,1.166-1.279l.546-.542c.044-.555.089-1.115.134-1.678-.04,0-.087.012-.142.021a3.954,3.954,0,0,0-.568.138,2.449,2.449,0,0,0-.534.237,1.333,1.333,0,0,0-.156.114l-.058.045.055-.049a1.408,1.408,0,0,1,.15-.124,2.491,2.491,0,0,1,.526-.272,3.985,3.985,0,0,1,.568-.175c.066-.016.123-.027.167-.035q.032-.4.063-.794c.1-1.254.2-2.508.3-3.718l-.019.017c-.043.038-.1.079-.148.133a9.691,9.691,0,0,0-.834.939c-.593.739-1.308,1.749-2.03,2.788l.027.037a1.134,1.134,0,0,1,.115.2,1.7,1.7,0,0,1,.155.655,3.526,3.526,0,0,1-.053.664c-.03.179-.055.3-.055.3s.019-.119.039-.3a3.5,3.5,0,0,0,.018-.658,1.627,1.627,0,0,0-.181-.619,1,1,0,0,0-.116-.175l-.008-.01-.167.242c-.8,1.152-1.59,2.309-2.231,3.143a9.551,9.551,0,0,1-.822.969,2.326,2.326,0,0,1-.272.23l-.11.061.108-.064a2.269,2.269,0,0,0,.266-.234,9.54,9.54,0,0,0,.8-.982c.461-.624,1-1.426,1.567-2.274L7,40.218a1.013,1.013,0,0,0-.222-.1,1.86,1.86,0,0,0-.744-.052,2.658,2.658,0,0,0-.733.2,1.153,1.153,0,0,0-.22.123.575.575,0,0,0-.071.063.556.556,0,0,1,.069-.067,1.185,1.185,0,0,1,.215-.134,2.682,2.682,0,0,1,.733-.234,1.935,1.935,0,0,1,.776.019,1.117,1.117,0,0,1,.244.094l.045.024.548-.824c.613-.923,1.231-1.84,1.782-2.6l-.052-.021c-.082-.033-.2-.084-.344-.129a3.841,3.841,0,0,0-1.091-.208,2.694,2.694,0,0,0-1.1.18,2.336,2.336,0,0,0-.333.16c-.078.044-.12.073-.12.073s.042-.03.118-.077a2.346,2.346,0,0,1,.329-.172,2.734,2.734,0,0,1,1.1-.216,3.914,3.914,0,0,1,1.117.176c.149.041.269.089.354.12l.077.029c.124-.169.245-.333.361-.482a9.825,9.825,0,0,1,.834-.974c.053-.057.108-.1.154-.144a1.129,1.129,0,0,1,.121-.1l.052-.04c.1-1.241.2-2.431.3-3.525l-.408.3c-.39.288-.92.663-1.433,1.054a5.668,5.668,0,0,0-1.253,1.24,2.9,2.9,0,0,0-.277.513l-.085.205.076-.209a2.933,2.933,0,0,1,.258-.527,5.734,5.734,0,0,1,1.216-1.3c.5-.414,1.012-.809,1.392-1.112l.537-.425c.047-.52.092-1.017.138-1.484.06-.632.116-1.211.165-1.725s.116-.962.159-1.331c.027-.217.051-.405.071-.564l-.121.136c-.3.336-.739.8-1.276,1.355-.509.523-1.107,1.122-1.755,1.755l.013.041a2.387,2.387,0,0,1,.056.361,5.321,5.321,0,0,1-.046,1.089,5.789,5.789,0,0,1-.238,1.059,2.3,2.3,0,0,1-.139.33c-.045.074-.073.114-.073.114s.027-.042.069-.116a2.216,2.216,0,0,0,.128-.332,5.7,5.7,0,0,0,.2-1.061,5.228,5.228,0,0,0,.011-1.074,2.313,2.313,0,0,0-.062-.332c-.7.677-1.447,1.39-2.212,2.09-1.509,1.387-3.074,2.713-4.3,3.638C1.5,35.529.974,35.9.6,36.138c-.186.125-.338.214-.44.277l-.157.1.155-.1c.1-.065.251-.157.434-.285.372-.249.89-.625,1.493-1.1,1.084-.85,2.432-2.027,3.767-3.281l-.06-.026-.175-.077L5.507,31.6l-.123-.042A4.053,4.053,0,0,0,4.09,31.3c-.242-.018-.485-.008-.712-.008l-.328,0c-.1,0-.2.015-.293.021l-.605.051.6-.068c.091-.008.189-.025.293-.029l.328-.011c.228-.006.472-.022.715-.011.122,0,.244.015.364.021s.238.027.351.046.223.04.323.072l.284.089a1.771,1.771,0,0,1,.236.085l.178.073.1.042.377-.357c1.483-1.41,2.915-2.871,3.963-3.991.388-.413.721-.779.987-1.079l-.824.157c-.72.134-1.676.325-2.639.494a11.725,11.725,0,0,1-2.676.208,6.438,6.438,0,0,1-.877-.12l-.328-.069.33.06a6.479,6.479,0,0,0,.877.1,11.684,11.684,0,0,0,2.657-.278c.954-.193,1.907-.41,2.623-.563L11.476,26l.037-.042c.146-.168.256-.3.325-.394l.043-.059h0l0,0c-.047-.108-.108-.268-.207-.465-.032-.07-.07-.146-.109-.225-.028-.021-.057-.044-.085-.068a2.578,2.578,0,0,0-.421-.226c-.162-.072-.348-.134-.545-.2L9.9,24.1c-.435-.125-.9-.275-1.368-.379-.468-.124-.945-.205-1.391-.293a3.705,3.705,0,0,0-1.228-.06,5.747,5.747,0,0,1-.869.129,1.238,1.238,0,0,1-.245-.022l-.086-.016.086.013a1.246,1.246,0,0,0,.245.016,5.81,5.81,0,0,0,.864-.152,3.765,3.765,0,0,1,1.243.027c.449.077.93.146,1.4.257.478.092.944.231,1.386.344l.627.2c.2.063.389.12.561.192a2.24,2.24,0,0,1,.264.121c-.166-.3-.372-.652-.617-1.029a30.244,30.244,0,0,0-2.9-3.689l-.14.081a1.639,1.639,0,0,1-.452.143,3.041,3.041,0,0,1-.648.011c-.234-.021-.478-.059-.721-.1s-.488-.079-.715-.12-.437-.1-.617-.139-.323-.1-.426-.135l-.161-.053.163.044c.1.026.251.073.431.112s.391.078.62.106.472.061.717.081.49.048.717.057a2.9,2.9,0,0,0,.61-.041,1.446,1.446,0,0,0,.388-.146l.094-.061q-.226-.247-.457-.493a51.237,51.237,0,0,0-4.047-3.858c-.582-.494-1.082-.887-1.446-1.143a4.82,4.82,0,0,0-.433-.281,1.049,1.049,0,0,0-.121-.061l-.042-.019.043.019a1.11,1.11,0,0,1,.123.059,4.724,4.724,0,0,1,.439.273c.369.25.878.634,1.47,1.117.615.5,1.319,1.108,2.053,1.78l.086-.259c.064-.2.149-.472.214-.747a4.792,4.792,0,0,0,.134-.766,1.739,1.739,0,0,0,0-.256c0-.062,0-.1,0-.1l.006.1a1.749,1.749,0,0,1,.008.257,4.79,4.79,0,0,1-.1.776c-.053.28-.126.555-.181.762l-.087.309c.656.6,1.334,1.257,1.993,1.932q.2.2.391.406c.029-.077.071-.176.11-.3.04-.141.1-.3.141-.482l.068-.276.053-.288a5.208,5.208,0,0,0,.085-1.078c0-.074,0-.142-.009-.2s-.015-.112-.021-.155c-.012-.086-.018-.135-.018-.135l.027.133.031.154c.011.06.014.128.023.2a5.309,5.309,0,0,1-.015,1.094,7.234,7.234,0,0,1-.2,1.082c-.036.146-.079.264-.1.349l-.019.062c.831.88,1.607,1.781,2.254,2.618a2.86,2.86,0,0,0,.062-.436c.006-.1.023-.2.021-.314s0-.23-.007-.352a5.717,5.717,0,0,0-.107-.761c-.051-.259-.1-.518-.151-.761s-.117-.464-.164-.657l-.168-.64.2.631c.056.19.137.409.2.65l.189.755a5.934,5.934,0,0,1,.147.771c.008.126.017.247.024.362s0,.225-.006.326a3.354,3.354,0,0,1-.047.487c-.01.076-.018.128-.022.157.233.309.448.608.639.893a13.559,13.559,0,0,1,.95,1.6c0-.157,0-.34.019-.552.034-.7.1-1.7.2-2.895.056-.7.121-1.468.194-2.283l-.02-.008c-.049-.021-.126-.042-.215-.086a3.689,3.689,0,0,1-.706-.417,6.88,6.88,0,0,1-1.622-1.831,17.3,17.3,0,0,1-1.142-2.152l-.332-.729c-.081-.176-.134-.273-.134-.273s.056.1.142.268l.354.72a17.2,17.2,0,0,0,1.2,2.109,6.749,6.749,0,0,0,1.638,1.746,3.473,3.473,0,0,0,.683.377,1.545,1.545,0,0,0,.176.066c.089-.991.189-2.051.294-3.141l-.071-.047-.114-.076c-.044-.031-.09-.071-.144-.114a4.974,4.974,0,0,1-.769-.817A15.784,15.784,0,0,1,9.9,11.849c-.509-1.108-.949-2.245-1.27-3.1L8.24,7.718c-.049-.124-.088-.221-.119-.285a.44.44,0,0,0-.054-.1.423.423,0,0,1,.056.094c.032.064.074.16.125.283l.411,1.024c.338.847.8,1.974,1.333,3.067A15.659,15.659,0,0,0,11.7,14.657a4.8,4.8,0,0,0,.756.77c.051.039.1.076.137.1l.09.057c.092-.947.188-1.915.286-2.884.082-.817.167-1.633.25-2.436l-.093-.045a2.533,2.533,0,0,1-.412-.251A4.423,4.423,0,0,1,11.741,8.9a8.054,8.054,0,0,1-.69-1.265c-.159-.359-.242-.608-.242-.608s.089.247.257.6a7.979,7.979,0,0,0,.718,1.243A4.338,4.338,0,0,0,12.766,9.9a2.439,2.439,0,0,0,.4.232l.062.028c.092-.883.183-1.747.271-2.578l0,0-.137-.075c-.043-.025-.1-.05-.155-.089l-.189-.134a2.988,2.988,0,0,1-.786-.946,4.043,4.043,0,0,1-.412-1.153,2.824,2.824,0,0,1-.052-.4.788.788,0,0,1,0-.153.772.772,0,0,0,0,.153,2.777,2.777,0,0,0,.063.4,4.028,4.028,0,0,0,.441,1.131,2.912,2.912,0,0,0,.794.9l.186.125c.057.035.11.058.152.081l.1.053c.136-1.278.265-2.471.379-3.511C14.157,1.587,14.335,0,14.335,0s-.151,1.59-.378,3.975c-.1,1.029-.2,2.206-.317,3.466l.126-.039.165-.052.208-.086a2.661,2.661,0,0,0,.963-.714A3.842,3.842,0,0,0,15.71,5.5l.153-.373.061-.141-.057.142-.142.378a3.869,3.869,0,0,1-.584,1.077,2.716,2.716,0,0,1-.472.461,3.043,3.043,0,0,1-.494.3l-.211.094L13.8,7.5l-.147.05-.014-.052c-.111,1.228-.226,2.535-.341,3.862a.659.659,0,0,0,.134.006,1.405,1.405,0,0,0,.5-.116,4.5,4.5,0,0,0,1.311-.94,10.142,10.142,0,0,0,1.074-1.235c.132-.18.236-.336.3-.448a1.314,1.314,0,0,0,.095-.182,1.286,1.286,0,0,1-.089.185c-.063.115-.162.273-.289.458a10.155,10.155,0,0,1-1.041,1.273,4.591,4.591,0,0,1-1.315,1,1.543,1.543,0,0,1-.543.142.779.779,0,0,1-.151,0q-.053.61-.1,1.224c-.067.785-.132,1.57-.2,2.343l.2-.02a3.768,3.768,0,0,0,.714-.175,3.85,3.85,0,0,0,.924-.482,4.99,4.99,0,0,0,.888-.816,9.176,9.176,0,0,0,1.224-1.919c.14-.279.25-.515.336-.676a1.507,1.507,0,0,1,.109-.182.4.4,0,0,1,.049-.057.4.4,0,0,0-.047.058,1.508,1.508,0,0,0-.1.184c-.081.163-.184.4-.315.686a9.266,9.266,0,0,1-1.174,1.971,5.124,5.124,0,0,1-.884.864,4.016,4.016,0,0,1-.947.531,3.953,3.953,0,0,1-.744.207l-.25.032c-.115,1.41-.221,2.776-.312,4.027l.061,0a1.925,1.925,0,0,0,.508-.075,3.48,3.48,0,0,0,1.359-.831,8.158,8.158,0,0,0,1.067-1.234c.13-.182.233-.337.3-.446l.113-.171-.106.176c-.066.112-.163.272-.285.46a8.234,8.234,0,0,1-1.022,1.29,3.616,3.616,0,0,1-1.379.923,2.119,2.119,0,0,1-.554.107l-.081,0c-.05.7-.1,1.365-.135,1.975-.077,1.194-.126,2.19-.147,2.884-.011.219-.011.4-.011.556.114-.133.246-.282.4-.454.456-.5,1.091-1.156,1.855-1.923a1.2,1.2,0,0,1-.047-.146,2.482,2.482,0,0,1-.085-.535,2.44,2.44,0,0,1,.043-.535,1.658,1.658,0,0,1,.041-.171l.017-.065-.013.065c-.006.042-.024.1-.029.173a2.428,2.428,0,0,0-.007.529,2.4,2.4,0,0,0,.116.512.789.789,0,0,0,.037.1l.445-.444c.927-.92,2.01-1.97,3.181-3.083l-.008-.036c-.016-.08-.045-.2-.063-.346a6.982,6.982,0,0,1-.069-1.2.829.829,0,0,0-.108-.1c-.139-.124-.346-.268-.551-.417a2.391,2.391,0,0,1-.508-.477.889.889,0,0,1-.073-.108.612.612,0,0,1-.048-.087l-.037-.079.041.076a.591.591,0,0,0,.052.084.824.824,0,0,0,.078.1,2.356,2.356,0,0,0,.524.445c.211.138.427.272.577.393a.6.6,0,0,1,.057.047,17.292,17.292,0,0,1,.589-3.613c.338-1.318.776-2.6,1.121-3.562l.588-1.592-.557,1.6c-.327.963-.74,2.257-1.051,3.576a16.929,16.929,0,0,0-.519,3.672c0,.025,0,.049,0,.073l.013.012-.013.011a6.782,6.782,0,0,0,.089,1.112c.014.1.032.181.048.248,1.074-1.019,2.218-2.088,3.382-3.159l-.019-.065-.043-.142-.037-.2A4.9,4.9,0,0,1,21.73,14c.008-.1.021-.209.034-.317a.5.5,0,0,0-.12-.2,1.3,1.3,0,0,0-.5-.283,1.444,1.444,0,0,1-.513-.277.4.4,0,0,1-.071-.082.288.288,0,0,1-.044-.072l-.029-.067.031.066a.286.286,0,0,0,.045.07.385.385,0,0,0,.073.08,1.44,1.44,0,0,0,.516.262,1.335,1.335,0,0,1,.517.278.383.383,0,0,1,.072.086.4.4,0,0,1,.032.053,16.863,16.863,0,0,1,.6-2.581l-.186-.175c-.068-.066-.151-.139-.233-.224l-.253-.271a3.535,3.535,0,0,1-.244-.279,1.181,1.181,0,0,1-.152-.285.6.6,0,0,1-.018-.226l.019-.084-.018.085a.587.587,0,0,0,.022.225,1.162,1.162,0,0,0,.156.278,3.543,3.543,0,0,0,.248.273l.258.264c.083.083.168.154.237.218l.175.158c.052-.17.106-.341.162-.511.406-1.253.892-2.478,1.266-3.391l.455-1.1c.054-.133.1-.238.122-.311s.037-.112.037-.112-.01.04-.035.113-.064.179-.116.313L23.839,7.09c-.294.762-.661,1.74-.995,2.768l.04,0a.841.841,0,0,0,.221-.04l.142-.055c.049-.024.1-.048.152-.077l.32-.191c.11-.064.2-.149.3-.218.047-.036.094-.07.136-.1l.113-.1a1.228,1.228,0,0,0,.153-.171l.055-.068-.053.069a1.213,1.213,0,0,1-.15.175l-.112.107c-.041.036-.088.07-.134.107-.1.071-.19.159-.3.225l-.317.2c-.052.03-.1.055-.153.081l-.144.06a.892.892,0,0,1-.23.047l-.057,0c-.064.2-.128.4-.189.6a16.492,16.492,0,0,0-.738,3.516,4.716,4.716,0,0,0,.047,1.164l.038.181.033.1.58-.531c1.279-1.169,2.57-2.325,3.8-3.407l-.042-.189c-.01-.082-.021-.181-.034-.295s-.011-.241-.017-.381a13.656,13.656,0,0,1,.158-2.018A12.758,12.758,0,0,1,26.9,6.671a3.924,3.924,0,0,1,.247-.617,1.4,1.4,0,0,1,.1-.158l.036-.055L27.25,5.9a1.433,1.433,0,0,0-.092.16,3.9,3.9,0,0,0-.224.623,12.686,12.686,0,0,0-.361,1.975,13.5,13.5,0,0,0-.086,2l.029.368c.016.107.03.2.041.278.007.027.013.05.019.073.816-.715,1.6-1.394,2.345-2.022L28.9,9.213l-.031-.185c-.006-.072-.014-.154-.023-.243a5.074,5.074,0,0,1,.075-1.3,6.9,6.9,0,0,1,.373-1.242l.158-.4a1.182,1.182,0,0,0,.039-.113l.012-.04-.011.041a1.134,1.134,0,0,1-.036.114l-.147.4A6.855,6.855,0,0,0,28.972,7.5a4.989,4.989,0,0,0-.039,1.282c.01.087.02.167.029.237L29,9.2l.016.08c.471-.4.923-.776,1.35-1.126.23-.189.451-.369.665-.542,0-.035,0-.122.006-.24.009-.076.022-.165.037-.26a2.5,2.5,0,0,1,.084-.289,2.631,2.631,0,0,1,.247-.5c.08-.13.136-.215.136-.215s-.055.086-.131.218a2.63,2.63,0,0,0-.233.507,2.483,2.483,0,0,0-.076.288c-.013.094-.023.182-.03.257s0,.161,0,.2c.781-.629,1.452-1.148,1.961-1.528l.44-.325" transform="translate(2.093 1.79)" fill="#d24f16"/>
      </g>
    </g>
  </g>
</svg>
