<svg xmlns="http://www.w3.org/2000/svg" width="43.086" height="40.5" viewBox="0 0 43.086 40.5"><defs><style>.a{fill:#0f6cb4;}.b{fill:#fafafa;}.c{fill:#79b8eb;}</style></defs><g transform="translate(-1 -1.661)"><path class="a" d="M42.128,19.658v-4.8a4.029,4.029,0,0,0-4.034-4.034H35.469L14.024,1.894A2.969,2.969,0,0,0,10.107,3.54L7.189,10.825H5.034A4.029,4.029,0,0,0,1,14.86V38.126a4.029,4.029,0,0,0,4.034,4.034H38.093a4.029,4.029,0,0,0,4.034-4.034v-4.8a2.029,2.029,0,0,0,1.958-2.017V21.675a2.029,2.029,0,0,0-1.958-2.017ZM11.928,4.264a.979.979,0,0,1,.548-.568,1.083,1.083,0,0,1,.783,0l17.117,7.129H25.637L14.043,6.967a.979.979,0,0,0-1.234.568l-1.273,3.29H9.3Zm7.521,6.561h-5.8l.646-1.7Zm20.721,27.3A2.078,2.078,0,0,1,38.093,40.2H5.034a2.078,2.078,0,0,1-2.076-2.076V14.86a2.09,2.09,0,0,1,2.076-2.076H38.093a2.09,2.09,0,0,1,2.076,2.076v4.779H31.356a6.855,6.855,0,0,0,0,13.709h8.813Zm1.958-6.815a.084.084,0,0,1-.078.078H31.356a4.9,4.9,0,1,1,0-9.792l10.772.078Z" transform="translate(0)"/><path class="b" d="M30.4,14.195h8.813V9.416A2.09,2.09,0,0,0,37.135,7.34H4.076A2.09,2.09,0,0,0,2,9.416V32.683a2.078,2.078,0,0,0,2.076,2.076H37.135a2.078,2.078,0,0,0,2.076-2.076V27.9H30.4a6.855,6.855,0,1,1,0-13.709ZM6.9,11.257h3.917a.979.979,0,0,1,0,1.958H6.9a.979.979,0,1,1,0-1.958Zm7.834,5.875H6.9a.979.979,0,1,1,0-1.958H14.73a.979.979,0,0,1,0,1.958Z" transform="translate(0.958 5.444)"/><path class="b" d="M13.257,7.174H7.46l.646-1.7Z" transform="translate(6.192 3.651)"/><path class="c" d="M18.9,11.84a4.9,4.9,0,1,0,0,9.792H29.589a.084.084,0,0,0,.078-.078V11.918Zm0,7.834a2.938,2.938,0,1,1,2.938-2.938A2.938,2.938,0,0,1,18.9,19.674Z" transform="translate(12.46 9.757)"/><path class="c" d="M26.313,9.865H21.574L9.979,6.007a.979.979,0,0,0-1.234.568L7.473,9.865H5.24L7.864,3.3a.979.979,0,0,1,.548-.568,1.083,1.083,0,0,1,.783,0Z" transform="translate(4.064 0.96)"/><path class="b" d="M17.938,12.84a2.938,2.938,0,1,0,2.938,2.938A2.938,2.938,0,0,0,17.938,12.84Zm0,3.917a.979.979,0,1,1,.979-.979A.979.979,0,0,1,17.938,16.757Z" transform="translate(13.418 10.715)"/><circle class="b" cx="0.979" cy="0.979" r="0.979" transform="translate(30.377 25.514)"/><g transform="translate(6.875 16.7)"><path class="c" d="M9.875,10.319A.979.979,0,0,1,8.9,11.3H4.979a.979.979,0,1,1,0-1.958H8.9A.979.979,0,0,1,9.875,10.319Z" transform="translate(-4 -9.34)"/><path class="c" d="M13.792,12.319a.979.979,0,0,1-.979.979H4.979a.979.979,0,1,1,0-1.958h7.834A.979.979,0,0,1,13.792,12.319Z" transform="translate(-4 -7.423)"/></g></g></svg>