<svg xmlns="http://www.w3.org/2000/svg" width="42" height="42" viewBox="0 0 42 42">
  <g id="Group_43255" data-name="Group 43255" transform="translate(-40 -560)">
    <circle id="Ellipse_1947" data-name="Ellipse 1947" cx="21" cy="21" r="21" transform="translate(40 560)" fill="#59a65c"/>
    <path id="wyrelogo" d="M4.508,21.1l1.753-4.219h4.79a3.243,3.243,0,0,0,2.6-1.314l4-5.015-3.566,8.582A3.212,3.212,0,0,1,11.119,21.1ZM2.316,15.828l1.753-4.219h4.79a3.243,3.243,0,0,0,2.6-1.314l4-5.014L11.9,13.863a3.212,3.212,0,0,1-2.972,1.965ZM6.663,0h6.612L9.708,8.583a3.212,3.212,0,0,1-2.972,1.965H.124L3.691,1.965A3.212,3.212,0,0,1,6.663,0Z" transform="translate(52.109 572.449)" fill="#fafafa" fill-rule="evenodd"/>
  </g>
</svg>
