<svg xmlns="http://www.w3.org/2000/svg" xmlns:xlink="http://www.w3.org/1999/xlink" width="44.527" height="46.99" viewBox="0 0 44.527 46.99"><defs><style>.a{fill:#76b9eb;clip-rule:evenodd;}.b{fill:#b2cbed;}.b,.d,.e{fill-rule:evenodd;}.c{clip-path:url(#a);}.d{fill:#a4c4ef;}.e{fill:#fafafa;}.f,.g{stroke:none;}.g{fill:#fafafa;}</style><clipPath id="a"><path class="a" d="M25.565,0H12.544A6.033,6.033,0,0,0,7.319,3.017L.808,14.293a6.034,6.034,0,0,0,0,6.034L7.319,31.6a6.034,6.034,0,0,0,5.225,3.017H25.565A6.034,6.034,0,0,0,30.79,31.6L37.3,20.327a6.034,6.034,0,0,0,0-6.034L30.79,3.017A6.034,6.034,0,0,0,25.565,0Z" transform="matrix(-0.259, -0.966, 0.966, -0.259, 9.863, 45.77)"/></clipPath></defs><g transform="translate(-2235.085 -4807.39)"><g class="b" transform="matrix(-0.259, -0.966, 0.966, -0.259, 2245.56, 4853.771)"><path class="f" d="M 25.56473350524902 34.87000274658203 L 12.54392242431641 34.87000274658203 C 10.30613231658936 34.87000274658203 8.221002578735352 33.66607284545898 7.102222919464111 31.72805404663086 L 0.591772735118866 20.45174407958984 C -0.5269472599029541 18.51384353637695 -0.5269472599029541 16.10615348815918 0.591772735118866 14.16824340820312 L 7.102222919464111 2.891953229904175 C 8.220993041992188 0.9539332985877991 10.30613231658936 -0.2499967217445374 12.54392242431641 -0.2499967217445374 L 25.56473350524902 -0.2499967217445374 C 27.80248260498047 -0.2499967217445374 29.88762283325195 0.9539332985877991 31.00643348693848 2.891963243484497 L 37.51686096191406 14.16823291778564 C 38.63561248779297 16.10615348815918 38.63561248779297 18.51384353637695 37.51686096191406 20.45173263549805 L 31.00643348693848 31.72806358337402 C 29.88761329650879 33.66608428955078 27.8024730682373 34.87000274658203 25.56473350524902 34.87000274658203 Z"/><path class="g" d="M 12.54392242431641 3.814697265625e-06 C 10.3884334564209 3.814697265625e-06 8.39642333984375 1.150081634521484 7.318733215332031 3.016952514648438 L 0.8082809448242188 14.29323387145996 C -0.2694282531738281 16.16011238098145 -0.2694282531738281 18.45988273620605 0.8082809448242188 20.32674407958984 L 7.318733215332031 31.60305404663086 C 8.39642333984375 33.46991348266602 10.3884334564209 34.62000274658203 12.54392242431641 34.62000274658203 L 25.56472396850586 34.62000274658203 C 27.72021293640137 34.62000274658203 29.71219253540039 33.46991348266602 30.7899227142334 31.60305404663086 L 37.30035400390625 20.32674407958984 C 38.37809371948242 18.45988273620605 38.37809371948242 16.16011238098145 37.30035400390625 14.29323387145996 L 30.7899227142334 3.016952514648438 C 29.71219253540039 1.150081634521484 27.72021293640137 3.814697265625e-06 25.56472396850586 3.814697265625e-06 L 12.54392242431641 3.814697265625e-06 M 12.54392242431641 -0.4999961853027344 L 25.56472396850586 -0.4999961853027344 C 27.89151382446289 -0.4999961853027344 30.05962371826172 0.7518348693847656 31.22294235229492 2.766973495483398 L 37.73336410522461 14.04323387145996 C 38.89663314819336 16.05826377868652 38.89663314819336 18.56174278259277 37.73337173461914 20.57672309875488 L 31.22293281555176 31.85305404663086 C 30.05961227416992 33.86817169189453 27.89151382446289 35.12000274658203 25.56472396850586 35.12000274658203 L 12.54392242431641 35.12000274658203 C 10.21709251403809 35.12000274658203 8.048992156982422 33.86817169189453 6.885702133178711 31.8530330657959 L 0.3752708435058594 20.57674407958984 C -0.7879562377929688 18.56173324584961 -0.7879676818847656 16.05826377868652 0.3752517700195312 14.04325294494629 L 6.885723114013672 2.766952514648438 C 8.048992156982422 0.7518348693847656 10.21709251403809 -0.4999961853027344 12.54392242431641 -0.4999961853027344 Z"/></g><g class="c" transform="translate(2235.696 4808.001)"><path class="d" d="M25.565,0H12.544A6.033,6.033,0,0,0,7.319,3.017L.808,14.293a6.034,6.034,0,0,0,0,6.034L7.319,31.6a6.034,6.034,0,0,0,5.225,3.017H25.565A6.034,6.034,0,0,0,30.79,31.6L37.3,20.327a6.034,6.034,0,0,0,0-6.034L30.79,3.017A6.034,6.034,0,0,0,25.565,0Z" transform="matrix(-0.259, -0.966, 0.966, -0.259, 25.863, 61.77)"/></g><path class="e" d="M4.508,21.1l1.753-4.219h4.79a3.243,3.243,0,0,0,2.6-1.314l4-5.015-3.566,8.582A3.212,3.212,0,0,1,11.119,21.1ZM2.316,15.828l1.753-4.219h4.79a3.243,3.243,0,0,0,2.6-1.314l4-5.014L11.9,13.863a3.212,3.212,0,0,1-2.972,1.965ZM6.663,0h6.612L9.708,8.583a3.212,3.212,0,0,1-2.972,1.965H.124L3.691,1.965A3.212,3.212,0,0,1,6.663,0Z" transform="translate(2248.457 4821.49)"/></g></svg>