<svg xmlns="http://www.w3.org/2000/svg" width="23.364" height="23.364" viewBox="0 0 23.364 23.364"><defs><style>.a{fill:#0f6cb4;}.b{fill:#77b9eb;}</style></defs><path class="a" d="M364.238,281.547a.9.9,0,0,0-.9.9v1.67h-1.624a.9.9,0,1,0,0,1.8h2.527a.9.9,0,0,0,.9-.9v-2.572A.9.9,0,0,0,364.238,281.547Zm0,0" transform="translate(-341.907 -268.105)"/><path class="b" d="M230.7,98.1a.9.9,0,0,0,.9-.9v-2.03h.9a.9.9,0,0,0,.9-.9V89.207a.9.9,0,0,0-.935-.9.917.917,0,0,0-.87.923v.7h-.9a.9.9,0,1,0,0,1.8h.9v1.624h-.9a.9.9,0,0,0-.9.9v2.933A.9.9,0,0,0,230.7,98.1Zm0,0" transform="translate(-219.92 -88.173)"/><path class="b" d="M89.207,229.145a.9.9,0,0,0-.9.9v1.8a.9.9,0,1,0,1.8,0v-.9h.947a.9.9,0,1,0,0-1.8Zm0,0" transform="translate(-88.174 -219.312)"/><path class="b" d="M283.106,230.949h2.437v2.686a.917.917,0,0,0,.869.923.9.9,0,0,0,.936-.9v-.9h.947a.9.9,0,1,0,0-1.8h-.948v-.9a.9.9,0,0,0-.9-.9h-3.339a.9.9,0,1,0,0,1.8Zm0,0" transform="translate(-268.716 -219.312)"/><path class="b" d="M399.3,230.047a.9.9,0,1,1-.9-.9A.9.9,0,0,1,399.3,230.047Zm0,0" transform="translate(-376.064 -219.312)"/><path class="a" d="M264.807,281.547a.9.9,0,0,0-.9.9v1.67h-.451a.9.9,0,1,0,0,1.8h1.354a.9.9,0,0,0,.9-.9v-2.572A.9.9,0,0,0,264.807,281.547Zm0,0" transform="translate(-250.418 -268.105)"/><path class="a" d="M234.309,348.7h-.9v-.9a.9.9,0,0,0-.9-.9h-.9v-.9a.9.9,0,0,0-1.8,0v1.8a.9.9,0,0,0,.9.9h.9v.9a.9.9,0,0,0,.9.9h1.8a.9.9,0,1,0,0-1.8Zm0,0" transform="translate(-219.92 -327.271)"/><path class="a" d="M317.209,359.094a.9.9,0,0,0-.9-.9h-.451a.9.9,0,1,0,0,1.8h.451A.9.9,0,0,0,317.209,359.094Zm0,0" transform="translate(-299.21 -339.47)"/><path class="a" d="M339.84,373.094h-.722v-.9a.9.9,0,1,0-1.8,0v.9h-1.8a.9.9,0,1,0,0,1.8h4.331a.9.9,0,1,0,0-1.8Zm0,0" transform="translate(-317.509 -351.666)"/><path class="b" d="M156.286,234.423a.9.9,0,0,0,.9-.9v-1.67a.9.9,0,0,0-.9-.9h-3.249v-.881a.916.916,0,0,0-.87-.923.9.9,0,0,0-.935.9v.9h-.451a.9.9,0,1,0,0,1.8h4.6v.767A.9.9,0,0,0,156.286,234.423Zm0,0" transform="translate(-145.507 -219.312)"/><path class="b" d="M90.195,94.79H91A3.793,3.793,0,0,0,94.79,91v-.806A3.793,3.793,0,0,0,91,86.406h-.806a3.793,3.793,0,0,0-3.788,3.788V91A3.793,3.793,0,0,0,90.195,94.79Zm-1.722-4.595a1.724,1.724,0,0,1,1.722-1.722H91a1.724,1.724,0,0,1,1.722,1.722V91A1.724,1.724,0,0,1,91,92.723h-.806A1.724,1.724,0,0,1,88.473,91Zm0,0" transform="translate(-86.406 -86.406)"/><path class="b" d="M135.965,135.063a.9.9,0,1,1-.9-.9A.9.9,0,0,1,135.965,135.063Zm0,0" transform="translate(-130.871 -130.871)"/><path class="b" d="M308.482,86.406h-.806a3.793,3.793,0,0,0-3.789,3.788V91a3.793,3.793,0,0,0,3.789,3.788h.806A3.793,3.793,0,0,0,312.27,91v-.806A3.793,3.793,0,0,0,308.482,86.406ZM310.2,91a1.724,1.724,0,0,1-1.722,1.722h-.806A1.724,1.724,0,0,1,305.953,91v-.806a1.724,1.724,0,0,1,1.722-1.722h.806a1.724,1.724,0,0,1,1.722,1.722Zm0,0" transform="translate(-288.906 -86.406)"/><path class="b" d="M353.445,135.063a.9.9,0,1,1-.9-.9A.9.9,0,0,1,353.445,135.063Zm0,0" transform="translate(-333.371 -130.871)"/><path class="b" d="M91,303.887h-.806a3.793,3.793,0,0,0-3.788,3.789v.806a3.793,3.793,0,0,0,3.788,3.788H91a3.793,3.793,0,0,0,3.788-3.788v-.806A3.793,3.793,0,0,0,91,303.887Zm1.722,4.595A1.724,1.724,0,0,1,91,310.2h-.806a1.724,1.724,0,0,1-1.722-1.722v-.806a1.724,1.724,0,0,1,1.722-1.722H91a1.724,1.724,0,0,1,1.722,1.722Zm0,0" transform="translate(-86.406 -288.906)"/><path class="b" d="M135.965,352.543a.9.9,0,1,1-.9-.9A.9.9,0,0,1,135.965,352.543Zm0,0" transform="translate(-130.871 -333.371)"/></svg>