<svg xmlns="http://www.w3.org/2000/svg" width="55.281" height="58.43" viewBox="0 0 55.281 58.43"><defs><style>.a{fill:#fff;fill-rule:evenodd;}.b{fill:#082548;}</style></defs><g transform="translate(-36 -144)"><g transform="translate(1.996 -408.948)"><path class="a" d="M32.636,0H16.013a7.7,7.7,0,0,0-6.67,3.851l-8.311,14.4a7.7,7.7,0,0,0,0,7.7l8.311,14.4a7.7,7.7,0,0,0,6.67,3.851H32.636a7.7,7.7,0,0,0,6.67-3.851l8.311-14.4a7.7,7.7,0,0,0,0-7.7l-8.311-14.4A7.7,7.7,0,0,0,32.636,0Z" transform="matrix(-0.259, -0.966, 0.966, -0.259, 46.595, 611.378)"/></g><g transform="translate(-3980.023 7484.575)"><path class="b" d="M750.2,225.083a13.637,13.637,0,1,1-14.154,12.849A13.591,13.591,0,0,1,750.2,225.083Zm-12.588,13.61a12.077,12.077,0,1,0,12.069-12.053A12.047,12.047,0,0,0,737.613,238.693Z" transform="translate(3293.979 -7550.067)"/><path class="b" d="M800.4,266c-.112-.129-.229-.254-.336-.387a13.381,13.381,0,0,0-4.075-3.572,5.6,5.6,0,0,0-3.464-.772,1.878,1.878,0,0,0-1.384.78,1.227,1.227,0,0,0,.159,1.723,7.479,7.479,0,0,0,1.657,1.047c1.277.58,2.6,1.067,3.881,1.628a26.746,26.746,0,0,1,2.488,1.216,6.663,6.663,0,0,1,1.339,1.047,3.733,3.733,0,0,1,.761,4.453,6.569,6.569,0,0,1-2.712,2.787,1,1,0,0,1-.221.066,11.847,11.847,0,0,0,.376-1.221,3.347,3.347,0,0,0-.721-2.756,5.1,5.1,0,0,0-1.931-1.518c-1.271-.592-2.575-1.113-3.852-1.693-1.054-.478-2.115-.95-3.123-1.514a3.995,3.995,0,0,1-.352-6.981,7.356,7.356,0,0,1,3.567-1.312,9,9,0,0,1,5.842,1.234,3.879,3.879,0,0,1,1.525,1.465,1.852,1.852,0,0,1,.08,1.64,1.129,1.129,0,0,0-.029.667c.174.65.394,1.289.6,1.932Z" transform="translate(3249.819 -7579.413)"/><path class="b" d="M771.362,307.541c.037.187.065.324.09.461a5.052,5.052,0,0,0,2.273,3.256,20.174,20.174,0,0,0,3.916,1.941c.987.41,1.978.816,2.947,1.268a5.035,5.035,0,0,1,1.233.786,2.1,2.1,0,0,1-.839,3.7,5.668,5.668,0,0,1-3.428-.076,8.946,8.946,0,0,1-6.486-7.015,8.638,8.638,0,0,1,.121-3.977,1.619,1.619,0,0,1,.076-.221A.792.792,0,0,1,771.362,307.541Z" transform="translate(3263.787 -7621.48)"/></g></g></svg>