<svg xmlns="http://www.w3.org/2000/svg" width="47" height="47" viewBox="0 0 47 47">
  <g id="checking" transform="translate(-36 -141)">
    <circle id="Ellipse_2030" data-name="Ellipse 2030" cx="23.5" cy="23.5" r="23.5" transform="translate(36 141)" fill="#f8f8f8"/>
    <g id="Group_44658" data-name="Group 44658" transform="translate(9.888 -20.129)">
      <g id="event-2" transform="translate(37.484 172.484)">
        <path id="Path_8099" data-name="Path 8099" d="M21.862,0H1.619C.725,0,0,2.307,0,5.152V18.033H23.481V5.152C23.481,2.307,22.756,0,21.862,0Zm0,0" transform="translate(23.886 24.291) rotate(180)" fill="#88b283"/>
        <g id="Group_10676" data-name="Group 10676">
          <path id="Path_8100" data-name="Path 8100" d="M22.267,0H2.024A2.027,2.027,0,0,0,0,2.024V22.267a2.027,2.027,0,0,0,2.024,2.024H22.267a2.027,2.027,0,0,0,2.024-2.024V2.024A2.027,2.027,0,0,0,22.267,0ZM.81,2.024A1.215,1.215,0,0,1,2.024.81H22.267a1.215,1.215,0,0,1,1.215,1.215V5.668H.81ZM23.481,22.267a1.215,1.215,0,0,1-1.215,1.215H2.024A1.215,1.215,0,0,1,.81,22.267V6.478H23.481Zm0,0" fill="#88b283" stroke="#88b283" stroke-width="0.5"/>
          <path id="Path_8101" data-name="Path 8101" d="M74.218,56H56.4a.4.4,0,1,0,0,.81H74.218a.4.4,0,0,0,0-.81Zm0,0" transform="translate(-53.166 -53.166)" fill="#88b283"/>
          <path id="Path_8102" data-name="Path 8102" d="M56.4,169.311a.4.4,0,1,0,0,.81h4.048v3.206a.4.4,0,0,0,.81,0v-3.206h8.1v3.239a.4.4,0,1,0,.81,0v-3.239h4.048a.4.4,0,0,0,0-.81H70.17v-4.858h4.048a.4.4,0,0,0,0-.81H70.17V160.4a.4.4,0,1,0-.81,0v3.239h-8.1V160.4a.4.4,0,1,0-.81,0v3.239H56.4a.4.4,0,1,0,0,.81h4.048v4.858Zm4.858-4.858h8.1v4.858h-8.1Zm0,0" transform="translate(-53.166 -151.903)" fill="#f8f8f8" stroke="#f8f8f8" stroke-width="0.5"/>
        </g>
      </g>
    </g>
  </g>
</svg>
