<!-- <svg xmlns="http://www.w3.org/2000/svg" width="55.281" height="58.43" viewBox="0 0 55.281 58.43"><defs><style>.a{fill:#fff;fill-rule:evenodd;}.b{fill:#9785c9;}</style></defs><g transform="translate(-38 -150.954)"><path class="a" d="M32.636,0H16.013a7.7,7.7,0,0,0-6.67,3.851l-8.311,14.4a7.7,7.7,0,0,0,0,7.7l8.311,14.4a7.7,7.7,0,0,0,6.67,3.851H32.636a7.7,7.7,0,0,0,6.67-3.851l8.311-14.4a7.7,7.7,0,0,0,0-7.7l-8.311-14.4A7.7,7.7,0,0,0,32.636,0Z" transform="matrix(-0.259, -0.966, 0.966, -0.259, 50.591, 209.384)"/><g transform="translate(-2401.892 -8085.867)"><g transform="translate(2456 8258.95)"><path class="b" d="M12.053,14.313a3.4,3.4,0,0,1-1.131-.193L4.018,11.7H3.413V.587A3.414,3.414,0,0,1,6.629.258l3,1.237a3.855,3.855,0,0,1,2.2,2.02,2.93,2.93,0,0,1-.166,2.329c-.043.093-.089.183-.137.268l.883.281,6.2-3.2a4.292,4.292,0,0,1,1.756-.433,2.282,2.282,0,0,1,1.971,1.03c.625.9.99,2.33-.827,4.028-.466.434-2.81,2.274-7.377,5.79A3.437,3.437,0,0,1,12.053,14.313ZM2.275,11.7H2.018c-.083-2.512-.112-4.314-.087-5.358H1.849a.254.254,0,0,1-.163.062C1.36,6.4.963,5.744.644,5.216a5.883,5.883,0,0,0-.388-.594,1.14,1.14,0,0,1,.16-1.6L2.275,1.5V11.694Z" transform="translate(0.001 0.346)"/><path class="b" d="M0,1.138a1.138,1.138,0,1,1,2.276,0V13.656a1.138,1.138,0,0,1-2.276,0Z" transform="translate(0 0)"/></g></g></g></svg> -->


<svg xmlns="http://www.w3.org/2000/svg" xmlns:xlink="http://www.w3.org/1999/xlink" width="45.068" height="45.22" viewBox="0 0 39.068 41.22">
  <defs>
    <clipPath id="clip-path">
      <path id="Path_17772" data-name="Path 17772" d="M22.342,0H10.962A5.273,5.273,0,0,0,6.4,2.637L.706,12.491a5.273,5.273,0,0,0,0,5.273L6.4,27.619a5.273,5.273,0,0,0,4.566,2.637H22.342a5.273,5.273,0,0,0,4.566-2.637l5.69-9.855a5.273,5.273,0,0,0,0-5.273l-5.69-9.855A5.273,5.273,0,0,0,22.342,0Z" transform="matrix(-0.259, -0.966, 0.966, -0.259, 8.62, 40)" fill="#76b9eb"/>
    </clipPath>
  </defs>
  <g id="icon_donation" transform="translate(-33.388 -491.389)">
    <g id="Path_6080" data-name="Path 6080" transform="matrix(-0.259, -0.966, 0.966, -0.259, 42.62, 531.999)" fill="#9785c9">
      <path d="M 22.34168434143066 30.50533676147461 L 10.96246433258057 30.50533676147461 C 8.995584487915039 30.50533676147461 7.162864208221436 29.44715690612793 6.179524421691895 27.74373817443848 L 0.4898643493652344 17.88907814025879 C -0.4934156537055969 16.18576812744141 -0.4934156537055969 14.06955718994141 0.4898643493652344 12.36624717712402 L 6.179524421691895 2.511597394943237 C 7.162854194641113 0.8081874251365662 8.995573997497559 -0.2500025629997253 10.96246433258057 -0.2500025629997253 L 22.34168434143066 -0.2500025629997253 C 24.30854415893555 -0.2500025629997253 26.14126396179199 0.8081874251365662 27.1246337890625 2.51160740852356 L 32.81427383422852 12.36623764038086 C 33.79758453369141 14.06954765319824 33.79758453369141 16.18577766418457 32.81427383422852 17.88906669616699 L 27.1246337890625 27.74374771118164 C 26.14125442504883 29.44715690612793 24.30853462219238 30.50533676147461 22.34168434143066 30.50533676147461 Z" stroke="none"/>
      <path d="M 10.96246528625488 -1.9073486328125e-06 C 9.078723907470703 -1.9073486328125e-06 7.337854385375977 1.005086898803711 6.396034240722656 2.6365966796875 L 0.7063751220703125 12.4912281036377 C -0.2354545593261719 14.12274742126465 -0.2354545593261719 16.13257789611816 0.7063751220703125 17.76407623291016 L 6.396034240722656 27.61874771118164 C 7.337854385375977 29.25023651123047 9.078723907470703 30.25533676147461 10.96246528625488 30.25533676147461 L 22.34168434143066 30.25533676147461 C 24.22542572021484 30.25533676147461 25.96626472473145 29.25023651123047 26.90812492370605 27.61874771118164 L 32.59775543212891 17.76407623291016 C 33.53962326049805 16.13257789611816 33.53962326049805 14.12274742126465 32.59775543212891 12.4912281036377 L 26.90812492370605 2.6365966796875 C 25.96626472473145 1.005086898803711 24.22542572021484 -1.9073486328125e-06 22.34168434143066 -1.9073486328125e-06 L 10.96246528625488 -1.9073486328125e-06 M 10.96246528625488 -0.5000019073486328 L 22.34168434143066 -0.5000019073486328 C 24.39757537841797 -0.5000019073486328 26.31325531005859 0.6060867309570312 27.34114456176758 2.386617660522461 L 33.03076553344727 12.2412281036377 C 34.0586051940918 14.02165794372559 34.0586051940918 16.23366737365723 33.0307731628418 18.01405715942383 L 27.34113502502441 27.86874771118164 C 26.3132438659668 29.64925765991211 24.39756393432617 30.75533676147461 22.34168434143066 30.75533676147461 L 10.96246528625488 30.75533676147461 C 8.906543731689453 30.75533676147461 6.990863800048828 29.64924812316895 5.963005065917969 27.86872673034668 L 0.2733650207519531 18.01407623291016 C -0.7544364929199219 16.23366737365723 -0.7544364929199219 14.02165794372559 0.273345947265625 12.24125671386719 L 5.963024139404297 2.3865966796875 C 6.990854263305664 0.6060867309570312 8.906534194946289 -0.5000019073486328 10.96246528625488 -0.5000019073486328 Z" stroke="none" fill="#fafafa"/>
    </g>
    <g id="Mask_Group_297" data-name="Mask Group 297" transform="translate(34 491.999)" clip-path="url(#clip-path)">
      <path id="Path_17771" data-name="Path 17771" d="M22.342,0H10.962A5.273,5.273,0,0,0,6.4,2.637L.706,12.491a5.273,5.273,0,0,0,0,5.273L6.4,27.619a5.273,5.273,0,0,0,4.566,2.637H22.342a5.273,5.273,0,0,0,4.566-2.637l5.69-9.855a5.273,5.273,0,0,0,0-5.273l-5.69-9.855A5.273,5.273,0,0,0,22.342,0Z" transform="matrix(-0.259, -0.966, 0.966, -0.259, 22.603, 53.983)" fill="rgba(87,54,180,0.2)"/>
    </g>
    <g id="Group_24883" data-name="Group 24883" transform="translate(44.24 506.288)">
      <path id="Path" d="M6.778,11.053a2.713,2.713,0,0,1-.888-.149L.475,9.031H0V.453A2.714,2.714,0,0,1,2.522.2l2.352.955A3.006,3.006,0,0,1,6.6,2.714a2.232,2.232,0,0,1-.131,1.8c-.034.072-.07.141-.108.206l.693.218,4.867-2.474A3.409,3.409,0,0,1,13.3,2.129a1.8,1.8,0,0,1,1.547.795c.491.695.777,1.8-.649,3.111-.364.335-2.258,1.8-5.788,4.471A2.72,2.72,0,0,1,6.778,11.053Z" transform="translate(3.463 0.268)" fill="#fafafa"/>
      <path id="Path-2" data-name="Path" d="M0,.879A.886.886,0,0,1,.893,0a.886.886,0,0,1,.893.879v9.667a.886.886,0,0,1-.893.879A.886.886,0,0,1,0,10.545Z" transform="translate(0)" fill="#fafafa"/>
    </g>
  </g>
</svg>
