<svg xmlns="http://www.w3.org/2000/svg" width="55.281" height="58.43" viewBox="0 0 55.281 58.43"><defs><style>.a{fill:#fff;fill-rule:evenodd;}.b{fill:#9785c9;}</style></defs><g transform="translate(-38 -150.954)"><path class="a" d="M32.636,0H16.013a7.7,7.7,0,0,0-6.67,3.851l-8.311,14.4a7.7,7.7,0,0,0,0,7.7l8.311,14.4a7.7,7.7,0,0,0,6.67,3.851H32.636a7.7,7.7,0,0,0,6.67-3.851l8.311-14.4a7.7,7.7,0,0,0,0-7.7l-8.311-14.4A7.7,7.7,0,0,0,32.636,0Z" transform="matrix(-0.259, -0.966, 0.966, -0.259, 50.591, 209.384)"/><g transform="translate(-2401.892 -8085.867)"><g transform="translate(2456 8258.95)"><path class="b" d="M12.053,14.313a3.4,3.4,0,0,1-1.131-.193L4.018,11.7H3.413V.587A3.414,3.414,0,0,1,6.629.258l3,1.237a3.855,3.855,0,0,1,2.2,2.02,2.93,2.93,0,0,1-.166,2.329c-.043.093-.089.183-.137.268l.883.281,6.2-3.2a4.292,4.292,0,0,1,1.756-.433,2.282,2.282,0,0,1,1.971,1.03c.625.9.99,2.33-.827,4.028-.466.434-2.81,2.274-7.377,5.79A3.437,3.437,0,0,1,12.053,14.313ZM2.275,11.7H2.018c-.083-2.512-.112-4.314-.087-5.358H1.849a.254.254,0,0,1-.163.062C1.36,6.4.963,5.744.644,5.216a5.883,5.883,0,0,0-.388-.594,1.14,1.14,0,0,1,.16-1.6L2.275,1.5V11.694Z" transform="translate(0.001 0.346)"/><path class="b" d="M0,1.138a1.138,1.138,0,1,1,2.276,0V13.656a1.138,1.138,0,0,1-2.276,0Z" transform="translate(0 0)"/></g></g></g></svg>