<svg xmlns="http://www.w3.org/2000/svg" width="55.281" height="58.43" viewBox="0 0 55.281 58.43"><defs><style>.a,.c{fill:#fff;}.a{fill-rule:evenodd;}.b{fill:#79c3b6;}</style></defs><g transform="translate(-34.004 -552.948)"><path class="a" d="M32.636,0H16.013a7.7,7.7,0,0,0-6.67,3.851l-8.311,14.4a7.7,7.7,0,0,0,0,7.7l8.311,14.4a7.7,7.7,0,0,0,6.67,3.851H32.636a7.7,7.7,0,0,0,6.67-3.851l8.311-14.4a7.7,7.7,0,0,0,0-7.7l-8.311-14.4A7.7,7.7,0,0,0,32.636,0Z" transform="matrix(-0.259, -0.966, 0.966, -0.259, 46.595, 611.378)"/><g transform="translate(50.894 567.391)"><g transform="translate(0 0)"><path class="b" d="M160.154,99.55a8.052,8.052,0,0,0-8.047,8.047v4.018h-.322a2.624,2.624,0,0,0-2.619,2.619v11.021a2.624,2.624,0,0,0,2.619,2.619h16.737a2.624,2.624,0,0,0,2.619-2.619V114.234a2.624,2.624,0,0,0-2.619-2.619H168.2V107.6A8.052,8.052,0,0,0,160.154,99.55Zm-6.027,8.047a6.038,6.038,0,0,1,12.076,0v4.018H154.127V107.6Zm14.995,6.626v11.021a.6.6,0,0,1-.6.6H151.8a.6.6,0,0,1-.6-.6V114.223a.6.6,0,0,1,.6-.6h16.726A.6.6,0,0,1,169.122,114.223Z" transform="translate(-149.166 -99.55)"/><path class="b" d="M176.373,230.323H159.118a.74.74,0,0,1-.752-.734V217.984a.74.74,0,0,1,.752-.734h17.255a.74.74,0,0,1,.752.734V229.59A.746.746,0,0,1,176.373,230.323Z" transform="translate(-156.754 -203.609)"/><path class="c" d="M236.128,257.837a1.537,1.537,0,0,0-1.665.888,1.5,1.5,0,0,0,.5,1.853.326.326,0,0,1,.144.311v1.976h0a.775.775,0,0,0,1.154.666.683.683,0,0,0,.366-.666h0v-1.976a.342.342,0,0,1,.155-.322,1.462,1.462,0,0,0,.622-1.232A1.551,1.551,0,0,0,236.128,257.837Z" transform="translate(-224.718 -240.218)"/></g></g></g></svg>