<svg xmlns="http://www.w3.org/2000/svg" width="33.817" height="33.816" viewBox="0 0 33.817 33.816">
  <g id="bitcoin" transform="translate(3467.867 5513.511)">
    <g id="Group_31395" data-name="Group 31395" transform="translate(-3467.867 -5513.511)">
      <g id="Group_31394" data-name="Group 31394" transform="translate(0 0)">
        <g id="Group_31393" data-name="Group 31393">
          <path id="Path_22176" data-name="Path 22176" d="M169.713,139.145a16.908,16.908,0,1,0,16.908,16.908A16.928,16.928,0,0,0,169.713,139.145Z" transform="translate(-152.805 -139.145)" fill="#7bb6eb"/>
        </g>
      </g>
    </g>
    <g id="Group_31398" data-name="Group 31398" transform="translate(-3466.517 -5512.159)">
      <g id="Group_31397" data-name="Group 31397" transform="translate(0 0)">
        <g id="Group_31396" data-name="Group 31396">
          <path id="Path_22177" data-name="Path 22177" d="M162.535,163.759v-.137l-.687-.007v.143q0,.281.01.559l.686-.025Q162.535,164.027,162.535,163.759Zm.216,2.536-.677.117c.04.231.085.462.135.689l.671-.148C162.833,166.737,162.789,166.515,162.751,166.295Zm-.168-1.331-.685.055c.019.232.043.467.072.7l.682-.086C162.624,165.409,162.6,165.185,162.583,164.963Zm.456,2.642-.663.178c.061.226.127.453.2.674l.655-.208C163.161,168.038,163.1,167.822,163.039,167.605Zm-.431-5.323-.684-.068c-.023.231-.041.467-.053.7l.686.037C162.569,162.728,162.586,162.5,162.608,162.282Zm.5-2.633-.66-.19c-.065.224-.125.453-.179.679l.668.16C162.993,160.082,163.051,159.863,163.112,159.649Zm-.312,1.3-.675-.129c-.044.229-.083.462-.116.692l.68.1C162.721,161.395,162.758,161.172,162.8,160.954Zm.645,7.931-.644.238c.081.219.167.438.257.652l.633-.266C163.6,169.3,163.522,169.093,163.445,168.884Zm1.148,2.417-.591.35c.119.2.244.4.37.6l.575-.376C164.827,171.686,164.707,171.494,164.593,171.3Zm4.2,5.406c.195.13.394.256.593.377l.356-.588q-.288-.174-.567-.361Zm-1.132-.832c.18.146.367.29.557.429l.407-.554c-.181-.133-.36-.271-.532-.41Zm2.6-25.93c-.205.107-.412.22-.615.337l.344.595c.193-.112.391-.221.587-.322Zm-3.649,25c.168.162.341.322.516.476l.455-.515q-.252-.222-.493-.456Zm3.388,2.488c.206.112.416.22.625.322l.3-.618q-.3-.148-.6-.308Zm-6.449-19.058-.64-.249c-.085.219-.166.442-.241.661l.651.22C163.384,158.8,163.461,158.585,163.543,158.376Zm2.615,15.1-.519.449c.153.177.311.352.471.52l.5-.472C166.456,173.813,166.3,173.645,166.158,173.477Zm-2.194-3.359-.62.295c.1.21.206.42.315.626l.607-.323C164.161,170.52,164.059,170.318,163.964,170.118Zm1.362,2.306-.557.4c.136.189.278.378.422.56l.539-.426C165.593,172.785,165.457,172.6,165.327,172.424Zm26.134-13.531.649-.225c-.076-.219-.159-.441-.246-.658l-.638.255C191.309,158.472,191.387,158.683,191.46,158.893Zm-.5-1.245.626-.284c-.1-.212-.2-.424-.3-.632l-.613.311C190.774,157.242,190.871,157.445,190.963,157.648Zm-.607-1.195.6-.338c-.113-.2-.234-.4-.359-.6l-.582.365C190.133,156.068,190.248,156.262,190.356,156.453Zm-.713-1.136.565-.39c-.132-.19-.27-.381-.412-.568l-.547.416C189.386,154.953,189.518,155.136,189.644,155.318Zm2.605,7.511.686-.042c-.014-.234-.034-.469-.059-.7l-.683.073C192.216,162.381,192.235,162.605,192.249,162.829Zm-3.416-8.579.528-.44c-.148-.178-.3-.356-.461-.529l-.508.463C188.542,153.91,188.691,154.08,188.832,154.25Zm3.274,7.245.679-.1c-.036-.231-.076-.464-.122-.691l-.674.135C192.032,161.051,192.072,161.274,192.106,161.495Zm-.264-1.316.667-.165c-.057-.227-.119-.455-.185-.678l-.658.2C191.729,159.744,191.788,159.962,191.842,160.179Zm-4.464-8.354c-.18-.15-.364-.3-.549-.439l-.417.546c.176.135.353.276.525.42ZM165.5,154.863l-.549-.412c-.138.185-.276.377-.409.572l.568.387C165.233,155.223,165.364,155.039,165.5,154.863Zm.853-1.038-.51-.46c-.155.172-.309.351-.458.533l.531.436C166.054,154.161,166.2,153.989,166.349,153.825Zm22.064-1.052c-.165-.165-.335-.328-.507-.486l-.464.506q.247.227.485.464Zm-21.123.094-.467-.5c-.169.157-.338.322-.5.49l.49.482C166.967,153.175,167.129,153.017,167.29,152.868Zm-2.55,3.1-.584-.361c-.123.2-.242.4-.356.606l.6.334C164.509,156.358,164.623,156.163,164.74,155.973ZM168.313,152l-.42-.543c-.182.141-.366.29-.545.442l.445.524C167.964,152.276,168.139,152.134,168.313,152Zm-4.226,5.148-.615-.307c-.1.208-.2.422-.3.637l.628.278C163.892,157.55,163.988,157.346,164.087,157.147Zm5.322-5.921-.371-.579c-.2.125-.392.257-.582.392l.4.561C169.035,151.472,169.222,151.346,169.409,151.226ZM184,177.088l.305.615c.209-.1.418-.213.621-.326l-.333-.6C184.4,176.884,184.2,176.989,184,177.088Zm4.279-3.191.5.468c.16-.171.317-.348.467-.524l-.522-.446Q188.505,173.652,188.276,173.9Zm-2.966-22.732q.285.179.56.371l.392-.564c-.192-.133-.389-.264-.586-.387Zm-13.786-1.811c-.213.087-.429.181-.643.28l.289.623c.2-.094.41-.185.613-.267Zm13.645,27.083.359.585c.2-.121.4-.249.589-.381l-.385-.568C185.547,176.2,185.358,176.323,185.169,176.438ZM181.647,149.5c.213.063.428.133.64.207l.226-.649c-.222-.077-.447-.15-.67-.216Zm1.125,28.125.249.64c.218-.085.436-.175.647-.268l-.277-.628C183.189,177.461,182.981,177.548,182.772,177.629Zm1.369-27.127q.3.153.592.319l.34-.6c-.2-.115-.411-.227-.619-.333Zm-1.224-.556c.206.083.414.171.618.264l.284-.626c-.214-.1-.431-.19-.647-.276Zm3.362,25.74.411.551c.186-.139.372-.285.553-.432l-.435-.532C186.635,175.414,186.457,175.553,186.279,175.686Zm5.679-8.852.672.141c.049-.23.092-.462.129-.69l-.678-.111C192.046,166.392,192,166.614,191.958,166.834Zm.217-1.324.682.08c.027-.234.049-.469.066-.7l-.685-.05Q192.214,165.178,192.175,165.51Zm-.554,2.623.656.2c.068-.222.133-.449.191-.676l-.665-.172C191.749,167.7,191.687,167.921,191.621,168.133Zm1.341-4.645-.687.012q0,.129,0,.259,0,.207-.006.413l.686.019q.006-.215.006-.431Q192.964,163.623,192.962,163.488Zm-2.363,7.13.609.318c.109-.208.213-.42.311-.631l-.623-.29C190.8,170.216,190.7,170.419,190.6,170.618Zm-.675,1.162.578.371c.128-.2.251-.4.367-.6l-.594-.345C190.164,171.4,190.046,171.59,189.925,171.779Zm-.777,1.1.542.422c.144-.185.284-.375.419-.563l-.56-.4Q189.354,172.61,189.148,172.875Zm2.019-3.476.636.261c.089-.217.174-.438.253-.657l-.647-.232C191.333,168.98,191.252,169.191,191.167,169.4Zm-3.849,5.438.458.512c.173-.155.346-.317.512-.48l-.481-.491Q187.567,174.612,187.317,174.836Zm-11.728-26.53c-.231.027-.465.06-.7.1l.11.678c.22-.036.444-.067.664-.093Zm1.4-.1c-.236.006-.472.018-.7.035l.049.685q.333-.024.671-.033Zm-2.786.326c-.229.048-.459.1-.684.16l.172.665c.215-.055.434-.107.653-.153Zm1.1,30.644c.233.031.468.058.7.079l.061-.684q-.336-.03-.667-.075Zm-1.382-.252c.226.052.457.1.688.141l.123-.676c-.22-.04-.441-.086-.657-.135Zm-1.353-.376c.224.073.45.142.672.2l.184-.662c-.212-.059-.429-.124-.643-.194Zm8.929-.492.189.66c.222-.063.447-.134.671-.209l-.219-.651C181.928,177.929,181.712,178,181.5,178.057Zm-8.657-29.174c-.222.068-.446.143-.667.222l.231.647c.211-.075.425-.146.637-.212Zm-1.589,29.167c.212.092.432.181.653.264l.243-.642c-.211-.08-.421-.165-.623-.253Zm8.94.318.128.675c.227-.043.458-.093.686-.147l-.159-.668C180.633,178.279,180.412,178.327,180.2,178.368Zm.149-29.189c.218.044.439.093.655.147l.166-.667c-.226-.056-.456-.108-.685-.154Zm-1.326-.2c.223.024.447.053.665.087l.1-.679c-.229-.035-.463-.066-.7-.091Zm-1.339-.084q.337.006.671.027l.043-.686c-.233-.015-.469-.024-.7-.029Zm1.188,29.669.066.684c.23-.022.464-.05.7-.084l-.1-.68C179.311,178.511,179.087,178.538,178.868,178.559Zm-1.341.071.006.687c.236,0,.472-.009.7-.022l-.036-.686Q177.864,178.627,177.526,178.63Zm-.822.671c.232.01.468.016.7.016v-.687c-.224,0-.449-.005-.671-.015Z" transform="translate(-161.848 -148.203)" fill="#fcfcfc"/>
        </g>
      </g>
    </g>
    <g id="Group_31401" data-name="Group 31401" transform="translate(-3465.167 -5510.812)">
      <g id="Group_31400" data-name="Group 31400" transform="translate(0 0)">
        <g id="Group_31399" data-name="Group 31399">
          <path id="Path_22178" data-name="Path 22178" d="M185.1,157.229a14.208,14.208,0,1,0,14.208,14.208A14.224,14.224,0,0,0,185.1,157.229Zm0,27.729a13.521,13.521,0,1,1,13.521-13.521A13.537,13.537,0,0,1,185.1,184.958Z" transform="translate(-170.889 -157.229)" fill="#0f6cb4"/>
        </g>
      </g>
    </g>
    <g id="Group_31404" data-name="Group 31404" transform="translate(-3456.1 -5504.835)">
      <g id="Group_31403" data-name="Group 31403" transform="translate(0 0)">
        <g id="Group_31402" data-name="Group 31402">
          <path id="Path_22179" data-name="Path 22179" d="M231.148,192.11a2.595,2.595,0,0,0-.478-5.145h-1.079v-2.487h-1.546v2.487h-.978v-2.487h-1.546v2.487h-3.139v1.667h1.159a.624.624,0,0,1,.717.7v6.782a.624.624,0,0,1-.717.7h-1.159v1.667h3.139v2.463h1.546v-2.463h0v-.022h.978v2.485h1.546V198.46h1.521a3.175,3.175,0,0,0,.036-6.349Zm-4.08-3.374h1.706a1.53,1.53,0,1,1,0,3.06h-1.706Zm3.575,7.466a1.651,1.651,0,0,1-1.171.485h-2.4v-3.314h2.4a1.657,1.657,0,0,1,1.171,2.829Z" transform="translate(-222.384 -184.478)" fill="#fcfcfc"/>
        </g>
      </g>
    </g>
  </g>
</svg>
