<svg xmlns="http://www.w3.org/2000/svg" width="30" height="30" viewBox="0 0 30 30">
  <g id="bw" transform="translate(-54 -572)">
    <g id="Group_46514" data-name="Group 46514" transform="translate(-64.134 -0.134)">
      <circle id="Ellipse_2030" data-name="Ellipse 2030" cx="15" cy="15" r="15" transform="translate(118.134 572.134)" fill="#e9983e"/>
    </g>
    <g id="bw-2" data-name="bw" transform="translate(18.441 222.554)">
      <path id="Path_116997" data-name="Path 116997" d="M51.514,0l.3,0h.111l.058,0a2.13,2.13,0,0,1,.379.048.532.532,0,0,1,.339.56q0,2.386,0,4.771c0,.3,0,.6,0,.9a.507.507,0,0,0,.579.568c.252-.008.506,0,.754-.028.225-.029.3-.134.333-.355a1.677,1.677,0,0,0,.012-.234q0-2.661,0-5.323A2.021,2.021,0,0,1,54.4.485a.521.521,0,0,1,.584-.469c.311-.012.624.007.936.021a.51.51,0,0,1,.38.407,1.361,1.361,0,0,1,.025.287c0,1.811.006,3.622,0,5.433,0,.347.121.514.446.537a4.105,4.105,0,0,0,.848-.027c.247-.034.341-.2.342-.458.005-.835.021-1.67.025-2.506.005-1.02,0-2.041,0-3.061,0-.516.272-.613.6-.638l.055,0,.112,0,.247,0h.444l.167,0a1.724,1.724,0,0,1,.333.053A.505.505,0,0,1,60.287.5L60.3.59c0,.083.008.165.008.248,0,2.156,0,4.312-.005,6.468a2.811,2.811,0,0,1-.1.659.487.487,0,0,1-.424.348,1.952,1.952,0,0,1-.45.053c-.358-.015-.481.231-.507.537-.012.149-.025.3-.051.444a.408.408,0,0,1-.307.322,1.615,1.615,0,0,1-.428.076c-.456.009-.914.023-1.369,0s-.615-.193-.636-.714c-.01-.253-.078-.41-.282-.442a2.147,2.147,0,0,0-.589,0,.358.358,0,0,0-.294.366c-.008.164-.012.329-.027.492a.437.437,0,0,1-.31.387.956.956,0,0,1-.307.054c-.618.006-1.236.011-1.853,0a.554.554,0,0,1-.571-.305,1.042,1.042,0,0,1-.057-.263,1.508,1.508,0,0,1,0-.193c0-.316-.12-.49-.509-.507a2.027,2.027,0,0,1-.434-.045c-.3-.081-.387-.325-.413-.6,0-.028,0-.055,0-.083q0-3.613,0-7.226a.923.923,0,0,1,.064-.345c.109-.263.35-.3.6-.308l.085,0,.357,0h.031" transform="translate(0.812 359.5)" fill="#f8f8f8"/>
      <path id="Path_116998" data-name="Path 116998" d="M3.331,7.568H6.1l.083,0h.027l.113-.005.036,0c.35-.009.516-.171.514-.521a8.033,8.033,0,0,0-.031-.821A.324.324,0,0,0,6.5,5.917c-.187-.012-.374-.024-.562-.024q-2.571,0-5.142,0a1.957,1.957,0,0,1-.288-.022.526.526,0,0,1-.492-.56c0-.248,0-.5,0-.744a.541.541,0,0,1,.55-.58l.037,0c.277,0,.553-.011.83-.012q2.261,0,4.523,0c.125,0,.249,0,.373-.008a.38.38,0,0,0,.385-.424c-.006-.222-.013-.445,0-.666.026-.426-.2-.55-.556-.559-.267-.007-.535,0-.8,0l-4.482,0H.84a1.873,1.873,0,0,1-.356-.021.532.532,0,0,1-.469-.584A10.983,10.983,0,0,1,.019.55C.045.208.2.02.665.017,1.918.008,3.171.009,4.424.007q1.444,0,2.889,0h.111l.087,0c.122.012.247.014.367.038a.616.616,0,0,1,.491.616,3.242,3.242,0,0,0,.032.45.52.52,0,0,0,.526.362c.083,0,.166,0,.249,0a.557.557,0,0,1,.575.564c0,.1,0,.193,0,.289q0,.609,0,1.218c0,.041,0,.082,0,.124a.5.5,0,0,1-.527.564,2.39,2.39,0,0,0-.312.033c-.158.032-.294.112-.3.287a3.511,3.511,0,0,0,.016.6.282.282,0,0,0,.253.241,3.636,3.636,0,0,0,.5.055.511.511,0,0,1,.539.49c.005.049.012.1.018.148,0,.018,0,.036,0,.054q0,.787,0,1.573l-.02.057a2.8,2.8,0,0,1-.048.42c-.069.262-.285.327-.523.344-.083.006-.166,0-.249.005a.439.439,0,0,0-.455.452c0,.123-.01.247-.024.37-.045.39-.307.506-.626.528-.115.008-.23,0-.345.007H7.62L5.2,9.9.6,9.889A.541.541,0,0,1,.015,9.3a10.175,10.175,0,0,1,0-1.184c.03-.373.192-.5.6-.543.046,0,.092,0,.138-.006H3.331" transform="translate(40 359.495)" fill="#f8f8f8"/>
    </g>
  </g>
</svg>
