<svg xmlns="http://www.w3.org/2000/svg" width="14" height="14" viewBox="0 0 14 14"><defs><style>.a{fill:#ffe481;}.b,.e{fill:none;}.b{stroke:#ffe481;}.c{fill:#fff;stroke:#fff;stroke-width:0.3px;}.d{stroke:none;}</style></defs><g transform="translate(-109.591 -737.591)"><g transform="translate(109.92 737.92)"><path class="a" d="M0,0H14a0,0,0,0,1,0,0V9a1,1,0,0,1-1,1H1A1,1,0,0,1,0,9V0A0,0,0,0,1,0,0Z" transform="translate(-0.329 3.671)"/><g class="b" transform="translate(-0.329 -0.329)"><path class="d" d="M1,0H13a1,1,0,0,1,1,1V4a0,0,0,0,1,0,0H0A0,0,0,0,1,0,4V1A1,1,0,0,1,1,0Z"/><rect class="e" x="0.5" y="0.5" width="13" height="3" rx="0.5"/></g></g><path class="c" d="M56.224,165.152a.224.224,0,0,0,0,.448h2.24v1.774a.224.224,0,1,0,.448,0V165.6h4.48v1.792a.224.224,0,0,0,.448,0V165.6h2.24a.224.224,0,0,0,0-.448H63.84v-2.688h2.24a.224.224,0,0,0,0-.448H63.84v-1.792a.224.224,0,1,0-.448,0v1.792h-4.48v-1.792a.224.224,0,1,0-.448,0v1.792h-2.24a.224.224,0,0,0,0,.448h2.24v2.688Zm2.688-2.688h4.48v2.688h-4.48Zm0,0" transform="translate(55.454 582.269)"/></g></svg>