<svg xmlns="http://www.w3.org/2000/svg" width="16.376" height="14.862" viewBox="0 0 16.376 14.862"><defs><style>.a{fill:#c6c781;fill-rule:evenodd;}</style></defs><path class="a" d="M3.362,7.778l.769,5.489A2.294,2.294,0,0,0,6.42,15.423h6.116a2.294,2.294,0,0,0,2.29-2.156l.769-5.489L17.087,7.4a.765.765,0,0,0,.271-1.355L10.433.9a1.529,1.529,0,0,0-1.91,0L1.6,6.05A.765.765,0,0,0,1.87,7.4Zm6.116,4.587a2.294,2.294,0,1,0-2.294-2.294A2.294,2.294,0,0,0,9.478,12.365Z" transform="translate(-1.29 -0.562)"/></svg>