<svg xmlns="http://www.w3.org/2000/svg" width="17.068" height="11.05" viewBox="0 0 17.068 11.05"><defs><style>.a{fill:#9785c9;}</style></defs><g transform="translate(-2456 -8258.95)"><g transform="translate(3)"><path class="a" d="M9,10.691a2.541,2.541,0,0,1-.845-.144L3,8.736H2.549V.438a2.55,2.55,0,0,1,2.4-.245l2.238.924A2.88,2.88,0,0,1,8.836,2.626a2.188,2.188,0,0,1-.124,1.739c-.032.07-.067.137-.1.2l.659.21L13.9,2.382a3.205,3.205,0,0,1,1.312-.323,1.7,1.7,0,0,1,1.472.769c.467.672.739,1.74-.617,3.009-.348.324-2.1,1.7-5.51,4.325A2.567,2.567,0,0,1,9,10.691ZM1.7,8.736H1.507c-.062-1.876-.083-3.222-.065-4H1.381a.19.19,0,0,1-.122.046c-.243,0-.54-.49-.778-.884a4.394,4.394,0,0,0-.29-.444.851.851,0,0,1,.119-1.2L1.7,1.12V8.735Z" transform="translate(2453 8259.209)"/><path class="a" d="M0,.85a.85.85,0,0,1,1.7,0V10.2a.85.85,0,0,1-1.7,0Z" transform="translate(2453 8258.95)"/></g></g></svg>