<svg xmlns="http://www.w3.org/2000/svg" width="36" height="36" viewBox="0 0 36 36">
  <g id="checking" transform="translate(-212 -283)">
    <circle id="Ellipse_2031" data-name="Ellipse 2031" cx="18" cy="18" r="18" transform="translate(212 283)" fill="#88b283"/>
    <g id="event-2" transform="translate(220.484 291.484)">
      <path id="Path_8099" data-name="Path 8099" d="M17.127,0H1.269C.568,0,0,1.807,0,4.036V14.127H18.4V4.036C18.4,1.807,17.827,0,17.127,0Zm0,0" transform="translate(18.712 19.03) rotate(180)" fill="#f8f8f8"/>
      <g id="Group_10676" data-name="Group 10676">
        <path id="Path_8100" data-name="Path 8100" d="M17.444,0H1.586A1.588,1.588,0,0,0,0,1.586V17.444A1.588,1.588,0,0,0,1.586,19.03H17.444a1.588,1.588,0,0,0,1.586-1.586V1.586A1.588,1.588,0,0,0,17.444,0ZM.634,1.586A.952.952,0,0,1,1.586.634H17.444a.952.952,0,0,1,.951.951V4.44H.634ZM18.4,17.444a.952.952,0,0,1-.951.951H1.586a.952.952,0,0,1-.951-.951V5.075H18.4Zm0,0" fill="#f8f8f8" stroke="#f8f8f8" stroke-width="0.5"/>
        <path id="Path_8101" data-name="Path 8101" d="M70.272,56H56.317a.317.317,0,1,0,0,.634H70.272a.317.317,0,1,0,0-.634Zm0,0" transform="translate(-53.78 -53.78)" fill="#f8f8f8"/>
        <path id="Path_8102" data-name="Path 8102" d="M56.317,167.295a.317.317,0,1,0,0,.634h3.172v2.512a.317.317,0,0,0,.634,0v-2.512h6.343v2.537a.317.317,0,0,0,.634,0v-2.537h3.172a.317.317,0,1,0,0-.634H67.1v-3.806h3.172a.317.317,0,1,0,0-.634H67.1v-2.537a.317.317,0,1,0-.634,0v2.537H60.123v-2.537a.317.317,0,1,0-.634,0v2.537H56.317a.317.317,0,1,0,0,.634h3.172v3.806Zm3.806-3.806h6.343v3.806H60.123Zm0,0" transform="translate(-53.78 -153.657)" fill="#88b283" stroke="#88b283" stroke-width="0.5"/>
      </g>
    </g>
  </g>
</svg>
