<svg xmlns="http://www.w3.org/2000/svg" width="18.147" height="13.707" viewBox="0 0 18.147 13.707"><defs><style>.a{fill:#79b8eb;}.b{fill:#0f6cb4;}.c{fill:#fafafa;}</style></defs><g transform="translate(3385.053 555.895)"><g transform="translate(-3385.053 -555.895)"><path class="a" d="M61.158,408.386h-.965a.193.193,0,1,1,0-.386h.965a.193.193,0,0,1,0,.386Z" transform="translate(-58.842 -396.224)"/><path class="a" d="M101.158,408.386h-.965a.193.193,0,1,1,0-.386h.965a.193.193,0,1,1,0,.386Z" transform="translate(-96.911 -396.224)"/><path class="a" d="M141.158,408.386h-.965a.193.193,0,0,1,0-.386h.965a.193.193,0,0,1,0,.386Z" transform="translate(-134.981 -396.224)"/><path class="a" d="M181.158,408.386h-.965a.193.193,0,0,1,0-.386h.965a.193.193,0,1,1,0,.386Z" transform="translate(-173.05 -396.224)"/><path class="a" d="M221.158,408.386h-.965a.193.193,0,1,1,0-.386h.965a.193.193,0,1,1,0,.386Z" transform="translate(-211.12 -396.224)"/><path class="a" d="M261.158,408.386h-.965a.193.193,0,1,1,0-.386h.965a.193.193,0,0,1,0,.386Z" transform="translate(-249.189 -396.224)"/><path class="a" d="M301.158,408.386h-.965a.193.193,0,0,1,0-.386h.965a.193.193,0,1,1,0,.386Z" transform="translate(-287.259 -396.224)"/><path class="a" d="M341.158,408.386h-.965a.193.193,0,1,1,0-.386h.965a.193.193,0,0,1,0,.386Z" transform="translate(-325.328 -396.224)"/><path class="a" d="M52.023,177.707H37.158A1.16,1.16,0,0,1,36,176.548v-11.39A1.16,1.16,0,0,1,37.158,164H52.023a1.16,1.16,0,0,1,1.158,1.158v11.39A1.16,1.16,0,0,1,52.023,177.707Z" transform="translate(-36 -164)"/></g><g transform="translate(-3385.053 -555.895)"><path class="b" d="M61.158,408.386h-.965a.193.193,0,1,1,0-.386h.965a.193.193,0,0,1,0,.386Z" transform="translate(-58.842 -396.224)"/><path class="b" d="M101.158,408.386h-.965a.193.193,0,1,1,0-.386h.965a.193.193,0,1,1,0,.386Z" transform="translate(-96.911 -396.224)"/><path class="b" d="M141.158,408.386h-.965a.193.193,0,0,1,0-.386h.965a.193.193,0,0,1,0,.386Z" transform="translate(-134.981 -396.224)"/><path class="b" d="M181.158,408.386h-.965a.193.193,0,0,1,0-.386h.965a.193.193,0,1,1,0,.386Z" transform="translate(-173.05 -396.224)"/><path class="b" d="M221.158,408.386h-.965a.193.193,0,1,1,0-.386h.965a.193.193,0,1,1,0,.386Z" transform="translate(-211.12 -396.224)"/><path class="b" d="M261.158,408.386h-.965a.193.193,0,1,1,0-.386h.965a.193.193,0,0,1,0,.386Z" transform="translate(-249.189 -396.224)"/><path class="b" d="M301.158,408.386h-.965a.193.193,0,0,1,0-.386h.965a.193.193,0,1,1,0,.386Z" transform="translate(-287.259 -396.224)"/><path class="b" d="M341.158,408.386h-.965a.193.193,0,1,1,0-.386h.965a.193.193,0,0,1,0,.386Z" transform="translate(-325.328 -396.224)"/><path class="a" d="M52.023,177.707H37.158A1.16,1.16,0,0,1,36,176.548v-11.39A1.16,1.16,0,0,1,37.158,164H52.023a1.16,1.16,0,0,1,1.158,1.158v3.089a.193.193,0,1,1-.386,0v-3.089a.773.773,0,0,0-.772-.772H37.158a.773.773,0,0,0-.772.772v11.39a.773.773,0,0,0,.772.772H52.023a.773.773,0,0,0,.772-.772v-2.9a.193.193,0,1,1,.386,0v2.9A1.16,1.16,0,0,1,52.023,177.707Z" transform="translate(-36 -164)"/></g><path class="b" d="M293.405,279.089h-5.019A.386.386,0,0,1,288,278.7v-2.317a.386.386,0,0,1,.386-.386h5.019a.386.386,0,0,1,.386.386V278.7A.386.386,0,0,1,293.405,279.089Z" transform="translate(-3660.89 -826.489)"/><path class="b" d="M289.6,275.475h-5.019A.58.58,0,0,1,284,274.9v-2.317a.58.58,0,0,1,.579-.579H289.6a.58.58,0,0,1,.579.579V274.9A.58.58,0,0,1,289.6,275.475Zm-5.019-3.089a.193.193,0,0,0-.193.193V274.9a.193.193,0,0,0,.193.193H289.6a.193.193,0,0,0,.193-.193v-2.317a.193.193,0,0,0-.193-.193Z" transform="translate(-3657.083 -822.682)"/><circle class="c" cx="1.041" cy="1.041" r="1.041" transform="translate(-3372.581 -549.994)"/></g></svg>