<svg xmlns="http://www.w3.org/2000/svg" xmlns:xlink="http://www.w3.org/1999/xlink" width="44.527" height="46.99" viewBox="0 0 44.527 46.99">
  <defs>
    <clipPath id="clip-path">
      <path id="Path_17772" data-name="Path 17772" d="M25.565,0H12.544A6.033,6.033,0,0,0,7.319,3.017L.808,14.293a6.034,6.034,0,0,0,0,6.034L7.319,31.6a6.034,6.034,0,0,0,5.225,3.017H25.565A6.034,6.034,0,0,0,30.79,31.6L37.3,20.327a6.034,6.034,0,0,0,0-6.034L30.79,3.017A6.034,6.034,0,0,0,25.565,0Z" transform="matrix(-0.259, -0.966, 0.966, -0.259, 9.863, 45.77)" fill="#76b9eb"/>
    </clipPath>
  </defs>
  <g id="lightning" transform="translate(-35.388 -621.389)">
    <g id="icon_checking" transform="translate(2 318)">
      <g id="Path_6080" data-name="Path 6080" transform="matrix(-0.259, -0.966, 0.966, -0.259, 43.863, 349.77)" fill="#faba5f">
        <path d="M 25.56473350524902 34.87000274658203 L 12.54392242431641 34.87000274658203 C 10.30613231658936 34.87000274658203 8.221002578735352 33.66607284545898 7.102222919464111 31.72805404663086 L 0.591772735118866 20.45174407958984 C -0.5269472599029541 18.51384353637695 -0.5269472599029541 16.10615348815918 0.591772735118866 14.16824340820312 L 7.102222919464111 2.891953229904175 C 8.220993041992188 0.9539332985877991 10.30613231658936 -0.2499967217445374 12.54392242431641 -0.2499967217445374 L 25.56473350524902 -0.2499967217445374 C 27.80248260498047 -0.2499967217445374 29.88762283325195 0.9539332985877991 31.00643348693848 2.891963243484497 L 37.51686096191406 14.16823291778564 C 38.63561248779297 16.10615348815918 38.63561248779297 18.51384353637695 37.51686096191406 20.45173263549805 L 31.00643348693848 31.72806358337402 C 29.88761329650879 33.66608428955078 27.8024730682373 34.87000274658203 25.56473350524902 34.87000274658203 Z" stroke="none"/>
        <path d="M 12.54392242431641 3.814697265625e-06 C 10.3884334564209 3.814697265625e-06 8.39642333984375 1.150081634521484 7.318733215332031 3.016952514648438 L 0.8082809448242188 14.29323387145996 C -0.2694282531738281 16.16011238098145 -0.2694282531738281 18.45988273620605 0.8082809448242188 20.32674407958984 L 7.318733215332031 31.60305404663086 C 8.39642333984375 33.46991348266602 10.3884334564209 34.62000274658203 12.54392242431641 34.62000274658203 L 25.56472396850586 34.62000274658203 C 27.72021293640137 34.62000274658203 29.71219253540039 33.46991348266602 30.7899227142334 31.60305404663086 L 37.30035400390625 20.32674407958984 C 38.37809371948242 18.45988273620605 38.37809371948242 16.16011238098145 37.30035400390625 14.29323387145996 L 30.7899227142334 3.016952514648438 C 29.71219253540039 1.150081634521484 27.72021293640137 3.814697265625e-06 25.56472396850586 3.814697265625e-06 L 12.54392242431641 3.814697265625e-06 M 12.54392242431641 -0.4999961853027344 L 25.56472396850586 -0.4999961853027344 C 27.89151382446289 -0.4999961853027344 30.05962371826172 0.7518348693847656 31.22294235229492 2.766973495483398 L 37.73336410522461 14.04323387145996 C 38.89663314819336 16.05826377868652 38.89663314819336 18.56174278259277 37.73337173461914 20.57672309875488 L 31.22293281555176 31.85305404663086 C 30.05961227416992 33.86817169189453 27.89151382446289 35.12000274658203 25.56472396850586 35.12000274658203 L 12.54392242431641 35.12000274658203 C 10.21709251403809 35.12000274658203 8.048992156982422 33.86817169189453 6.885702133178711 31.8530330657959 L 0.3752708435058594 20.57674407958984 C -0.7879562377929688 18.56173324584961 -0.7879676818847656 16.05826377868652 0.3752517700195312 14.04325294494629 L 6.885723114013672 2.766952514648438 C 8.048992156982422 0.7518348693847656 10.21709251403809 -0.4999961853027344 12.54392242431641 -0.4999961853027344 Z" stroke="none" fill="#fafafa"/>
      </g>
      <g id="Mask_Group_297" data-name="Mask Group 297" transform="translate(34 304)" clip-path="url(#clip-path)">
        <path id="Path_17771" data-name="Path 17771" d="M25.565,0H12.544A6.033,6.033,0,0,0,7.319,3.017L.808,14.293a6.034,6.034,0,0,0,0,6.034L7.319,31.6a6.034,6.034,0,0,0,5.225,3.017H25.565A6.034,6.034,0,0,0,30.79,31.6L37.3,20.327a6.034,6.034,0,0,0,0-6.034L30.79,3.017A6.034,6.034,0,0,0,25.565,0Z" transform="matrix(-0.259, -0.966, 0.966, -0.259, 25.863, 61.77)" fill="#f0ab48"/>
      </g>
    </g>
    <path id="lightning-2" data-name="lightning" d="M.2,12.9S1.787,5.848,5.136,1.334L16.586.85S11.008,6.1,9.393,8.955l6.68-.5S5.531,16.024,1.986,23.73c0,0-.77-6.343,2.846-11.312Z" transform="translate(50.474 633.15)" fill="#fafafa"/>
  </g>
</svg>
