<svg xmlns="http://www.w3.org/2000/svg" width="18.352" height="16.563" viewBox="0 0 18.352 16.563"><defs><style>.a,.b{fill:#fafafa;stroke-linecap:round;stroke-linejoin:round;}.a{stroke:#77b9eb;stroke-width:0.3px;}.c,.d{stroke:none;}.d{fill:#77b9eb;}</style></defs><g transform="translate(1543.15 3790.301)"><path class="a" d="M334.2,90.725a2.936,2.936,0,0,1,1.615-5.391.368.368,0,0,1,.367.367,5.5,5.5,0,0,1,0,5.144A12.094,12.094,0,0,0,333.9,93.37a6.751,6.751,0,0,0-.712,2.986h-2.154a.368.368,0,0,1-.367-.367v-.7A4.857,4.857,0,0,1,334.2,90.725Z" transform="translate(-1873.667 -3872.865)"/><g class="b" transform="translate(-1539.326 -3831.666)"><path class="c" d="M 12.85966491699219 57.27792358398438 L 0.3674344718456268 57.27792358398438 C -0.193575531244278 57.27792358398438 -0.6499955654144287 56.82150650024414 -0.6499955654144287 56.26049423217773 L -0.6499955654144287 55.35812377929688 C -0.6499755382537842 53.85806655883789 -0.1263655424118042 52.43845367431641 0.8642444610595703 51.25277328491211 C 1.558506727218628 50.42180252075195 2.462250947952271 49.74923324584961 3.478852510452271 49.29564666748047 C 2.726930379867554 48.50354385375977 2.289364576339722 47.44821166992188 2.289364576339722 46.34020614624023 C 2.289364576339722 43.95583343505859 4.229194641113281 42.01600646972656 6.613564491271973 42.01600646972656 C 8.997934341430664 42.01600646972656 10.93775463104248 43.95583343505859 10.93775463104248 46.34020614624023 C 10.93775463104248 47.44821166992188 10.50004482269287 48.50369262695312 9.748122215270996 49.29579925537109 C 10.76481533050537 49.74954605102539 11.66863632202148 50.42216491699219 12.36285400390625 51.25302505493164 C 13.35347461700439 52.43862533569336 13.87708473205566 53.85814666748047 13.87708473205566 55.35812377929688 L 13.87708473205566 56.26049423217773 C 13.87708473205566 56.82150650024414 13.42067432403564 57.27792358398438 12.85966491699219 57.27792358398438 Z"/><path class="d" d="M 6.613564491271973 42.6660041809082 C 4.587614059448242 42.6660041809082 2.939364433288574 44.31426620483398 2.939364433288574 46.34020614624023 C 2.939364433288574 47.70407485961914 3.695514678955078 48.88348388671875 4.80217456817627 49.51689529418945 C 2.034074783325195 50.24294662475586 3.4332275390625e-05 52.58412551879883 4.76837158203125e-06 55.35812377929688 L 4.76837158203125e-06 56.26049423217773 C 4.76837158203125e-06 56.46330642700195 0.1646146774291992 56.62792587280273 0.3674240112304688 56.62792587280273 C 0.5702447891235352 56.62792587280273 12.65684413909912 56.62792587280273 12.85966491699219 56.62792587280273 C 13.06247425079346 56.62792587280273 13.22708415985107 56.46330642700195 13.22708415985107 56.26049423217773 L 13.22708415985107 55.35812377929688 C 13.22708415985107 52.58412551879883 11.19304466247559 50.2436637878418 8.424943923950195 49.51689529418945 C 9.531604766845703 48.88348388671875 10.28775405883789 47.70407485961914 10.28775405883789 46.34020614624023 C 10.28775405883789 44.31426620483398 8.639504432678223 42.6660041809082 6.613564491271973 42.6660041809082 M 3.674224853515625 46.80815887451172 L 3.674224853515625 45.87224960327148 L 3.674224853515625 46.80815887451172 M 6.613564491271973 41.36600494384766 C 9.356344223022461 41.36600494384766 11.58775424957275 43.5974235534668 11.58775424957275 46.34020614624023 C 11.58775424957275 47.32667541503906 11.28714942932129 48.27649688720703 10.75130844116211 49.07783889770508 C 11.55779552459717 49.54071426391602 12.27737045288086 50.1369743347168 12.86165428161621 50.83625411987305 C 13.95118427276611 52.14023590087891 14.52708435058594 53.70387649536133 14.52708435058594 55.35812377929688 L 14.52708435058594 56.26049423217773 C 14.52708435058594 57.17991638183594 13.77908420562744 57.92792510986328 12.85966491699219 57.92792510986328 L 0.3674240112304688 57.92792510986328 C -0.5519952774047852 57.92792510986328 -1.299995422363281 57.17991638183594 -1.299995422363281 56.26049423217773 L -1.299995422363281 55.35812377929688 C -1.299975395202637 53.70379638671875 -0.724085807800293 52.14008331298828 0.3654241561889648 50.83602523803711 C 0.9497413635253906 50.13664245605469 1.669223785400391 49.54042816162109 2.475668907165527 49.0776252746582 C 1.939936637878418 48.27634048461914 1.639364242553711 47.32656860351562 1.639364242553711 46.34020614624023 C 1.639364242553711 43.5974235534668 3.870784759521484 41.36600494384766 6.613564491271973 41.36600494384766 Z"/></g></g></svg>