<svg xmlns="http://www.w3.org/2000/svg" width="43.304" height="45.771" viewBox="0 0 43.304 45.771"><defs><style>.a{fill:#ffdf69;fill-rule:evenodd;}.b,.c{fill:#fafafa;}.c{stroke:#fafafa;}.c,.d{stroke-width:0.5px;}.d{fill:#ffe481;stroke:#ffe481;}</style></defs><g transform="translate(-199 -277)"><path class="a" d="M25.565,0H12.544A6.033,6.033,0,0,0,7.319,3.017L.808,14.293a6.034,6.034,0,0,0,0,6.034L7.319,31.6a6.034,6.034,0,0,0,5.225,3.017H25.565A6.034,6.034,0,0,0,30.79,31.6L37.3,20.327a6.034,6.034,0,0,0,0-6.034L30.79,3.017A6.034,6.034,0,0,0,25.565,0Z" transform="matrix(-0.259, -0.966, 0.966, -0.259, 208.863, 322.771)"/><g transform="translate(211 290)"><path class="b" d="M17.127,0H1.269C.568,0,0,1.807,0,4.036V14.127H18.4V4.036C18.4,1.807,17.827,0,17.127,0Zm0,0" transform="translate(18.712 19.03) rotate(180)"/><path class="c" d="M17.444,0H1.586A1.588,1.588,0,0,0,0,1.586V17.444A1.588,1.588,0,0,0,1.586,19.03H17.444a1.588,1.588,0,0,0,1.586-1.586V1.586A1.588,1.588,0,0,0,17.444,0ZM.634,1.586A.952.952,0,0,1,1.586.634H17.444a.952.952,0,0,1,.951.951V4.44H.634ZM18.4,17.444a.952.952,0,0,1-.951.951H1.586a.952.952,0,0,1-.951-.951V5.075H18.4Zm0,0"/><path class="b" d="M70.272,56H56.317a.317.317,0,1,0,0,.634H70.272a.317.317,0,1,0,0-.634Zm0,0" transform="translate(-53.78 -53.78)"/><path class="d" d="M56.317,167.295a.317.317,0,1,0,0,.634h3.172v2.512a.317.317,0,0,0,.634,0v-2.512h6.343v2.537a.317.317,0,0,0,.634,0v-2.537h3.172a.317.317,0,1,0,0-.634H67.1v-3.806h3.172a.317.317,0,1,0,0-.634H67.1v-2.537a.317.317,0,1,0-.634,0v2.537H60.123v-2.537a.317.317,0,1,0-.634,0v2.537H56.317a.317.317,0,1,0,0,.634h3.172v3.806Zm3.806-3.806h6.343v3.806H60.123Zm0,0" transform="translate(-53.78 -153.657)"/></g></g></svg>