<svg xmlns="http://www.w3.org/2000/svg" width="43.304" height="45.771" viewBox="0 0 43.304 45.771"><defs><style>.a,.c{fill:#70c1b3;}.a{fill-rule:evenodd;}.b{fill:#fafafa;}</style></defs><g transform="translate(-26 -443)"><path class="a" d="M25.565,0H12.544A6.033,6.033,0,0,0,7.319,3.017L.808,14.293a6.034,6.034,0,0,0,0,6.034L7.319,31.6a6.034,6.034,0,0,0,5.225,3.017H25.565A6.034,6.034,0,0,0,30.79,31.6L37.3,20.327a6.034,6.034,0,0,0,0-6.034L30.79,3.017A6.034,6.034,0,0,0,25.565,0Z" transform="matrix(-0.259, -0.966, 0.966, -0.259, 35.863, 488.771)"/><g transform="translate(-90.595 -92.422)"><g transform="translate(129.459 545.535)"><g transform="translate(0 0)"><path class="b" d="M173.678,228.639H159.005a.636.636,0,0,1-.639-.639V217.889a.636.636,0,0,1,.639-.639h14.673a.636.636,0,0,1,.639.639V228A.642.642,0,0,1,173.678,228.639Z" transform="translate(-157.549 -206.802)"/><path class="b" d="M157.954,99.55a6.44,6.44,0,0,0-6.436,6.436V109.2h-.257a2.1,2.1,0,0,0-2.095,2.095v8.815a2.1,2.1,0,0,0,2.095,2.095h13.386a2.1,2.1,0,0,0,2.095-2.095v-8.815a2.1,2.1,0,0,0-2.095-2.095h-.257v-3.213A6.44,6.44,0,0,0,157.954,99.55Zm-4.82,6.436a4.829,4.829,0,0,1,9.658,0V109.2h-9.658v-3.213Zm11.992,5.3V120.1a.477.477,0,0,1-.479.479H151.27a.477.477,0,0,1-.479-.479v-8.815a.477.477,0,0,1,.479-.479h13.377A.477.477,0,0,1,165.126,111.285Z" transform="translate(-149.166 -99.55)"/><path class="c" d="M235.767,257.831a1.229,1.229,0,0,0-1.331.71,1.2,1.2,0,0,0,.4,1.482.261.261,0,0,1,.115.249v1.58h0a.62.62,0,0,0,.923.533.546.546,0,0,0,.293-.533h0v-1.58a.274.274,0,0,1,.124-.257,1.169,1.169,0,0,0,.5-.985A1.241,1.241,0,0,0,235.767,257.831Z" transform="translate(-226.766 -243.762)"/></g></g></g></g></svg>