<svg xmlns="http://www.w3.org/2000/svg" width="10.345" height="13.333" viewBox="0 0 10.345 13.333"><defs><style>.a{fill:#fafafa;}.b{fill:#77b9eb;}</style></defs><g transform="translate(0 0)"><path class="a" d="M154.338,99.55a3.791,3.791,0,0,0-3.788,3.788v1.891H150.4a1.235,1.235,0,0,0-1.233,1.233v5.188a1.235,1.235,0,0,0,1.233,1.233h7.879a1.235,1.235,0,0,0,1.233-1.233v-5.188a1.235,1.235,0,0,0-1.233-1.233h-.152v-1.891A3.791,3.791,0,0,0,154.338,99.55Zm-2.837,3.788a2.842,2.842,0,1,1,5.684,0v1.891H151.5v-1.891Zm7.059,3.119v5.188a.281.281,0,0,1-.282.282H150.4a.281.281,0,0,1-.282-.282v-5.188a.281.281,0,0,1,.282-.282h7.874A.281.281,0,0,1,158.56,106.457Z" transform="translate(-149.166 -99.55)"/><path class="a" d="M166.842,223.4H158.72a.348.348,0,0,1-.354-.345V217.6a.348.348,0,0,1,.354-.345h8.123a.348.348,0,0,1,.354.345v5.463A.351.351,0,0,1,166.842,223.4Z" transform="translate(-157.607 -210.828)"/><path class="b" d="M235.174,257.823a.723.723,0,0,0-.784.418.708.708,0,0,0,.235.872.154.154,0,0,1,.068.146v.93h0a.365.365,0,0,0,.543.314.321.321,0,0,0,.172-.314h0v-.93a.161.161,0,0,1,.073-.151.688.688,0,0,0,.293-.58A.73.73,0,0,0,235.174,257.823Z" transform="translate(-229.803 -249.529)"/></g></svg>