<svg id="settings" xmlns="http://www.w3.org/2000/svg" width="14.743" height="14.551" viewBox="0 0 14.743 14.551">
  <path id="Shape" d="M8.58,14.551H6.162a.7.7,0,0,1-.485-.192.645.645,0,0,1-.2-.466V12.739a1.136,1.136,0,0,0-.193-.541,1.185,1.185,0,0,0-.438-.386c-.149-.074-.295-.156-.447-.251a1.248,1.248,0,0,0-.565-.18l-.087,0a1.239,1.239,0,0,0-.5.1l-1.071.556a.717.717,0,0,1-.524.055.686.686,0,0,1-.413-.317L.085,9.76A.63.63,0,0,1,0,9.515a.622.622,0,0,1,.024-.256.641.641,0,0,1,.125-.227A.668.668,0,0,1,.36,8.87l1.057-.555A1.159,1.159,0,0,0,1.823,7.9a1.113,1.113,0,0,0,.148-.551V7.1a1.106,1.106,0,0,0-.134-.556,1.159,1.159,0,0,0-.4-.423L.625,5.676a.665.665,0,0,1-.2-.167A.629.629,0,0,1,.37,4.781l1.205-2a.686.686,0,0,1,.419-.306.717.717,0,0,1,.522.066l.816.444A1.271,1.271,0,0,0,3.86,3.1h.059a1.271,1.271,0,0,0,.572-.167c.107-.065.222-.129.352-.2a1.181,1.181,0,0,0,.439-.384,1.127,1.127,0,0,0,.193-.54V.658a.645.645,0,0,1,.2-.466A.706.706,0,0,1,6.161,0H8.582a.7.7,0,0,1,.259.049.675.675,0,0,1,.223.142.651.651,0,0,1,.15.214.636.636,0,0,1,.053.253V1.811a1.123,1.123,0,0,0,.193.542,1.181,1.181,0,0,0,.439.386c.161.083.306.165.443.25a1.264,1.264,0,0,0,.567.179c.029,0,.059,0,.088,0a1.258,1.258,0,0,0,.5-.1l1.066-.556a.717.717,0,0,1,.525-.055.686.686,0,0,1,.413.317l1.159,2.018a.632.632,0,0,1,.056.5.641.641,0,0,1-.126.227.658.658,0,0,1-.207.162l-1.063.553a1.166,1.166,0,0,0-.405.412,1.113,1.113,0,0,0-.149.55v.251A1.125,1.125,0,0,0,12.9,8a1.167,1.167,0,0,0,.393.425l.817.447a.666.666,0,0,1,.2.166.642.642,0,0,1,.12.229.627.627,0,0,1,.019.256.635.635,0,0,1-.085.243l-1.2,1.995a.685.685,0,0,1-.419.306A.713.713,0,0,1,12.223,12l-.814-.443a1.279,1.279,0,0,0-.527-.114h-.059a1.266,1.266,0,0,0-.573.167c-.111.066-.229.132-.351.2a1.161,1.161,0,0,0-.44.383,1.108,1.108,0,0,0-.191.54v1.158a.655.655,0,0,1-.2.466A.7.7,0,0,1,8.58,14.551ZM7.406,4.713a2.764,2.764,0,0,0-.5.046,2.686,2.686,0,0,0-1.362.691,2.528,2.528,0,0,0-.736,1.3A2.47,2.47,0,0,0,4.94,8.229,2.573,2.573,0,0,0,5.9,9.387a2.718,2.718,0,0,0,1.466.449h.025a2.744,2.744,0,0,0,1-.188,2.665,2.665,0,0,0,.873-.553,2.55,2.55,0,0,0,.587-.833A2.461,2.461,0,0,0,9.62,5.855a2.631,2.631,0,0,0-1.187-.944A2.727,2.727,0,0,0,7.406,4.713Z" transform="translate(0)" fill="#fafafa"/>
</svg>
