<svg xmlns="http://www.w3.org/2000/svg" width="43.304" height="45.771" viewBox="0 0 43.304 45.771"><defs><style>.a{fill:#a5b6ce;fill-rule:evenodd;}.b{fill:#fafafa;}</style></defs><g transform="translate(-2586 5574)"><path class="a" d="M25.565,0H12.544A6.033,6.033,0,0,0,7.319,3.017L.808,14.293a6.034,6.034,0,0,0,0,6.034L7.319,31.6a6.034,6.034,0,0,0,5.225,3.017H25.565A6.034,6.034,0,0,0,30.79,31.6L37.3,20.327a6.034,6.034,0,0,0,0-6.034L30.79,3.017A6.034,6.034,0,0,0,25.565,0Z" transform="matrix(-0.259, -0.966, 0.966, -0.259, 2595.863, -5528.229)"/><g transform="translate(-1432.674 1763.896)"><path class="b" d="M746.749,225.079a10.317,10.317,0,1,1-10.709,9.721A10.283,10.283,0,0,1,746.749,225.079Zm-9.524,10.3a9.137,9.137,0,1,0,9.131-9.119A9.114,9.114,0,0,0,737.226,235.376Z" transform="translate(3293.979 -7550.067)"/><path class="b" d="M797.145,264.289c-.085-.1-.173-.192-.254-.293a10.125,10.125,0,0,0-3.083-2.7,4.236,4.236,0,0,0-2.621-.584,1.421,1.421,0,0,0-1.047.59.928.928,0,0,0,.12,1.3,5.66,5.66,0,0,0,1.253.792c.966.439,1.964.808,2.937,1.232a20.241,20.241,0,0,1,1.882.92,5.04,5.04,0,0,1,1.013.792,2.825,2.825,0,0,1,.576,3.369,4.97,4.97,0,0,1-2.051,2.109.759.759,0,0,1-.167.05,8.959,8.959,0,0,0,.284-.924,2.532,2.532,0,0,0-.545-2.085,3.86,3.86,0,0,0-1.461-1.148c-.961-.448-1.948-.842-2.914-1.281-.8-.362-1.6-.718-2.363-1.146a3.022,3.022,0,0,1-.266-5.281,5.565,5.565,0,0,1,2.7-.993,6.81,6.81,0,0,1,4.42.933,2.934,2.934,0,0,1,1.153,1.109,1.4,1.4,0,0,1,.06,1.241.855.855,0,0,0-.022.5c.132.492.3.975.451,1.461Z" transform="translate(3248.154 -7580.519)"/><path class="b" d="M771.247,307.541c.028.142.049.245.068.349a3.823,3.823,0,0,0,1.72,2.464A15.262,15.262,0,0,0,776,311.822c.747.31,1.5.618,2.229.959a3.81,3.81,0,0,1,.933.595,1.59,1.59,0,0,1-.635,2.8,4.288,4.288,0,0,1-2.593-.057,6.768,6.768,0,0,1-4.907-5.307,6.534,6.534,0,0,1,.092-3.009,1.217,1.217,0,0,1,.057-.167A.6.6,0,0,1,771.247,307.541Z" transform="translate(3262.648 -7624.173)"/></g></g></svg>