<svg xmlns="http://www.w3.org/2000/svg" width="16.999" height="10.989" viewBox="0 0 16.999 10.989"><defs><style>.a{fill:#fc9494;}</style></defs><g transform="translate(-49.643 -164.728)"><circle class="a" cx="2.617" cy="2.617" r="2.617" transform="translate(55.526 167.607)"/><path class="a" d="M16.739,96.637c-2.012-2.431-5.057-4.771-8.239-4.771S2.272,94.208.261,96.637a1.138,1.138,0,0,0,0,1.45,17.037,17.037,0,0,0,2.98,2.82c3.564,2.595,6.945,2.6,10.517,0a17.037,17.037,0,0,0,2.98-2.82A1.138,1.138,0,0,0,16.739,96.637ZM8.5,93.7a3.664,3.664,0,1,1-3.664,3.664A3.668,3.668,0,0,1,8.5,93.7Z" transform="translate(49.643 72.862)"/></g></svg>