<svg xmlns="http://www.w3.org/2000/svg" width="35" height="35" viewBox="0 0 35 35"><defs><style>.a{fill:#f4f4f4;}.b{fill:#151515;}.c{fill:#1378b7;}</style></defs><g transform="translate(-28 -488)"><circle class="a" cx="17.5" cy="17.5" r="17.5" transform="translate(28 488)"/><g transform="translate(36.18 494.706)"><path class="b" d="M24.52,28.685l-1.527,1.527V23.773L24.52,25.3a.666.666,0,1,0,.941-.941L22.8,21.7a.662.662,0,0,0-.1-.083c-.017-.011-.035-.019-.053-.029a.646.646,0,0,0-.062-.033.627.627,0,0,0-.069-.021c-.019-.006-.037-.013-.056-.017a.662.662,0,0,0-.261,0,.54.54,0,0,0-.056.017.385.385,0,0,0-.13.054c-.017.01-.036.017-.052.028a.662.662,0,0,0-.1.083l-2.663,2.663a.666.666,0,0,0,.942.941l1.527-1.527v6.439l-1.527-1.527a.666.666,0,0,0-.941.941l2.663,2.663a.665.665,0,0,0,.941,0l2.663-2.663a.666.666,0,0,0-.941-.941Z" transform="translate(-12.675 -13.343)"/><path class="c" d="M15.923,6.821a6.115,6.115,0,0,0-1.559,0,.327.327,0,0,1-.051,0,.333.333,0,0,1-.05-.662,6.358,6.358,0,0,1,1.359-.041A5.025,5.025,0,0,0,10.68,1.5,5.273,5.273,0,0,0,6.591,3.54,2.989,2.989,0,0,1,7.656,5.827a.333.333,0,0,1-.666,0,2.326,2.326,0,0,0-1.3-2.088l-.07-.034A2.268,2.268,0,0,0,5.341,3.6L5.305,3.59a2.34,2.34,0,0,0-.263-.059l-.078-.012a2.377,2.377,0,0,0-.3-.022,2.333,2.333,0,0,0-2.33,2.33c0,.027,0,.054,0,.081l0,.07,0,.053c0,.043,0,.086,0,.128v.21l-.189.09A3.957,3.957,0,0,0,0,9.873a3.614,3.614,0,0,0,3.61,3.61H8.331V12.038l-.39.39a1.332,1.332,0,1,1-1.883-1.883L8.721,7.882h0a1.352,1.352,0,0,1,.2-.166c.033-.022.068-.037.1-.056a.778.778,0,0,1,.262-.109c.038-.011.074-.026.113-.034a1.335,1.335,0,0,1,.522,0,1.167,1.167,0,0,1,.113.034,1.294,1.294,0,0,1,.135.042,1.359,1.359,0,0,1,.127.067c.034.019.07.034.1.056a1.332,1.332,0,0,1,.2.166h0l2.663,2.663a1.332,1.332,0,0,1-1.883,1.883l-.39-.39v1.446h.774c.02,0,.039,0,.058,0l.066,0,.09,0c.019,0,.038,0,.058,0H15.3a3.342,3.342,0,0,0,3.338-3.338A3.412,3.412,0,0,0,15.923,6.821Z" transform="translate(0 0)"/></g></g></svg>