<svg xmlns="http://www.w3.org/2000/svg" width="35" height="35" viewBox="0 0 35 35"><defs><style>.a{fill:#f4f4f4;}.b{fill:#151515;}.c{fill:#1378b7;}</style></defs><g transform="translate(-28 -494)"><circle class="a" cx="17.5" cy="17.5" r="17.5" transform="translate(28 494)"/><g transform="translate(37.002 501.122)"><g transform="translate(0 4.179)"><path class="b" d="M2.023,4.916,8.441,10a1.633,1.633,0,0,0,1.082.313A1.629,1.629,0,0,0,10.6,10l6.418-5.084c.514-.4.4-.737-.255-.737H2.279C1.626,4.179,1.51,4.511,2.023,4.916Z" transform="translate(-0.613 -4.179)"/><path class="c" d="M16.872,7.316,9.858,12.641a1.7,1.7,0,0,1-1.9,0L.947,7.316C.426,6.921,0,7.133,0,7.786v8.737a1.192,1.192,0,0,0,1.188,1.188H16.631a1.192,1.192,0,0,0,1.188-1.188V7.786C17.819,7.133,17.393,6.921,16.872,7.316Z" transform="translate(0 -5.238)"/></g></g></g></svg>