<svg xmlns="http://www.w3.org/2000/svg" xmlns:xlink="http://www.w3.org/1999/xlink" width="35" height="35" viewBox="0 0 35 35"><defs><style>.a{fill:#f4f4f4;}.b{fill:url(#a);}.c{fill:#333;}.d{fill:#151515;}</style><linearGradient id="a" x1="0.5" x2="0.5" y2="1" gradientUnits="objectBoundingBox"><stop offset="0" stop-color="#37a0da"/><stop offset="1" stop-color="#0071bc"/></linearGradient></defs><g transform="translate(-28 -714)"><circle class="a" cx="17.5" cy="17.5" r="17.5" transform="translate(28 714)"/><g transform="translate(24.254 721)"><g transform="translate(11.746 0)"><path class="b" d="M125.626,251.258h0a1.409,1.409,0,0,1-1.409-1.409h0a1.409,1.409,0,0,1,1.409-1.409h0a1.409,1.409,0,0,1,1.409,1.409h0A1.409,1.409,0,0,1,125.626,251.258Z" transform="translate(-115.763 -229.765)"/><path class="b" d="M72.655,69.5v.352h2.819a1.409,1.409,0,0,1,1.409-1.409H79a1.409,1.409,0,0,1,1.409,1.409v1.057A1.409,1.409,0,0,1,79,72.32H77.94a1.409,1.409,0,0,0-1.409,1.409v2.819a1.409,1.409,0,0,0,1.409,1.409h0a1.409,1.409,0,0,0,1.409-1.409V75.139h0a3.876,3.876,0,0,0,3.876-3.876V69.5a3.876,3.876,0,0,0-3.876-3.876H76.531A3.876,3.876,0,0,0,72.655,69.5Z" transform="translate(-68.077 -60.693)"/><path class="c" d="M165.676,249.859l-.129-.693c.221-.041.444-.092.661-.149l.182.681C166.155,249.76,165.914,249.815,165.676,249.859Z" transform="translate(-153.987 -230.3)"/><path class="d" d="M25.524,18.92l-.279-.647a9.187,9.187,0,0,0,1.2-.627l.372.6A9.807,9.807,0,0,1,25.524,18.92Zm-7.858-.012a9.857,9.857,0,0,1-1.288-.68l.375-.6a9.091,9.091,0,0,0,1.2.631ZM27.99,17.387l-.456-.537A9.178,9.178,0,0,0,28.5,15.9l.53.464A10,10,0,0,1,27.99,17.387Zm-12.785-.019a10,10,0,0,1-1.035-1.024l.531-.463a9.224,9.224,0,0,0,.961.951Zm14.7-2.163-.592-.382a9.181,9.181,0,0,0,.647-1.187l.642.29A9.809,9.809,0,0,1,29.905,15.2ZM13.3,15.179A9.894,9.894,0,0,1,12.6,13.9l.643-.288A9.175,9.175,0,0,0,13.89,14.8ZM31.1,12.559l-.678-.192a9.181,9.181,0,0,0,.271-1.324l.7.09A9.831,9.831,0,0,1,31.1,12.559Zm-18.994-.03a9.838,9.838,0,0,1-.287-1.427l.7-.087a9.177,9.177,0,0,0,.266,1.325Zm18.66-2.836a9.281,9.281,0,0,0-.124-1.346l.7-.116a9.952,9.952,0,0,1,.134,1.449ZM12.451,9.664l-.7-.015A9.988,9.988,0,0,1,11.884,8.2l.7.118A9.112,9.112,0,0,0,12.451,9.664Zm17.873-2.63a9.193,9.193,0,0,0-.512-1.251l.63-.315a9.771,9.771,0,0,1,.551,1.348ZM12.9,7.007l-.669-.22a9.874,9.874,0,0,1,.555-1.345l.63.316A9.2,9.2,0,0,0,12.9,7.007ZM29.121,4.62a9.33,9.33,0,0,0-.854-1.049l.512-.484a10.038,10.038,0,0,1,.92,1.128ZM14.113,4.6l-.577-.405a9.95,9.95,0,0,1,.923-1.125l.511.486A9.126,9.126,0,0,0,14.113,4.6ZM27.269,2.661A9.319,9.319,0,0,0,26.147,1.9l.35-.611a9.986,9.986,0,0,1,1.206.813Zm-11.3-.016-.433-.555a9.926,9.926,0,0,1,1.21-.81l.347.613A9.2,9.2,0,0,0,15.97,2.645Zm8.958-1.321A9.123,9.123,0,0,0,23.636.93l.155-.687a9.887,9.887,0,0,1,1.392.426Zm-6.613-.011L18.063.657A9.778,9.778,0,0,1,19.457.235l.154.687A9.179,9.179,0,0,0,18.316,1.314ZM22.3.73a9.409,9.409,0,0,0-1.352,0l-.05-.7a9.977,9.977,0,0,1,1.455,0Z" transform="translate(-11.746 0)"/><path class="c" d="M109.888,249.858c-.238-.045-.478-.1-.713-.161l.182-.681c.218.058.44.108.661.149Z" transform="translate(-101.852 -230.299)"/></g></g></g></svg>