<svg xmlns="http://www.w3.org/2000/svg" xmlns:xlink="http://www.w3.org/1999/xlink" width="30" height="30" viewBox="0 0 30 30"><defs><style>.a{fill:#f4f4f4;}.b{fill:url(#a);}.c{fill:#fff;}.d{fill:#2f2f2f;}</style><linearGradient id="a" x1="0.5" x2="0.5" y2="1" gradientUnits="objectBoundingBox"><stop offset="0" stop-color="#37a0da"/><stop offset="1" stop-color="#0071bc"/></linearGradient></defs><g transform="translate(-28 -628)"><circle class="a" cx="15" cy="15" r="15" transform="translate(28 628)"/><g transform="translate(35.094 636.094)"><path class="b" d="M2.982,46.912V42.935H.994A.994.994,0,0,1,0,41.941V32.994A.994.994,0,0,1,.994,32H14.912a.994.994,0,0,1,.994.994v8.947a.994.994,0,0,1-.994.994H9.092Zm0,0" transform="translate(0 -31.006)"/><g transform="translate(1.988 3.976)"><path class="c" d="M64.5,128h3.976a.5.5,0,0,1,0,.994H64.5a.5.5,0,0,1,0-.994Zm0,0" transform="translate(-64 -128)"/><path class="c" d="M64.5,192h3.976a.5.5,0,1,1,0,.994H64.5a.5.5,0,1,1,0-.994Zm0,0" transform="translate(-64 -190.012)"/><path class="c" d="M64.5,256h6.462a.5.5,0,1,1,0,.994H64.5a.5.5,0,1,1,0-.994Zm0,0" transform="translate(-64 -252.024)"/></g><g transform="translate(-0.745 -1.994)"><path class="d" d="M356.97,4.349h-1.243V2.485a1.242,1.242,0,1,0-2.485,0V4.349H352V2.485a2.485,2.485,0,0,1,4.97,0Zm0,0" transform="translate(-340.816)"/><path class="d" d="M7.455,6.212H0V0H7.455V6.211ZM3.107,2.485V3.727H4.349V2.485Z" transform="translate(9.941 3.728)"/></g></g></g></svg>