<svg xmlns="http://www.w3.org/2000/svg" xmlns:xlink="http://www.w3.org/1999/xlink" width="34.628" height="34.644" viewBox="0 0 34.628 34.644"><defs><style>.a{fill:#f4f4f4;}.b,.c{fill:#2f2f2f;stroke:#f4f4f4;}.b{stroke-width:0.5px;}.c{stroke-width:0.2px;}.d{fill:#fff;}.e{fill:url(#a);}.f{fill:#006eb1;}</style><linearGradient id="a" x1="0.5" x2="0.5" y2="1" gradientUnits="objectBoundingBox"><stop offset="0" stop-color="#37a0da"/><stop offset="1" stop-color="#0071bc"/></linearGradient></defs><g transform="translate(-28.186 -208.276)"><ellipse class="a" cx="17.314" cy="17.322" rx="17.314" ry="17.322" transform="translate(28.186 208.276)"/><path class="b" d="M115.99,14.916a3.214,3.214,0,1,0-2.755,0Zm0,0" transform="translate(-70.685 206.585)"/><path class="c" d="M69.852,7.6a.46.46,0,0,1-.335-.145A5.5,5.5,0,0,1,69.278.174a.459.459,0,1,1,.708.585,4.582,4.582,0,0,0,.2,6.07.459.459,0,0,1-.335.774Zm0,0" transform="translate(-29.598 214.917)"/><path class="c" d="M237.992,6.437a.459.459,0,0,1-.408-.669,4.574,4.574,0,0,0-.547-5.009.459.459,0,1,1,.708-.585,5.492,5.492,0,0,1,.656,6.013A.459.459,0,0,1,237.992,6.437Zm0,0" transform="translate(-189.569 214.917)"/><path class="d" d="M114.645,13.124a2.273,2.273,0,1,0-1.948,0Zm0,0" transform="translate(-69.743 207.481)"/><path class="e" d="M15.883,52.515v6.127a4.964,4.964,0,0,1-1.32,3.294.741.741,0,0,0-.228.549v1.188a.777.777,0,0,1-.774.774H7.368a.777.777,0,0,1-.774-.774V63.53A2.3,2.3,0,0,0,5.9,61.881a10.714,10.714,0,0,1-2.4-3.24A22.317,22.317,0,0,0,.4,53.223c-.774-.774,0-1.548.774-1.548s2.322,1.548,3.1,2.709a5.855,5.855,0,0,0,.859,1.026.771.771,0,0,0,1.258-.325,4.636,4.636,0,0,0,.205-1.475v-8.9a1.149,1.149,0,0,1,.774-1.092,1.075,1.075,0,0,1,.387-.07,1.161,1.161,0,0,1,1.161,1.161v4.645a1.149,1.149,0,0,1,.774-1.092,1.073,1.073,0,0,1,.387-.07,1.161,1.161,0,0,1,1.161,1.161v1.161a1.159,1.159,0,0,1,.341-.82,1.1,1.1,0,0,1,.433-.271,1.073,1.073,0,0,1,.387-.07,1.161,1.161,0,0,1,1.161,1.161v1.935a1.158,1.158,0,0,1,.341-.82,1.1,1.1,0,0,1,.433-.271,1.123,1.123,0,0,1,.472-.066A1.2,1.2,0,0,1,15.883,52.515Zm0,0" transform="translate(36.173 173.91)"/><g transform="translate(42.214 217.456)"><path class="f" d="M135.422,43.547a1.075,1.075,0,0,0-.387.07,1.149,1.149,0,0,0-.774,1.092v8.9a4.636,4.636,0,0,1-.205,1.475.786.786,0,0,1-.348.426.77.77,0,0,0,1.122-.426,4.636,4.636,0,0,0,.205-1.475v-8.9a1.149,1.149,0,0,1,.774-1.092A1.077,1.077,0,0,0,135.422,43.547Zm0,0" transform="translate(-133.707 -43.547)"/><path class="f" d="M198.957,147.754a1.149,1.149,0,0,0-.774,1.092v3.483a.387.387,0,0,0,.774,0v-3.483a1.149,1.149,0,0,1,.774-1.092A1.11,1.11,0,0,0,198.957,147.754Zm0,0" transform="translate(-195.307 -143.04)"/><path class="f" d="M251.024,173.789a1.1,1.1,0,0,0-.433.271,1.159,1.159,0,0,0-.341.82V177.2a.387.387,0,0,0,.774,0v-2.322a1.149,1.149,0,0,1,.774-1.091A1.111,1.111,0,0,0,251.024,173.789Zm0,0" transform="translate(-245.052 -167.914)"/><path class="f" d="M303.481,217.109a1.071,1.071,0,0,0-.387.069,1.1,1.1,0,0,0-.434.271,1.158,1.158,0,0,0-.341.82v.774a.387.387,0,1,0,.774,0v-.774a1.149,1.149,0,0,1,.774-1.092A1.072,1.072,0,0,0,303.481,217.109Zm0,0" transform="translate(-294.8 -209.368)"/></g></g></svg>