<svg xmlns="http://www.w3.org/2000/svg" xmlns:xlink="http://www.w3.org/1999/xlink" width="35" height="35" viewBox="0 0 35 35"><defs><style>.a{fill:url(#a);}.b{fill:#f4f4f4;}</style><linearGradient id="a" x1="0.5" x2="0.5" y2="1" gradientUnits="objectBoundingBox"><stop offset="0" stop-color="#37a0da"/><stop offset="1" stop-color="#0071bc"/></linearGradient></defs><g transform="translate(-28 -128)"><circle class="a" cx="15" cy="15" r="15" transform="translate(31 131)"/><g transform="translate(28 128)"><g transform="translate(0)"><path class="b" d="M28.805,19.985a.734.734,0,0,0-.385-.7l-3.815-1.82a3.029,3.029,0,0,0,1.067-1.19,3.723,3.723,0,0,0,.4-1.75,3.528,3.528,0,0,0-.823-2.345,2.533,2.533,0,0,0-2.012-.98,2.194,2.194,0,0,0-.788.14,3.426,3.426,0,0,0-.683.35,6.158,6.158,0,0,1,.385,2.135,5.6,5.6,0,0,1-.91,3.115q.175.175.332.315a2.217,2.217,0,0,0,.333.245l2.485,1.155a2.181,2.181,0,0,1,.84.788,2.113,2.113,0,0,1,.315,1.138V23.8h2.625a.548.548,0,0,0,.455-.228.863.863,0,0,0,.175-.542V19.985Zm-4.445.595a.822.822,0,0,0-.49-.84l-3.325-1.61-1.4-.665a3.4,3.4,0,0,0,.823-.717,4.091,4.091,0,0,0,.613-1,6.408,6.408,0,0,0,.3-.91A4.161,4.161,0,0,0,21,13.825a4.1,4.1,0,0,0-.035-.542,4.92,4.92,0,0,0-.1-.543,4.129,4.129,0,0,0-1.243-2.17,3.18,3.18,0,0,0-4.287-.017,4.064,4.064,0,0,0-1.225,2.083,4.453,4.453,0,0,0-.175,1.19,4.769,4.769,0,0,0,.455,2.03A4.116,4.116,0,0,0,15.82,17.5l-1.33.63-3.43,1.575a.884.884,0,0,0-.525.875v3.78a.954.954,0,0,0,.228.647.731.731,0,0,0,.578.263H23.59a.7.7,0,0,0,.542-.263.954.954,0,0,0,.228-.647V20.58Zm-14.98,0A2.113,2.113,0,0,1,9.7,19.442a2.18,2.18,0,0,1,.84-.788l2.59-1.19a1.926,1.926,0,0,0,.56-.49,5.337,5.337,0,0,1-.7-1.47,5.738,5.738,0,0,1-.245-1.68,5.151,5.151,0,0,1,.122-1.138,8.889,8.889,0,0,1,.3-1.032,2.336,2.336,0,0,0-1.4-.455,2.534,2.534,0,0,0-2.012.98,3.529,3.529,0,0,0-.823,2.345,3.7,3.7,0,0,0,.42,1.767,3.035,3.035,0,0,0,1.12,1.208L6.58,19.285a.691.691,0,0,0-.385.7V23.03a.863.863,0,0,0,.175.542.548.548,0,0,0,.455.228H9.38V20.58ZM17.5,0a16.992,16.992,0,0,1,6.808,1.383,17.481,17.481,0,0,1,9.31,9.31,17.476,17.476,0,0,1,.753,11.462A17.759,17.759,0,0,1,32.6,26.338,17.523,17.523,0,0,1,26.337,32.6a17.746,17.746,0,0,1-4.183,1.767,17.512,17.512,0,0,1-9.31,0A17.753,17.753,0,0,1,8.663,32.6,17.523,17.523,0,0,1,2.4,26.337,17.747,17.747,0,0,1,.63,22.155a17.512,17.512,0,0,1,0-9.31A17.745,17.745,0,0,1,2.4,8.663,17.523,17.523,0,0,1,8.663,2.4,17.745,17.745,0,0,1,12.845.63,17.111,17.111,0,0,1,17.5,0Z" transform="translate(0)"/></g></g></g></svg>