<svg xmlns="http://www.w3.org/2000/svg" xmlns:xlink="http://www.w3.org/1999/xlink" width="35" height="35" viewBox="0 0 35 35"><defs><style>.a{fill:#f4f4f4;}.b{fill:#151515;}.c{fill:url(#a);}</style><linearGradient id="a" x1="0.5" x2="0.5" y2="1" gradientUnits="objectBoundingBox"><stop offset="0" stop-color="#37a0da"/><stop offset="1" stop-color="#0071bc"/></linearGradient></defs><g transform="translate(-28 -423)"><circle class="a" cx="17.5" cy="17.5" r="17.5" transform="translate(28 423)"/><g transform="translate(35.579 367.8)"><g transform="translate(0 65.7)"><path class="b" d="M316,181.665a2.472,2.472,0,0,0,2.465,2.465h4.156V179.2h-4.172A2.468,2.468,0,0,0,316,181.665Zm3.893-.06a1.288,1.288,0,1,1-1.288-1.288A1.285,1.285,0,0,1,319.893,181.605Z" transform="translate(-303.396 -174.673)"/><path class="c" d="M15.053,75.931a3.239,3.239,0,1,1,0-6.478h4.168V67.531A1.833,1.833,0,0,0,17.391,65.7H1.831A1.833,1.833,0,0,0,0,67.531V77.87A1.833,1.833,0,0,0,1.831,79.7h15.58a1.833,1.833,0,0,0,1.831-1.831V75.931Z" transform="translate(0 -65.7)"/></g></g></g></svg>