<svg xmlns="http://www.w3.org/2000/svg" width="23.5" height="19.5" viewBox="0 0 23.5 19.5"><defs><style>.a{opacity:0.7;}.b{fill:#fafafa;stroke:#fafafa;stroke-linecap:round;stroke-linejoin:round;stroke-width:0.5px;}</style></defs><g class="a" transform="translate(0.25 0.25)"><g transform="translate(0 0)"><path class="b" d="M6.535,51.989a5,5,0,1,1,4.93,0A8.419,8.419,0,0,1,18,59.938v1.228a.5.5,0,0,1-1,0V59.938c0-4.009-3.589-7.272-8-7.272s-8,3.263-8,7.272v1.228a.5.5,0,1,1-1,0V59.938A8.418,8.418,0,0,1,6.535,51.989ZM13,47.666a4,4,0,1,0-4,4A4,4,0,0,0,13,47.666Z" transform="translate(5 -42.666)"/><path class="b" d="M335.469,92.67a4,4,0,0,1,2.2-7.336.5.5,0,0,1,0,1,3,3,0,0,0,0,6,.5.5,0,0,1,0,1,5.792,5.792,0,0,0-6,5.545v.955a.5.5,0,0,1-1,0v-.955A6.61,6.61,0,0,1,335.469,92.67Z" transform="translate(-330.667 -83.334)"/></g></g></svg>