<svg xmlns="http://www.w3.org/2000/svg" width="25.25" height="23" viewBox="0 0 25.25 23"><defs><style>.a,.b{fill:#fafafa;stroke-linecap:round;stroke-linejoin:round;}.a{stroke:#fafafa;stroke-width:0.5px;}.c,.d{stroke:none;}.d{fill:#6a5059;}</style></defs><g transform="translate(1543.25 3791)"><path class="a" d="M335.469,92.67a4,4,0,0,1,2.2-7.336.5.5,0,0,1,.5.5,7.491,7.491,0,0,1,0,7c0,.162-2.083,1.561-3.1,3.436a9.187,9.187,0,0,0-.968,4.064h-2.931a.5.5,0,0,1-.5-.5v-.955A6.61,6.61,0,0,1,335.469,92.67Z" transform="translate(-1873.667 -3872.334)"/><g class="b" transform="translate(-1538 -3831.666)"><path class="c" d="M 17.50000762939453 62.66600799560547 L 0.5000185966491699 62.66600799560547 C -0.3270914256572723 62.66600799560547 -1.000001430511475 61.99310684204102 -1.000001430511475 61.16599655151367 L -1.000001430511475 59.93800735473633 C -0.9999713897705078 57.86925888061523 -0.2781214118003845 55.91179656982422 1.08750855922699 54.27724838256836 C 2.01011848449707 53.17295074462891 3.201164484024048 52.27189636230469 4.541092395782471 51.64904403686523 C 3.564832925796509 50.56426239013672 3.000028610229492 49.14921188354492 3.000028610229492 47.66601943969727 C 3.000028610229492 44.35759735107422 5.6916184425354 41.66600799560547 9.000028610229492 41.66600799560547 C 12.30844879150391 41.66600799560547 15.00003814697266 44.35759735107422 15.00003814697266 47.66601943969727 C 15.00003814697266 49.14921188354492 14.43503284454346 50.56448745727539 13.45877265930176 51.64926910400391 C 14.79881191253662 52.2723274230957 15.9899730682373 53.17345428466797 16.91252899169922 54.277587890625 C 18.27817916870117 55.91201782226562 19.00001907348633 57.86936950683594 19.00001907348633 59.93800735473633 L 19.00001907348633 61.16599655151367 C 19.00001907348633 61.99310684204102 18.32711791992188 62.66600799560547 17.50000762939453 62.66600799560547 Z"/><path class="d" d="M 9.000028610229492 42.66600799560547 C 6.243038177490234 42.66600799560547 4.000028610229492 44.90901947021484 4.000028610229492 47.66601943969727 C 4.000028610229492 49.52202987670898 5.029018402099609 51.12702941894531 6.535018920898438 51.98900985717773 C 2.768058776855469 52.9770393371582 4.76837158203125e-05 56.16302871704102 -1.9073486328125e-06 59.93800735473633 L -1.9073486328125e-06 61.16598892211914 C -1.9073486328125e-06 61.44199752807617 0.2240180969238281 61.66600799560547 0.5000190734863281 61.66600799560547 C 0.7760181427001953 61.66600799560547 17.2239990234375 61.66600799560547 17.49999809265137 61.66600799560547 C 17.77599906921387 61.66600799560547 18.00001907348633 61.44199752807617 18.00001907348633 61.16598892211914 L 18.00001907348633 59.93800735473633 C 18.00001907348633 56.16302871704102 15.232008934021 52.97802734375 11.46504878997803 51.98900985717773 C 12.97103881835938 51.12702941894531 14.00003814697266 49.52202987670898 14.00003814697266 47.66601943969727 C 14.00003814697266 44.90901947021484 11.75702857971191 42.66600799560547 9.000028610229492 42.66600799560547 M 5.000048637390137 48.30282974243164 L 5.000048637390137 47.02920532226562 L 5.000048637390137 48.30282974243164 M 9.000028610229492 40.66600799560547 C 12.85984802246094 40.66600799560547 16.00003814697266 43.80619812011719 16.00003814697266 47.66601943969727 C 16.00003814697266 48.97138214111328 15.62617492675781 50.23116302490234 14.95498466491699 51.31442260742188 C 15.99151420593262 51.93925094604492 16.91822624206543 52.72479629516602 17.67991828918457 53.63639831542969 C 19.19773864746094 55.45296859741211 20.00001907348633 57.63202667236328 20.00001907348633 59.93800735473633 L 20.00001907348633 61.16598892211914 C 20.00001907348633 62.54450988769531 18.87851905822754 63.66600799560547 17.49999809265137 63.66600799560547 L 0.5000190734863281 63.66600799560547 C -0.8785018920898438 63.66600799560547 -2.000001907348633 62.54450988769531 -2.000001907348633 61.16598892211914 L -2.000001907348633 59.93800735473633 C -1.999971389770508 57.63192749023438 -1.197690963745117 55.45276641845703 0.320098876953125 53.63608932495117 C 1.081743240356445 52.72446060180664 2.00855827331543 51.93883514404297 3.044892311096191 51.31412506103516 C 2.373848915100098 50.23094940185547 2.000028610229492 48.97123718261719 2.000028610229492 47.66601943969727 C 2.000028610229492 43.80619812011719 5.140218734741211 40.66600799560547 9.000028610229492 40.66600799560547 Z"/></g></g></svg>