<svg xmlns="http://www.w3.org/2000/svg" width="22.765" height="21.588" viewBox="0 0 22.765 21.588"><defs><style>.a{fill:#fafafa;}.b{fill:#6a5059;}</style></defs><g transform="translate(-58.118 -748.5)"><path class="a" d="M23.2,11.186,14.321,2.774a2.822,2.822,0,0,0-3.879,0L1.58,11.167A1.7,1.7,0,0,0,2.7,14.141h.58v8.347a.759.759,0,0,0,.759.759H20.729a.759.759,0,0,0,.759-.759V14.141h.58A1.7,1.7,0,0,0,23.2,11.186Z" transform="translate(57.118 746.499)"/><path class="b" d="M16.176,23.729V17.935a3.794,3.794,0,0,0-7.588,0v5.794Z" transform="translate(57.118 746.359)"/></g></svg>