<svg xmlns="http://www.w3.org/2000/svg" width="22.77" height="21.25" viewBox="0 0 22.77 21.25"><defs><style>.a{fill:#fafafa;opacity:0.7;}</style></defs><path class="a" d="M23.209,11.188,14.324,2.774a2.822,2.822,0,0,0-3.88,0L1.58,11.169A1.7,1.7,0,0,0,2.7,14.144h.581v8.349a.759.759,0,0,0,.759.759h16.7a.759.759,0,0,0,.759-.759V14.144h.58a1.7,1.7,0,0,0,1.138-2.956Zm-1.138,1.438H20.733a.759.759,0,0,0-.759.759v8.349H16.179V17.939a3.795,3.795,0,1,0-7.59,0v3.795H4.795V13.385a.759.759,0,0,0-.759-.759H2.7a.181.181,0,0,1-.095-.335l8.887-8.415a1.3,1.3,0,0,1,1.793,0l8.908,8.435A.18.18,0,0,1,22.072,12.626Z" transform="translate(-0.999 -2.001)"/></svg>