<svg xmlns="http://www.w3.org/2000/svg" width="19.842" height="23.722" viewBox="0 0 19.842 23.722">
  <path id="RFB" d="M135.112,0l-2.654,1.643-1.335.826c-.467.267-.939.528-1.4.8-.668.4-1.328.81-2,1.222.426.739.827,1.445,1.242,2.142a.394.394,0,0,0,.272.181c1.047.006,2.094-.005,3.14-.012l1.576,0h5.641q2.439.006,4.878.009c.02,0,.041-.029.086-.064a4.572,4.572,0,0,1,0-.595.621.621,0,0,0-.411-.7c-.418-.214-.8-.5-1.207-.735-.671-.394-1.348-.776-2.023-1.162l-.912-.577-.586-.344c-.707-.441-1.408-.889-2.121-1.32C136.69.946,136.067.6,135.449.239L135.2,0m-9.43,10.429v5.215a5.1,5.1,0,0,1-.019.7.826.826,0,0,0,.569,1,7.946,7.946,0,0,1,.9.541q1.127.668,2.257,1.329c.015.022.025.053.046.066.926.568,1.85,1.138,2.78,1.7.211.127.33.013.446-.187.488-.838.745-1.443,1.282-2.25.231-.347,0-.6-.3-.9-.12-.2-.186-.334-.306-.536l-.885-1.547-.993-1.737c-.282-.489-.558-.982-.848-1.466-.212-.354-.443-.7-.666-1.045l-.67-1.24-.987-1.74-.5-.826-1.3-2.345c-.4.232-.3.118-.646.349a.467.467,0,0,0-.164.338c-.008.974,0,1.947.006,2.921q0,.828,0,1.656m12.3,4.1-.749,1.241-1.483,2.476c-.286.444-.581.883-.857,1.334-.388.634-.763,1.276-1.139,1.908.526.33.443.686.943.96a1.6,1.6,0,0,0,.585.065l1.757-1.065.648-.418.832-.5a.373.373,0,0,0,.121-.025c1.8-1.093,3.586-2.2,5.4-3.269a.756.756,0,0,0,.443-.769c-.013-2.813-.007-4.743-.007-7.555V8.464c-.922,0-1.831-.023-2.7,0a.56.56,0,0,0-.353.266c-.528.84-.446.782-.955,1.633-.563.942-1.114,1.892-1.67,2.839l-.819,1.329" transform="translate(-125.227 0.707)" fill="none" stroke="#fafafa" stroke-linecap="round" stroke-linejoin="round" stroke-width="1" opacity="0.7"/>
</svg>
