<svg xmlns="http://www.w3.org/2000/svg" width="21.338" height="25.5" viewBox="0 0 21.338 25.5">
  <path id="rgb" d="M136.356,0,133.35,1.861l-1.512.936c-.529.3-1.063.6-1.586.911-.756.452-1.5.918-2.267,1.384.483.837.937,1.636,1.407,2.425a.446.446,0,0,0,.308.2c1.186.007,2.371-.006,3.557-.014l1.785,0h6.389q2.762.006,5.524.01c.023,0,.046-.033.1-.072a5.179,5.179,0,0,1,.005-.674.7.7,0,0,0-.465-.793c-.474-.242-.907-.562-1.367-.832-.76-.446-1.527-.878-2.291-1.317L141.9,3.373l-.663-.389c-.8-.5-1.6-1.007-2.4-1.495-.692-.418-1.4-.813-2.1-1.219L136.45,0m-10.68,11.812v5.906a5.779,5.779,0,0,1-.022.794.936.936,0,0,0,.644,1.135,9,9,0,0,1,1.021.612q1.276.756,2.557,1.505c.017.025.029.06.052.074,1.048.643,2.1,1.288,3.149,1.922.239.144.374.014.505-.211.553-.949,1.1-1.9,1.708-2.815.261-.393.323-.688-.02-1.024l-.407-.685-1-1.752-1.124-1.968c-.319-.554-.632-1.112-.96-1.66-.24-.4-.5-.79-.754-1.184l-.759-1.4-1.118-1.971-.567-.935L127.2,5.5c-.448.263-.862.487-1.252.748a.529.529,0,0,0-.186.383c-.009,1.1,0,2.206.007,3.308q0,.938,0,1.875m13.3,4.684-.848,1.4-1.68,2.8c-.324.5-.658,1-.971,1.511-.44.718-.864,1.445-1.29,2.161.6.374,1.132.739,1.7,1.049a1.807,1.807,0,0,0,.662.074l1.99-1.206.734-.473.943-.567a.423.423,0,0,0,.137-.028c2.037-1.238,4.061-2.5,6.117-3.7a.856.856,0,0,0,.5-.87c-.015-3.185-.008-6.371-.008-9.557v-.51c-1.045,0-2.027-.012-3.008.014a.634.634,0,0,0-.4.3q-.9,1.426-1.758,2.874c-.637,1.067-1.261,2.143-1.891,3.215l-.927,1.505" transform="translate(-125.728)" fill="#fafafa"/>
</svg>
