<svg xmlns="http://www.w3.org/2000/svg" width="21.471" height="23.731" viewBox="0 0 21.471 23.731"><defs><style>.a{fill:none;stroke:#fafafa;stroke-linecap:round;stroke-linejoin:round;stroke-width:1.5px;}.a,.b{opacity:0.7;}.b{fill:#fafafa;}</style></defs><g transform="translate(-236.739 -747.75)"><path class="a" d="M-26.7-37.39a.767.767,0,0,1-.44-.14c-8.15-5.67-7.94-6.67-9.52-15.56a.752.752,0,0,1,.37-.79l9.19-5.39c.04-.03.067-.016.077-.045l.075-.045.028-.03h.22a.06.06,0,0,1,.04.01.663.663,0,0,1,.36.11l9.2,5.39a.768.768,0,0,1,.37.79c-1.58,8.89-1.38,9.89-9.52,15.56a.8.8,0,0,1-.45.14l-.015.006" transform="translate(274.173 807.89)"/><path class="b" d="M46.618,43.465,43.27,46.809l-1.286-1.29a.789.789,0,0,0-1.116,1.116l1.842,1.846a.781.781,0,0,0,1.112,0l3.9-3.9a.785.785,0,1,0-1.108-1.112Z" transform="translate(203.315 713.642)"/></g></svg>