<svg xmlns="http://www.w3.org/2000/svg" width="21.937" height="24.187" viewBox="0 0 21.937 24.187"><defs><style>.a{fill:#fafafa;}.b{fill:#6a5059;}</style></defs><g transform="translate(-237 -747.813)"><g transform="translate(8082 -15577.188)"><g transform="translate(-7845 16325)"><path class="a" d="M225.013,91.545c1.734,9.768,1.511,10.872,10.467,17.1a.843.843,0,0,0,.489.156l3.656-12.094-3.656-12.094a.844.844,0,0,0-.443.125l-10.109,5.927A.844.844,0,0,0,225.013,91.545Z" transform="translate(-225 -84.617)"/><g transform="translate(10.969 0)"><path class="a" d="M385.552,90.669l-10.109-5.927a.844.844,0,0,0-.443-.125V108.8a.843.843,0,0,0,.488-.156c8.956-6.232,8.733-7.335,10.467-17.1A.844.844,0,0,0,385.552,90.669Z" transform="translate(-375 -84.617)"/></g></g></g><path class="b" d="M46.618,43.465,43.27,46.809l-1.286-1.29a.789.789,0,0,0-1.116,1.116l1.842,1.846a.781.781,0,0,0,1.112,0l3.9-3.9a.785.785,0,1,0-1.108-1.112Z" transform="translate(203.315 713.643)"/></g></svg>