<svg xmlns="http://www.w3.org/2000/svg" width="31.908" height="31.91" viewBox="0 0 31.908 31.91"><defs><style>.a{opacity:0.7;}.b{fill:#fafafa;stroke:#006db4;stroke-width:0.7px;}</style></defs><g transform="translate(-298.548 -743.548)"><g class="a" transform="translate(307.601 744) rotate(21)"><path class="b" d="M221.812,9.067l-1.045-.183a9.561,9.561,0,0,0-.461-1.1l.615-.866a2.263,2.263,0,0,0-.253-2.9l-.99-.992a2.264,2.264,0,0,0-2.907-.254l-.869.609a9.537,9.537,0,0,0-1.1-.461l-.18-1.04A2.263,2.263,0,0,0,212.387,0h-1.4a2.263,2.263,0,0,0-2.232,1.875l-.184,1.045a9.537,9.537,0,0,0-1.1.461l-.869-.615a2.263,2.263,0,0,0-2.9.253l-.988.99a2.264,2.264,0,0,0-.254,2.907l.609.869a9.534,9.534,0,0,0-.461,1.1l-1.041.18A2.263,2.263,0,0,0,199.69,11.3v1.4a2.263,2.263,0,0,0,1.874,2.234l1.044.183a9.54,9.54,0,0,0,.461,1.1l-.61.869a2.264,2.264,0,0,0,.251,2.9l.988.988a2.263,2.263,0,0,0,2.9.253l.871-.609a9.569,9.569,0,0,0,1.1.461l.184,1.045A2.263,2.263,0,0,0,210.993,24h1.4a2.263,2.263,0,0,0,2.23-1.878l.183-1.044a9.536,9.536,0,0,0,1.1-.461l.866.613a2.263,2.263,0,0,0,2.907-.254l.989-.989a2.264,2.264,0,0,0,.254-2.9l-.611-.872a9.573,9.573,0,0,0,.461-1.1l1.045-.184a2.263,2.263,0,0,0,1.871-2.229V11.3A2.263,2.263,0,0,0,221.812,9.067Zm-.123,3.633a.268.268,0,0,1-.222.264l-1.647.289a1,1,0,0,0-.792.725,7.556,7.556,0,0,1-.752,1.813,1,1,0,0,0,.048,1.076l.961,1.371a.268.268,0,0,1-.03.344l-.988.988a.268.268,0,0,1-.342.025l-1.373-.96a1,1,0,0,0-1.076-.048,7.548,7.548,0,0,1-1.813.752,1,1,0,0,0-.722.794l-.289,1.647a.268.268,0,0,1-.264.222h-1.4a.268.268,0,0,1-.264-.222l-.29-1.647a1,1,0,0,0-.725-.792,7.561,7.561,0,0,1-1.813-.752,1,1,0,0,0-1.076.048l-1.367.959a.268.268,0,0,1-.344-.03l-.988-.988a.268.268,0,0,1-.03-.344l.961-1.371a1,1,0,0,0,.048-1.076,7.541,7.541,0,0,1-.752-1.813,1,1,0,0,0-.794-.721l-1.647-.289a.268.268,0,0,1-.222-.264V11.3a.268.268,0,0,1,.222-.264l1.647-.29a1,1,0,0,0,.792-.725,7.548,7.548,0,0,1,.752-1.813,1,1,0,0,0-.048-1.076l-.959-1.37a.268.268,0,0,1,.03-.344l.989-.989a.268.268,0,0,1,.344-.03l1.37.961a1,1,0,0,0,1.076.048,7.548,7.548,0,0,1,1.813-.752,1,1,0,0,0,.725-.792l.289-1.647A.268.268,0,0,1,210.99,2h1.4a.268.268,0,0,1,.264.222l.289,1.647a1,1,0,0,0,.725.792,7.541,7.541,0,0,1,1.813.752,1,1,0,0,0,1.076-.048l1.371-.961a.268.268,0,0,1,.344.03l.989.989a.268.268,0,0,1,.027.341l-.961,1.373a1,1,0,0,0-.048,1.076,7.556,7.556,0,0,1,.752,1.813,1,1,0,0,0,.792.725l1.647.289a.268.268,0,0,1,.222.264Z" transform="translate(-199.69 0)"/></g><g class="a" transform="translate(311.757 753.337) rotate(21)"><path class="b" d="M298.5,94.05a4.772,4.772,0,1,0,4.772,4.772A4.772,4.772,0,0,0,298.5,94.05Zm0,7.547a2.776,2.776,0,0,1,0-5.553v0a2.775,2.775,0,0,1,0,5.549Z" transform="translate(-293.73 -94.05)"/></g></g></svg>