<svg xmlns="http://www.w3.org/2000/svg" width="31.908" height="31.91" viewBox="0 0 31.908 31.91"><defs><style>.a{fill:#fafafa;stroke:#5A4A56;stroke-width:0.7px;}.b{fill:#6a5059;}</style></defs><g transform="translate(-308.548 -743.548)"><g transform="translate(-3829.614 2963.167) rotate(21)"><g transform="translate(3076.48 -3558)"><path class="a" d="M221.812,9.067l-1.045-.183a9.561,9.561,0,0,0-.461-1.1l.615-.866a2.263,2.263,0,0,0-.253-2.9l-.99-.992a2.264,2.264,0,0,0-2.907-.254l-.869.609a9.537,9.537,0,0,0-1.1-.461l-.18-1.04A2.263,2.263,0,0,0,212.387,0h-1.4a2.263,2.263,0,0,0-2.232,1.875l-.184,1.045a9.537,9.537,0,0,0-1.1.461l-.869-.615a2.263,2.263,0,0,0-2.9.253l-.988.99a2.264,2.264,0,0,0-.254,2.907l.609.869a9.534,9.534,0,0,0-.461,1.1l-1.041.18A2.263,2.263,0,0,0,199.69,11.3v1.4a2.263,2.263,0,0,0,1.874,2.234l1.044.183a9.54,9.54,0,0,0,.461,1.1l-.61.869a2.264,2.264,0,0,0,.251,2.9l.988.988a2.263,2.263,0,0,0,2.9.253l.871-.609a9.569,9.569,0,0,0,1.1.461l.184,1.045A2.263,2.263,0,0,0,210.993,24h1.4a2.263,2.263,0,0,0,2.23-1.878l.183-1.044a9.536,9.536,0,0,0,1.1-.461l.866.613a2.263,2.263,0,0,0,2.907-.254l.989-.989a2.264,2.264,0,0,0,.254-2.9l-.611-.872a9.573,9.573,0,0,0,.461-1.1l1.045-.184a2.263,2.263,0,0,0,1.871-2.229V11.3A2.263,2.263,0,0,0,221.812,9.067Z" transform="translate(-199.69 0)"/></g><g transform="translate(3083.706 -3550.774)"><path class="b" d="M298.5,94.05a4.772,4.772,0,1,0,4.772,4.772A4.772,4.772,0,0,0,298.5,94.05Z" transform="translate(-293.73 -94.05)"/></g></g></g></svg>