<svg xmlns="http://www.w3.org/2000/svg" xmlns:xlink="http://www.w3.org/1999/xlink" width="58" height="58" viewBox="0 0 58 58"><defs><style>.a{fill:#fff;}.b{fill:#ffce4a;}.c{fill:#fabf20;}.d{filter:url(#a);}</style><filter id="a" x="0" y="0" width="58" height="58" filterUnits="userSpaceOnUse"><feOffset input="SourceAlpha"/><feGaussianBlur stdDeviation="3" result="b"/><feFlood flood-opacity="0.161"/><feComposite operator="in" in2="b"/><feComposite in="SourceGraphic"/></filter></defs><g transform="translate(-306 -49.074)"><g transform="translate(0 -26)"><g class="d" transform="matrix(1, 0, 0, 1, 306, 75.07)"><circle class="a" cx="20" cy="20" r="20" transform="translate(9 9)"/></g></g><g transform="translate(-2.171 4.337)"><path class="b" d="M55,5.021A4.187,4.187,0,0,1,50.863.828.82.82,0,0,0,50.035,0H36.793a.82.82,0,0,0-.828.828,4.187,4.187,0,0,1-4.138,4.193A.82.82,0,0,0,31,5.849v6.157C31,22.782,40.8,28.25,43.414,28.25c3.029,0,12.414-5.849,12.414-16.244V5.849A.82.82,0,0,0,55,5.021Z" transform="translate(293.501 60.014)"/><path class="c" d="M268.414,5.849v6.157c0,10.4-9.385,16.244-12.414,16.244V0h6.621a.82.82,0,0,1,.828.828,4.187,4.187,0,0,0,4.138,4.193A.82.82,0,0,1,268.414,5.849Z" transform="translate(81.031 60.014)"/></g></g></svg>