<svg  viewBox="-5 0 250 470"><defs><style>.a{fill:#8b8b8b;stroke:#fff;stroke-width:0.0px;}</style></defs><path class="a" d="M677.769,77.072a1.636,1.636,0,0,1-1.638-1.634l.017-.665-.588.339a1.638,1.638,0,0,1-2.239-.6L672.5,73.09a1.632,1.632,0,0,1,.6-2.228l.579-.318-.579-.334a1.632,1.632,0,0,1-.6-2.229l.818-1.422a1.642,1.642,0,0,1,.994-.764,1.673,1.673,0,0,1,.425-.055,1.638,1.638,0,0,1,.82.22l.571.349v-.675A1.636,1.636,0,0,1,677.769,64h1.637a1.635,1.635,0,0,1,1.637,1.634l-.016.665.588-.339a1.636,1.636,0,0,1,.82-.22,1.668,1.668,0,0,1,.424.055,1.647,1.647,0,0,1,1,.764l.818,1.422a1.632,1.632,0,0,1-.6,2.229l-.59.31.59.341a1.631,1.631,0,0,1,.6,2.228l-.818,1.422a1.639,1.639,0,0,1-2.24.6l-.572-.349v.675a1.636,1.636,0,0,1-1.637,1.634Zm-.83-3.712.024.014a1.6,1.6,0,0,1,.807,1.389v.675h1.637v-.675a1.6,1.6,0,0,1,.807-1.389l.023-.014a1.61,1.61,0,0,1,1.61,0l.588.34.818-1.421-.59-.341a1.6,1.6,0,0,1-.8-1.39v-.019a1.6,1.6,0,0,1,.8-1.39l.59-.341-.818-1.421-.588.34a1.61,1.61,0,0,1-1.61,0l-.023-.014a1.6,1.6,0,0,1-.807-1.389v-.675h-1.637v.675a1.6,1.6,0,0,1-.807,1.389l-.023.014a1.61,1.61,0,0,1-1.61,0l-.588-.34-.818,1.421.579.335a1.623,1.623,0,0,1,0,2.812l-.579.335.818,1.421.588-.34a1.61,1.61,0,0,1,1.61,0Zm.012-2.824a1.637,1.637,0,1,1,1.637,1.634A1.635,1.635,0,0,1,676.95,70.536Z" transform="translate(-671.943 -63.75)"/></svg>
