<svg xmlns="http://www.w3.org/2000/svg" width="31" height="31" viewBox="0 0 31 31">
  <g id="auto_read" data-name="auto read" transform="translate(-25 -371)">
    <circle id="Ellipse_1952" data-name="Ellipse 1952" cx="15.5" cy="15.5" r="15.5" transform="translate(25 371)" fill="#4286f5"/>
    <g id="auto-read" transform="translate(9.124 40.491)">
      <path id="Combined_Shape" data-name="Combined Shape" d="M.768,13.324A.767.767,0,0,1,0,12.557V1.993A.772.772,0,0,1,.058,1.7a.766.766,0,0,1,.415-.416.773.773,0,0,1,.294-.058h.513a.769.769,0,0,1,.768.768,1,1,0,0,0,.62.927A.984.984,0,0,0,3.053,3H7.709a1,1,0,0,0,1-.982V1.993a.767.767,0,0,1,.768-.768h.512a.765.765,0,0,1,.544.225A.762.762,0,0,1,10.7,1.7a.772.772,0,0,1,.058.293V12.556a.772.772,0,0,1-.058.293.766.766,0,0,1-.415.416.773.773,0,0,1-.294.058ZM6.916,1.538H3.842a.771.771,0,0,1-.561-.215A.765.765,0,0,1,3.047.769a.788.788,0,0,1,.06-.3A.8.8,0,0,1,3.281.216.771.771,0,0,1,3.842,0H6.916a.788.788,0,0,1,.3.051.771.771,0,0,1,.493.719.759.759,0,0,1-.062.3.742.742,0,0,1-.174.253.736.736,0,0,1-.258.165.751.751,0,0,1-.271.051Z" transform="translate(25.876 339.508)" fill="#fafafa"/>
      <path id="Path" d="M5.531,1.141,2.663,4.257a.7.7,0,0,1-.511.263H2.113a.7.7,0,0,1-.5-.209L.206,2.906a.7.7,0,0,1,1-1l.856.856L4.438.264a.7.7,0,1,1,1.1.88Z" transform="translate(28.409 344.62)" fill="#4286f5" stroke="rgba(0,0,0,0)" stroke-miterlimit="10" stroke-width="1"/>
    </g>
  </g>
</svg>
