<svg xmlns="http://www.w3.org/2000/svg" width="42" height="42" viewBox="0 0 42 42">
  <g id="Group_43142" data-name="Group 43142" transform="translate(-38 -152)">
    <g id="backup" transform="translate(-10 -200)">
      <g id="Ellipse_1985" data-name="Ellipse 1985" transform="translate(48 352)" fill="none" stroke="#fafafa" stroke-width="0.8">
        <circle cx="21" cy="21" r="21" stroke="none"/>
        <circle cx="21" cy="21" r="20.6" fill="none"/>
      </g>
    </g>
    <g id="shield" transform="translate(49.688 163.76)">
      <path id="Path" d="M16.734,2.813,9.359.091a1.474,1.474,0,0,0-1.022,0L.963,2.813A1.478,1.478,0,0,0,0,4.2V8.281A10.8,10.8,0,0,0,8.621,19.155a1.422,1.422,0,0,0,.466,0A10.8,10.8,0,0,0,17.7,8.281V4.2a1.478,1.478,0,0,0-.97-1.385Z" transform="translate(0.383 0.55)" fill="#fafafa"/>
    </g>
  </g>
</svg>
