<svg id="connect" xmlns="http://www.w3.org/2000/svg" width="15.167" height="15.167" viewBox="0 0 15.167 15.167">
  <path id="Combined_Shape" data-name="Combined Shape" d="M1.4,13.769a4.775,4.775,0,0,1,0-6.753l1-1A1.09,1.09,0,1,1,3.935,7.562l-1,1a2.6,2.6,0,0,0,3.674,3.67l1-1a1.089,1.089,0,1,1,1.54,1.541l-1,1a4.775,4.775,0,0,1-6.753,0ZM5.274,9.893a1.089,1.089,0,0,1,0-1.54l3.08-3.08a1.089,1.089,0,1,1,1.54,1.539l-3.08,3.08a1.089,1.089,0,0,1-1.54,0Zm5.957-.747a1.09,1.09,0,0,1,0-1.541l1-1a2.6,2.6,0,0,0-3.674-3.67l-1,1a1.089,1.089,0,1,1-1.54-1.541l1-1a4.775,4.775,0,1,1,6.753,6.753l-1,1a1.09,1.09,0,0,1-1.542,0Z" transform="translate(0 0)" fill="#006CB4"/>
</svg>
