<svg id="delete" xmlns="http://www.w3.org/2000/svg" width="13.498" height="14.167" viewBox="0 0 13.498 14.167">
  <path id="Combined_Shape" data-name="Combined Shape" d="M3.492,14.167a1.215,1.215,0,0,1-1.2-1.062L1.3,5.595A.617.617,0,0,1,1.909,4.9h9.679a.617.617,0,0,1,.611.693l-.992,7.511a1.214,1.214,0,0,1-1.2,1.062ZM.616,3.264A.616.616,0,0,1,0,2.648V1.458A.617.617,0,0,1,.38.888.624.624,0,0,1,.616.842h3.6V.668C4.22.1,4.683,0,5.254,0H8.226C8.8,0,9.264.1,9.264.668V.842h3.618a.616.616,0,0,1,.616.616v1.19a.616.616,0,0,1-.616.616Z" fill="#f86b50"/>
</svg>
