<svg id="edit" xmlns="http://www.w3.org/2000/svg" width="12.573" height="12.447" viewBox="0 0 12.573 12.447">
  <path id="Combined_Shape" data-name="Combined Shape" d="M.906,12.447A.9.9,0,0,1,.3,12.2a.353.353,0,0,1-.035-.023c-.012-.012-.016-.028-.027-.04a.9.9,0,0,1-.239-.6V1.674a.987.987,0,0,1,.027-.14A.9.9,0,0,1,.9.775H3.688a.91.91,0,0,1,.907.9v.366a.908.908,0,0,1-.907.907H2.172v7.329H9.5V8.758a.911.911,0,0,1,.9-.908h.367a.908.908,0,0,1,.907.907v2.784a.9.9,0,0,1-.24.6c-.011.012-.016.028-.027.04s-.028.016-.04.027a.9.9,0,0,1-.6.239Zm4.005-4.18A.823.823,0,0,1,4.339,7.3l.594-2.722L9.217.243a.823.823,0,0,1,1.167,0l1.948,1.948a.822.822,0,0,1,0,1.16L8.044,7.688l-2.726.594a.826.826,0,0,1-.407-.015Z" fill="#006CB4"/>
</svg>
