<svg xmlns="http://www.w3.org/2000/svg" width="31" height="31" viewBox="0 0 31 31">
  <g id="FAQs" transform="translate(-25 -593)">
    <circle id="Ellipse_1949" data-name="Ellipse 1949" cx="15.5" cy="15.5" r="15.5" transform="translate(25 593)" fill="#35a853"/>
    <path id="faqs-2" data-name="faqs" d="M3.07-2.115a6.276,6.276,0,0,1,.094-1.177,2.721,2.721,0,0,1,.309-.851,3.288,3.288,0,0,1,.6-.734q.386-.363.98-.818a4.324,4.324,0,0,0,.755-.744,3.308,3.308,0,0,0,.486-.847,2.545,2.545,0,0,0,.173-.925,1.658,1.658,0,0,0-.425-1.207,1.586,1.586,0,0,0-1.193-.438,1.741,1.741,0,0,0-1.1.355,1.3,1.3,0,0,0-.466,1.081H.3L.283-8.478a3.473,3.473,0,0,1,.555-2.058,3.584,3.584,0,0,1,1.608-1.284,6.056,6.056,0,0,1,2.387-.44,5.115,5.115,0,0,1,3.448,1.071A3.619,3.619,0,0,1,9.525-8.3,3.668,3.668,0,0,1,9.2-6.745,5.181,5.181,0,0,1,8.3-5.413,10.764,10.764,0,0,1,7.023-4.232a2.652,2.652,0,0,0-.568.576A1.711,1.711,0,0,0,6.191-3a4.829,4.829,0,0,0-.07.888Zm0,3.972V-.727H6.1V1.857Z" transform="translate(35.596 613.702)" fill="#fafafa"/>
  </g>
</svg>
