<svg xmlns="http://www.w3.org/2000/svg" width="24.944" height="28.25" viewBox="0 0 24.944 28.25"><defs><style>.a{fill:#ffce4a;}.b{fill:#fabf20;}</style></defs><g transform="translate(-324.501 -60.014)"><path class="a" d="M55,5.021A4.187,4.187,0,0,1,50.863.828.82.82,0,0,0,50.035,0H36.793a.82.82,0,0,0-.828.828,4.187,4.187,0,0,1-4.138,4.193A.82.82,0,0,0,31,5.849v6.157C31,22.782,40.8,28.25,43.414,28.25c3.029,0,12.414-5.849,12.414-16.244V5.849A.82.82,0,0,0,55,5.021Z" transform="translate(293.501 60.014)"/><path class="b" d="M268.414,5.849v6.157c0,10.4-9.385,16.244-12.414,16.244V0h6.621a.82.82,0,0,1,.828.828,4.187,4.187,0,0,0,4.138,4.193A.82.82,0,0,1,268.414,5.849Z" transform="translate(81.031 60.014)"/></g></svg>