<svg xmlns="http://www.w3.org/2000/svg" width="28" height="28" viewBox="0 0 28 28"><defs><style>.a,.c{fill:#2f2f2f;}.b{fill:#c7cac7;}.c{opacity:0.339;}</style></defs><g transform="translate(-27 -312)"><g transform="translate(27 312)"><path class="a" d="M27.041,11.308H25.535A11.765,11.765,0,0,0,24.06,7.747l1.065-1.065a.959.959,0,0,0,0-1.356L22.674,2.874a.959.959,0,0,0-1.356,0L20.253,3.939a11.768,11.768,0,0,0-3.56-1.474V.959A.959.959,0,0,0,15.733,0H12.266a.959.959,0,0,0-.958.959V2.465A11.764,11.764,0,0,0,7.747,3.94L6.682,2.875a.959.959,0,0,0-1.356,0L2.875,5.326a.959.959,0,0,0,0,1.356L3.94,7.747a11.756,11.756,0,0,0-1.475,3.56H.959A.959.959,0,0,0,0,12.267v3.467a.959.959,0,0,0,.959.958H2.465A11.764,11.764,0,0,0,3.94,20.253L2.875,21.318a.959.959,0,0,0,0,1.356l2.452,2.452a.959.959,0,0,0,1.356,0L7.747,24.06a11.778,11.778,0,0,0,3.561,1.475v1.506a.958.958,0,0,0,.958.959h3.467a.959.959,0,0,0,.958-.959V25.535a11.765,11.765,0,0,0,3.561-1.475l1.065,1.065a.959.959,0,0,0,1.356,0l2.452-2.452a.959.959,0,0,0,0-1.356l-1.065-1.065a11.786,11.786,0,0,0,1.475-3.561h1.506A.958.958,0,0,0,28,15.733V12.266A.959.959,0,0,0,27.041,11.308ZM14,18.846A4.846,4.846,0,1,1,18.846,14,4.846,4.846,0,0,1,14,18.846Z" transform="translate(0 0)"/><path class="b" d="M20,13a7,7,0,1,0,7,7A7,7,0,0,0,20,13Zm0,11.846A4.846,4.846,0,1,1,24.846,20,4.846,4.846,0,0,1,20,24.846Z" transform="translate(-6 -6)"/></g><path class="c" d="M2157,23345v-9.156a4.846,4.846,0,0,0,0-9.691V23317h1.728a.956.956,0,0,1,.961.955v1.506a11.864,11.864,0,0,1,3.562,1.477l1.066-1.066a.955.955,0,0,1,1.353,0l2.449,2.455a.955.955,0,0,1,0,1.354l-1.06,1.064a11.713,11.713,0,0,1,1.47,3.563h1.512a.955.955,0,0,1,.955.955v3.469a.956.956,0,0,1-.955.961h-1.506a11.778,11.778,0,0,1-1.476,3.557l1.06,1.066a.962.962,0,0,1,0,1.359l-2.449,2.449a.955.955,0,0,1-1.353,0l-1.066-1.066a11.864,11.864,0,0,1-3.562,1.477v1.506a.958.958,0,0,1-.955.959Z" transform="translate(-2116 -23005)"/></g></svg>