<svg xmlns="http://www.w3.org/2000/svg" width="24.944" height="24.945" viewBox="0 0 24.944 24.945"><defs><style>.a{fill:#51b48a;}.b{fill:#554747;opacity:0.214;}</style></defs><g transform="translate(-28 -245.998)"><g transform="translate(28 245.998)"><g transform="translate(0 0.001)"><g transform="translate(0 0)"><path class="a" d="M121.762,105.934c1.592,0,1.972-1.3,1.972-2.387a1.972,1.972,0,0,0-3.944,0C119.79,104.636,120.313,105.934,121.762,105.934Z" transform="translate(-109.83 -93.129)"/><path class="a" d="M110.3,157.3h-.549c-1.081,0-2.7.99-2.7,2.213s-.367,2.213.714,2.213h4.526c1.081,0,.714-.991.714-2.213S111.381,157.3,110.3,157.3Z" transform="translate(-98.093 -144.222)"/><path class="a" d="M12.471,0A12.472,12.472,0,1,0,24.944,12.473,12.472,12.472,0,0,0,12.471,0ZM17.54,18.055v.863a.863.863,0,0,1-.863.863H8.051a1.725,1.725,0,0,1-1.725-1.725V7.2A1.725,1.725,0,0,1,8.051,5.475h8.626a.863.863,0,0,1,.863.863V7.2h0V18.055ZM19.265,7.2V18.917a.863.863,0,0,1-.863.863h-.233a1.713,1.713,0,0,0,.233-.863V6.338a1.712,1.712,0,0,0-.233-.863H18.4a.863.863,0,0,1,.863.863Z" transform="translate(0 -0.001)"/></g></g></g><path class="b" d="M2155,23341.934v-24.928c.146-.006.293-.008.44-.008,6.457,0,11.693,5.588,11.693,12.473s-5.237,12.471-11.693,12.471C2155.3,23341.941,2155.149,23341.939,2155,23341.934Z" transform="translate(-2114.2 -23071)"/></g></svg>