<svg xmlns="http://www.w3.org/2000/svg" xmlns:xlink="http://www.w3.org/1999/xlink" width="44.793" height="44.901" viewBox="0 0 44.793 44.901">
  <defs>
    <linearGradient id="linear-gradient" x1="0.446" y1="0.366" x2="0.987" y2="0.809" gradientUnits="objectBoundingBox">
      <stop offset="0" stop-color="#2e99df"/>
      <stop offset="1" stop-color="#1a5987"/>
    </linearGradient>
    <filter id="Path_23922" x="0" y="0" width="44.793" height="44.901" filterUnits="userSpaceOnUse">
      <feOffset dy="1" input="SourceAlpha"/>
      <feGaussianBlur stdDeviation="3" result="blur"/>
      <feFlood flood-opacity="0.161"/>
      <feComposite operator="in" in2="blur"/>
      <feComposite in="SourceGraphic"/>
    </filter>
  </defs>
  <g id="Group_42041" data-name="Group 42041" transform="translate(-87.11 -520.482)">
    <g transform="matrix(1, 0, 0, 1, 87.11, 520.48)" filter="url(#Path_23922)">
      <path id="Path_23922-2" data-name="Path 23922" d="M12.921.056A6.71,6.71,0,0,1,18.661,3.6L20.95,7.753a7.119,7.119,0,0,1,.085,6.753L18.849,18.6A6.308,6.308,0,0,1,13.2,22L8.924,21.94A6.71,6.71,0,0,1,3.184,18.4L.895,14.243A7.119,7.119,0,0,1,.81,7.49L3,3.395A6.308,6.308,0,0,1,8.649,0Z" transform="matrix(0.97, 0.26, -0.26, 0.97, 14.69, 8)" fill="#6a5059"/>
    </g>
    <g id="noun-plus-2310784_1_" data-name="noun-plus-2310784 (1)" transform="translate(104.131 536.558)">
      <path id="Path_154" data-name="Path 154" d="M226.574,151.2a.7.7,0,0,0-.7.7v3.973H221.9a.7.7,0,1,0,0,1.4h3.973v3.973a.7.7,0,0,0,1.4,0v-3.973h3.973a.7.7,0,0,0,0-1.4h-3.973V151.9A.7.7,0,0,0,226.574,151.2Z" transform="translate(-221.199 -151.2)" fill="#fbfbfb"/>
    </g>
  </g>
</svg>
