<svg xmlns="http://www.w3.org/2000/svg" width="21.219" height="30.102" viewBox="0 0 21.219 30.102">
  <g id="Group_42076" data-name="Group 42076" transform="translate(-223.594 -759.949)">
    <circle id="Ellipse_1228" data-name="Ellipse 1228" cx="1.5" cy="1.5" r="1.5" transform="translate(232.703 787.051)" fill="#fafafa"/>
    <path id="Path_23875" data-name="Path 23875" d="M145.63,63.529h-2.976a2.269,2.269,0,0,0-.473-3.326,2.6,2.6,0,0,0-3.454.438l-2.115,2.573L134.5,60.641a2.6,2.6,0,0,0-3.454-.437,2.269,2.269,0,0,0-.473,3.326h-2.976A1.552,1.552,0,0,0,126,65.035v3.011a.517.517,0,0,0,.53.5H146.69a.517.517,0,0,0,.53-.5V65.035a1.552,1.552,0,0,0-1.592-1.506Zm-6.066-2.272a1.49,1.49,0,0,1,1.981-.251,1.3,1.3,0,0,1,.559,1.24,1.345,1.345,0,0,1-.853,1.079l-.5.2H137.7Zm-7.591,2.067a1.346,1.346,0,0,1-.853-1.079,1.3,1.3,0,0,1,.559-1.239,1.489,1.489,0,0,1,1.981.251l1.868,2.272h-3.05Zm3.048,6.227H138.2V79.59H135.02Zm-7.957,0h6.9V79.59h-5.3a1.552,1.552,0,0,1-1.592-1.506Zm12.2,0h6.9v8.533a1.552,1.552,0,0,1-1.592,1.506h-5.3Z" transform="translate(97.592 700.212)" fill="#fff"/>
  </g>
</svg>
