<svg xmlns="http://www.w3.org/2000/svg" width="21.562" height="22.171" viewBox="0 0 21.562 22.171">
  <path id="noun-gift-4979199" d="M158.99,68.041h-4.221a1.493,1.493,0,0,0,.235-.17,2.66,2.66,0,0,0,0-3.764,2.726,2.726,0,0,0-3.764,0c-.675.677-.848,2.566-.892,3.663,0,.1,0,.181.005.271h-.547c0-.093,0-.192.007-.3-.044-1.067-.217-2.957-.893-3.633a2.725,2.725,0,0,0-3.762,0,2.661,2.661,0,0,0,0,3.765,1.539,1.539,0,0,0,.235.17h-4.219a1.875,1.875,0,0,0-1.873,1.873v1.914a1.874,1.874,0,0,0,1.514,1.836v9.272a2.589,2.589,0,0,0,2.586,2.586h13.362a2.589,2.589,0,0,0,2.586-2.586V73.665a1.875,1.875,0,0,0,1.514-1.836V69.914a1.875,1.875,0,0,0-1.873-1.873Zm-7.116-3.3a1.767,1.767,0,1,1,2.5,2.5,6.061,6.061,0,0,1-3.125.631c0-.031,0-.063,0-.094a5.948,5.948,0,0,1,.629-3.036Zm-6.083,0a1.768,1.768,0,0,1,2.5,0,5.877,5.877,0,0,1,.63,3c0,.042,0,.084,0,.125a6.052,6.052,0,0,1-3.125-.632,1.767,1.767,0,0,1,0-2.5ZM147.5,84.627h-4.1a1.692,1.692,0,0,1-1.69-1.69V73.7H147.5Zm.9,0V73.7h3.378V84.627Zm10.061-1.69a1.692,1.692,0,0,1-1.69,1.69h-4.1V73.7h5.786Zm1.514-11.109a.979.979,0,0,1-.978.978H141.176a.979.979,0,0,1-.978-.978V69.913a.979.979,0,0,1,.978-.978h17.815a.979.979,0,0,1,.978.978Z" transform="translate(-139.302 -63.352)" fill="#fafafa" opacity="0.7"/>
</svg>
