<svg xmlns="http://www.w3.org/2000/svg" width="42.139" height="36.741" viewBox="0 0 42.139 36.741">
  <g id="Group_42044" data-name="Group 42044" transform="translate(-56 -531.759)">
    <path id="Path_24012" data-name="Path 24012" d="M21.532,0c11.892,0,4.885,10.846,16.586,18.37s-4.694,18.37-16.586,18.37S0,28.516,0,18.37,9.64,0,21.532,0Z" transform="translate(56 531.759)" fill="#6a5059" opacity="0.19"/>
    <g id="Group_38754" data-name="Group 38754" transform="translate(-124.993 -2569.754)">
      <path id="Path_23994" data-name="Path 23994" d="M189.389,176.648l-1.234.785,1.507,2.37,2.545-1.618-1.507-2.37-1.29.82-.02.013Z" transform="translate(4.777 2940.642)" fill="#6a5059"/>
      <path id="Path_23995" data-name="Path 23995" d="M115.392,180.435a1.037,1.037,0,0,0,.787,1.237l.2.045,1.541-.966a.286.286,0,0,1,.054-.026l.905-.576-2.253-.5a1.038,1.038,0,0,0-1.238.787Z" transform="translate(74.473 2936.995)" fill="#6a5059"/>
      <path id="Path_23996" data-name="Path 23996" d="M225.695,82.7a1.037,1.037,0,0,0-1.237.787l-.7,3.141.917-.583a.284.284,0,0,1,.047-.038l1.529-.97.229-1.095a1.039,1.039,0,0,0-.786-1.241Z" transform="translate(-29.314 3029.825)" fill="#6a5059"/>
      <path id="Path_23997" data-name="Path 23997" d="M263.413,113.153a1.146,1.146,0,0,0-.247-.027,1.12,1.12,0,0,0-.6.176l-3.44,2.188,1.507,2.37,4.391-2.792-.9-1.42a1.119,1.119,0,0,0-.706-.5Z" transform="translate(-63.686 3000.966)" fill="#6a5059"/>
      <path id="Path_23998" data-name="Path 23998" d="M86.081,220.94l-3.516,2.236a1.128,1.128,0,0,0-.346,1.555l.9,1.42,4.467-2.84Z" transform="translate(106.891 2897.179)" fill="#6a5059"/>
      <path id="Path_23999" data-name="Path 23999" d="M331.22,346.889h3.609a1.128,1.128,0,0,0,1.126-1.127v-7.272H331.22Z" transform="translate(-132.805 2784.877)" fill="#6a5059"/>
      <path id="Path_24000" data-name="Path 24000" d="M145.107,345.761a1.128,1.128,0,0,0,1.126,1.127h2.679v-8.4h-3.806Z" transform="translate(46.591 2784.879)" fill="#6a5059"/>
      <path id="Path_24001" data-name="Path 24001" d="M247.8,338.49h2.986v8.4H247.8Z" transform="translate(-52.334 2784.878)" fill="#6a5059"/>
      <path id="Path_24002" data-name="Path 24002" d="M464.285,240.876l.133-.778h0a.279.279,0,0,0-.4-.294l-.7.367-.7-.367a.279.279,0,0,0-.4.294l.133.778-.565.551a.279.279,0,0,0,.155.475l.781.114.349.707a.279.279,0,0,0,.5,0l.349-.707.781-.114a.279.279,0,0,0,.155-.475Z" transform="translate(-257.144 2879.402)" fill="#6a5059"/>
      <path id="Path_24003" data-name="Path 24003" d="M530.2,150.47l-.767-.186-.281-.737h0a.279.279,0,0,0-.5-.047l-.414.672-.788.04a.279.279,0,0,0-.2.459l.511.6-.205.762a.279.279,0,0,0,.375.331l.729-.3.661.431h0a.279.279,0,0,0,.43-.255l-.06-.787.614-.5a.279.279,0,0,0-.109-.488Z" transform="translate(-319.856 2965.967)" fill="#6a5059"/>
      <path id="Path_24004" data-name="Path 24004" d="M491.226,25.143a.279.279,0,0,0-.206-.21l-.767-.186-.281-.737a.279.279,0,0,0-.5-.047l-.414.672-.788.04a.279.279,0,0,0-.2.459l.511.6-.206.762h0a.279.279,0,0,0,.375.331l.729-.3.661.431a.279.279,0,0,0,.43-.255l-.06-.787.614-.5h0a.279.279,0,0,0,.1-.278Z" transform="translate(-282.336 3086.17)" fill="#ff7861" opacity="0.42"/>
      <path id="Path_24005" data-name="Path 24005" d="M363.046,254.476a3.644,3.644,0,0,0-2.9.393,3.214,3.214,0,0,0-.95.9.279.279,0,0,0,.471.3,2.92,2.92,0,0,1,3.246-1.047h0a.279.279,0,1,0,.134-.541Z" transform="translate(-158.955 2865.45)" fill="#6a5059"/>
      <path id="Path_24006" data-name="Path 24006" d="M377.814,178.256a.279.279,0,1,0,.5.248,4.7,4.7,0,0,1,1.229-1.444,3.535,3.535,0,0,1,3.734-.383.279.279,0,0,0,.214-.515,4.088,4.088,0,0,0-4.288.456h0a5.231,5.231,0,0,0-1.388,1.638Z" transform="translate(-176.796 2940.688)" fill="#6a5059"/>
      <path id="Path_24007" data-name="Path 24007" d="M433.354,101.625a.279.279,0,0,0-.171.531,4.191,4.191,0,0,0,1.182.171,2.908,2.908,0,0,0,1.488-.37,2.647,2.647,0,0,0,1.205-1.9.279.279,0,1,0-.548-.1,2.119,2.119,0,0,1-.939,1.519A3.1,3.1,0,0,1,433.354,101.625Z" transform="translate(-229.656 3013.495)" fill="#6a5059"/>
      <path id="Path_24008" data-name="Path 24008" d="M335.758,295a.5.5,0,1,1-.5-.5.5.5,0,0,1,.5.5" transform="translate(-135.594 2826.999)" fill="#e9e92c"/>
      <path id="Path_24009" data-name="Path 24009" d="M428.744,80.631a.5.5,0,1,1-.5-.5.5.5,0,0,1,.5.5" transform="translate(-224.63 3032.263)" fill="#6a5059"/>
      <path id="Path_24010" data-name="Path 24010" d="M319.1,240.272a.5.5,0,1,1-.5-.5.5.5,0,0,1,.5.5" transform="translate(-119.642 2879.404)" fill="#6a5059"/>
      <path id="Path_24011" data-name="Path 24011" d="M575.868,259.512a.5.5,0,1,1-.5-.5.5.5,0,0,1,.5.5" transform="translate(-365.503 2860.981)" fill="#e9e92c"/>
      <g id="_1421344023328" transform="matrix(0.978, -0.208, 0.208, 0.978, 194.444, 3125.414)">
        <path id="Path_390" data-name="Path 390" d="M3.952,2.109c.082-.551-.337-.847-.911-1.045L3.227.317,2.773.2,2.592.931C2.472.9,2.349.873,2.228.845L2.41.113,1.956,0,1.77.746c-.1-.023-.2-.045-.29-.068v0L.853.519.732,1s.337.077.33.082a.242.242,0,0,1,.212.264L1.062,2.2a.368.368,0,0,1,.047.015L1.061,2.2.764,3.4A.165.165,0,0,1,.556,3.5c0,.007-.33-.082-.33-.082L0,3.942l.591.147.324.084-.188.755.454.113.186-.747c.124.034.244.065.362.094l-.186.744L2,5.245l.188-.754c.775.147,1.358.088,1.6-.613a.8.8,0,0,0-.418-1.1.725.725,0,0,0,.58-.667h0ZM2.914,3.565c-.14.564-1.091.259-1.4.183l.25-1C2.073,2.824,3.061,2.976,2.914,3.565ZM3.054,2.1c-.128.513-.919.253-1.175.189l.226-.907c.257.064,1.083.183.949.719Z" transform="translate(0 0)" fill="#f8f8f8"/>
      </g>
    </g>
  </g>
</svg>
