<svg xmlns="http://www.w3.org/2000/svg" width="33.422" height="24" viewBox="0 0 33.422 24"><defs><style>.a{fill:#fff;}</style></defs><g transform="translate(13524.427 -9233.916)"><path class="a" d="M284.525,340.624a5.571,5.571,0,1,0,5.571,5.57A5.577,5.577,0,0,0,284.525,340.624Zm0,9.6a4.033,4.033,0,1,1,4.033-4.033A4.037,4.037,0,0,1,284.525,350.227Z" transform="translate(-13796.951 8899.722)"/><path class="a" d="M239.592,287.094l-2.143-.328a9.726,9.726,0,0,0-.469-1.133l1.283-1.747a.769.769,0,0,0-.076-1l-.274-.274a.769.769,0,0,0-1.249.851l-1.208,1.644a.769.769,0,0,0-.052.829,8.157,8.157,0,0,1,.715,1.726.769.769,0,0,0,.623.549l1.964.3v2.8l-1.964.3a.769.769,0,0,0-.623.549,8.155,8.155,0,0,1-.715,1.726.769.769,0,0,0,.052.829l1.176,1.6-1.981,1.981-1.6-1.176a.77.77,0,0,0-.829-.052,8.14,8.14,0,0,1-1.726.715.769.769,0,0,0-.549.623l-.3,1.964h-2.8l-.3-1.964a.769.769,0,0,0-.549-.623,8.143,8.143,0,0,1-1.726-.715.769.769,0,0,0-.829.052l-1.6,1.176-1.981-1.981,1.176-1.6a.769.769,0,0,0,.052-.829,8.152,8.152,0,0,1-.715-1.726.769.769,0,0,0-.623-.549l-1.964-.3v-2.8l1.964-.3a.769.769,0,0,0,.623-.549,8.155,8.155,0,0,1,.715-1.726.769.769,0,0,0-.052-.829l-1.176-1.6,1.981-1.981,1.6,1.176a.769.769,0,0,0,.829.052,8.158,8.158,0,0,1,1.726-.715.769.769,0,0,0,.549-.623l.3-1.964h2.8l.3,1.964a.769.769,0,0,0,.549.623,8.149,8.149,0,0,1,1.726.715.769.769,0,0,0,.829-.052l1.6-1.176a.769.769,0,0,0,1.079-1.1l-.458-.458a.769.769,0,0,0-1-.076l-1.747,1.283a9.711,9.711,0,0,0-1.133-.469l-.328-2.143a.769.769,0,0,0-.76-.653h-4.122a.769.769,0,0,0-.76.653l-.328,2.143a9.69,9.69,0,0,0-1.133.469l-1.747-1.283a.769.769,0,0,0-1,.076l-2.915,2.915a.769.769,0,0,0-.076,1l1.283,1.747a9.7,9.7,0,0,0-.469,1.133l-2.143.328a.769.769,0,0,0-.653.76v4.122a.769.769,0,0,0,.653.76l2.143.328a9.687,9.687,0,0,0,.469,1.133l-1.283,1.747a.769.769,0,0,0,.076,1l2.915,2.915a.769.769,0,0,0,1,.076l1.747-1.283a9.682,9.682,0,0,0,1.133.469l.328,2.143a.769.769,0,0,0,.76.653h4.122a.769.769,0,0,0,.76-.653l.328-2.143a9.665,9.665,0,0,0,1.133-.469l1.747,1.283a.769.769,0,0,0,1-.076l2.915-2.915a.769.769,0,0,0,.076-1L236.98,294.2a9.7,9.7,0,0,0,.469-1.133l2.143-.328a.769.769,0,0,0,.653-.76v-4.122A.769.769,0,0,0,239.592,287.094Z" transform="translate(-13740.671 8956)"/><path class="a" d="M287.937,114.366a.769.769,0,0,0,0,1.538H289.3a2.744,2.744,0,1,0,0-1.538Zm4-.437a1.207,1.207,0,1,1-1.207,1.207A1.208,1.208,0,0,1,291.938,113.928Z" transform="translate(-13785.687 9126.701)"/><path class="a" d="M287.168,203.062a.769.769,0,0,0,.769.769H289.3a2.744,2.744,0,1,0,0-1.538h-1.367A.769.769,0,0,0,287.168,203.062Zm4.77-1.207a1.207,1.207,0,1,1-1.207,1.207A1.208,1.208,0,0,1,291.938,201.856Z" transform="translate(-13785.687 9047.788)"/></g></svg>