<svg xmlns="http://www.w3.org/2000/svg" width="24.441" height="19.932" viewBox="0 0 24.441 19.932"><defs><style>.a{fill:#fff;}</style></defs><path class="a" d="M19.974,51.777V57.3a2.155,2.155,0,0,1-2.152,2.152H3.584A2.154,2.154,0,0,1,1.432,57.3V46.592A2.154,2.154,0,0,1,3.584,44.44h9.574a.716.716,0,1,0,0-1.432H3.584A3.588,3.588,0,0,0,0,46.592V57.3a3.588,3.588,0,0,0,3.584,3.584H17.822A3.588,3.588,0,0,0,21.406,57.3V51.777a.716.716,0,0,0-1.432,0Zm0,0" transform="translate(0 -40.955)"/><path class="a" d="M271.123,0h-5.214a2.225,2.225,0,0,0-2.225,2.134,2.2,2.2,0,0,0,2.1,2.254L264.6,5.565l-2.657,2.657a2.195,2.195,0,1,0,3.1,3.1l3.836-3.836a2.224,2.224,0,0,0,2.13,2.1,2.195,2.195,0,0,0,2.256-2.194V2.15A2.152,2.152,0,0,0,271.123,0Zm.718,7.394a.762.762,0,0,1-.785.762.784.784,0,0,1-.741-.793v-1.6a.716.716,0,0,0-1.223-.506l-5.054,5.054a.763.763,0,1,1-1.079-1.079l2.623-2.623,2.431-2.431a.716.716,0,0,0-.506-1.222h-1.63a.762.762,0,0,1-.762-.785.784.784,0,0,1,.793-.741h5.214a.719.719,0,0,1,.718.718Zm0,0" transform="translate(-248.832)"/></svg>