<svg viewBox="-30 0 300    130"><defs><style>.a{fill:#bc6f00;}.b{fill:#fff;stroke:#bc6f00;}</style></defs><g transform="translate(-113 -156)"><circle class="a" cx="25" cy="25" r="25" transform="translate(113 156)"/><path class="b" d="M16.409,6.878V6.837A2.743,2.743,0,0,0,13.675,4.1H12.307V2.735A2.743,2.743,0,0,0,9.572,0H2.735A2.743,2.743,0,0,0,0,2.735V4.1A2.743,2.743,0,0,0,2.735,6.837H4.1V8.2A2.743,2.743,0,0,0,1.367,10.94v1.367a2.732,2.732,0,0,0,1.395,2.379,2.9,2.9,0,0,0-.027.356v1.367A2.743,2.743,0,0,0,5.47,19.144h6.837a2.667,2.667,0,0,0,1.354-.356,6.067,6.067,0,0,0,2.065.356,6.152,6.152,0,0,0,.684-12.266ZM2.735,4.1V2.735H9.572V4.1H2.735Zm4.1,2.735h6.837v.356A5.853,5.853,0,0,0,11.869,8.2H6.837ZM4.1,10.94H9.928a5.687,5.687,0,0,0-.314,1.367H4.1Zm1.367,5.47V15.042H9.928a5.561,5.561,0,0,0,.684,1.367Zm10.256,0a3.744,3.744,0,0,1-.684-.068,3.39,3.39,0,0,1-2.407-1.9,3.222,3.222,0,0,1-.328-1.449,3.743,3.743,0,0,1,.068-.684,3.456,3.456,0,0,1,.615-1.367,3.435,3.435,0,0,1,2.735-1.368,2.4,2.4,0,0,1,.314.014,3.419,3.419,0,0,1-.314,6.823Z" transform="translate(127.742 172.066)"/></g></svg>
