<svg  viewBox="0 0 170 580"><defs><style>.a{fill:#e64545;}</style></defs><path class="a" d="M143,711.011h-11.59l1.294-1.281a.982.982,0,0,0,0-1.4,1.007,1.007,0,0,0-1.415,0l-3,2.971a.973.973,0,0,0-.2.294.818.818,0,0,0-.035.1.918.918,0,0,0-.048.244.69.69,0,0,0-.005.1.965.965,0,0,0,.061.311.263.263,0,0,0,.007.027v0a.99.99,0,0,0,.2.291c.008.009.011.021.02.03l3,2.971a1.008,1.008,0,0,0,1.415,0,.982.982,0,0,0,0-1.4l-1.294-1.281H143a.99.99,0,1,0,0-1.98Z" transform="translate(715.962 -128.002) rotate(90)"/></svg>   
