<svg
	 viewBox="0 400 4500 1150">
<circle id="background_1_" style="fill:#45B39C;" cx="256" cy="256" r="256"/>
<path style="fill:#EFC84A;" d="M374.435,397.486c0,6.359-5.155,11.514-11.514,11.514H148.948c-6.359,0-11.514-5.155-11.514-11.514
	V183.513c0-6.359,5.155-11.514,11.514-11.514h213.973c6.358,0,11.514,5.155,11.514,11.514L374.435,397.486L374.435,397.486z"/>   
<path style="fill:#705E23;" d="M279.026,302.712c0-12.719-10.31-23.027-23.026-23.027c-12.718,0-23.026,10.308-23.026,23.027
	c0,7.462,3.565,13.819,9.068,18.027L233.113,356h45.321l-8.857-34.977C275.298,316.833,279.026,310.345,279.026,302.712z"/>
<polygon style="fill:#9E8531;" points="237.02,341 233.113,356 278.435,356 274.528,341 "/>
<polygon style="fill:#FFD759;" points="234.274,351 233.113,356 278.435,356 277.273,351 "/>
<path style="opacity:0.3;fill:#5D5D5D;enable-background:new    ;" d="M137.435,397.731c0,6.332,5.16,11.268,11.493,11.268h157.729
	L137.435,240.001V397.731z"/>
<path style="fill:#FCDB71;" d="M374.435,183.513c0-6.358-5.155-11.513-11.514-11.513H148.948c-6.359,0-11.514,5.155-11.514,11.513
	v24.974c0,6.358,5.155,11.513,11.514,11.513h213.973c6.358,0,11.514-5.155,11.514-11.513L374.435,183.513L374.435,183.513z"/>
<path style="fill:#D4B142;" d="M374.435,183.513c0-6.358-5.155-11.513-11.514-11.513H148.948c-6.359,0-11.514,5.155-11.514,11.513
	v17.974c0,6.358,5.155,11.513,11.514,11.513h213.973c6.358,0,11.514-5.155,11.514-11.513L374.435,183.513L374.435,183.513z"/>
<ellipse style="fill:#4A4A4A;" cx="334.29" cy="192.798" rx="17.99" ry="10.65"/>
<ellipse style="fill:#4A4A4A;" cx="177.71" cy="192.798" rx="17.99" ry="10.65"/>
<ellipse style="fill:#2B2B2B;" cx="178.029" cy="189.578" rx="12.552" ry="7.431"/>
<ellipse style="fill:#2B2B2B;" cx="334.608" cy="189.578" rx="12.552" ry="7.431"/>
<path style="fill:#CCCCCC;" d="M189.132,180.763c0.943,6.983-0.012-1.102-0.119-2.732c-0.319-4.746-0.373-9.508-0.244-14.262
	c0.08-2.977,0.267-5.949,0.521-8.915c0.138-1.604,0.314-3.203,0.507-4.801c0.343-2.858-0.383,2.648,0.034-0.238
	c0.162-1.123,0.35-2.242,0.541-3.361c1.265-7.383,3.256-14.637,6.01-21.603c1.148-2.904-0.977,2.193,0.297-0.671
	c0.379-0.853,0.787-1.694,1.194-2.536c0.821-1.692,1.73-3.341,2.668-4.971c0.948-1.645,1.988-3.236,3.06-4.802
	c0.54-0.789,1.113-1.557,1.685-2.323c-1.615,2.164,0.933-1.045,1.247-1.408c1.281-1.48,2.66-2.874,4.07-4.231
	c0.672-0.647,4.666-3.993,3.022-2.731c3.642-2.794,7.647-5.079,11.796-7.026c3.275-1.539-2.041,0.764,1.395-0.582
	c1.079-0.423,2.179-0.793,3.276-1.163c2.297-0.774,4.645-1.378,7.002-1.932c5.623-1.322,9.509-1.633,15.706-1.832
	c11.276-0.361,20.234,0.752,30.905,4.525c2.173,0.768,4.008,1.61,7.354,3.453c1.539,0.846,3.023,1.795,4.487,2.766
	c0.571,0.385,1.136,0.78,1.694,1.184c2.748,1.954-1.697-1.413,0.891,0.692c2.31,1.88,4.439,3.974,6.464,6.154
	c1.103,1.187,2.134,2.438,3.147,3.701c-1.611-2.01,1.212,1.787,1.581,2.334c1.593,2.358,3,4.838,4.319,7.357
	c0.726,1.385,1.389,2.802,2.035,4.226c0.523,1.198,0.504,1.138-0.057-0.182c0.357,0.856,0.689,1.722,1.021,2.587
	c2.146,5.608,3.693,11.436,4.884,17.315c0.507,2.499,0.912,5.019,1.271,7.542c-0.496-3.482,0.094,1.015,0.176,1.773
	c0.137,1.288,0.247,2.579,0.35,3.871c0.361,4.5,0.491,9.018,0.454,13.532c-0.033,4.112-0.172,8.269-0.683,12.353
	c-0.78,6.244,5.827,11.513,11.514,11.513c6.864,0,10.735-5.287,11.513-11.513c2.562-20.513-0.103-43.216-7.275-62.504
	c-6.426-17.28-17.076-32.135-32.546-42.393c-18.542-12.292-43.009-15.208-64.653-12.437c-18.675,2.392-36.119,9.591-49.42,23.217
	c-10.811,11.073-17.746,25.497-21.787,40.301c-4.99,18.275-6.048,38.107-3.512,56.876c0.842,6.233,8.732,9.535,14.161,8.042
	C187.743,193.094,189.972,186.976,189.132,180.763L189.132,180.763z"/>
<path style="fill:#A8A8A8;" d="M334.199,195.312c2.009-20.204-0.317-42.408-6.411-61.331c-5.564-17.28-14.787-32.134-28.184-42.392
	c-16.057-12.292-37.245-15.208-55.988-12.438c-16.172,2.394-31.279,9.592-42.797,23.216c-9.361,11.075-15.367,25.498-18.867,40.301
	c-3.993,16.892-5.073,35.113-3.479,52.596c0.905-0.011,1.792-0.115,2.617-0.342c6.653-1.83,8.882-7.948,8.042-14.161
	c0.943,6.983-0.012-1.102-0.119-2.732c-0.319-4.746-0.373-9.508-0.244-14.262c0.08-2.977,0.267-5.949,0.521-8.915
	c0.138-1.603,0.314-3.203,0.507-4.8c0.011-0.079,0.021-0.143,0.034-0.239c0.162-1.123,0.35-2.242,0.541-3.361
	c1.265-7.383,3.256-14.637,6.01-21.603c0.017-0.041,0.025-0.064,0.041-0.102c0.064-0.14,0.143-0.313,0.256-0.569
	c0.379-0.853,0.787-1.694,1.194-2.536c0.821-1.692,1.73-3.341,2.668-4.971c0.948-1.645,1.988-3.236,3.06-4.802
	c0.376-0.549,0.775-1.081,1.172-1.616c-0.213,0.338,1.506-1.821,1.76-2.115c1.281-1.48,2.66-2.874,4.07-4.231
	c0.568-0.547,3.498-3.013,3.401-3.003c3.542-2.666,7.409-4.873,11.417-6.755c0.208-0.098,0.382-0.179,0.525-0.248
	c0.189-0.071,0.465-0.175,0.87-0.334c1.079-0.423,2.179-0.793,3.276-1.163c2.297-0.774,4.645-1.378,7.002-1.932
	c5.623-1.322,9.509-1.633,15.706-1.832c11.276-0.361,20.234,0.752,30.905,4.525c2.173,0.768,4.008,1.61,7.354,3.453
	c1.539,0.846,3.023,1.795,4.487,2.766c0.571,0.385,1.136,0.78,1.694,1.184c0.143,0.102,0.256,0.181,0.361,0.255
	c0.131,0.11,0.291,0.244,0.529,0.437c2.31,1.88,4.439,3.974,6.464,6.154c0.965,1.038,1.871,2.129,2.762,3.231
	c-0.601-0.699,1.64,2.319,1.967,2.804c1.593,2.358,3,4.838,4.319,7.357c0.726,1.385,1.389,2.802,2.035,4.226
	c0.059,0.132,0.107,0.244,0.151,0.346c0.277,0.684,0.548,1.371,0.813,2.06c2.146,5.608,3.693,11.436,4.884,17.315
	c0.424,2.087,0.766,4.189,1.08,6.295c0.033,0.356,0.312,2.513,0.367,3.019c0.137,1.288,0.247,2.579,0.35,3.871
	c0.361,4.5,0.491,9.018,0.454,13.532c-0.033,4.112-0.172,8.269-0.683,12.353C322.334,189.916,328.61,195.069,334.199,195.312z"/>
<g>
</g>
<g>
</g>
<g>
</g>
<g>
</g>
<g>
</g>
<g>
</g>
<g>
</g>
<g>
</g>
<g>
</g>
<g>
</g>
<g>
</g>
<g>
</g>
<g>
</g>
<g>
</g>
<g>
</g>
</svg>
