<svg  viewBox="-30 30 300 300"><defs><style>.a,.b{fill:#fff;}.a{stroke:#707070;}.c{fill:#51c76c;}.d{fill:#696969;opacity:0.272;}.e{clip-path:url(#c);}.f,.h,.k{fill:none;}.f{stroke:#cbcbcb;stroke-dasharray:1 2;}.f,.h{stroke-linecap:round;}.g{clip-path:url(#d);}.h{stroke:#51c76c;stroke-width:1.5px;}.i{clip-path:url(#e);}.j{stroke:none;}.l{filter:url(#a);}</style><filter id="a" x="0" y="0" width="103.211" height="114.951" filterUnits="userSpaceOnUse"><feOffset dy="3" input="SourceAlpha"/><feGaussianBlur stdDeviation="3" result="b"/><feFlood flood-opacity="0.161"/><feComposite operator="in" in2="b"/><feComposite in="SourceGraphic"/></filter><clipPath id="c"><rect class="a" width="18.738" height="38.726"/></clipPath><clipPath id="d"><rect class="b" width="18.738" height="38.726"/></clipPath><clipPath id="e"><rect class="b" width="38.726" height="19.988" transform="translate(0 19.363) rotate(-30)"/></clipPath></defs><g transform="translate(-29.5 -108.329)"><g class="l" transform="matrix(1, 0, 0, 1, 29.5, 108.33)"><path class="c" d="M113.37,17.231A14.37,14.37,0,0,1,99.168,2.84,2.813,2.813,0,0,0,96.328,0H50.882a2.813,2.813,0,0,0-2.84,2.84,14.37,14.37,0,0,1-14.2,14.391A2.813,2.813,0,0,0,31,20.072V41.2c0,36.981,33.63,55.747,42.605,55.747,10.4,0,42.605-20.072,42.605-55.747V20.072A2.813,2.813,0,0,0,113.37,17.231Z" transform="translate(-22 6)"/></g><ellipse class="b" cx="30.606" cy="30.606" rx="30.606" ry="30.606" transform="translate(50.992 131.818)"/><path class="d" d="M298.605,20.072V41.2c0,35.675-32.209,55.747-42.605,55.747V0h22.723a2.813,2.813,0,0,1,2.84,2.84,14.37,14.37,0,0,0,14.2,14.391A2.812,2.812,0,0,1,298.605,20.072Z" transform="translate(-174.895 114.329)"/><g transform="translate(55.148 155.337) rotate(-30)"><g class="e" transform="translate(0 0)"><g class="f"><circle class="j" cx="19.116" cy="19.116" r="19.116"/><circle class="k" cx="19.116" cy="19.116" r="18.616"/></g></g><g class="g" transform="translate(19.988 0)"><g class="h" transform="translate(-19.988 0)"><circle class="j" cx="19.116" cy="19.116" r="19.116"/><circle class="k" cx="19.116" cy="19.116" r="18.366"/></g></g></g><g class="i" transform="translate(64.518 152.203)"><g class="h" transform="translate(-9.369 3.135) rotate(-30)"><circle class="j" cx="19.116" cy="19.116" r="19.116"/><circle class="k" cx="19.116" cy="19.116" r="18.366"/></g></g></g></svg>
