<svg xmlns="http://www.w3.org/2000/svg" xmlns:xlink="http://www.w3.org/1999/xlink" width="186.955" height="186.956" viewBox="0 0 186.955 186.956"><defs><style>.a,.b,.c{fill:#fff;}.b{stroke:#1582c4;stroke-width:2px;}.c{opacity:0.801;}.d{opacity:0.236;}.e{fill:url(#c);}.f{filter:url(#a);}</style><filter id="a" x="43.739" y="54.741" width="98" height="98" filterUnits="userSpaceOnUse"><feOffset dy="10" input="SourceAlpha"/><feGaussianBlur stdDeviation="10" result="b"/><feFlood flood-opacity="0.039"/><feComposite operator="in" in2="b"/><feComposite in="SourceGraphic"/></filter><linearGradient id="c" x1="0.449" y1="-0.013" x2="0.551" y2="1.013" gradientUnits="objectBoundingBox"><stop offset="0.012" stop-color="#1d90d1"/><stop offset="0.598" stop-color="#0a6eb3"/><stop offset="1" stop-color="#005da3"/></linearGradient></defs><g transform="translate(52.739 -260.259)"><g class="f" transform="matrix(1, 0, 0, 1, -52.74, 260.26)"><path class="a" d="M19,0A19,19,0,1,1,0,19,19,19,0,0,1,19,0Z" transform="translate(73.74 74.74)"/></g><g transform="translate(-17 77)"><path class="b" d="M-68.781-40.058a1.351,1.351,0,0,0-1.006-.439,1.357,1.357,0,0,0-.683.177v-.744a.355.355,0,0,0-.36-.354.354.354,0,0,0-.354.354v3.574a.354.354,0,0,0,.354.354.355.355,0,0,0,.36-.354V-39.04a.7.7,0,0,1,.683-.75.7.7,0,0,1,.683.75v1.549a.354.354,0,0,0,.354.354.354.354,0,0,0,.354-.354V-39.04A1.488,1.488,0,0,0-68.781-40.058Zm3.08,2.952a1.554,1.554,0,0,1-1.159-.524A1.7,1.7,0,0,1-67.3-38.8a1.592,1.592,0,0,1,1.567-1.683A1.567,1.567,0,0,1-64.183-38.8a.355.355,0,0,1-.36.354h-1.994a.88.88,0,0,0,.835.634.721.721,0,0,0,.7-.341.358.358,0,0,1,.488-.122.358.358,0,0,1,.122.488A1.384,1.384,0,0,1-65.7-37.107Zm-.842-2.055h1.6a.81.81,0,0,0-.793-.616A.84.84,0,0,0-66.543-39.162Zm5.074.342.872-1.1a.35.35,0,0,0-.055-.494.357.357,0,0,0-.5.055l-.774.976-.768-.976a.357.357,0,0,0-.5-.055.35.35,0,0,0-.055.494l.872,1.1-.872,1.11a.35.35,0,0,0,.055.494.348.348,0,0,0,.22.079.374.374,0,0,0,.281-.134l.768-.976.774.976a.374.374,0,0,0,.281.134.348.348,0,0,0,.22-.079.35.35,0,0,0,.055-.494Zm4.647-1.677a.354.354,0,0,0-.348.274,1.573,1.573,0,0,0-.9-.274,1.537,1.537,0,0,0-1.159.506,1.733,1.733,0,0,0-.439,1.177,1.729,1.729,0,0,0,.439,1.171,1.537,1.537,0,0,0,1.159.506,1.573,1.573,0,0,0,.9-.274.354.354,0,0,0,.348.274.354.354,0,0,0,.354-.354v-2.653A.354.354,0,0,0-56.822-40.5Zm-1.244,2.653a.9.9,0,0,1-.89-.97.9.9,0,0,1,.89-.976.906.906,0,0,1,.89.976A.9.9,0,0,1-58.066-37.844Z" transform="translate(121.438 314.821)"/><path class="c" d="M-68.4-6.815l.144-.786H-68.4l-.109.666-.126-.666h-.159l-.128.666-.1-.666h-.149l.142.786h.19l.123-.626.119.626ZM-67.483-7l.049.182h.159l-.243-.786H-67.7l-.244.786h.156L-67.743-7Zm-.031-.114h-.2l.1-.375Zm.792.173V-7.6h-.15v.786h.448l.017-.123Zm.891,0V-7.6h-.15v.786h.448l.017-.123Zm1.181-.551.016-.111h-.456v.786h.46v-.113h-.31v-.231h.252V-7.27h-.252V-7.49Zm.968.008.016-.119h-.583v.119h.211v.666h.151v-.666Zm1.276.351.174.315h.173l-.206-.342a.212.212,0,0,0,.159-.213c0-.156-.106-.231-.312-.231h-.234v.786h.15V-7.13Zm-.1-.108v-.254h.081c.109,0,.158.036.158.122s-.052.132-.146.132Zm1.3-.251.016-.111h-.456v.786h.46v-.113h-.31v-.231h.252V-7.27h-.252V-7.49Zm.672-.111h-.193v.786h.214a.348.348,0,0,0,.382-.4C-60.126-7.537-60.321-7.6-60.528-7.6Zm-.043.113h.069c.116,0,.218.04.218.276s-.1.284-.214.284h-.074Zm1.054.673V-7.6h-.151v.786Zm.929-.674.016-.111h-.445v.786h.15v-.327h.242v-.111h-.242V-7.49Zm.595.674V-7.6h-.151v.786Zm1.08,0V-7.6h-.136v.368a1.944,1.944,0,0,0,.02.268L-57.3-7.6h-.19v.786h.136v-.321a2.5,2.5,0,0,0-.02-.315l.269.636Zm.94-.674.016-.111h-.456v.786h.46v-.113h-.31v-.231h.252V-7.27h-.252V-7.49ZM-55.3-7.6h-.193v.786h.214a.348.348,0,0,0,.382-.4C-54.9-7.537-55.095-7.6-55.3-7.6Zm-.043.113h.069c.116,0,.218.04.218.276s-.1.284-.214.284h-.074Z" transform="translate(119.768 286.358)"/><path class="d" d="M392.683,375.754,379.41,372.2a1.727,1.727,0,0,0-1.668.447l-9.716,9.716a1.727,1.727,0,0,0-.447,1.668l3.556,13.273a1.727,1.727,0,0,0,1.221,1.221l13.273,3.556a1.727,1.727,0,0,0,1.668-.447l9.716-9.716a1.727,1.727,0,0,0,.447-1.668L393.9,376.975A1.727,1.727,0,0,0,392.683,375.754Z" transform="translate(-324.781 -110.401)"/><g transform="translate(45.185 264.184)"><path class="e" d="M388.577,375.164l-11.107-2.976a1.445,1.445,0,0,0-1.4.374l-8.131,8.131a1.445,1.445,0,0,0-.374,1.4l2.976,11.107a1.445,1.445,0,0,0,1.022,1.022l11.107,2.976a1.445,1.445,0,0,0,1.4-.374l8.131-8.131a1.445,1.445,0,0,0,.374-1.4L389.6,376.186A1.445,1.445,0,0,0,388.577,375.164Z" transform="translate(-367.705 -372.323)"/><g transform="translate(11.532 9.07)"><g transform="translate(-1.88 -1.903)"><path class="a" d="M459.939,535.377v3.485a.4.4,0,0,1-.4.4.4.4,0,0,1-.4-.4v-3.485a1.943,1.943,0,1,0-3.873,0v3.485a.4.4,0,0,1-.4.4.4.4,0,0,1-.4-.4v-8.047a.4.4,0,0,1,.4-.4.4.4,0,0,1,.4.4V533.3a2.674,2.674,0,0,1,1.943-.8A2.752,2.752,0,0,1,459.939,535.377Z" transform="translate(-454.461 -530.413)"/></g></g></g></g></g></svg>