<svg xmlns="http://www.w3.org/2000/svg" width="18.936" height="8.292" viewBox="0 0 18.936 8.292"><defs><style>.a{fill:#b7b7b7;}</style></defs><g transform="translate(3708 17338.999)"><path class="a" d="M2.8-8.22A3.159,3.159,0,0,0,.18-6.9l.948.744a1.883,1.883,0,0,1,1.548-.852A1.087,1.087,0,0,1,3.84-5.832c0,1.14-.672,1.9-3.432,4.7V0H5.436L5.6-1.212H2.148c2.5-2.376,3.276-3.372,3.276-4.74A2.337,2.337,0,0,0,2.8-8.22Zm9.144,1.1.168-1.176H7.416V0H9V-3.456h2.556V-4.632H9V-7.116Zm4.98,5.2L17.436,0h1.68L16.548-8.292H14.592L12.012,0h1.644l.516-1.92ZM16.6-3.12H14.484L15.54-7.08Z" transform="translate(-3708.18 -17330.707)"/></g></svg>