<svg xmlns="http://www.w3.org/2000/svg" width="40.79" height="43.112" viewBox="0 0 40.79 43.112"><defs><style>.a{fill:#37a0da;fill-rule:evenodd;}.b{fill:#fff;stroke:#37a0da;stroke-width:0.5px;}</style></defs><g transform="translate(-26 -266)"><path class="a" d="M-281.973-179.322h-12.265a5.683,5.683,0,0,0-4.922,2.842l-6.132,10.622a5.684,5.684,0,0,0,0,5.683l6.132,10.622a5.683,5.683,0,0,0,4.922,2.842h12.265a5.683,5.683,0,0,0,4.922-2.842l6.132-10.622a5.683,5.683,0,0,0,0-5.683l-6.132-10.622A5.683,5.683,0,0,0-281.973-179.322Z" transform="matrix(-0.259, -0.966, 0.966, -0.259, 129.29, -32.924)"/><g transform="translate(3724 -12440)"><path class="b" d="M1.959,11.755A1.965,1.965,0,0,1,0,9.8V1.959A1.965,1.965,0,0,1,1.959,0H13.715a1.965,1.965,0,0,1,1.959,1.959V9.8a1.965,1.965,0,0,1-1.959,1.959Zm0-1.959H13.715V5.878H1.959Zm0-5.877H13.715V1.959H1.959Zm3.919,4.9H4.9a.979.979,0,1,1,0-1.959H6.857a.979.979,0,1,1,0,1.959Z" transform="translate(-3685.5 12722.5)"/></g></g></svg>