<svg xmlns="http://www.w3.org/2000/svg" width="40.79" height="43.112" viewBox="0 0 40.79 43.112"><defs><style>.a{fill:#705ba8;fill-rule:evenodd;}.b{fill:#fff;stroke:#705ba8;stroke-width:0.5px;}</style></defs><g transform="translate(-26 -403)"><path class="a" d="M-281.973-179.322h-12.265a5.683,5.683,0,0,0-4.922,2.842l-6.132,10.622a5.684,5.684,0,0,0,0,5.683l6.132,10.622a5.683,5.683,0,0,0,4.922,2.842h12.265a5.683,5.683,0,0,0,4.922-2.842l6.132-10.622a5.683,5.683,0,0,0,0-5.683l-6.132-10.622A5.683,5.683,0,0,0-281.973-179.322Z" transform="matrix(-0.259, -0.966, 0.966, -0.259, 129.29, 104.076)"/><path class="b" d="M160,552a8,8,0,1,1,8,8A8.01,8.01,0,0,1,160,552Zm2,0a6,6,0,1,0,6-6A6,6,0,0,0,162,552Zm5,3v-2.278a2,2,0,1,1,2,0V555Z" transform="translate(-122 -127)"/></g></svg>