<svg xmlns="http://www.w3.org/2000/svg" xmlns:xlink="http://www.w3.org/1999/xlink" width="97.715" height="100.718" viewBox="0 0 97.715 100.718"><defs><style>.a{fill:#1378b7;fill-rule:evenodd;}.b{fill:#fff;}.c{filter:url(#a);}</style><filter id="a" x="0" y="0" width="97.715" height="100.718" filterUnits="userSpaceOnUse"><feOffset input="SourceAlpha"/><feGaussianBlur stdDeviation="7.5" result="b"/><feFlood flood-opacity="0.161"/><feComposite operator="in" in2="b"/><feComposite in="SourceGraphic"/></filter></defs><g transform="translate(-286.537 -635.197)"><g class="c" transform="matrix(1, 0, 0, 1, 286.54, 635.2)"><path class="a" d="M-274.932-179.322h-15.851a7.345,7.345,0,0,0-6.361,3.673l-7.925,13.727a7.345,7.345,0,0,0,0,7.345l7.925,13.727a7.345,7.345,0,0,0,6.361,3.673h15.851a7.345,7.345,0,0,0,6.361-3.673l7.925-13.727a7.345,7.345,0,0,0,0-7.345l-7.925-13.727A7.345,7.345,0,0,0-274.932-179.322Z" transform="matrix(-0.26, -0.97, 0.97, -0.26, 128.51, -263.82)"/></g><path class="b" d="M551.033,713.042v6.028a1,1,0,0,0,2.009,0v-6.028h6.028a1,1,0,1,0,0-2.009h-6.028V705a1,1,0,0,0-2.009,0v6.028H545a1,1,0,1,0,0,2.009Z" transform="translate(-217.025 -26.027)"/></g></svg>